G04 #@! TF.GenerationSoftware,KiCad,Pcbnew,(5.1.5)-3*
G04 #@! TF.CreationDate,2020-01-27T13:06:47+05:00*
G04 #@! TF.ProjectId,dimmer,64696d6d-6572-42e6-9b69-6361645f7063,0.1*
G04 #@! TF.SameCoordinates,Original*
G04 #@! TF.FileFunction,Soldermask,Top*
G04 #@! TF.FilePolarity,Negative*
%FSLAX46Y46*%
G04 Gerber Fmt 4.6, Leading zero omitted, Abs format (unit mm)*
G04 Created by KiCad (PCBNEW (5.1.5)-3) date 2020-01-27 13:06:47*
%MOMM*%
%LPD*%
G04 APERTURE LIST*
%ADD10C,0.100000*%
G04 APERTURE END LIST*
D10*
G36*
X185668228Y-99511703D02*
G01*
X185823100Y-99575853D01*
X185962481Y-99668985D01*
X186081015Y-99787519D01*
X186174147Y-99926900D01*
X186238297Y-100081772D01*
X186271000Y-100246184D01*
X186271000Y-100413816D01*
X186238297Y-100578228D01*
X186174147Y-100733100D01*
X186081015Y-100872481D01*
X185962481Y-100991015D01*
X185823100Y-101084147D01*
X185668228Y-101148297D01*
X185503816Y-101181000D01*
X185336184Y-101181000D01*
X185171772Y-101148297D01*
X185016900Y-101084147D01*
X184877519Y-100991015D01*
X184758985Y-100872481D01*
X184665853Y-100733100D01*
X184601703Y-100578228D01*
X184569000Y-100413816D01*
X184569000Y-100246184D01*
X184601703Y-100081772D01*
X184665853Y-99926900D01*
X184758985Y-99787519D01*
X184877519Y-99668985D01*
X185016900Y-99575853D01*
X185171772Y-99511703D01*
X185336184Y-99479000D01*
X185503816Y-99479000D01*
X185668228Y-99511703D01*
G37*
G36*
X134278823Y-97567313D02*
G01*
X134439242Y-97615976D01*
X134571906Y-97686886D01*
X134587078Y-97694996D01*
X134716659Y-97801341D01*
X134823004Y-97930922D01*
X134823005Y-97930924D01*
X134902024Y-98078758D01*
X134950687Y-98239178D01*
X134963000Y-98364197D01*
X134963000Y-99247804D01*
X134950687Y-99372823D01*
X134902024Y-99533242D01*
X134887642Y-99560148D01*
X134823004Y-99681078D01*
X134801730Y-99707000D01*
X134716659Y-99810659D01*
X134587077Y-99917005D01*
X134439241Y-99996024D01*
X134278822Y-100044687D01*
X134112000Y-100061117D01*
X133945177Y-100044687D01*
X133784758Y-99996024D01*
X133636924Y-99917005D01*
X133636922Y-99917004D01*
X133507341Y-99810659D01*
X133488351Y-99787520D01*
X133400995Y-99681077D01*
X133321976Y-99533241D01*
X133273313Y-99372822D01*
X133261000Y-99247803D01*
X133261000Y-98364197D01*
X133273314Y-98239177D01*
X133321977Y-98078758D01*
X133400996Y-97930924D01*
X133400997Y-97930922D01*
X133507342Y-97801341D01*
X133636923Y-97694996D01*
X133652095Y-97686886D01*
X133784759Y-97615976D01*
X133945178Y-97567313D01*
X134112000Y-97550883D01*
X134278823Y-97567313D01*
G37*
G36*
X157138823Y-97567313D02*
G01*
X157299242Y-97615976D01*
X157431906Y-97686886D01*
X157447078Y-97694996D01*
X157576659Y-97801341D01*
X157683004Y-97930922D01*
X157683005Y-97930924D01*
X157762024Y-98078758D01*
X157810687Y-98239178D01*
X157823000Y-98364197D01*
X157823000Y-99247804D01*
X157810687Y-99372823D01*
X157762024Y-99533242D01*
X157747642Y-99560148D01*
X157683004Y-99681078D01*
X157661730Y-99707000D01*
X157576659Y-99810659D01*
X157447077Y-99917005D01*
X157299241Y-99996024D01*
X157138822Y-100044687D01*
X156972000Y-100061117D01*
X156805177Y-100044687D01*
X156644758Y-99996024D01*
X156496924Y-99917005D01*
X156496922Y-99917004D01*
X156367341Y-99810659D01*
X156348351Y-99787520D01*
X156260995Y-99681077D01*
X156181976Y-99533241D01*
X156133313Y-99372822D01*
X156121000Y-99247803D01*
X156121000Y-98364197D01*
X156133314Y-98239177D01*
X156181977Y-98078758D01*
X156260996Y-97930924D01*
X156260997Y-97930922D01*
X156367342Y-97801341D01*
X156496923Y-97694996D01*
X156512095Y-97686886D01*
X156644759Y-97615976D01*
X156805178Y-97567313D01*
X156972000Y-97550883D01*
X157138823Y-97567313D01*
G37*
G36*
X154598823Y-97567313D02*
G01*
X154759242Y-97615976D01*
X154891906Y-97686886D01*
X154907078Y-97694996D01*
X155036659Y-97801341D01*
X155143004Y-97930922D01*
X155143005Y-97930924D01*
X155222024Y-98078758D01*
X155270687Y-98239178D01*
X155283000Y-98364197D01*
X155283000Y-99247804D01*
X155270687Y-99372823D01*
X155222024Y-99533242D01*
X155207642Y-99560148D01*
X155143004Y-99681078D01*
X155121730Y-99707000D01*
X155036659Y-99810659D01*
X154907077Y-99917005D01*
X154759241Y-99996024D01*
X154598822Y-100044687D01*
X154432000Y-100061117D01*
X154265177Y-100044687D01*
X154104758Y-99996024D01*
X153956924Y-99917005D01*
X153956922Y-99917004D01*
X153827341Y-99810659D01*
X153808351Y-99787520D01*
X153720995Y-99681077D01*
X153641976Y-99533241D01*
X153593313Y-99372822D01*
X153581000Y-99247803D01*
X153581000Y-98364197D01*
X153593314Y-98239177D01*
X153641977Y-98078758D01*
X153720996Y-97930924D01*
X153720997Y-97930922D01*
X153827342Y-97801341D01*
X153956923Y-97694996D01*
X153972095Y-97686886D01*
X154104759Y-97615976D01*
X154265178Y-97567313D01*
X154432000Y-97550883D01*
X154598823Y-97567313D01*
G37*
G36*
X152058823Y-97567313D02*
G01*
X152219242Y-97615976D01*
X152351906Y-97686886D01*
X152367078Y-97694996D01*
X152496659Y-97801341D01*
X152603004Y-97930922D01*
X152603005Y-97930924D01*
X152682024Y-98078758D01*
X152730687Y-98239178D01*
X152743000Y-98364197D01*
X152743000Y-99247804D01*
X152730687Y-99372823D01*
X152682024Y-99533242D01*
X152667642Y-99560148D01*
X152603004Y-99681078D01*
X152581730Y-99707000D01*
X152496659Y-99810659D01*
X152367077Y-99917005D01*
X152219241Y-99996024D01*
X152058822Y-100044687D01*
X151892000Y-100061117D01*
X151725177Y-100044687D01*
X151564758Y-99996024D01*
X151416924Y-99917005D01*
X151416922Y-99917004D01*
X151287341Y-99810659D01*
X151268351Y-99787520D01*
X151180995Y-99681077D01*
X151101976Y-99533241D01*
X151053313Y-99372822D01*
X151041000Y-99247803D01*
X151041000Y-98364197D01*
X151053314Y-98239177D01*
X151101977Y-98078758D01*
X151180996Y-97930924D01*
X151180997Y-97930922D01*
X151287342Y-97801341D01*
X151416923Y-97694996D01*
X151432095Y-97686886D01*
X151564759Y-97615976D01*
X151725178Y-97567313D01*
X151892000Y-97550883D01*
X152058823Y-97567313D01*
G37*
G36*
X149518823Y-97567313D02*
G01*
X149679242Y-97615976D01*
X149811906Y-97686886D01*
X149827078Y-97694996D01*
X149956659Y-97801341D01*
X150063004Y-97930922D01*
X150063005Y-97930924D01*
X150142024Y-98078758D01*
X150190687Y-98239178D01*
X150203000Y-98364197D01*
X150203000Y-99247804D01*
X150190687Y-99372823D01*
X150142024Y-99533242D01*
X150127642Y-99560148D01*
X150063004Y-99681078D01*
X150041730Y-99707000D01*
X149956659Y-99810659D01*
X149827077Y-99917005D01*
X149679241Y-99996024D01*
X149518822Y-100044687D01*
X149352000Y-100061117D01*
X149185177Y-100044687D01*
X149024758Y-99996024D01*
X148876924Y-99917005D01*
X148876922Y-99917004D01*
X148747341Y-99810659D01*
X148728351Y-99787520D01*
X148640995Y-99681077D01*
X148561976Y-99533241D01*
X148513313Y-99372822D01*
X148501000Y-99247803D01*
X148501000Y-98364197D01*
X148513314Y-98239177D01*
X148561977Y-98078758D01*
X148640996Y-97930924D01*
X148640997Y-97930922D01*
X148747342Y-97801341D01*
X148876923Y-97694996D01*
X148892095Y-97686886D01*
X149024759Y-97615976D01*
X149185178Y-97567313D01*
X149352000Y-97550883D01*
X149518823Y-97567313D01*
G37*
G36*
X144438823Y-97567313D02*
G01*
X144599242Y-97615976D01*
X144731906Y-97686886D01*
X144747078Y-97694996D01*
X144876659Y-97801341D01*
X144983004Y-97930922D01*
X144983005Y-97930924D01*
X145062024Y-98078758D01*
X145110687Y-98239178D01*
X145123000Y-98364197D01*
X145123000Y-99247804D01*
X145110687Y-99372823D01*
X145062024Y-99533242D01*
X145047642Y-99560148D01*
X144983004Y-99681078D01*
X144961730Y-99707000D01*
X144876659Y-99810659D01*
X144747077Y-99917005D01*
X144599241Y-99996024D01*
X144438822Y-100044687D01*
X144272000Y-100061117D01*
X144105177Y-100044687D01*
X143944758Y-99996024D01*
X143796924Y-99917005D01*
X143796922Y-99917004D01*
X143667341Y-99810659D01*
X143648351Y-99787520D01*
X143560995Y-99681077D01*
X143481976Y-99533241D01*
X143433313Y-99372822D01*
X143421000Y-99247803D01*
X143421000Y-98364197D01*
X143433314Y-98239177D01*
X143481977Y-98078758D01*
X143560996Y-97930924D01*
X143560997Y-97930922D01*
X143667342Y-97801341D01*
X143796923Y-97694996D01*
X143812095Y-97686886D01*
X143944759Y-97615976D01*
X144105178Y-97567313D01*
X144272000Y-97550883D01*
X144438823Y-97567313D01*
G37*
G36*
X141898823Y-97567313D02*
G01*
X142059242Y-97615976D01*
X142191906Y-97686886D01*
X142207078Y-97694996D01*
X142336659Y-97801341D01*
X142443004Y-97930922D01*
X142443005Y-97930924D01*
X142522024Y-98078758D01*
X142570687Y-98239178D01*
X142583000Y-98364197D01*
X142583000Y-99247804D01*
X142570687Y-99372823D01*
X142522024Y-99533242D01*
X142507642Y-99560148D01*
X142443004Y-99681078D01*
X142421730Y-99707000D01*
X142336659Y-99810659D01*
X142207077Y-99917005D01*
X142059241Y-99996024D01*
X141898822Y-100044687D01*
X141732000Y-100061117D01*
X141565177Y-100044687D01*
X141404758Y-99996024D01*
X141256924Y-99917005D01*
X141256922Y-99917004D01*
X141127341Y-99810659D01*
X141108351Y-99787520D01*
X141020995Y-99681077D01*
X140941976Y-99533241D01*
X140893313Y-99372822D01*
X140881000Y-99247803D01*
X140881000Y-98364197D01*
X140893314Y-98239177D01*
X140941977Y-98078758D01*
X141020996Y-97930924D01*
X141020997Y-97930922D01*
X141127342Y-97801341D01*
X141256923Y-97694996D01*
X141272095Y-97686886D01*
X141404759Y-97615976D01*
X141565178Y-97567313D01*
X141732000Y-97550883D01*
X141898823Y-97567313D01*
G37*
G36*
X139358823Y-97567313D02*
G01*
X139519242Y-97615976D01*
X139651906Y-97686886D01*
X139667078Y-97694996D01*
X139796659Y-97801341D01*
X139903004Y-97930922D01*
X139903005Y-97930924D01*
X139982024Y-98078758D01*
X140030687Y-98239178D01*
X140043000Y-98364197D01*
X140043000Y-99247804D01*
X140030687Y-99372823D01*
X139982024Y-99533242D01*
X139967642Y-99560148D01*
X139903004Y-99681078D01*
X139881730Y-99707000D01*
X139796659Y-99810659D01*
X139667077Y-99917005D01*
X139519241Y-99996024D01*
X139358822Y-100044687D01*
X139192000Y-100061117D01*
X139025177Y-100044687D01*
X138864758Y-99996024D01*
X138716924Y-99917005D01*
X138716922Y-99917004D01*
X138587341Y-99810659D01*
X138568351Y-99787520D01*
X138480995Y-99681077D01*
X138401976Y-99533241D01*
X138353313Y-99372822D01*
X138341000Y-99247803D01*
X138341000Y-98364197D01*
X138353314Y-98239177D01*
X138401977Y-98078758D01*
X138480996Y-97930924D01*
X138480997Y-97930922D01*
X138587342Y-97801341D01*
X138716923Y-97694996D01*
X138732095Y-97686886D01*
X138864759Y-97615976D01*
X139025178Y-97567313D01*
X139192000Y-97550883D01*
X139358823Y-97567313D01*
G37*
G36*
X136818823Y-97567313D02*
G01*
X136979242Y-97615976D01*
X137111906Y-97686886D01*
X137127078Y-97694996D01*
X137256659Y-97801341D01*
X137363004Y-97930922D01*
X137363005Y-97930924D01*
X137442024Y-98078758D01*
X137490687Y-98239178D01*
X137503000Y-98364197D01*
X137503000Y-99247804D01*
X137490687Y-99372823D01*
X137442024Y-99533242D01*
X137427642Y-99560148D01*
X137363004Y-99681078D01*
X137341730Y-99707000D01*
X137256659Y-99810659D01*
X137127077Y-99917005D01*
X136979241Y-99996024D01*
X136818822Y-100044687D01*
X136652000Y-100061117D01*
X136485177Y-100044687D01*
X136324758Y-99996024D01*
X136176924Y-99917005D01*
X136176922Y-99917004D01*
X136047341Y-99810659D01*
X136028351Y-99787520D01*
X135940995Y-99681077D01*
X135861976Y-99533241D01*
X135813313Y-99372822D01*
X135801000Y-99247803D01*
X135801000Y-98364197D01*
X135813314Y-98239177D01*
X135861977Y-98078758D01*
X135940996Y-97930924D01*
X135940997Y-97930922D01*
X136047342Y-97801341D01*
X136176923Y-97694996D01*
X136192095Y-97686886D01*
X136324759Y-97615976D01*
X136485178Y-97567313D01*
X136652000Y-97550883D01*
X136818823Y-97567313D01*
G37*
G36*
X146978823Y-97567313D02*
G01*
X147139242Y-97615976D01*
X147271906Y-97686886D01*
X147287078Y-97694996D01*
X147416659Y-97801341D01*
X147523004Y-97930922D01*
X147523005Y-97930924D01*
X147602024Y-98078758D01*
X147650687Y-98239178D01*
X147663000Y-98364197D01*
X147663000Y-99247804D01*
X147650687Y-99372823D01*
X147602024Y-99533242D01*
X147587642Y-99560148D01*
X147523004Y-99681078D01*
X147501730Y-99707000D01*
X147416659Y-99810659D01*
X147287077Y-99917005D01*
X147139241Y-99996024D01*
X146978822Y-100044687D01*
X146812000Y-100061117D01*
X146645177Y-100044687D01*
X146484758Y-99996024D01*
X146336924Y-99917005D01*
X146336922Y-99917004D01*
X146207341Y-99810659D01*
X146188351Y-99787520D01*
X146100995Y-99681077D01*
X146021976Y-99533241D01*
X145973313Y-99372822D01*
X145961000Y-99247803D01*
X145961000Y-98364197D01*
X145973314Y-98239177D01*
X146021977Y-98078758D01*
X146100996Y-97930924D01*
X146100997Y-97930922D01*
X146207342Y-97801341D01*
X146336923Y-97694996D01*
X146352095Y-97686886D01*
X146484759Y-97615976D01*
X146645178Y-97567313D01*
X146812000Y-97550883D01*
X146978823Y-97567313D01*
G37*
G36*
X128891512Y-97909927D02*
G01*
X129040812Y-97939624D01*
X129204784Y-98007544D01*
X129352354Y-98106147D01*
X129477853Y-98231646D01*
X129576456Y-98379216D01*
X129644376Y-98543188D01*
X129679000Y-98717259D01*
X129679000Y-98894741D01*
X129644376Y-99068812D01*
X129576456Y-99232784D01*
X129477853Y-99380354D01*
X129352354Y-99505853D01*
X129204784Y-99604456D01*
X129040812Y-99672376D01*
X128891512Y-99702073D01*
X128866742Y-99707000D01*
X128689258Y-99707000D01*
X128664488Y-99702073D01*
X128515188Y-99672376D01*
X128351216Y-99604456D01*
X128203646Y-99505853D01*
X128078147Y-99380354D01*
X127979544Y-99232784D01*
X127911624Y-99068812D01*
X127877000Y-98894741D01*
X127877000Y-98717259D01*
X127911624Y-98543188D01*
X127979544Y-98379216D01*
X128078147Y-98231646D01*
X128203646Y-98106147D01*
X128351216Y-98007544D01*
X128515188Y-97939624D01*
X128664488Y-97909927D01*
X128689258Y-97905000D01*
X128866742Y-97905000D01*
X128891512Y-97909927D01*
G37*
G36*
X126351512Y-97909927D02*
G01*
X126500812Y-97939624D01*
X126664784Y-98007544D01*
X126812354Y-98106147D01*
X126937853Y-98231646D01*
X127036456Y-98379216D01*
X127104376Y-98543188D01*
X127139000Y-98717259D01*
X127139000Y-98894741D01*
X127104376Y-99068812D01*
X127036456Y-99232784D01*
X126937853Y-99380354D01*
X126812354Y-99505853D01*
X126664784Y-99604456D01*
X126500812Y-99672376D01*
X126351512Y-99702073D01*
X126326742Y-99707000D01*
X126149258Y-99707000D01*
X126124488Y-99702073D01*
X125975188Y-99672376D01*
X125811216Y-99604456D01*
X125663646Y-99505853D01*
X125538147Y-99380354D01*
X125439544Y-99232784D01*
X125371624Y-99068812D01*
X125337000Y-98894741D01*
X125337000Y-98717259D01*
X125371624Y-98543188D01*
X125439544Y-98379216D01*
X125538147Y-98231646D01*
X125663646Y-98106147D01*
X125811216Y-98007544D01*
X125975188Y-97939624D01*
X126124488Y-97909927D01*
X126149258Y-97905000D01*
X126326742Y-97905000D01*
X126351512Y-97909927D01*
G37*
G36*
X162046228Y-97987703D02*
G01*
X162201100Y-98051853D01*
X162340481Y-98144985D01*
X162459015Y-98263519D01*
X162552147Y-98402900D01*
X162616297Y-98557772D01*
X162649000Y-98722184D01*
X162649000Y-98889816D01*
X162616297Y-99054228D01*
X162552147Y-99209100D01*
X162459015Y-99348481D01*
X162340481Y-99467015D01*
X162201100Y-99560147D01*
X162046228Y-99624297D01*
X161881816Y-99657000D01*
X161714184Y-99657000D01*
X161549772Y-99624297D01*
X161394900Y-99560147D01*
X161255519Y-99467015D01*
X161136985Y-99348481D01*
X161043853Y-99209100D01*
X160979703Y-99054228D01*
X160947000Y-98889816D01*
X160947000Y-98722184D01*
X160979703Y-98557772D01*
X161043853Y-98402900D01*
X161136985Y-98263519D01*
X161255519Y-98144985D01*
X161394900Y-98051853D01*
X161549772Y-97987703D01*
X161714184Y-97955000D01*
X161881816Y-97955000D01*
X162046228Y-97987703D01*
G37*
G36*
X165348228Y-97987703D02*
G01*
X165503100Y-98051853D01*
X165642481Y-98144985D01*
X165761015Y-98263519D01*
X165854147Y-98402900D01*
X165918297Y-98557772D01*
X165951000Y-98722184D01*
X165951000Y-98889816D01*
X165918297Y-99054228D01*
X165854147Y-99209100D01*
X165761015Y-99348481D01*
X165642481Y-99467015D01*
X165503100Y-99560147D01*
X165348228Y-99624297D01*
X165183816Y-99657000D01*
X165016184Y-99657000D01*
X164851772Y-99624297D01*
X164696900Y-99560147D01*
X164557519Y-99467015D01*
X164438985Y-99348481D01*
X164345853Y-99209100D01*
X164281703Y-99054228D01*
X164249000Y-98889816D01*
X164249000Y-98722184D01*
X164281703Y-98557772D01*
X164345853Y-98402900D01*
X164438985Y-98263519D01*
X164557519Y-98144985D01*
X164696900Y-98051853D01*
X164851772Y-97987703D01*
X165016184Y-97955000D01*
X165183816Y-97955000D01*
X165348228Y-97987703D01*
G37*
G36*
X170746823Y-96697313D02*
G01*
X170907242Y-96745976D01*
X170974361Y-96781852D01*
X171055078Y-96824996D01*
X171184659Y-96931341D01*
X171291004Y-97060922D01*
X171291005Y-97060924D01*
X171370024Y-97208758D01*
X171418687Y-97369177D01*
X171435117Y-97536000D01*
X171418687Y-97702823D01*
X171370024Y-97863242D01*
X171329477Y-97939100D01*
X171291004Y-98011078D01*
X171184659Y-98140659D01*
X171055078Y-98247004D01*
X171055076Y-98247005D01*
X170907242Y-98326024D01*
X170746823Y-98374687D01*
X170621804Y-98387000D01*
X169738196Y-98387000D01*
X169613177Y-98374687D01*
X169452758Y-98326024D01*
X169304924Y-98247005D01*
X169304922Y-98247004D01*
X169175341Y-98140659D01*
X169068996Y-98011078D01*
X169030523Y-97939100D01*
X168989976Y-97863242D01*
X168941313Y-97702823D01*
X168924883Y-97536000D01*
X168941313Y-97369177D01*
X168989976Y-97208758D01*
X169068995Y-97060924D01*
X169068996Y-97060922D01*
X169175341Y-96931341D01*
X169304922Y-96824996D01*
X169385639Y-96781852D01*
X169452758Y-96745976D01*
X169613177Y-96697313D01*
X169738196Y-96685000D01*
X170621804Y-96685000D01*
X170746823Y-96697313D01*
G37*
G36*
X179051000Y-98387000D02*
G01*
X176549000Y-98387000D01*
X176549000Y-96685000D01*
X179051000Y-96685000D01*
X179051000Y-98387000D01*
G37*
G36*
X182366228Y-96717703D02*
G01*
X182521100Y-96781853D01*
X182660481Y-96874985D01*
X182779015Y-96993519D01*
X182872147Y-97132900D01*
X182936297Y-97287772D01*
X182969000Y-97452184D01*
X182969000Y-97619816D01*
X182936297Y-97784228D01*
X182872147Y-97939100D01*
X182779015Y-98078481D01*
X182660481Y-98197015D01*
X182521100Y-98290147D01*
X182366228Y-98354297D01*
X182201816Y-98387000D01*
X182034184Y-98387000D01*
X181869772Y-98354297D01*
X181714900Y-98290147D01*
X181575519Y-98197015D01*
X181456985Y-98078481D01*
X181363853Y-97939100D01*
X181299703Y-97784228D01*
X181267000Y-97619816D01*
X181267000Y-97452184D01*
X181299703Y-97287772D01*
X181363853Y-97132900D01*
X181456985Y-96993519D01*
X181575519Y-96874985D01*
X181714900Y-96781853D01*
X181869772Y-96717703D01*
X182034184Y-96685000D01*
X182201816Y-96685000D01*
X182366228Y-96717703D01*
G37*
G36*
X126351512Y-95369927D02*
G01*
X126500812Y-95399624D01*
X126664784Y-95467544D01*
X126812354Y-95566147D01*
X126937853Y-95691646D01*
X127036456Y-95839216D01*
X127104376Y-96003188D01*
X127139000Y-96177259D01*
X127139000Y-96354741D01*
X127104376Y-96528812D01*
X127036456Y-96692784D01*
X126937853Y-96840354D01*
X126812354Y-96965853D01*
X126664784Y-97064456D01*
X126500812Y-97132376D01*
X126351512Y-97162073D01*
X126326742Y-97167000D01*
X126149258Y-97167000D01*
X126124488Y-97162073D01*
X125975188Y-97132376D01*
X125811216Y-97064456D01*
X125663646Y-96965853D01*
X125538147Y-96840354D01*
X125439544Y-96692784D01*
X125371624Y-96528812D01*
X125337000Y-96354741D01*
X125337000Y-96177259D01*
X125371624Y-96003188D01*
X125439544Y-95839216D01*
X125538147Y-95691646D01*
X125663646Y-95566147D01*
X125811216Y-95467544D01*
X125975188Y-95399624D01*
X126124488Y-95369927D01*
X126149258Y-95365000D01*
X126326742Y-95365000D01*
X126351512Y-95369927D01*
G37*
G36*
X128891512Y-95369927D02*
G01*
X129040812Y-95399624D01*
X129204784Y-95467544D01*
X129352354Y-95566147D01*
X129477853Y-95691646D01*
X129576456Y-95839216D01*
X129644376Y-96003188D01*
X129679000Y-96177259D01*
X129679000Y-96354741D01*
X129644376Y-96528812D01*
X129576456Y-96692784D01*
X129477853Y-96840354D01*
X129352354Y-96965853D01*
X129204784Y-97064456D01*
X129040812Y-97132376D01*
X128891512Y-97162073D01*
X128866742Y-97167000D01*
X128689258Y-97167000D01*
X128664488Y-97162073D01*
X128515188Y-97132376D01*
X128351216Y-97064456D01*
X128203646Y-96965853D01*
X128078147Y-96840354D01*
X127979544Y-96692784D01*
X127911624Y-96528812D01*
X127877000Y-96354741D01*
X127877000Y-96177259D01*
X127911624Y-96003188D01*
X127979544Y-95839216D01*
X128078147Y-95691646D01*
X128203646Y-95566147D01*
X128351216Y-95467544D01*
X128515188Y-95399624D01*
X128664488Y-95369927D01*
X128689258Y-95365000D01*
X128866742Y-95365000D01*
X128891512Y-95369927D01*
G37*
G36*
X178366823Y-94157313D02*
G01*
X178527242Y-94205976D01*
X178659906Y-94276886D01*
X178675078Y-94284996D01*
X178804659Y-94391341D01*
X178911004Y-94520922D01*
X178911005Y-94520924D01*
X178990024Y-94668758D01*
X179038687Y-94829177D01*
X179055117Y-94996000D01*
X179038687Y-95162823D01*
X178990024Y-95323242D01*
X178949197Y-95399624D01*
X178911004Y-95471078D01*
X178804659Y-95600659D01*
X178675078Y-95707004D01*
X178675076Y-95707005D01*
X178527242Y-95786024D01*
X178366823Y-95834687D01*
X178241804Y-95847000D01*
X177358196Y-95847000D01*
X177233177Y-95834687D01*
X177072758Y-95786024D01*
X176924924Y-95707005D01*
X176924922Y-95707004D01*
X176795341Y-95600659D01*
X176688996Y-95471078D01*
X176650803Y-95399624D01*
X176609976Y-95323242D01*
X176561313Y-95162823D01*
X176544883Y-94996000D01*
X176561313Y-94829177D01*
X176609976Y-94668758D01*
X176688995Y-94520924D01*
X176688996Y-94520922D01*
X176795341Y-94391341D01*
X176924922Y-94284996D01*
X176940094Y-94276886D01*
X177072758Y-94205976D01*
X177233177Y-94157313D01*
X177358196Y-94145000D01*
X178241804Y-94145000D01*
X178366823Y-94157313D01*
G37*
G36*
X170746823Y-94157313D02*
G01*
X170907242Y-94205976D01*
X171039906Y-94276886D01*
X171055078Y-94284996D01*
X171184659Y-94391341D01*
X171291004Y-94520922D01*
X171291005Y-94520924D01*
X171370024Y-94668758D01*
X171418687Y-94829177D01*
X171435117Y-94996000D01*
X171418687Y-95162823D01*
X171370024Y-95323242D01*
X171329197Y-95399624D01*
X171291004Y-95471078D01*
X171184659Y-95600659D01*
X171055078Y-95707004D01*
X171055076Y-95707005D01*
X170907242Y-95786024D01*
X170746823Y-95834687D01*
X170621804Y-95847000D01*
X169738196Y-95847000D01*
X169613177Y-95834687D01*
X169452758Y-95786024D01*
X169304924Y-95707005D01*
X169304922Y-95707004D01*
X169175341Y-95600659D01*
X169068996Y-95471078D01*
X169030803Y-95399624D01*
X168989976Y-95323242D01*
X168941313Y-95162823D01*
X168924883Y-94996000D01*
X168941313Y-94829177D01*
X168989976Y-94668758D01*
X169068995Y-94520924D01*
X169068996Y-94520922D01*
X169175341Y-94391341D01*
X169304922Y-94284996D01*
X169320094Y-94276886D01*
X169452758Y-94205976D01*
X169613177Y-94157313D01*
X169738196Y-94145000D01*
X170621804Y-94145000D01*
X170746823Y-94157313D01*
G37*
G36*
X126351512Y-92829927D02*
G01*
X126500812Y-92859624D01*
X126664784Y-92927544D01*
X126812354Y-93026147D01*
X126937853Y-93151646D01*
X127036456Y-93299216D01*
X127104376Y-93463188D01*
X127139000Y-93637259D01*
X127139000Y-93814741D01*
X127104376Y-93988812D01*
X127036456Y-94152784D01*
X126937853Y-94300354D01*
X126812354Y-94425853D01*
X126664784Y-94524456D01*
X126500812Y-94592376D01*
X126351512Y-94622073D01*
X126326742Y-94627000D01*
X126149258Y-94627000D01*
X126124488Y-94622073D01*
X125975188Y-94592376D01*
X125811216Y-94524456D01*
X125663646Y-94425853D01*
X125538147Y-94300354D01*
X125439544Y-94152784D01*
X125371624Y-93988812D01*
X125337000Y-93814741D01*
X125337000Y-93637259D01*
X125371624Y-93463188D01*
X125439544Y-93299216D01*
X125538147Y-93151646D01*
X125663646Y-93026147D01*
X125811216Y-92927544D01*
X125975188Y-92859624D01*
X126124488Y-92829927D01*
X126149258Y-92825000D01*
X126326742Y-92825000D01*
X126351512Y-92829927D01*
G37*
G36*
X128891512Y-92829927D02*
G01*
X129040812Y-92859624D01*
X129204784Y-92927544D01*
X129352354Y-93026147D01*
X129477853Y-93151646D01*
X129576456Y-93299216D01*
X129644376Y-93463188D01*
X129679000Y-93637259D01*
X129679000Y-93814741D01*
X129644376Y-93988812D01*
X129576456Y-94152784D01*
X129477853Y-94300354D01*
X129352354Y-94425853D01*
X129204784Y-94524456D01*
X129040812Y-94592376D01*
X128891512Y-94622073D01*
X128866742Y-94627000D01*
X128689258Y-94627000D01*
X128664488Y-94622073D01*
X128515188Y-94592376D01*
X128351216Y-94524456D01*
X128203646Y-94425853D01*
X128078147Y-94300354D01*
X127979544Y-94152784D01*
X127911624Y-93988812D01*
X127877000Y-93814741D01*
X127877000Y-93637259D01*
X127911624Y-93463188D01*
X127979544Y-93299216D01*
X128078147Y-93151646D01*
X128203646Y-93026147D01*
X128351216Y-92927544D01*
X128515188Y-92859624D01*
X128664488Y-92829927D01*
X128689258Y-92825000D01*
X128866742Y-92825000D01*
X128891512Y-92829927D01*
G37*
G36*
X185668228Y-91891703D02*
G01*
X185823100Y-91955853D01*
X185962481Y-92048985D01*
X186081015Y-92167519D01*
X186174147Y-92306900D01*
X186238297Y-92461772D01*
X186271000Y-92626184D01*
X186271000Y-92793816D01*
X186238297Y-92958228D01*
X186174147Y-93113100D01*
X186081015Y-93252481D01*
X185962481Y-93371015D01*
X185823100Y-93464147D01*
X185668228Y-93528297D01*
X185503816Y-93561000D01*
X185336184Y-93561000D01*
X185171772Y-93528297D01*
X185016900Y-93464147D01*
X184877519Y-93371015D01*
X184758985Y-93252481D01*
X184665853Y-93113100D01*
X184601703Y-92958228D01*
X184569000Y-92793816D01*
X184569000Y-92626184D01*
X184601703Y-92461772D01*
X184665853Y-92306900D01*
X184758985Y-92167519D01*
X184877519Y-92048985D01*
X185016900Y-91955853D01*
X185171772Y-91891703D01*
X185336184Y-91859000D01*
X185503816Y-91859000D01*
X185668228Y-91891703D01*
G37*
G36*
X178366823Y-91617313D02*
G01*
X178527242Y-91665976D01*
X178659906Y-91736886D01*
X178675078Y-91744996D01*
X178804659Y-91851341D01*
X178911004Y-91980922D01*
X178911005Y-91980924D01*
X178990024Y-92128758D01*
X179038687Y-92289177D01*
X179055117Y-92456000D01*
X179038687Y-92622823D01*
X178990024Y-92783242D01*
X178967660Y-92825082D01*
X178911004Y-92931078D01*
X178804659Y-93060659D01*
X178675078Y-93167004D01*
X178675076Y-93167005D01*
X178527242Y-93246024D01*
X178366823Y-93294687D01*
X178241804Y-93307000D01*
X177358196Y-93307000D01*
X177233177Y-93294687D01*
X177072758Y-93246024D01*
X176924924Y-93167005D01*
X176924922Y-93167004D01*
X176795341Y-93060659D01*
X176688996Y-92931078D01*
X176632340Y-92825082D01*
X176609976Y-92783242D01*
X176561313Y-92622823D01*
X176544883Y-92456000D01*
X176561313Y-92289177D01*
X176609976Y-92128758D01*
X176688995Y-91980924D01*
X176688996Y-91980922D01*
X176795341Y-91851341D01*
X176924922Y-91744996D01*
X176940094Y-91736886D01*
X177072758Y-91665976D01*
X177233177Y-91617313D01*
X177358196Y-91605000D01*
X178241804Y-91605000D01*
X178366823Y-91617313D01*
G37*
G36*
X170746823Y-91617313D02*
G01*
X170907242Y-91665976D01*
X171039906Y-91736886D01*
X171055078Y-91744996D01*
X171184659Y-91851341D01*
X171291004Y-91980922D01*
X171291005Y-91980924D01*
X171370024Y-92128758D01*
X171418687Y-92289177D01*
X171435117Y-92456000D01*
X171418687Y-92622823D01*
X171370024Y-92783242D01*
X171347660Y-92825082D01*
X171291004Y-92931078D01*
X171184659Y-93060659D01*
X171055078Y-93167004D01*
X171055076Y-93167005D01*
X170907242Y-93246024D01*
X170746823Y-93294687D01*
X170621804Y-93307000D01*
X169738196Y-93307000D01*
X169613177Y-93294687D01*
X169452758Y-93246024D01*
X169304924Y-93167005D01*
X169304922Y-93167004D01*
X169175341Y-93060659D01*
X169068996Y-92931078D01*
X169012340Y-92825082D01*
X168989976Y-92783242D01*
X168941313Y-92622823D01*
X168924883Y-92456000D01*
X168941313Y-92289177D01*
X168989976Y-92128758D01*
X169068995Y-91980924D01*
X169068996Y-91980922D01*
X169175341Y-91851341D01*
X169304922Y-91744996D01*
X169320094Y-91736886D01*
X169452758Y-91665976D01*
X169613177Y-91617313D01*
X169738196Y-91605000D01*
X170621804Y-91605000D01*
X170746823Y-91617313D01*
G37*
G36*
X193688072Y-90226918D02*
G01*
X193911888Y-90319625D01*
X193933939Y-90328759D01*
X193943279Y-90335000D01*
X194155211Y-90476609D01*
X194343391Y-90664789D01*
X194389835Y-90734297D01*
X194422313Y-90782903D01*
X194491242Y-90886063D01*
X194593082Y-91131928D01*
X194645000Y-91392937D01*
X194645000Y-91659063D01*
X194593082Y-91920072D01*
X194523939Y-92087000D01*
X194491241Y-92165939D01*
X194416813Y-92277328D01*
X194343391Y-92387211D01*
X194155211Y-92575391D01*
X194045328Y-92648813D01*
X193933939Y-92723241D01*
X193933938Y-92723242D01*
X193933937Y-92723242D01*
X193688072Y-92825082D01*
X193427063Y-92877000D01*
X193160937Y-92877000D01*
X192899928Y-92825082D01*
X192654063Y-92723242D01*
X192654062Y-92723242D01*
X192654061Y-92723241D01*
X192542672Y-92648813D01*
X192432789Y-92575391D01*
X192244609Y-92387211D01*
X192171187Y-92277328D01*
X192096759Y-92165939D01*
X192064062Y-92087000D01*
X191994918Y-91920072D01*
X191943000Y-91659063D01*
X191943000Y-91392937D01*
X191994918Y-91131928D01*
X192096758Y-90886063D01*
X192165688Y-90782903D01*
X192198165Y-90734297D01*
X192244609Y-90664789D01*
X192432789Y-90476609D01*
X192644721Y-90335000D01*
X192654061Y-90328759D01*
X192676113Y-90319625D01*
X192899928Y-90226918D01*
X193160937Y-90175000D01*
X193427063Y-90175000D01*
X193688072Y-90226918D01*
G37*
G36*
X146978823Y-89947313D02*
G01*
X147139242Y-89995976D01*
X147271906Y-90066886D01*
X147287078Y-90074996D01*
X147416659Y-90181341D01*
X147523004Y-90310922D01*
X147523005Y-90310924D01*
X147602024Y-90458758D01*
X147650687Y-90619178D01*
X147663000Y-90744197D01*
X147663000Y-91627804D01*
X147650687Y-91752823D01*
X147602024Y-91913242D01*
X147587642Y-91940148D01*
X147523004Y-92061078D01*
X147436948Y-92165937D01*
X147416659Y-92190659D01*
X147287077Y-92297005D01*
X147139241Y-92376024D01*
X146978822Y-92424687D01*
X146812000Y-92441117D01*
X146645177Y-92424687D01*
X146484758Y-92376024D01*
X146336924Y-92297005D01*
X146336922Y-92297004D01*
X146207341Y-92190659D01*
X146188351Y-92167520D01*
X146100995Y-92061077D01*
X146021976Y-91913241D01*
X145973313Y-91752822D01*
X145961000Y-91627803D01*
X145961000Y-90744197D01*
X145973314Y-90619177D01*
X146021977Y-90458758D01*
X146100996Y-90310924D01*
X146100997Y-90310922D01*
X146207342Y-90181341D01*
X146336923Y-90074996D01*
X146352095Y-90066886D01*
X146484759Y-89995976D01*
X146645178Y-89947313D01*
X146812000Y-89930883D01*
X146978823Y-89947313D01*
G37*
G36*
X139358823Y-89947313D02*
G01*
X139519242Y-89995976D01*
X139651906Y-90066886D01*
X139667078Y-90074996D01*
X139796659Y-90181341D01*
X139903004Y-90310922D01*
X139903005Y-90310924D01*
X139982024Y-90458758D01*
X140030687Y-90619178D01*
X140043000Y-90744197D01*
X140043000Y-91627804D01*
X140030687Y-91752823D01*
X139982024Y-91913242D01*
X139967642Y-91940148D01*
X139903004Y-92061078D01*
X139816948Y-92165937D01*
X139796659Y-92190659D01*
X139667077Y-92297005D01*
X139519241Y-92376024D01*
X139358822Y-92424687D01*
X139192000Y-92441117D01*
X139025177Y-92424687D01*
X138864758Y-92376024D01*
X138716924Y-92297005D01*
X138716922Y-92297004D01*
X138587341Y-92190659D01*
X138568351Y-92167520D01*
X138480995Y-92061077D01*
X138401976Y-91913241D01*
X138353313Y-91752822D01*
X138341000Y-91627803D01*
X138341000Y-90744197D01*
X138353314Y-90619177D01*
X138401977Y-90458758D01*
X138480996Y-90310924D01*
X138480997Y-90310922D01*
X138587342Y-90181341D01*
X138716923Y-90074996D01*
X138732095Y-90066886D01*
X138864759Y-89995976D01*
X139025178Y-89947313D01*
X139192000Y-89930883D01*
X139358823Y-89947313D01*
G37*
G36*
X141898823Y-89947313D02*
G01*
X142059242Y-89995976D01*
X142191906Y-90066886D01*
X142207078Y-90074996D01*
X142336659Y-90181341D01*
X142443004Y-90310922D01*
X142443005Y-90310924D01*
X142522024Y-90458758D01*
X142570687Y-90619178D01*
X142583000Y-90744197D01*
X142583000Y-91627804D01*
X142570687Y-91752823D01*
X142522024Y-91913242D01*
X142507642Y-91940148D01*
X142443004Y-92061078D01*
X142356948Y-92165937D01*
X142336659Y-92190659D01*
X142207077Y-92297005D01*
X142059241Y-92376024D01*
X141898822Y-92424687D01*
X141732000Y-92441117D01*
X141565177Y-92424687D01*
X141404758Y-92376024D01*
X141256924Y-92297005D01*
X141256922Y-92297004D01*
X141127341Y-92190659D01*
X141108351Y-92167520D01*
X141020995Y-92061077D01*
X140941976Y-91913241D01*
X140893313Y-91752822D01*
X140881000Y-91627803D01*
X140881000Y-90744197D01*
X140893314Y-90619177D01*
X140941977Y-90458758D01*
X141020996Y-90310924D01*
X141020997Y-90310922D01*
X141127342Y-90181341D01*
X141256923Y-90074996D01*
X141272095Y-90066886D01*
X141404759Y-89995976D01*
X141565178Y-89947313D01*
X141732000Y-89930883D01*
X141898823Y-89947313D01*
G37*
G36*
X136818823Y-89947313D02*
G01*
X136979242Y-89995976D01*
X137111906Y-90066886D01*
X137127078Y-90074996D01*
X137256659Y-90181341D01*
X137363004Y-90310922D01*
X137363005Y-90310924D01*
X137442024Y-90458758D01*
X137490687Y-90619178D01*
X137503000Y-90744197D01*
X137503000Y-91627804D01*
X137490687Y-91752823D01*
X137442024Y-91913242D01*
X137427642Y-91940148D01*
X137363004Y-92061078D01*
X137276948Y-92165937D01*
X137256659Y-92190659D01*
X137127077Y-92297005D01*
X136979241Y-92376024D01*
X136818822Y-92424687D01*
X136652000Y-92441117D01*
X136485177Y-92424687D01*
X136324758Y-92376024D01*
X136176924Y-92297005D01*
X136176922Y-92297004D01*
X136047341Y-92190659D01*
X136028351Y-92167520D01*
X135940995Y-92061077D01*
X135861976Y-91913241D01*
X135813313Y-91752822D01*
X135801000Y-91627803D01*
X135801000Y-90744197D01*
X135813314Y-90619177D01*
X135861977Y-90458758D01*
X135940996Y-90310924D01*
X135940997Y-90310922D01*
X136047342Y-90181341D01*
X136176923Y-90074996D01*
X136192095Y-90066886D01*
X136324759Y-89995976D01*
X136485178Y-89947313D01*
X136652000Y-89930883D01*
X136818823Y-89947313D01*
G37*
G36*
X134278823Y-89947313D02*
G01*
X134439242Y-89995976D01*
X134571906Y-90066886D01*
X134587078Y-90074996D01*
X134716659Y-90181341D01*
X134823004Y-90310922D01*
X134823005Y-90310924D01*
X134902024Y-90458758D01*
X134950687Y-90619178D01*
X134963000Y-90744197D01*
X134963000Y-91627804D01*
X134950687Y-91752823D01*
X134902024Y-91913242D01*
X134887642Y-91940148D01*
X134823004Y-92061078D01*
X134736948Y-92165937D01*
X134716659Y-92190659D01*
X134587077Y-92297005D01*
X134439241Y-92376024D01*
X134278822Y-92424687D01*
X134112000Y-92441117D01*
X133945177Y-92424687D01*
X133784758Y-92376024D01*
X133636924Y-92297005D01*
X133636922Y-92297004D01*
X133507341Y-92190659D01*
X133488351Y-92167520D01*
X133400995Y-92061077D01*
X133321976Y-91913241D01*
X133273313Y-91752822D01*
X133261000Y-91627803D01*
X133261000Y-90744197D01*
X133273314Y-90619177D01*
X133321977Y-90458758D01*
X133400996Y-90310924D01*
X133400997Y-90310922D01*
X133507342Y-90181341D01*
X133636923Y-90074996D01*
X133652095Y-90066886D01*
X133784759Y-89995976D01*
X133945178Y-89947313D01*
X134112000Y-89930883D01*
X134278823Y-89947313D01*
G37*
G36*
X152058823Y-89947313D02*
G01*
X152219242Y-89995976D01*
X152351906Y-90066886D01*
X152367078Y-90074996D01*
X152496659Y-90181341D01*
X152603004Y-90310922D01*
X152603005Y-90310924D01*
X152682024Y-90458758D01*
X152730687Y-90619178D01*
X152743000Y-90744197D01*
X152743000Y-91627804D01*
X152730687Y-91752823D01*
X152682024Y-91913242D01*
X152667642Y-91940148D01*
X152603004Y-92061078D01*
X152516948Y-92165937D01*
X152496659Y-92190659D01*
X152367077Y-92297005D01*
X152219241Y-92376024D01*
X152058822Y-92424687D01*
X151892000Y-92441117D01*
X151725177Y-92424687D01*
X151564758Y-92376024D01*
X151416924Y-92297005D01*
X151416922Y-92297004D01*
X151287341Y-92190659D01*
X151268351Y-92167520D01*
X151180995Y-92061077D01*
X151101976Y-91913241D01*
X151053313Y-91752822D01*
X151041000Y-91627803D01*
X151041000Y-90744197D01*
X151053314Y-90619177D01*
X151101977Y-90458758D01*
X151180996Y-90310924D01*
X151180997Y-90310922D01*
X151287342Y-90181341D01*
X151416923Y-90074996D01*
X151432095Y-90066886D01*
X151564759Y-89995976D01*
X151725178Y-89947313D01*
X151892000Y-89930883D01*
X152058823Y-89947313D01*
G37*
G36*
X149518823Y-89947313D02*
G01*
X149679242Y-89995976D01*
X149811906Y-90066886D01*
X149827078Y-90074996D01*
X149956659Y-90181341D01*
X150063004Y-90310922D01*
X150063005Y-90310924D01*
X150142024Y-90458758D01*
X150190687Y-90619178D01*
X150203000Y-90744197D01*
X150203000Y-91627804D01*
X150190687Y-91752823D01*
X150142024Y-91913242D01*
X150127642Y-91940148D01*
X150063004Y-92061078D01*
X149976948Y-92165937D01*
X149956659Y-92190659D01*
X149827077Y-92297005D01*
X149679241Y-92376024D01*
X149518822Y-92424687D01*
X149352000Y-92441117D01*
X149185177Y-92424687D01*
X149024758Y-92376024D01*
X148876924Y-92297005D01*
X148876922Y-92297004D01*
X148747341Y-92190659D01*
X148728351Y-92167520D01*
X148640995Y-92061077D01*
X148561976Y-91913241D01*
X148513313Y-91752822D01*
X148501000Y-91627803D01*
X148501000Y-90744197D01*
X148513314Y-90619177D01*
X148561977Y-90458758D01*
X148640996Y-90310924D01*
X148640997Y-90310922D01*
X148747342Y-90181341D01*
X148876923Y-90074996D01*
X148892095Y-90066886D01*
X149024759Y-89995976D01*
X149185178Y-89947313D01*
X149352000Y-89930883D01*
X149518823Y-89947313D01*
G37*
G36*
X144438823Y-89947313D02*
G01*
X144599242Y-89995976D01*
X144731906Y-90066886D01*
X144747078Y-90074996D01*
X144876659Y-90181341D01*
X144983004Y-90310922D01*
X144983005Y-90310924D01*
X145062024Y-90458758D01*
X145110687Y-90619178D01*
X145123000Y-90744197D01*
X145123000Y-91627804D01*
X145110687Y-91752823D01*
X145062024Y-91913242D01*
X145047642Y-91940148D01*
X144983004Y-92061078D01*
X144896948Y-92165937D01*
X144876659Y-92190659D01*
X144747077Y-92297005D01*
X144599241Y-92376024D01*
X144438822Y-92424687D01*
X144272000Y-92441117D01*
X144105177Y-92424687D01*
X143944758Y-92376024D01*
X143796924Y-92297005D01*
X143796922Y-92297004D01*
X143667341Y-92190659D01*
X143648351Y-92167520D01*
X143560995Y-92061077D01*
X143481976Y-91913241D01*
X143433313Y-91752822D01*
X143421000Y-91627803D01*
X143421000Y-90744197D01*
X143433314Y-90619177D01*
X143481977Y-90458758D01*
X143560996Y-90310924D01*
X143560997Y-90310922D01*
X143667342Y-90181341D01*
X143796923Y-90074996D01*
X143812095Y-90066886D01*
X143944759Y-89995976D01*
X144105178Y-89947313D01*
X144272000Y-89930883D01*
X144438823Y-89947313D01*
G37*
G36*
X154598823Y-89947313D02*
G01*
X154759242Y-89995976D01*
X154891906Y-90066886D01*
X154907078Y-90074996D01*
X155036659Y-90181341D01*
X155143004Y-90310922D01*
X155143005Y-90310924D01*
X155222024Y-90458758D01*
X155270687Y-90619178D01*
X155283000Y-90744197D01*
X155283000Y-91627804D01*
X155270687Y-91752823D01*
X155222024Y-91913242D01*
X155207642Y-91940148D01*
X155143004Y-92061078D01*
X155056948Y-92165937D01*
X155036659Y-92190659D01*
X154907077Y-92297005D01*
X154759241Y-92376024D01*
X154598822Y-92424687D01*
X154432000Y-92441117D01*
X154265177Y-92424687D01*
X154104758Y-92376024D01*
X153956924Y-92297005D01*
X153956922Y-92297004D01*
X153827341Y-92190659D01*
X153808351Y-92167520D01*
X153720995Y-92061077D01*
X153641976Y-91913241D01*
X153593313Y-91752822D01*
X153581000Y-91627803D01*
X153581000Y-90744197D01*
X153593314Y-90619177D01*
X153641977Y-90458758D01*
X153720996Y-90310924D01*
X153720997Y-90310922D01*
X153827342Y-90181341D01*
X153956923Y-90074996D01*
X153972095Y-90066886D01*
X154104759Y-89995976D01*
X154265178Y-89947313D01*
X154432000Y-89930883D01*
X154598823Y-89947313D01*
G37*
G36*
X157823000Y-92437000D02*
G01*
X156121000Y-92437000D01*
X156121000Y-89935000D01*
X157823000Y-89935000D01*
X157823000Y-92437000D01*
G37*
G36*
X128891512Y-90289927D02*
G01*
X129040812Y-90319624D01*
X129204784Y-90387544D01*
X129352354Y-90486147D01*
X129477853Y-90611646D01*
X129576456Y-90759216D01*
X129644376Y-90923188D01*
X129679000Y-91097259D01*
X129679000Y-91274741D01*
X129644376Y-91448812D01*
X129576456Y-91612784D01*
X129477853Y-91760354D01*
X129352354Y-91885853D01*
X129204784Y-91984456D01*
X129040812Y-92052376D01*
X128891512Y-92082073D01*
X128866742Y-92087000D01*
X128689258Y-92087000D01*
X128664488Y-92082073D01*
X128515188Y-92052376D01*
X128351216Y-91984456D01*
X128203646Y-91885853D01*
X128078147Y-91760354D01*
X127979544Y-91612784D01*
X127911624Y-91448812D01*
X127877000Y-91274741D01*
X127877000Y-91097259D01*
X127911624Y-90923188D01*
X127979544Y-90759216D01*
X128078147Y-90611646D01*
X128203646Y-90486147D01*
X128351216Y-90387544D01*
X128515188Y-90319624D01*
X128664488Y-90289927D01*
X128689258Y-90285000D01*
X128866742Y-90285000D01*
X128891512Y-90289927D01*
G37*
G36*
X127139000Y-92087000D02*
G01*
X125337000Y-92087000D01*
X125337000Y-90285000D01*
X127139000Y-90285000D01*
X127139000Y-92087000D01*
G37*
G36*
X162046228Y-90367703D02*
G01*
X162201100Y-90431853D01*
X162340481Y-90524985D01*
X162459015Y-90643519D01*
X162552147Y-90782900D01*
X162616297Y-90937772D01*
X162649000Y-91102184D01*
X162649000Y-91269816D01*
X162616297Y-91434228D01*
X162552147Y-91589100D01*
X162459015Y-91728481D01*
X162340481Y-91847015D01*
X162201100Y-91940147D01*
X162046228Y-92004297D01*
X161881816Y-92037000D01*
X161714184Y-92037000D01*
X161549772Y-92004297D01*
X161394900Y-91940147D01*
X161255519Y-91847015D01*
X161136985Y-91728481D01*
X161043853Y-91589100D01*
X160979703Y-91434228D01*
X160947000Y-91269816D01*
X160947000Y-91102184D01*
X160979703Y-90937772D01*
X161043853Y-90782900D01*
X161136985Y-90643519D01*
X161255519Y-90524985D01*
X161394900Y-90431853D01*
X161549772Y-90367703D01*
X161714184Y-90335000D01*
X161881816Y-90335000D01*
X162046228Y-90367703D01*
G37*
G36*
X165348228Y-90367703D02*
G01*
X165503100Y-90431853D01*
X165642481Y-90524985D01*
X165761015Y-90643519D01*
X165854147Y-90782900D01*
X165918297Y-90937772D01*
X165951000Y-91102184D01*
X165951000Y-91269816D01*
X165918297Y-91434228D01*
X165854147Y-91589100D01*
X165761015Y-91728481D01*
X165642481Y-91847015D01*
X165503100Y-91940147D01*
X165348228Y-92004297D01*
X165183816Y-92037000D01*
X165016184Y-92037000D01*
X164851772Y-92004297D01*
X164696900Y-91940147D01*
X164557519Y-91847015D01*
X164438985Y-91728481D01*
X164345853Y-91589100D01*
X164281703Y-91434228D01*
X164249000Y-91269816D01*
X164249000Y-91102184D01*
X164281703Y-90937772D01*
X164345853Y-90782900D01*
X164438985Y-90643519D01*
X164557519Y-90524985D01*
X164696900Y-90431853D01*
X164851772Y-90367703D01*
X165016184Y-90335000D01*
X165183816Y-90335000D01*
X165348228Y-90367703D01*
G37*
G36*
X182366228Y-89097703D02*
G01*
X182521100Y-89161853D01*
X182660481Y-89254985D01*
X182779015Y-89373519D01*
X182872147Y-89512900D01*
X182936297Y-89667772D01*
X182969000Y-89832184D01*
X182969000Y-89999816D01*
X182936297Y-90164228D01*
X182872147Y-90319100D01*
X182779015Y-90458481D01*
X182660481Y-90577015D01*
X182521100Y-90670147D01*
X182366228Y-90734297D01*
X182201816Y-90767000D01*
X182034184Y-90767000D01*
X181869772Y-90734297D01*
X181714900Y-90670147D01*
X181575519Y-90577015D01*
X181456985Y-90458481D01*
X181363853Y-90319100D01*
X181299703Y-90164228D01*
X181267000Y-89999816D01*
X181267000Y-89832184D01*
X181299703Y-89667772D01*
X181363853Y-89512900D01*
X181456985Y-89373519D01*
X181575519Y-89254985D01*
X181714900Y-89161853D01*
X181869772Y-89097703D01*
X182034184Y-89065000D01*
X182201816Y-89065000D01*
X182366228Y-89097703D01*
G37*
G36*
X193688072Y-86726918D02*
G01*
X193905563Y-86817005D01*
X193933939Y-86828759D01*
X194001304Y-86873771D01*
X194125477Y-86956741D01*
X194155212Y-86976610D01*
X194343390Y-87164788D01*
X194480662Y-87370228D01*
X194491242Y-87386063D01*
X194593082Y-87631928D01*
X194645000Y-87892937D01*
X194645000Y-88159063D01*
X194593082Y-88420072D01*
X194491242Y-88665937D01*
X194343391Y-88887211D01*
X194155211Y-89075391D01*
X194045328Y-89148813D01*
X193933939Y-89223241D01*
X193933938Y-89223242D01*
X193933937Y-89223242D01*
X193688072Y-89325082D01*
X193427063Y-89377000D01*
X193160937Y-89377000D01*
X192899928Y-89325082D01*
X192654063Y-89223242D01*
X192654062Y-89223242D01*
X192654061Y-89223241D01*
X192542672Y-89148813D01*
X192432789Y-89075391D01*
X192244609Y-88887211D01*
X192096758Y-88665937D01*
X191994918Y-88420072D01*
X191943000Y-88159063D01*
X191943000Y-87892937D01*
X191994918Y-87631928D01*
X192096758Y-87386063D01*
X192107339Y-87370228D01*
X192244610Y-87164788D01*
X192432788Y-86976610D01*
X192462524Y-86956741D01*
X192586696Y-86873771D01*
X192654061Y-86828759D01*
X192682438Y-86817005D01*
X192899928Y-86726918D01*
X193160937Y-86675000D01*
X193427063Y-86675000D01*
X193688072Y-86726918D01*
G37*
G36*
X182366228Y-86303703D02*
G01*
X182521100Y-86367853D01*
X182660481Y-86460985D01*
X182779015Y-86579519D01*
X182872147Y-86718900D01*
X182936297Y-86873772D01*
X182969000Y-87038184D01*
X182969000Y-87205816D01*
X182936297Y-87370228D01*
X182872147Y-87525100D01*
X182779015Y-87664481D01*
X182660481Y-87783015D01*
X182521100Y-87876147D01*
X182366228Y-87940297D01*
X182201816Y-87973000D01*
X182034184Y-87973000D01*
X181869772Y-87940297D01*
X181714900Y-87876147D01*
X181575519Y-87783015D01*
X181456985Y-87664481D01*
X181363853Y-87525100D01*
X181299703Y-87370228D01*
X181267000Y-87205816D01*
X181267000Y-87038184D01*
X181299703Y-86873772D01*
X181363853Y-86718900D01*
X181456985Y-86579519D01*
X181575519Y-86460985D01*
X181714900Y-86367853D01*
X181869772Y-86303703D01*
X182034184Y-86271000D01*
X182201816Y-86271000D01*
X182366228Y-86303703D01*
G37*
G36*
X136537000Y-87769000D02*
G01*
X134735000Y-87769000D01*
X134735000Y-85967000D01*
X136537000Y-85967000D01*
X136537000Y-87769000D01*
G37*
G36*
X133209512Y-85971927D02*
G01*
X133358812Y-86001624D01*
X133522784Y-86069544D01*
X133670354Y-86168147D01*
X133795853Y-86293646D01*
X133894456Y-86441216D01*
X133962376Y-86605188D01*
X133986589Y-86726918D01*
X133997000Y-86779258D01*
X133997000Y-86956742D01*
X133993048Y-86976609D01*
X133962376Y-87130812D01*
X133894456Y-87294784D01*
X133795853Y-87442354D01*
X133670354Y-87567853D01*
X133522784Y-87666456D01*
X133358812Y-87734376D01*
X133209512Y-87764073D01*
X133184742Y-87769000D01*
X133007258Y-87769000D01*
X132982488Y-87764073D01*
X132833188Y-87734376D01*
X132669216Y-87666456D01*
X132521646Y-87567853D01*
X132396147Y-87442354D01*
X132297544Y-87294784D01*
X132229624Y-87130812D01*
X132198952Y-86976609D01*
X132195000Y-86956742D01*
X132195000Y-86779258D01*
X132205411Y-86726918D01*
X132229624Y-86605188D01*
X132297544Y-86441216D01*
X132396147Y-86293646D01*
X132521646Y-86168147D01*
X132669216Y-86069544D01*
X132833188Y-86001624D01*
X132982488Y-85971927D01*
X133007258Y-85967000D01*
X133184742Y-85967000D01*
X133209512Y-85971927D01*
G37*
G36*
X130669512Y-85971927D02*
G01*
X130818812Y-86001624D01*
X130982784Y-86069544D01*
X131130354Y-86168147D01*
X131255853Y-86293646D01*
X131354456Y-86441216D01*
X131422376Y-86605188D01*
X131446589Y-86726918D01*
X131457000Y-86779258D01*
X131457000Y-86956742D01*
X131453048Y-86976609D01*
X131422376Y-87130812D01*
X131354456Y-87294784D01*
X131255853Y-87442354D01*
X131130354Y-87567853D01*
X130982784Y-87666456D01*
X130818812Y-87734376D01*
X130669512Y-87764073D01*
X130644742Y-87769000D01*
X130467258Y-87769000D01*
X130442488Y-87764073D01*
X130293188Y-87734376D01*
X130129216Y-87666456D01*
X129981646Y-87567853D01*
X129856147Y-87442354D01*
X129757544Y-87294784D01*
X129689624Y-87130812D01*
X129658952Y-86976609D01*
X129655000Y-86956742D01*
X129655000Y-86779258D01*
X129665411Y-86726918D01*
X129689624Y-86605188D01*
X129757544Y-86441216D01*
X129856147Y-86293646D01*
X129981646Y-86168147D01*
X130129216Y-86069544D01*
X130293188Y-86001624D01*
X130442488Y-85971927D01*
X130467258Y-85967000D01*
X130644742Y-85967000D01*
X130669512Y-85971927D01*
G37*
G36*
X171000823Y-85267313D02*
G01*
X171161242Y-85315976D01*
X171293906Y-85386886D01*
X171309078Y-85394996D01*
X171438659Y-85501341D01*
X171545004Y-85630922D01*
X171545005Y-85630924D01*
X171624024Y-85778758D01*
X171672687Y-85939177D01*
X171689117Y-86106000D01*
X171672687Y-86272823D01*
X171624024Y-86433242D01*
X171609195Y-86460985D01*
X171545004Y-86581078D01*
X171438659Y-86710659D01*
X171309078Y-86817004D01*
X171309076Y-86817005D01*
X171161242Y-86896024D01*
X171000823Y-86944687D01*
X170875804Y-86957000D01*
X169992196Y-86957000D01*
X169867177Y-86944687D01*
X169706758Y-86896024D01*
X169558924Y-86817005D01*
X169558922Y-86817004D01*
X169429341Y-86710659D01*
X169322996Y-86581078D01*
X169258805Y-86460985D01*
X169243976Y-86433242D01*
X169195313Y-86272823D01*
X169178883Y-86106000D01*
X169195313Y-85939177D01*
X169243976Y-85778758D01*
X169322995Y-85630924D01*
X169322996Y-85630922D01*
X169429341Y-85501341D01*
X169558922Y-85394996D01*
X169574094Y-85386886D01*
X169706758Y-85315976D01*
X169867177Y-85267313D01*
X169992196Y-85255000D01*
X170875804Y-85255000D01*
X171000823Y-85267313D01*
G37*
G36*
X178620823Y-85267313D02*
G01*
X178781242Y-85315976D01*
X178913906Y-85386886D01*
X178929078Y-85394996D01*
X179058659Y-85501341D01*
X179165004Y-85630922D01*
X179165005Y-85630924D01*
X179244024Y-85778758D01*
X179292687Y-85939177D01*
X179309117Y-86106000D01*
X179292687Y-86272823D01*
X179244024Y-86433242D01*
X179229195Y-86460985D01*
X179165004Y-86581078D01*
X179058659Y-86710659D01*
X178929078Y-86817004D01*
X178929076Y-86817005D01*
X178781242Y-86896024D01*
X178620823Y-86944687D01*
X178495804Y-86957000D01*
X177612196Y-86957000D01*
X177487177Y-86944687D01*
X177326758Y-86896024D01*
X177178924Y-86817005D01*
X177178922Y-86817004D01*
X177049341Y-86710659D01*
X176942996Y-86581078D01*
X176878805Y-86460985D01*
X176863976Y-86433242D01*
X176815313Y-86272823D01*
X176798883Y-86106000D01*
X176815313Y-85939177D01*
X176863976Y-85778758D01*
X176942995Y-85630924D01*
X176942996Y-85630922D01*
X177049341Y-85501341D01*
X177178922Y-85394996D01*
X177194094Y-85386886D01*
X177326758Y-85315976D01*
X177487177Y-85267313D01*
X177612196Y-85255000D01*
X178495804Y-85255000D01*
X178620823Y-85267313D01*
G37*
G36*
X193688072Y-83226918D02*
G01*
X193933939Y-83328759D01*
X194022504Y-83387937D01*
X194131996Y-83461097D01*
X194155212Y-83476610D01*
X194343390Y-83664788D01*
X194484716Y-83876295D01*
X194491242Y-83886063D01*
X194593082Y-84131928D01*
X194645000Y-84392937D01*
X194645000Y-84659063D01*
X194593082Y-84920072D01*
X194491242Y-85165937D01*
X194390990Y-85315975D01*
X194343390Y-85387212D01*
X194155212Y-85575390D01*
X193933939Y-85723241D01*
X193933938Y-85723242D01*
X193933937Y-85723242D01*
X193688072Y-85825082D01*
X193427063Y-85877000D01*
X193160937Y-85877000D01*
X192899928Y-85825082D01*
X192654063Y-85723242D01*
X192654062Y-85723242D01*
X192654061Y-85723241D01*
X192432788Y-85575390D01*
X192244610Y-85387212D01*
X192197011Y-85315975D01*
X192096758Y-85165937D01*
X191994918Y-84920072D01*
X191943000Y-84659063D01*
X191943000Y-84392937D01*
X191994918Y-84131928D01*
X192096758Y-83886063D01*
X192103285Y-83876295D01*
X192244610Y-83664788D01*
X192432788Y-83476610D01*
X192456005Y-83461097D01*
X192565496Y-83387937D01*
X192654061Y-83328759D01*
X192899928Y-83226918D01*
X193160937Y-83175000D01*
X193427063Y-83175000D01*
X193688072Y-83226918D01*
G37*
G36*
X171000823Y-82727313D02*
G01*
X171161242Y-82775976D01*
X171244570Y-82820516D01*
X171309078Y-82854996D01*
X171438659Y-82961341D01*
X171545004Y-83090922D01*
X171545005Y-83090924D01*
X171624024Y-83238758D01*
X171672687Y-83399177D01*
X171689117Y-83566000D01*
X171672687Y-83732823D01*
X171624024Y-83893242D01*
X171569498Y-83995252D01*
X171545004Y-84041078D01*
X171438659Y-84170659D01*
X171309078Y-84277004D01*
X171309076Y-84277005D01*
X171161242Y-84356024D01*
X171000823Y-84404687D01*
X170875804Y-84417000D01*
X169992196Y-84417000D01*
X169867177Y-84404687D01*
X169706758Y-84356024D01*
X169558924Y-84277005D01*
X169558922Y-84277004D01*
X169429341Y-84170659D01*
X169322996Y-84041078D01*
X169298502Y-83995252D01*
X169243976Y-83893242D01*
X169195313Y-83732823D01*
X169178883Y-83566000D01*
X169195313Y-83399177D01*
X169243976Y-83238758D01*
X169322995Y-83090924D01*
X169322996Y-83090922D01*
X169429341Y-82961341D01*
X169558922Y-82854996D01*
X169623430Y-82820516D01*
X169706758Y-82775976D01*
X169867177Y-82727313D01*
X169992196Y-82715000D01*
X170875804Y-82715000D01*
X171000823Y-82727313D01*
G37*
G36*
X178620823Y-82727313D02*
G01*
X178781242Y-82775976D01*
X178864570Y-82820516D01*
X178929078Y-82854996D01*
X179058659Y-82961341D01*
X179165004Y-83090922D01*
X179165005Y-83090924D01*
X179244024Y-83238758D01*
X179292687Y-83399177D01*
X179309117Y-83566000D01*
X179292687Y-83732823D01*
X179244024Y-83893242D01*
X179189498Y-83995252D01*
X179165004Y-84041078D01*
X179058659Y-84170659D01*
X178929078Y-84277004D01*
X178929076Y-84277005D01*
X178781242Y-84356024D01*
X178620823Y-84404687D01*
X178495804Y-84417000D01*
X177612196Y-84417000D01*
X177487177Y-84404687D01*
X177326758Y-84356024D01*
X177178924Y-84277005D01*
X177178922Y-84277004D01*
X177049341Y-84170659D01*
X176942996Y-84041078D01*
X176918502Y-83995252D01*
X176863976Y-83893242D01*
X176815313Y-83732823D01*
X176798883Y-83566000D01*
X176815313Y-83399177D01*
X176863976Y-83238758D01*
X176942995Y-83090924D01*
X176942996Y-83090922D01*
X177049341Y-82961341D01*
X177178922Y-82854996D01*
X177243430Y-82820516D01*
X177326758Y-82775976D01*
X177487177Y-82727313D01*
X177612196Y-82715000D01*
X178495804Y-82715000D01*
X178620823Y-82727313D01*
G37*
G36*
X157605589Y-82550876D02*
G01*
X157704893Y-82570629D01*
X157845206Y-82628748D01*
X157971484Y-82713125D01*
X158078875Y-82820516D01*
X158163252Y-82946794D01*
X158221371Y-83087107D01*
X158251000Y-83236063D01*
X158251000Y-83387937D01*
X158221371Y-83536893D01*
X158163252Y-83677206D01*
X158078875Y-83803484D01*
X157971484Y-83910875D01*
X157845206Y-83995252D01*
X157704893Y-84053371D01*
X157605589Y-84073124D01*
X157555938Y-84083000D01*
X157404062Y-84083000D01*
X157354411Y-84073124D01*
X157255107Y-84053371D01*
X157114794Y-83995252D01*
X156988516Y-83910875D01*
X156881125Y-83803484D01*
X156796748Y-83677206D01*
X156738629Y-83536893D01*
X156709000Y-83387937D01*
X156709000Y-83236063D01*
X156738629Y-83087107D01*
X156796748Y-82946794D01*
X156881125Y-82820516D01*
X156988516Y-82713125D01*
X157114794Y-82628748D01*
X157255107Y-82570629D01*
X157354411Y-82550876D01*
X157404062Y-82541000D01*
X157555938Y-82541000D01*
X157605589Y-82550876D01*
G37*
G36*
X147445589Y-82550876D02*
G01*
X147544893Y-82570629D01*
X147685206Y-82628748D01*
X147811484Y-82713125D01*
X147918875Y-82820516D01*
X148003252Y-82946794D01*
X148061371Y-83087107D01*
X148091000Y-83236063D01*
X148091000Y-83387937D01*
X148061371Y-83536893D01*
X148003252Y-83677206D01*
X147918875Y-83803484D01*
X147811484Y-83910875D01*
X147685206Y-83995252D01*
X147544893Y-84053371D01*
X147445589Y-84073124D01*
X147395938Y-84083000D01*
X147244062Y-84083000D01*
X147194411Y-84073124D01*
X147095107Y-84053371D01*
X146954794Y-83995252D01*
X146828516Y-83910875D01*
X146721125Y-83803484D01*
X146636748Y-83677206D01*
X146578629Y-83536893D01*
X146549000Y-83387937D01*
X146549000Y-83236063D01*
X146578629Y-83087107D01*
X146636748Y-82946794D01*
X146721125Y-82820516D01*
X146828516Y-82713125D01*
X146954794Y-82628748D01*
X147095107Y-82570629D01*
X147194411Y-82550876D01*
X147244062Y-82541000D01*
X147395938Y-82541000D01*
X147445589Y-82550876D01*
G37*
G36*
X152525589Y-82550876D02*
G01*
X152624893Y-82570629D01*
X152765206Y-82628748D01*
X152891484Y-82713125D01*
X152998875Y-82820516D01*
X153083252Y-82946794D01*
X153141371Y-83087107D01*
X153171000Y-83236063D01*
X153171000Y-83387937D01*
X153141371Y-83536893D01*
X153083252Y-83677206D01*
X152998875Y-83803484D01*
X152891484Y-83910875D01*
X152765206Y-83995252D01*
X152624893Y-84053371D01*
X152525589Y-84073124D01*
X152475938Y-84083000D01*
X152324062Y-84083000D01*
X152274411Y-84073124D01*
X152175107Y-84053371D01*
X152034794Y-83995252D01*
X151908516Y-83910875D01*
X151801125Y-83803484D01*
X151716748Y-83677206D01*
X151658629Y-83536893D01*
X151629000Y-83387937D01*
X151629000Y-83236063D01*
X151658629Y-83087107D01*
X151716748Y-82946794D01*
X151801125Y-82820516D01*
X151908516Y-82713125D01*
X152034794Y-82628748D01*
X152175107Y-82570629D01*
X152274411Y-82550876D01*
X152324062Y-82541000D01*
X152475938Y-82541000D01*
X152525589Y-82550876D01*
G37*
G36*
X162685589Y-82550876D02*
G01*
X162784893Y-82570629D01*
X162925206Y-82628748D01*
X163051484Y-82713125D01*
X163158875Y-82820516D01*
X163243252Y-82946794D01*
X163301371Y-83087107D01*
X163331000Y-83236063D01*
X163331000Y-83387937D01*
X163301371Y-83536893D01*
X163243252Y-83677206D01*
X163158875Y-83803484D01*
X163051484Y-83910875D01*
X162925206Y-83995252D01*
X162784893Y-84053371D01*
X162685589Y-84073124D01*
X162635938Y-84083000D01*
X162484062Y-84083000D01*
X162434411Y-84073124D01*
X162335107Y-84053371D01*
X162194794Y-83995252D01*
X162068516Y-83910875D01*
X161961125Y-83803484D01*
X161876748Y-83677206D01*
X161818629Y-83536893D01*
X161789000Y-83387937D01*
X161789000Y-83236063D01*
X161818629Y-83087107D01*
X161876748Y-82946794D01*
X161961125Y-82820516D01*
X162068516Y-82713125D01*
X162194794Y-82628748D01*
X162335107Y-82570629D01*
X162434411Y-82550876D01*
X162484062Y-82541000D01*
X162635938Y-82541000D01*
X162685589Y-82550876D01*
G37*
G36*
X135376228Y-82239703D02*
G01*
X135531100Y-82303853D01*
X135670481Y-82396985D01*
X135789015Y-82515519D01*
X135882147Y-82654900D01*
X135946297Y-82809772D01*
X135979000Y-82974184D01*
X135979000Y-83141816D01*
X135946297Y-83306228D01*
X135882147Y-83461100D01*
X135789015Y-83600481D01*
X135670481Y-83719015D01*
X135531100Y-83812147D01*
X135376228Y-83876297D01*
X135211816Y-83909000D01*
X135044184Y-83909000D01*
X134879772Y-83876297D01*
X134724900Y-83812147D01*
X134585519Y-83719015D01*
X134466985Y-83600481D01*
X134373853Y-83461100D01*
X134309703Y-83306228D01*
X134277000Y-83141816D01*
X134277000Y-82974184D01*
X134309703Y-82809772D01*
X134373853Y-82654900D01*
X134466985Y-82515519D01*
X134585519Y-82396985D01*
X134724900Y-82303853D01*
X134879772Y-82239703D01*
X135044184Y-82207000D01*
X135211816Y-82207000D01*
X135376228Y-82239703D01*
G37*
G36*
X132836228Y-82239703D02*
G01*
X132991100Y-82303853D01*
X133130481Y-82396985D01*
X133249015Y-82515519D01*
X133342147Y-82654900D01*
X133406297Y-82809772D01*
X133439000Y-82974184D01*
X133439000Y-83141816D01*
X133406297Y-83306228D01*
X133342147Y-83461100D01*
X133249015Y-83600481D01*
X133130481Y-83719015D01*
X132991100Y-83812147D01*
X132836228Y-83876297D01*
X132671816Y-83909000D01*
X132504184Y-83909000D01*
X132339772Y-83876297D01*
X132184900Y-83812147D01*
X132045519Y-83719015D01*
X131926985Y-83600481D01*
X131833853Y-83461100D01*
X131769703Y-83306228D01*
X131737000Y-83141816D01*
X131737000Y-82974184D01*
X131769703Y-82809772D01*
X131833853Y-82654900D01*
X131926985Y-82515519D01*
X132045519Y-82396985D01*
X132184900Y-82303853D01*
X132339772Y-82239703D01*
X132504184Y-82207000D01*
X132671816Y-82207000D01*
X132836228Y-82239703D01*
G37*
G36*
X130296228Y-82239703D02*
G01*
X130451100Y-82303853D01*
X130590481Y-82396985D01*
X130709015Y-82515519D01*
X130802147Y-82654900D01*
X130866297Y-82809772D01*
X130899000Y-82974184D01*
X130899000Y-83141816D01*
X130866297Y-83306228D01*
X130802147Y-83461100D01*
X130709015Y-83600481D01*
X130590481Y-83719015D01*
X130451100Y-83812147D01*
X130296228Y-83876297D01*
X130131816Y-83909000D01*
X129964184Y-83909000D01*
X129799772Y-83876297D01*
X129644900Y-83812147D01*
X129505519Y-83719015D01*
X129386985Y-83600481D01*
X129293853Y-83461100D01*
X129229703Y-83306228D01*
X129197000Y-83141816D01*
X129197000Y-82974184D01*
X129229703Y-82809772D01*
X129293853Y-82654900D01*
X129386985Y-82515519D01*
X129505519Y-82396985D01*
X129644900Y-82303853D01*
X129799772Y-82239703D01*
X129964184Y-82207000D01*
X130131816Y-82207000D01*
X130296228Y-82239703D01*
G37*
G36*
X128359000Y-83909000D02*
G01*
X126657000Y-83909000D01*
X126657000Y-82207000D01*
X128359000Y-82207000D01*
X128359000Y-83909000D01*
G37*
G36*
X137916228Y-82239703D02*
G01*
X138071100Y-82303853D01*
X138210481Y-82396985D01*
X138329015Y-82515519D01*
X138422147Y-82654900D01*
X138486297Y-82809772D01*
X138519000Y-82974184D01*
X138519000Y-83141816D01*
X138486297Y-83306228D01*
X138422147Y-83461100D01*
X138329015Y-83600481D01*
X138210481Y-83719015D01*
X138071100Y-83812147D01*
X137916228Y-83876297D01*
X137751816Y-83909000D01*
X137584184Y-83909000D01*
X137419772Y-83876297D01*
X137264900Y-83812147D01*
X137125519Y-83719015D01*
X137006985Y-83600481D01*
X136913853Y-83461100D01*
X136849703Y-83306228D01*
X136817000Y-83141816D01*
X136817000Y-82974184D01*
X136849703Y-82809772D01*
X136913853Y-82654900D01*
X137006985Y-82515519D01*
X137125519Y-82396985D01*
X137264900Y-82303853D01*
X137419772Y-82239703D01*
X137584184Y-82207000D01*
X137751816Y-82207000D01*
X137916228Y-82239703D01*
G37*
G36*
X194645000Y-82377000D02*
G01*
X191943000Y-82377000D01*
X191943000Y-79675000D01*
X194645000Y-79675000D01*
X194645000Y-82377000D01*
G37*
G36*
X178620823Y-80187313D02*
G01*
X178781242Y-80235976D01*
X178864570Y-80280516D01*
X178929078Y-80314996D01*
X179058659Y-80421341D01*
X179165004Y-80550922D01*
X179165005Y-80550924D01*
X179244024Y-80698758D01*
X179292687Y-80859177D01*
X179309117Y-81026000D01*
X179292687Y-81192823D01*
X179244024Y-81353242D01*
X179189498Y-81455252D01*
X179165004Y-81501078D01*
X179058659Y-81630659D01*
X178929078Y-81737004D01*
X178929076Y-81737005D01*
X178781242Y-81816024D01*
X178620823Y-81864687D01*
X178495804Y-81877000D01*
X177612196Y-81877000D01*
X177487177Y-81864687D01*
X177326758Y-81816024D01*
X177178924Y-81737005D01*
X177178922Y-81737004D01*
X177049341Y-81630659D01*
X176942996Y-81501078D01*
X176918502Y-81455252D01*
X176863976Y-81353242D01*
X176815313Y-81192823D01*
X176798883Y-81026000D01*
X176815313Y-80859177D01*
X176863976Y-80698758D01*
X176942995Y-80550924D01*
X176942996Y-80550922D01*
X177049341Y-80421341D01*
X177178922Y-80314996D01*
X177243430Y-80280516D01*
X177326758Y-80235976D01*
X177487177Y-80187313D01*
X177612196Y-80175000D01*
X178495804Y-80175000D01*
X178620823Y-80187313D01*
G37*
G36*
X171685000Y-81877000D02*
G01*
X169183000Y-81877000D01*
X169183000Y-80175000D01*
X171685000Y-80175000D01*
X171685000Y-81877000D01*
G37*
G36*
X160145589Y-80010876D02*
G01*
X160244893Y-80030629D01*
X160385206Y-80088748D01*
X160511484Y-80173125D01*
X160618875Y-80280516D01*
X160703252Y-80406794D01*
X160761371Y-80547107D01*
X160791000Y-80696063D01*
X160791000Y-80847937D01*
X160761371Y-80996893D01*
X160703252Y-81137206D01*
X160618875Y-81263484D01*
X160511484Y-81370875D01*
X160385206Y-81455252D01*
X160244893Y-81513371D01*
X160145589Y-81533124D01*
X160095938Y-81543000D01*
X159944062Y-81543000D01*
X159894411Y-81533124D01*
X159795107Y-81513371D01*
X159654794Y-81455252D01*
X159528516Y-81370875D01*
X159421125Y-81263484D01*
X159336748Y-81137206D01*
X159278629Y-80996893D01*
X159249000Y-80847937D01*
X159249000Y-80696063D01*
X159278629Y-80547107D01*
X159336748Y-80406794D01*
X159421125Y-80280516D01*
X159528516Y-80173125D01*
X159654794Y-80088748D01*
X159795107Y-80030629D01*
X159894411Y-80010876D01*
X159944062Y-80001000D01*
X160095938Y-80001000D01*
X160145589Y-80010876D01*
G37*
G36*
X149985589Y-80010876D02*
G01*
X150084893Y-80030629D01*
X150225206Y-80088748D01*
X150351484Y-80173125D01*
X150458875Y-80280516D01*
X150543252Y-80406794D01*
X150601371Y-80547107D01*
X150631000Y-80696063D01*
X150631000Y-80847937D01*
X150601371Y-80996893D01*
X150543252Y-81137206D01*
X150458875Y-81263484D01*
X150351484Y-81370875D01*
X150225206Y-81455252D01*
X150084893Y-81513371D01*
X149985589Y-81533124D01*
X149935938Y-81543000D01*
X149784062Y-81543000D01*
X149734411Y-81533124D01*
X149635107Y-81513371D01*
X149494794Y-81455252D01*
X149368516Y-81370875D01*
X149261125Y-81263484D01*
X149176748Y-81137206D01*
X149118629Y-80996893D01*
X149089000Y-80847937D01*
X149089000Y-80696063D01*
X149118629Y-80547107D01*
X149176748Y-80406794D01*
X149261125Y-80280516D01*
X149368516Y-80173125D01*
X149494794Y-80088748D01*
X149635107Y-80030629D01*
X149734411Y-80010876D01*
X149784062Y-80001000D01*
X149935938Y-80001000D01*
X149985589Y-80010876D01*
G37*
G36*
X182366228Y-78683703D02*
G01*
X182521100Y-78747853D01*
X182660481Y-78840985D01*
X182779015Y-78959519D01*
X182872147Y-79098900D01*
X182936297Y-79253772D01*
X182969000Y-79418184D01*
X182969000Y-79585816D01*
X182936297Y-79750228D01*
X182872147Y-79905100D01*
X182779015Y-80044481D01*
X182660481Y-80163015D01*
X182521100Y-80256147D01*
X182366228Y-80320297D01*
X182201816Y-80353000D01*
X182034184Y-80353000D01*
X181869772Y-80320297D01*
X181714900Y-80256147D01*
X181575519Y-80163015D01*
X181456985Y-80044481D01*
X181363853Y-79905100D01*
X181299703Y-79750228D01*
X181267000Y-79585816D01*
X181267000Y-79418184D01*
X181299703Y-79253772D01*
X181363853Y-79098900D01*
X181456985Y-78959519D01*
X181575519Y-78840985D01*
X181714900Y-78747853D01*
X181869772Y-78683703D01*
X182034184Y-78651000D01*
X182201816Y-78651000D01*
X182366228Y-78683703D01*
G37*
G36*
X130899000Y-79337000D02*
G01*
X129197000Y-79337000D01*
X129197000Y-77635000D01*
X130899000Y-77635000D01*
X130899000Y-79337000D01*
G37*
G36*
X137916228Y-77667703D02*
G01*
X138071100Y-77731853D01*
X138210481Y-77824985D01*
X138329015Y-77943519D01*
X138422147Y-78082900D01*
X138486297Y-78237772D01*
X138519000Y-78402184D01*
X138519000Y-78569816D01*
X138486297Y-78734228D01*
X138422147Y-78889100D01*
X138329015Y-79028481D01*
X138210481Y-79147015D01*
X138071100Y-79240147D01*
X137916228Y-79304297D01*
X137751816Y-79337000D01*
X137584184Y-79337000D01*
X137419772Y-79304297D01*
X137264900Y-79240147D01*
X137125519Y-79147015D01*
X137006985Y-79028481D01*
X136913853Y-78889100D01*
X136849703Y-78734228D01*
X136817000Y-78569816D01*
X136817000Y-78402184D01*
X136849703Y-78237772D01*
X136913853Y-78082900D01*
X137006985Y-77943519D01*
X137125519Y-77824985D01*
X137264900Y-77731853D01*
X137419772Y-77667703D01*
X137584184Y-77635000D01*
X137751816Y-77635000D01*
X137916228Y-77667703D01*
G37*
G36*
X135376228Y-77667703D02*
G01*
X135531100Y-77731853D01*
X135670481Y-77824985D01*
X135789015Y-77943519D01*
X135882147Y-78082900D01*
X135946297Y-78237772D01*
X135979000Y-78402184D01*
X135979000Y-78569816D01*
X135946297Y-78734228D01*
X135882147Y-78889100D01*
X135789015Y-79028481D01*
X135670481Y-79147015D01*
X135531100Y-79240147D01*
X135376228Y-79304297D01*
X135211816Y-79337000D01*
X135044184Y-79337000D01*
X134879772Y-79304297D01*
X134724900Y-79240147D01*
X134585519Y-79147015D01*
X134466985Y-79028481D01*
X134373853Y-78889100D01*
X134309703Y-78734228D01*
X134277000Y-78569816D01*
X134277000Y-78402184D01*
X134309703Y-78237772D01*
X134373853Y-78082900D01*
X134466985Y-77943519D01*
X134585519Y-77824985D01*
X134724900Y-77731853D01*
X134879772Y-77667703D01*
X135044184Y-77635000D01*
X135211816Y-77635000D01*
X135376228Y-77667703D01*
G37*
G36*
X132836228Y-77667703D02*
G01*
X132991100Y-77731853D01*
X133130481Y-77824985D01*
X133249015Y-77943519D01*
X133342147Y-78082900D01*
X133406297Y-78237772D01*
X133439000Y-78402184D01*
X133439000Y-78569816D01*
X133406297Y-78734228D01*
X133342147Y-78889100D01*
X133249015Y-79028481D01*
X133130481Y-79147015D01*
X132991100Y-79240147D01*
X132836228Y-79304297D01*
X132671816Y-79337000D01*
X132504184Y-79337000D01*
X132339772Y-79304297D01*
X132184900Y-79240147D01*
X132045519Y-79147015D01*
X131926985Y-79028481D01*
X131833853Y-78889100D01*
X131769703Y-78734228D01*
X131737000Y-78569816D01*
X131737000Y-78402184D01*
X131769703Y-78237772D01*
X131833853Y-78082900D01*
X131926985Y-77943519D01*
X132045519Y-77824985D01*
X132184900Y-77731853D01*
X132339772Y-77667703D01*
X132504184Y-77635000D01*
X132671816Y-77635000D01*
X132836228Y-77667703D01*
G37*
G36*
X194345000Y-75679500D02*
G01*
X192243000Y-75679500D01*
X192243000Y-73672500D01*
X194345000Y-73672500D01*
X194345000Y-75679500D01*
G37*
G36*
X146139000Y-75273000D02*
G01*
X144437000Y-75273000D01*
X144437000Y-73571000D01*
X146139000Y-73571000D01*
X146139000Y-75273000D01*
G37*
G36*
X165602228Y-73349703D02*
G01*
X165757100Y-73413853D01*
X165896481Y-73506985D01*
X166015015Y-73625519D01*
X166108147Y-73764900D01*
X166172297Y-73919772D01*
X166205000Y-74084184D01*
X166205000Y-74251816D01*
X166172297Y-74416228D01*
X166108147Y-74571100D01*
X166015015Y-74710481D01*
X165896481Y-74829015D01*
X165757100Y-74922147D01*
X165602228Y-74986297D01*
X165437816Y-75019000D01*
X165270184Y-75019000D01*
X165105772Y-74986297D01*
X164950900Y-74922147D01*
X164811519Y-74829015D01*
X164692985Y-74710481D01*
X164599853Y-74571100D01*
X164535703Y-74416228D01*
X164503000Y-74251816D01*
X164503000Y-74084184D01*
X164535703Y-73919772D01*
X164599853Y-73764900D01*
X164692985Y-73625519D01*
X164811519Y-73506985D01*
X164950900Y-73413853D01*
X165105772Y-73349703D01*
X165270184Y-73317000D01*
X165437816Y-73317000D01*
X165602228Y-73349703D01*
G37*
G36*
X157392823Y-71659313D02*
G01*
X157553242Y-71707976D01*
X157685906Y-71778886D01*
X157701078Y-71786996D01*
X157830659Y-71893341D01*
X157937004Y-72022922D01*
X157937005Y-72022924D01*
X158016024Y-72170758D01*
X158064687Y-72331178D01*
X158077000Y-72456197D01*
X158077000Y-73339804D01*
X158064687Y-73464823D01*
X158016024Y-73625242D01*
X158015875Y-73625520D01*
X157937004Y-73773078D01*
X157859277Y-73867788D01*
X157830659Y-73902659D01*
X157701077Y-74009005D01*
X157553241Y-74088024D01*
X157392822Y-74136687D01*
X157226000Y-74153117D01*
X157059177Y-74136687D01*
X156898758Y-74088024D01*
X156750924Y-74009005D01*
X156750922Y-74009004D01*
X156621341Y-73902659D01*
X156592723Y-73867788D01*
X156514995Y-73773077D01*
X156435976Y-73625241D01*
X156387313Y-73464822D01*
X156375000Y-73339803D01*
X156375000Y-72456197D01*
X156387314Y-72331177D01*
X156435977Y-72170758D01*
X156514996Y-72022924D01*
X156514997Y-72022922D01*
X156621342Y-71893341D01*
X156750923Y-71786996D01*
X156766095Y-71778886D01*
X156898759Y-71707976D01*
X157059178Y-71659313D01*
X157226000Y-71642883D01*
X157392823Y-71659313D01*
G37*
G36*
X159932823Y-71659313D02*
G01*
X160093242Y-71707976D01*
X160225906Y-71778886D01*
X160241078Y-71786996D01*
X160370659Y-71893341D01*
X160477004Y-72022922D01*
X160477005Y-72022924D01*
X160556024Y-72170758D01*
X160604687Y-72331178D01*
X160617000Y-72456197D01*
X160617000Y-73339804D01*
X160604687Y-73464823D01*
X160556024Y-73625242D01*
X160555875Y-73625520D01*
X160477004Y-73773078D01*
X160399277Y-73867788D01*
X160370659Y-73902659D01*
X160241077Y-74009005D01*
X160093241Y-74088024D01*
X159932822Y-74136687D01*
X159766000Y-74153117D01*
X159599177Y-74136687D01*
X159438758Y-74088024D01*
X159290924Y-74009005D01*
X159290922Y-74009004D01*
X159161341Y-73902659D01*
X159132723Y-73867788D01*
X159054995Y-73773077D01*
X158975976Y-73625241D01*
X158927313Y-73464822D01*
X158915000Y-73339803D01*
X158915000Y-72456197D01*
X158927314Y-72331177D01*
X158975977Y-72170758D01*
X159054996Y-72022924D01*
X159054997Y-72022922D01*
X159161342Y-71893341D01*
X159290923Y-71786996D01*
X159306095Y-71778886D01*
X159438759Y-71707976D01*
X159599178Y-71659313D01*
X159766000Y-71642883D01*
X159932823Y-71659313D01*
G37*
G36*
X152312823Y-71659313D02*
G01*
X152473242Y-71707976D01*
X152605906Y-71778886D01*
X152621078Y-71786996D01*
X152750659Y-71893341D01*
X152857004Y-72022922D01*
X152857005Y-72022924D01*
X152936024Y-72170758D01*
X152984687Y-72331178D01*
X152997000Y-72456197D01*
X152997000Y-73339804D01*
X152984687Y-73464823D01*
X152936024Y-73625242D01*
X152935875Y-73625520D01*
X152857004Y-73773078D01*
X152779277Y-73867788D01*
X152750659Y-73902659D01*
X152621077Y-74009005D01*
X152473241Y-74088024D01*
X152312822Y-74136687D01*
X152146000Y-74153117D01*
X151979177Y-74136687D01*
X151818758Y-74088024D01*
X151670924Y-74009005D01*
X151670922Y-74009004D01*
X151541341Y-73902659D01*
X151512723Y-73867788D01*
X151434995Y-73773077D01*
X151355976Y-73625241D01*
X151307313Y-73464822D01*
X151295000Y-73339803D01*
X151295000Y-72456197D01*
X151307314Y-72331177D01*
X151355977Y-72170758D01*
X151434996Y-72022924D01*
X151434997Y-72022922D01*
X151541342Y-71893341D01*
X151670923Y-71786996D01*
X151686095Y-71778886D01*
X151818759Y-71707976D01*
X151979178Y-71659313D01*
X152146000Y-71642883D01*
X152312823Y-71659313D01*
G37*
G36*
X154852823Y-71659313D02*
G01*
X155013242Y-71707976D01*
X155145906Y-71778886D01*
X155161078Y-71786996D01*
X155290659Y-71893341D01*
X155397004Y-72022922D01*
X155397005Y-72022924D01*
X155476024Y-72170758D01*
X155524687Y-72331178D01*
X155537000Y-72456197D01*
X155537000Y-73339804D01*
X155524687Y-73464823D01*
X155476024Y-73625242D01*
X155475875Y-73625520D01*
X155397004Y-73773078D01*
X155319277Y-73867788D01*
X155290659Y-73902659D01*
X155161077Y-74009005D01*
X155013241Y-74088024D01*
X154852822Y-74136687D01*
X154686000Y-74153117D01*
X154519177Y-74136687D01*
X154358758Y-74088024D01*
X154210924Y-74009005D01*
X154210922Y-74009004D01*
X154081341Y-73902659D01*
X154052723Y-73867788D01*
X153974995Y-73773077D01*
X153895976Y-73625241D01*
X153847313Y-73464822D01*
X153835000Y-73339803D01*
X153835000Y-72456197D01*
X153847314Y-72331177D01*
X153895977Y-72170758D01*
X153974996Y-72022924D01*
X153974997Y-72022922D01*
X154081342Y-71893341D01*
X154210923Y-71786996D01*
X154226095Y-71778886D01*
X154358759Y-71707976D01*
X154519178Y-71659313D01*
X154686000Y-71642883D01*
X154852823Y-71659313D01*
G37*
G36*
X177159331Y-70404211D02*
G01*
X177487092Y-70539974D01*
X177782070Y-70737072D01*
X178032928Y-70987930D01*
X178230026Y-71282908D01*
X178365789Y-71610669D01*
X178435000Y-71958616D01*
X178435000Y-72313384D01*
X178365789Y-72661331D01*
X178230026Y-72989092D01*
X178032928Y-73284070D01*
X177782070Y-73534928D01*
X177487092Y-73732026D01*
X177159331Y-73867789D01*
X176811384Y-73937000D01*
X176456616Y-73937000D01*
X176108669Y-73867789D01*
X175780908Y-73732026D01*
X175485930Y-73534928D01*
X175235072Y-73284070D01*
X175037974Y-72989092D01*
X174902211Y-72661331D01*
X174833000Y-72313384D01*
X174833000Y-71958616D01*
X174902211Y-71610669D01*
X175037974Y-71282908D01*
X175235072Y-70987930D01*
X175485930Y-70737072D01*
X175780908Y-70539974D01*
X176108669Y-70404211D01*
X176456616Y-70335000D01*
X176811384Y-70335000D01*
X177159331Y-70404211D01*
G37*
G36*
X193439936Y-71137340D02*
G01*
X193538220Y-71147020D01*
X193727381Y-71204401D01*
X193901712Y-71297583D01*
X194054515Y-71422985D01*
X194179917Y-71575788D01*
X194273099Y-71750119D01*
X194330480Y-71939280D01*
X194349855Y-72136000D01*
X194330480Y-72332720D01*
X194273099Y-72521881D01*
X194179917Y-72696212D01*
X194054515Y-72849015D01*
X193901712Y-72974417D01*
X193727381Y-73067599D01*
X193538220Y-73124980D01*
X193439936Y-73134660D01*
X193390795Y-73139500D01*
X193197205Y-73139500D01*
X193148064Y-73134660D01*
X193049780Y-73124980D01*
X192860619Y-73067599D01*
X192686288Y-72974417D01*
X192533485Y-72849015D01*
X192408083Y-72696212D01*
X192314901Y-72521881D01*
X192257520Y-72332720D01*
X192238145Y-72136000D01*
X192257520Y-71939280D01*
X192314901Y-71750119D01*
X192408083Y-71575788D01*
X192533485Y-71422985D01*
X192686288Y-71297583D01*
X192860619Y-71204401D01*
X193049780Y-71147020D01*
X193148064Y-71137340D01*
X193197205Y-71132500D01*
X193390795Y-71132500D01*
X193439936Y-71137340D01*
G37*
G36*
X145536228Y-71103703D02*
G01*
X145691100Y-71167853D01*
X145830481Y-71260985D01*
X145949015Y-71379519D01*
X146042147Y-71518900D01*
X146106297Y-71673772D01*
X146139000Y-71838184D01*
X146139000Y-72005816D01*
X146106297Y-72170228D01*
X146042147Y-72325100D01*
X145949015Y-72464481D01*
X145830481Y-72583015D01*
X145691100Y-72676147D01*
X145536228Y-72740297D01*
X145371816Y-72773000D01*
X145204184Y-72773000D01*
X145039772Y-72740297D01*
X144884900Y-72676147D01*
X144745519Y-72583015D01*
X144626985Y-72464481D01*
X144533853Y-72325100D01*
X144469703Y-72170228D01*
X144437000Y-72005816D01*
X144437000Y-71838184D01*
X144469703Y-71673772D01*
X144533853Y-71518900D01*
X144626985Y-71379519D01*
X144745519Y-71260985D01*
X144884900Y-71167853D01*
X145039772Y-71103703D01*
X145204184Y-71071000D01*
X145371816Y-71071000D01*
X145536228Y-71103703D01*
G37*
G36*
X166205000Y-72519000D02*
G01*
X164503000Y-72519000D01*
X164503000Y-70817000D01*
X166205000Y-70817000D01*
X166205000Y-72519000D01*
G37*
G36*
X135376228Y-70047703D02*
G01*
X135531100Y-70111853D01*
X135670481Y-70204985D01*
X135789015Y-70323519D01*
X135882147Y-70462900D01*
X135946297Y-70617772D01*
X135979000Y-70782184D01*
X135979000Y-70949816D01*
X135946297Y-71114228D01*
X135882147Y-71269100D01*
X135789015Y-71408481D01*
X135670481Y-71527015D01*
X135531100Y-71620147D01*
X135376228Y-71684297D01*
X135211816Y-71717000D01*
X135044184Y-71717000D01*
X134879772Y-71684297D01*
X134724900Y-71620147D01*
X134585519Y-71527015D01*
X134466985Y-71408481D01*
X134373853Y-71269100D01*
X134309703Y-71114228D01*
X134277000Y-70949816D01*
X134277000Y-70782184D01*
X134309703Y-70617772D01*
X134373853Y-70462900D01*
X134466985Y-70323519D01*
X134585519Y-70204985D01*
X134724900Y-70111853D01*
X134879772Y-70047703D01*
X135044184Y-70015000D01*
X135211816Y-70015000D01*
X135376228Y-70047703D01*
G37*
G36*
X137916228Y-70047703D02*
G01*
X138071100Y-70111853D01*
X138210481Y-70204985D01*
X138329015Y-70323519D01*
X138422147Y-70462900D01*
X138486297Y-70617772D01*
X138519000Y-70782184D01*
X138519000Y-70949816D01*
X138486297Y-71114228D01*
X138422147Y-71269100D01*
X138329015Y-71408481D01*
X138210481Y-71527015D01*
X138071100Y-71620147D01*
X137916228Y-71684297D01*
X137751816Y-71717000D01*
X137584184Y-71717000D01*
X137419772Y-71684297D01*
X137264900Y-71620147D01*
X137125519Y-71527015D01*
X137006985Y-71408481D01*
X136913853Y-71269100D01*
X136849703Y-71114228D01*
X136817000Y-70949816D01*
X136817000Y-70782184D01*
X136849703Y-70617772D01*
X136913853Y-70462900D01*
X137006985Y-70323519D01*
X137125519Y-70204985D01*
X137264900Y-70111853D01*
X137419772Y-70047703D01*
X137584184Y-70015000D01*
X137751816Y-70015000D01*
X137916228Y-70047703D01*
G37*
G36*
X132836228Y-70047703D02*
G01*
X132991100Y-70111853D01*
X133130481Y-70204985D01*
X133249015Y-70323519D01*
X133342147Y-70462900D01*
X133406297Y-70617772D01*
X133439000Y-70782184D01*
X133439000Y-70949816D01*
X133406297Y-71114228D01*
X133342147Y-71269100D01*
X133249015Y-71408481D01*
X133130481Y-71527015D01*
X132991100Y-71620147D01*
X132836228Y-71684297D01*
X132671816Y-71717000D01*
X132504184Y-71717000D01*
X132339772Y-71684297D01*
X132184900Y-71620147D01*
X132045519Y-71527015D01*
X131926985Y-71408481D01*
X131833853Y-71269100D01*
X131769703Y-71114228D01*
X131737000Y-70949816D01*
X131737000Y-70782184D01*
X131769703Y-70617772D01*
X131833853Y-70462900D01*
X131926985Y-70323519D01*
X132045519Y-70204985D01*
X132184900Y-70111853D01*
X132339772Y-70047703D01*
X132504184Y-70015000D01*
X132671816Y-70015000D01*
X132836228Y-70047703D01*
G37*
G36*
X130296228Y-70047703D02*
G01*
X130451100Y-70111853D01*
X130590481Y-70204985D01*
X130709015Y-70323519D01*
X130802147Y-70462900D01*
X130866297Y-70617772D01*
X130899000Y-70782184D01*
X130899000Y-70949816D01*
X130866297Y-71114228D01*
X130802147Y-71269100D01*
X130709015Y-71408481D01*
X130590481Y-71527015D01*
X130451100Y-71620147D01*
X130296228Y-71684297D01*
X130131816Y-71717000D01*
X129964184Y-71717000D01*
X129799772Y-71684297D01*
X129644900Y-71620147D01*
X129505519Y-71527015D01*
X129386985Y-71408481D01*
X129293853Y-71269100D01*
X129229703Y-71114228D01*
X129197000Y-70949816D01*
X129197000Y-70782184D01*
X129229703Y-70617772D01*
X129293853Y-70462900D01*
X129386985Y-70323519D01*
X129505519Y-70204985D01*
X129644900Y-70111853D01*
X129799772Y-70047703D01*
X129964184Y-70015000D01*
X130131816Y-70015000D01*
X130296228Y-70047703D01*
G37*
G36*
X193439936Y-68597340D02*
G01*
X193538220Y-68607020D01*
X193727381Y-68664401D01*
X193901712Y-68757583D01*
X194054515Y-68882985D01*
X194179917Y-69035788D01*
X194273099Y-69210119D01*
X194330480Y-69399280D01*
X194349855Y-69596000D01*
X194330480Y-69792720D01*
X194273099Y-69981881D01*
X194179917Y-70156212D01*
X194054515Y-70309015D01*
X193901712Y-70434417D01*
X193727381Y-70527599D01*
X193538220Y-70584980D01*
X193439936Y-70594660D01*
X193390795Y-70599500D01*
X193197205Y-70599500D01*
X193148064Y-70594660D01*
X193049780Y-70584980D01*
X192860619Y-70527599D01*
X192686288Y-70434417D01*
X192533485Y-70309015D01*
X192408083Y-70156212D01*
X192314901Y-69981881D01*
X192257520Y-69792720D01*
X192238145Y-69596000D01*
X192257520Y-69399280D01*
X192314901Y-69210119D01*
X192408083Y-69035788D01*
X192533485Y-68882985D01*
X192686288Y-68757583D01*
X192860619Y-68664401D01*
X193049780Y-68607020D01*
X193148064Y-68597340D01*
X193197205Y-68592500D01*
X193390795Y-68592500D01*
X193439936Y-68597340D01*
G37*
G36*
X145536228Y-65729703D02*
G01*
X145691100Y-65793853D01*
X145830481Y-65886985D01*
X145949015Y-66005519D01*
X146042147Y-66144900D01*
X146106297Y-66299772D01*
X146139000Y-66464184D01*
X146139000Y-66631816D01*
X146106297Y-66796228D01*
X146042147Y-66951100D01*
X145949015Y-67090481D01*
X145830481Y-67209015D01*
X145691100Y-67302147D01*
X145536228Y-67366297D01*
X145371816Y-67399000D01*
X145204184Y-67399000D01*
X145039772Y-67366297D01*
X144884900Y-67302147D01*
X144745519Y-67209015D01*
X144626985Y-67090481D01*
X144533853Y-66951100D01*
X144469703Y-66796228D01*
X144437000Y-66631816D01*
X144437000Y-66464184D01*
X144469703Y-66299772D01*
X144533853Y-66144900D01*
X144626985Y-66005519D01*
X144745519Y-65886985D01*
X144884900Y-65793853D01*
X145039772Y-65729703D01*
X145204184Y-65697000D01*
X145371816Y-65697000D01*
X145536228Y-65729703D01*
G37*
G36*
X166205000Y-67105000D02*
G01*
X164503000Y-67105000D01*
X164503000Y-65403000D01*
X166205000Y-65403000D01*
X166205000Y-67105000D01*
G37*
G36*
X132987229Y-65221703D02*
G01*
X133142101Y-65285853D01*
X133281482Y-65378985D01*
X133400016Y-65497519D01*
X133493148Y-65636900D01*
X133557298Y-65791772D01*
X133590001Y-65956184D01*
X133590001Y-66123816D01*
X133557298Y-66288228D01*
X133493148Y-66443100D01*
X133400016Y-66582481D01*
X133281482Y-66701015D01*
X133142101Y-66794147D01*
X132987229Y-66858297D01*
X132822817Y-66891000D01*
X132655185Y-66891000D01*
X132490773Y-66858297D01*
X132335901Y-66794147D01*
X132196520Y-66701015D01*
X132077986Y-66582481D01*
X131984854Y-66443100D01*
X131920704Y-66288228D01*
X131888001Y-66123816D01*
X131888001Y-65956184D01*
X131920704Y-65791772D01*
X131984854Y-65636900D01*
X132077986Y-65497519D01*
X132196520Y-65378985D01*
X132335901Y-65285853D01*
X132490773Y-65221703D01*
X132655185Y-65189000D01*
X132822817Y-65189000D01*
X132987229Y-65221703D01*
G37*
G36*
X138067229Y-65221703D02*
G01*
X138222101Y-65285853D01*
X138361482Y-65378985D01*
X138480016Y-65497519D01*
X138573148Y-65636900D01*
X138637298Y-65791772D01*
X138670001Y-65956184D01*
X138670001Y-66123816D01*
X138637298Y-66288228D01*
X138573148Y-66443100D01*
X138480016Y-66582481D01*
X138361482Y-66701015D01*
X138222101Y-66794147D01*
X138067229Y-66858297D01*
X137902817Y-66891000D01*
X137735185Y-66891000D01*
X137570773Y-66858297D01*
X137415901Y-66794147D01*
X137276520Y-66701015D01*
X137157986Y-66582481D01*
X137064854Y-66443100D01*
X137000704Y-66288228D01*
X136968001Y-66123816D01*
X136968001Y-65956184D01*
X137000704Y-65791772D01*
X137064854Y-65636900D01*
X137157986Y-65497519D01*
X137276520Y-65378985D01*
X137415901Y-65285853D01*
X137570773Y-65221703D01*
X137735185Y-65189000D01*
X137902817Y-65189000D01*
X138067229Y-65221703D01*
G37*
G36*
X128510001Y-66891000D02*
G01*
X126808001Y-66891000D01*
X126808001Y-65189000D01*
X128510001Y-65189000D01*
X128510001Y-66891000D01*
G37*
G36*
X130447229Y-65221703D02*
G01*
X130602101Y-65285853D01*
X130741482Y-65378985D01*
X130860016Y-65497519D01*
X130953148Y-65636900D01*
X131017298Y-65791772D01*
X131050001Y-65956184D01*
X131050001Y-66123816D01*
X131017298Y-66288228D01*
X130953148Y-66443100D01*
X130860016Y-66582481D01*
X130741482Y-66701015D01*
X130602101Y-66794147D01*
X130447229Y-66858297D01*
X130282817Y-66891000D01*
X130115185Y-66891000D01*
X129950773Y-66858297D01*
X129795901Y-66794147D01*
X129656520Y-66701015D01*
X129537986Y-66582481D01*
X129444854Y-66443100D01*
X129380704Y-66288228D01*
X129348001Y-66123816D01*
X129348001Y-65956184D01*
X129380704Y-65791772D01*
X129444854Y-65636900D01*
X129537986Y-65497519D01*
X129656520Y-65378985D01*
X129795901Y-65285853D01*
X129950773Y-65221703D01*
X130115185Y-65189000D01*
X130282817Y-65189000D01*
X130447229Y-65221703D01*
G37*
G36*
X135527229Y-65221703D02*
G01*
X135682101Y-65285853D01*
X135821482Y-65378985D01*
X135940016Y-65497519D01*
X136033148Y-65636900D01*
X136097298Y-65791772D01*
X136130001Y-65956184D01*
X136130001Y-66123816D01*
X136097298Y-66288228D01*
X136033148Y-66443100D01*
X135940016Y-66582481D01*
X135821482Y-66701015D01*
X135682101Y-66794147D01*
X135527229Y-66858297D01*
X135362817Y-66891000D01*
X135195185Y-66891000D01*
X135030773Y-66858297D01*
X134875901Y-66794147D01*
X134736520Y-66701015D01*
X134617986Y-66582481D01*
X134524854Y-66443100D01*
X134460704Y-66288228D01*
X134428001Y-66123816D01*
X134428001Y-65956184D01*
X134460704Y-65791772D01*
X134524854Y-65636900D01*
X134617986Y-65497519D01*
X134736520Y-65378985D01*
X134875901Y-65285853D01*
X135030773Y-65221703D01*
X135195185Y-65189000D01*
X135362817Y-65189000D01*
X135527229Y-65221703D01*
G37*
G36*
X157392823Y-64039313D02*
G01*
X157553242Y-64087976D01*
X157682558Y-64157097D01*
X157701078Y-64166996D01*
X157830659Y-64273341D01*
X157937004Y-64402922D01*
X157937005Y-64402924D01*
X158016024Y-64550758D01*
X158064687Y-64711178D01*
X158077000Y-64836197D01*
X158077000Y-65719804D01*
X158064687Y-65844823D01*
X158016024Y-66005242D01*
X158015875Y-66005520D01*
X157937004Y-66153078D01*
X157830659Y-66282659D01*
X157701077Y-66389005D01*
X157553241Y-66468024D01*
X157392822Y-66516687D01*
X157226000Y-66533117D01*
X157059177Y-66516687D01*
X156898758Y-66468024D01*
X156750924Y-66389005D01*
X156750922Y-66389004D01*
X156621341Y-66282659D01*
X156514995Y-66153077D01*
X156435976Y-66005241D01*
X156387313Y-65844822D01*
X156375000Y-65719803D01*
X156375000Y-64836197D01*
X156387314Y-64711177D01*
X156435977Y-64550758D01*
X156514996Y-64402924D01*
X156514997Y-64402922D01*
X156621342Y-64273341D01*
X156750923Y-64166996D01*
X156769443Y-64157097D01*
X156898759Y-64087976D01*
X157059178Y-64039313D01*
X157226000Y-64022883D01*
X157392823Y-64039313D01*
G37*
G36*
X152312823Y-64039313D02*
G01*
X152473242Y-64087976D01*
X152602558Y-64157097D01*
X152621078Y-64166996D01*
X152750659Y-64273341D01*
X152857004Y-64402922D01*
X152857005Y-64402924D01*
X152936024Y-64550758D01*
X152984687Y-64711178D01*
X152997000Y-64836197D01*
X152997000Y-65719804D01*
X152984687Y-65844823D01*
X152936024Y-66005242D01*
X152935875Y-66005520D01*
X152857004Y-66153078D01*
X152750659Y-66282659D01*
X152621077Y-66389005D01*
X152473241Y-66468024D01*
X152312822Y-66516687D01*
X152146000Y-66533117D01*
X151979177Y-66516687D01*
X151818758Y-66468024D01*
X151670924Y-66389005D01*
X151670922Y-66389004D01*
X151541341Y-66282659D01*
X151434995Y-66153077D01*
X151355976Y-66005241D01*
X151307313Y-65844822D01*
X151295000Y-65719803D01*
X151295000Y-64836197D01*
X151307314Y-64711177D01*
X151355977Y-64550758D01*
X151434996Y-64402924D01*
X151434997Y-64402922D01*
X151541342Y-64273341D01*
X151670923Y-64166996D01*
X151689443Y-64157097D01*
X151818759Y-64087976D01*
X151979178Y-64039313D01*
X152146000Y-64022883D01*
X152312823Y-64039313D01*
G37*
G36*
X154852823Y-64039313D02*
G01*
X155013242Y-64087976D01*
X155142558Y-64157097D01*
X155161078Y-64166996D01*
X155290659Y-64273341D01*
X155397004Y-64402922D01*
X155397005Y-64402924D01*
X155476024Y-64550758D01*
X155524687Y-64711178D01*
X155537000Y-64836197D01*
X155537000Y-65719804D01*
X155524687Y-65844823D01*
X155476024Y-66005242D01*
X155475875Y-66005520D01*
X155397004Y-66153078D01*
X155290659Y-66282659D01*
X155161077Y-66389005D01*
X155013241Y-66468024D01*
X154852822Y-66516687D01*
X154686000Y-66533117D01*
X154519177Y-66516687D01*
X154358758Y-66468024D01*
X154210924Y-66389005D01*
X154210922Y-66389004D01*
X154081341Y-66282659D01*
X153974995Y-66153077D01*
X153895976Y-66005241D01*
X153847313Y-65844822D01*
X153835000Y-65719803D01*
X153835000Y-64836197D01*
X153847314Y-64711177D01*
X153895977Y-64550758D01*
X153974996Y-64402924D01*
X153974997Y-64402922D01*
X154081342Y-64273341D01*
X154210923Y-64166996D01*
X154229443Y-64157097D01*
X154358759Y-64087976D01*
X154519178Y-64039313D01*
X154686000Y-64022883D01*
X154852823Y-64039313D01*
G37*
G36*
X160617000Y-66529000D02*
G01*
X158915000Y-66529000D01*
X158915000Y-64027000D01*
X160617000Y-64027000D01*
X160617000Y-66529000D01*
G37*
G36*
X189478228Y-64205703D02*
G01*
X189633100Y-64269853D01*
X189772481Y-64362985D01*
X189891015Y-64481519D01*
X189984147Y-64620900D01*
X190048297Y-64775772D01*
X190081000Y-64940184D01*
X190081000Y-65107816D01*
X190048297Y-65272228D01*
X189984147Y-65427100D01*
X189891015Y-65566481D01*
X189772481Y-65685015D01*
X189633100Y-65778147D01*
X189478228Y-65842297D01*
X189313816Y-65875000D01*
X189146184Y-65875000D01*
X188981772Y-65842297D01*
X188826900Y-65778147D01*
X188687519Y-65685015D01*
X188568985Y-65566481D01*
X188475853Y-65427100D01*
X188411703Y-65272228D01*
X188379000Y-65107816D01*
X188379000Y-64940184D01*
X188411703Y-64775772D01*
X188475853Y-64620900D01*
X188568985Y-64481519D01*
X188687519Y-64362985D01*
X188826900Y-64269853D01*
X188981772Y-64205703D01*
X189146184Y-64173000D01*
X189313816Y-64173000D01*
X189478228Y-64205703D01*
G37*
G36*
X197098228Y-64205703D02*
G01*
X197253100Y-64269853D01*
X197392481Y-64362985D01*
X197511015Y-64481519D01*
X197604147Y-64620900D01*
X197668297Y-64775772D01*
X197701000Y-64940184D01*
X197701000Y-65107816D01*
X197668297Y-65272228D01*
X197604147Y-65427100D01*
X197511015Y-65566481D01*
X197392481Y-65685015D01*
X197253100Y-65778147D01*
X197098228Y-65842297D01*
X196933816Y-65875000D01*
X196766184Y-65875000D01*
X196601772Y-65842297D01*
X196446900Y-65778147D01*
X196307519Y-65685015D01*
X196188985Y-65566481D01*
X196095853Y-65427100D01*
X196031703Y-65272228D01*
X195999000Y-65107816D01*
X195999000Y-64940184D01*
X196031703Y-64775772D01*
X196095853Y-64620900D01*
X196188985Y-64481519D01*
X196307519Y-64362985D01*
X196446900Y-64269853D01*
X196601772Y-64205703D01*
X196766184Y-64173000D01*
X196933816Y-64173000D01*
X197098228Y-64205703D01*
G37*
G36*
X186404000Y-65500000D02*
G01*
X185452000Y-65500000D01*
X185452000Y-64548000D01*
X186404000Y-64548000D01*
X186404000Y-65500000D01*
G37*
G36*
X146139000Y-64899000D02*
G01*
X144437000Y-64899000D01*
X144437000Y-63197000D01*
X146139000Y-63197000D01*
X146139000Y-64899000D01*
G37*
G36*
X165602228Y-62935703D02*
G01*
X165757100Y-62999853D01*
X165896481Y-63092985D01*
X166015015Y-63211519D01*
X166108147Y-63350900D01*
X166172297Y-63505772D01*
X166205000Y-63670184D01*
X166205000Y-63837816D01*
X166172297Y-64002228D01*
X166108147Y-64157100D01*
X166015015Y-64296481D01*
X165896481Y-64415015D01*
X165757100Y-64508147D01*
X165602228Y-64572297D01*
X165437816Y-64605000D01*
X165270184Y-64605000D01*
X165105772Y-64572297D01*
X164950900Y-64508147D01*
X164811519Y-64415015D01*
X164692985Y-64296481D01*
X164599853Y-64157100D01*
X164535703Y-64002228D01*
X164503000Y-63837816D01*
X164503000Y-63670184D01*
X164535703Y-63505772D01*
X164599853Y-63350900D01*
X164692985Y-63211519D01*
X164811519Y-63092985D01*
X164950900Y-62999853D01*
X165105772Y-62935703D01*
X165270184Y-62903000D01*
X165437816Y-62903000D01*
X165602228Y-62935703D01*
G37*
G36*
X186404000Y-63468000D02*
G01*
X185452000Y-63468000D01*
X185452000Y-62516000D01*
X186404000Y-62516000D01*
X186404000Y-63468000D01*
G37*
M02*
