G04 #@! TF.GenerationSoftware,KiCad,Pcbnew,(5.1.5)-3*
G04 #@! TF.CreationDate,2020-03-13T12:56:36+05:00*
G04 #@! TF.ProjectId,dimmer,64696d6d-6572-42e6-9b69-6361645f7063,0.1*
G04 #@! TF.SameCoordinates,Original*
G04 #@! TF.FileFunction,Legend,Top*
G04 #@! TF.FilePolarity,Positive*
%FSLAX46Y46*%
G04 Gerber Fmt 4.6, Leading zero omitted, Abs format (unit mm)*
G04 Created by KiCad (PCBNEW (5.1.5)-3) date 2020-03-13 12:56:36*
%MOMM*%
%LPD*%
G04 APERTURE LIST*
%ADD10C,0.150000*%
%ADD11C,0.120000*%
G04 APERTURE END LIST*
D10*
X174094476Y-69635714D02*
X174094476Y-70302380D01*
X173856380Y-69254761D02*
X173618285Y-69969047D01*
X174237333Y-69969047D01*
X174618285Y-69921428D02*
X175380190Y-69921428D01*
X176189714Y-69778571D02*
X176332571Y-69826190D01*
X176380190Y-69873809D01*
X176427809Y-69969047D01*
X176427809Y-70111904D01*
X176380190Y-70207142D01*
X176332571Y-70254761D01*
X176237333Y-70302380D01*
X175856380Y-70302380D01*
X175856380Y-69302380D01*
X176189714Y-69302380D01*
X176284952Y-69350000D01*
X176332571Y-69397619D01*
X176380190Y-69492857D01*
X176380190Y-69588095D01*
X176332571Y-69683333D01*
X176284952Y-69730952D01*
X176189714Y-69778571D01*
X175856380Y-69778571D01*
X176856380Y-70302380D02*
X176856380Y-69635714D01*
X176856380Y-69302380D02*
X176808761Y-69350000D01*
X176856380Y-69397619D01*
X176904000Y-69350000D01*
X176856380Y-69302380D01*
X176856380Y-69397619D01*
X177189714Y-69635714D02*
X177570666Y-69635714D01*
X177332571Y-69302380D02*
X177332571Y-70159523D01*
X177380190Y-70254761D01*
X177475428Y-70302380D01*
X177570666Y-70302380D01*
X178665904Y-70302380D02*
X178665904Y-69302380D01*
X178904000Y-69302380D01*
X179046857Y-69350000D01*
X179142095Y-69445238D01*
X179189714Y-69540476D01*
X179237333Y-69730952D01*
X179237333Y-69873809D01*
X179189714Y-70064285D01*
X179142095Y-70159523D01*
X179046857Y-70254761D01*
X178904000Y-70302380D01*
X178665904Y-70302380D01*
X179665904Y-70302380D02*
X179665904Y-69635714D01*
X179665904Y-69302380D02*
X179618285Y-69350000D01*
X179665904Y-69397619D01*
X179713523Y-69350000D01*
X179665904Y-69302380D01*
X179665904Y-69397619D01*
X180142095Y-70302380D02*
X180142095Y-69635714D01*
X180142095Y-69730952D02*
X180189714Y-69683333D01*
X180284952Y-69635714D01*
X180427809Y-69635714D01*
X180523047Y-69683333D01*
X180570666Y-69778571D01*
X180570666Y-70302380D01*
X180570666Y-69778571D02*
X180618285Y-69683333D01*
X180713523Y-69635714D01*
X180856380Y-69635714D01*
X180951619Y-69683333D01*
X180999238Y-69778571D01*
X180999238Y-70302380D01*
X181475428Y-70302380D02*
X181475428Y-69635714D01*
X181475428Y-69730952D02*
X181523047Y-69683333D01*
X181618285Y-69635714D01*
X181761142Y-69635714D01*
X181856380Y-69683333D01*
X181904000Y-69778571D01*
X181904000Y-70302380D01*
X181904000Y-69778571D02*
X181951619Y-69683333D01*
X182046857Y-69635714D01*
X182189714Y-69635714D01*
X182284952Y-69683333D01*
X182332571Y-69778571D01*
X182332571Y-70302380D01*
X183189714Y-70254761D02*
X183094476Y-70302380D01*
X182904000Y-70302380D01*
X182808761Y-70254761D01*
X182761142Y-70159523D01*
X182761142Y-69778571D01*
X182808761Y-69683333D01*
X182904000Y-69635714D01*
X183094476Y-69635714D01*
X183189714Y-69683333D01*
X183237333Y-69778571D01*
X183237333Y-69873809D01*
X182761142Y-69969047D01*
X183665904Y-70302380D02*
X183665904Y-69635714D01*
X183665904Y-69826190D02*
X183713523Y-69730952D01*
X183761142Y-69683333D01*
X183856380Y-69635714D01*
X183951619Y-69635714D01*
X185046857Y-70302380D02*
X185046857Y-69302380D01*
X185046857Y-69683333D02*
X185142095Y-69635714D01*
X185332571Y-69635714D01*
X185427809Y-69683333D01*
X185475428Y-69730952D01*
X185523047Y-69826190D01*
X185523047Y-70111904D01*
X185475428Y-70207142D01*
X185427809Y-70254761D01*
X185332571Y-70302380D01*
X185142095Y-70302380D01*
X185046857Y-70254761D01*
X185856380Y-69635714D02*
X186094476Y-70302380D01*
X186332571Y-69635714D02*
X186094476Y-70302380D01*
X185999238Y-70540476D01*
X185951619Y-70588095D01*
X185856380Y-70635714D01*
X187475428Y-69635714D02*
X187475428Y-70302380D01*
X187475428Y-69730952D02*
X187523047Y-69683333D01*
X187618285Y-69635714D01*
X187761142Y-69635714D01*
X187856380Y-69683333D01*
X187904000Y-69778571D01*
X187904000Y-70302380D01*
X188284952Y-69302380D02*
X188904000Y-69302380D01*
X188570666Y-69683333D01*
X188713523Y-69683333D01*
X188808761Y-69730952D01*
X188856380Y-69778571D01*
X188904000Y-69873809D01*
X188904000Y-70111904D01*
X188856380Y-70207142D01*
X188808761Y-70254761D01*
X188713523Y-70302380D01*
X188427809Y-70302380D01*
X188332571Y-70254761D01*
X188284952Y-70207142D01*
X189332571Y-70302380D02*
X189332571Y-69635714D01*
X189332571Y-69826190D02*
X189380190Y-69730952D01*
X189427809Y-69683333D01*
X189523047Y-69635714D01*
X189618285Y-69635714D01*
X190380190Y-70302380D02*
X190380190Y-69302380D01*
X190380190Y-70254761D02*
X190284952Y-70302380D01*
X190094476Y-70302380D01*
X189999238Y-70254761D01*
X189951619Y-70207142D01*
X189904000Y-70111904D01*
X189904000Y-69826190D01*
X189951619Y-69730952D01*
X189999238Y-69683333D01*
X190094476Y-69635714D01*
X190284952Y-69635714D01*
X190380190Y-69683333D01*
X190856380Y-69921428D02*
X191618285Y-69921428D01*
X192094476Y-70302380D02*
X192094476Y-69302380D01*
X192094476Y-69683333D02*
X192189714Y-69635714D01*
X192380190Y-69635714D01*
X192475428Y-69683333D01*
X192523047Y-69730952D01*
X192570666Y-69826190D01*
X192570666Y-70111904D01*
X192523047Y-70207142D01*
X192475428Y-70254761D01*
X192380190Y-70302380D01*
X192189714Y-70302380D01*
X192094476Y-70254761D01*
X193427809Y-69635714D02*
X193427809Y-70302380D01*
X192999238Y-69635714D02*
X192999238Y-70159523D01*
X193046857Y-70254761D01*
X193142095Y-70302380D01*
X193284952Y-70302380D01*
X193380190Y-70254761D01*
X193427809Y-70207142D01*
X194332571Y-69635714D02*
X194332571Y-70445238D01*
X194284952Y-70540476D01*
X194237333Y-70588095D01*
X194142095Y-70635714D01*
X193999238Y-70635714D01*
X193904000Y-70588095D01*
X194332571Y-70254761D02*
X194237333Y-70302380D01*
X194046857Y-70302380D01*
X193951619Y-70254761D01*
X193904000Y-70207142D01*
X193856380Y-70111904D01*
X193856380Y-69826190D01*
X193904000Y-69730952D01*
X193951619Y-69683333D01*
X194046857Y-69635714D01*
X194237333Y-69635714D01*
X194332571Y-69683333D01*
X194761142Y-70254761D02*
X194856380Y-70302380D01*
X195046857Y-70302380D01*
X195142095Y-70254761D01*
X195189714Y-70159523D01*
X195189714Y-70111904D01*
X195142095Y-70016666D01*
X195046857Y-69969047D01*
X194904000Y-69969047D01*
X194808761Y-69921428D01*
X194761142Y-69826190D01*
X194761142Y-69778571D01*
X194808761Y-69683333D01*
X194904000Y-69635714D01*
X195046857Y-69635714D01*
X195142095Y-69683333D01*
D11*
X197866000Y-78994000D02*
X190246000Y-78994000D01*
X190246000Y-99314000D02*
X197866000Y-99314000D01*
X191516000Y-99314000D02*
X191516000Y-78994000D01*
X197866000Y-78994000D02*
X197866000Y-99314000D01*
X190246000Y-78994000D02*
X190246000Y-99314000D01*
X173498000Y-99374000D02*
G75*
G02X175498000Y-99374000I1000000J0D01*
G01*
X175498000Y-99374000D02*
X176748000Y-99374000D01*
X176748000Y-99374000D02*
X176748000Y-91634000D01*
X176748000Y-91634000D02*
X172248000Y-91634000D01*
X172248000Y-91634000D02*
X172248000Y-99374000D01*
X172248000Y-99374000D02*
X173498000Y-99374000D01*
X179748000Y-99434000D02*
X179748000Y-91574000D01*
X179748000Y-91574000D02*
X169248000Y-91574000D01*
X169248000Y-91574000D02*
X169248000Y-99434000D01*
X169248000Y-99434000D02*
X179748000Y-99434000D01*
X162620000Y-76438000D02*
G75*
G02X162620000Y-74438000I0J1000000D01*
G01*
X162620000Y-74438000D02*
X162620000Y-73188000D01*
X162620000Y-73188000D02*
X152340000Y-73188000D01*
X152340000Y-73188000D02*
X152340000Y-77688000D01*
X152340000Y-77688000D02*
X162620000Y-77688000D01*
X162620000Y-77688000D02*
X162620000Y-76438000D01*
X162680000Y-70188000D02*
X152280000Y-70188000D01*
X152280000Y-70188000D02*
X152280000Y-80688000D01*
X152280000Y-80688000D02*
X162680000Y-80688000D01*
X162680000Y-80688000D02*
X162680000Y-70188000D01*
X124908000Y-100136000D02*
X130108000Y-100136000D01*
X124908000Y-92456000D02*
X124908000Y-100136000D01*
X130108000Y-89856000D02*
X130108000Y-100136000D01*
X124908000Y-92456000D02*
X127508000Y-92456000D01*
X127508000Y-92456000D02*
X127508000Y-89856000D01*
X127508000Y-89856000D02*
X130108000Y-89856000D01*
X124908000Y-91186000D02*
X124908000Y-89856000D01*
X124908000Y-89856000D02*
X126238000Y-89856000D01*
X129226000Y-85538000D02*
X129226000Y-88198000D01*
X134366000Y-85538000D02*
X129226000Y-85538000D01*
X134366000Y-88198000D02*
X129226000Y-88198000D01*
X134366000Y-85538000D02*
X134366000Y-88198000D01*
X135636000Y-85538000D02*
X136966000Y-85538000D01*
X136966000Y-85538000D02*
X136966000Y-86868000D01*
X160560000Y-97182000D02*
X160560000Y-97512000D01*
X167100000Y-97182000D02*
X160560000Y-97182000D01*
X167100000Y-97512000D02*
X167100000Y-97182000D01*
X160560000Y-99922000D02*
X160560000Y-99592000D01*
X167100000Y-99922000D02*
X160560000Y-99922000D01*
X167100000Y-99592000D02*
X167100000Y-99922000D01*
X160560000Y-91162000D02*
X160560000Y-90832000D01*
X160560000Y-90832000D02*
X167100000Y-90832000D01*
X167100000Y-90832000D02*
X167100000Y-91162000D01*
X160560000Y-93242000D02*
X160560000Y-93572000D01*
X160560000Y-93572000D02*
X167100000Y-93572000D01*
X167100000Y-93572000D02*
X167100000Y-93242000D01*
X188182000Y-90524000D02*
X188182000Y-90194000D01*
X181642000Y-90524000D02*
X188182000Y-90524000D01*
X181642000Y-90194000D02*
X181642000Y-90524000D01*
X188182000Y-87784000D02*
X188182000Y-88114000D01*
X181642000Y-87784000D02*
X188182000Y-87784000D01*
X181642000Y-88114000D02*
X181642000Y-87784000D01*
X188182000Y-85114000D02*
X188182000Y-85444000D01*
X188182000Y-85444000D02*
X181642000Y-85444000D01*
X181642000Y-85444000D02*
X181642000Y-85114000D01*
X188182000Y-83034000D02*
X188182000Y-82704000D01*
X188182000Y-82704000D02*
X181642000Y-82704000D01*
X181642000Y-82704000D02*
X181642000Y-83034000D01*
X181642000Y-97004000D02*
X181642000Y-96674000D01*
X181642000Y-96674000D02*
X188182000Y-96674000D01*
X188182000Y-96674000D02*
X188182000Y-97004000D01*
X181642000Y-99084000D02*
X181642000Y-99414000D01*
X181642000Y-99414000D02*
X188182000Y-99414000D01*
X188182000Y-99414000D02*
X188182000Y-99084000D01*
X181642000Y-93372000D02*
X181642000Y-93702000D01*
X188182000Y-93372000D02*
X181642000Y-93372000D01*
X188182000Y-93702000D02*
X188182000Y-93372000D01*
X181642000Y-96112000D02*
X181642000Y-95782000D01*
X188182000Y-96112000D02*
X181642000Y-96112000D01*
X188182000Y-95782000D02*
X188182000Y-96112000D01*
X128778000Y-81658000D02*
X128778000Y-84458000D01*
X139108000Y-81658000D02*
X126068000Y-81658000D01*
X139108000Y-84458000D02*
X139108000Y-81658000D01*
X126068000Y-84458000D02*
X139108000Y-84458000D01*
X126068000Y-81658000D02*
X126068000Y-84458000D01*
X143634000Y-82720000D02*
X146434000Y-82720000D01*
X146434000Y-82720000D02*
X146434000Y-69680000D01*
X146434000Y-69680000D02*
X143634000Y-69680000D01*
X143634000Y-69680000D02*
X143634000Y-82720000D01*
X143634000Y-80010000D02*
X146434000Y-80010000D01*
X127628000Y-79626000D02*
X127628000Y-69726000D01*
X140088000Y-79626000D02*
X140088000Y-69726000D01*
X127628000Y-79626000D02*
X140088000Y-79626000D01*
X127628000Y-69726000D02*
X140088000Y-69726000D01*
X127388000Y-79866000D02*
X127388000Y-78482000D01*
X127388000Y-79866000D02*
X128771000Y-79866000D01*
X129413000Y-76706000D02*
X130683000Y-76706000D01*
X130683000Y-76706000D02*
X130683000Y-72646000D01*
X130683000Y-72646000D02*
X129413000Y-72646000D01*
X129413000Y-72646000D02*
X129413000Y-76706000D01*
X129533000Y-76706000D02*
X129533000Y-75352667D01*
X129653000Y-76706000D02*
X129653000Y-75352667D01*
X129773000Y-76706000D02*
X129773000Y-75352667D01*
X129893000Y-76706000D02*
X129893000Y-75352667D01*
X130013000Y-76706000D02*
X130013000Y-75352667D01*
X130133000Y-76706000D02*
X130133000Y-75352667D01*
X130253000Y-76706000D02*
X130253000Y-75352667D01*
X130373000Y-76706000D02*
X130373000Y-75352667D01*
X130493000Y-76706000D02*
X130493000Y-75352667D01*
X130613000Y-76706000D02*
X130613000Y-75352667D01*
X129413000Y-75352667D02*
X130683000Y-75352667D01*
X131953000Y-76706000D02*
X133223000Y-76706000D01*
X133223000Y-76706000D02*
X133223000Y-72646000D01*
X133223000Y-72646000D02*
X131953000Y-72646000D01*
X131953000Y-72646000D02*
X131953000Y-76706000D01*
X132073000Y-76706000D02*
X132073000Y-75352667D01*
X132193000Y-76706000D02*
X132193000Y-75352667D01*
X132313000Y-76706000D02*
X132313000Y-75352667D01*
X132433000Y-76706000D02*
X132433000Y-75352667D01*
X132553000Y-76706000D02*
X132553000Y-75352667D01*
X132673000Y-76706000D02*
X132673000Y-75352667D01*
X132793000Y-76706000D02*
X132793000Y-75352667D01*
X132913000Y-76706000D02*
X132913000Y-75352667D01*
X133033000Y-76706000D02*
X133033000Y-75352667D01*
X133153000Y-76706000D02*
X133153000Y-75352667D01*
X131953000Y-75352667D02*
X133223000Y-75352667D01*
X134493000Y-76706000D02*
X135763000Y-76706000D01*
X135763000Y-76706000D02*
X135763000Y-72646000D01*
X135763000Y-72646000D02*
X134493000Y-72646000D01*
X134493000Y-72646000D02*
X134493000Y-76706000D01*
X134613000Y-76706000D02*
X134613000Y-75352667D01*
X134733000Y-76706000D02*
X134733000Y-75352667D01*
X134853000Y-76706000D02*
X134853000Y-75352667D01*
X134973000Y-76706000D02*
X134973000Y-75352667D01*
X135093000Y-76706000D02*
X135093000Y-75352667D01*
X135213000Y-76706000D02*
X135213000Y-75352667D01*
X135333000Y-76706000D02*
X135333000Y-75352667D01*
X135453000Y-76706000D02*
X135453000Y-75352667D01*
X135573000Y-76706000D02*
X135573000Y-75352667D01*
X135693000Y-76706000D02*
X135693000Y-75352667D01*
X134493000Y-75352667D02*
X135763000Y-75352667D01*
X137033000Y-76706000D02*
X138303000Y-76706000D01*
X138303000Y-76706000D02*
X138303000Y-72646000D01*
X138303000Y-72646000D02*
X137033000Y-72646000D01*
X137033000Y-72646000D02*
X137033000Y-76706000D01*
X137153000Y-76706000D02*
X137153000Y-75352667D01*
X137273000Y-76706000D02*
X137273000Y-75352667D01*
X137393000Y-76706000D02*
X137393000Y-75352667D01*
X137513000Y-76706000D02*
X137513000Y-75352667D01*
X137633000Y-76706000D02*
X137633000Y-75352667D01*
X137753000Y-76706000D02*
X137753000Y-75352667D01*
X137873000Y-76706000D02*
X137873000Y-75352667D01*
X137993000Y-76706000D02*
X137993000Y-75352667D01*
X138113000Y-76706000D02*
X138113000Y-75352667D01*
X138233000Y-76706000D02*
X138233000Y-75352667D01*
X137033000Y-75352667D02*
X138303000Y-75352667D01*
X158302000Y-95996000D02*
G75*
G02X158302000Y-93996000I0J1000000D01*
G01*
X158302000Y-93996000D02*
X158302000Y-92746000D01*
X158302000Y-92746000D02*
X132782000Y-92746000D01*
X132782000Y-92746000D02*
X132782000Y-97246000D01*
X132782000Y-97246000D02*
X158302000Y-97246000D01*
X158302000Y-97246000D02*
X158302000Y-95996000D01*
X158362000Y-89746000D02*
X132722000Y-89746000D01*
X132722000Y-89746000D02*
X132722000Y-100246000D01*
X132722000Y-100246000D02*
X158362000Y-100246000D01*
X158362000Y-100246000D02*
X158362000Y-89746000D01*
X179748000Y-82684000D02*
X169248000Y-82684000D01*
X179748000Y-90544000D02*
X179748000Y-82684000D01*
X169248000Y-90544000D02*
X179748000Y-90544000D01*
X169248000Y-82684000D02*
X169248000Y-90544000D01*
X176748000Y-82744000D02*
X175498000Y-82744000D01*
X176748000Y-90484000D02*
X176748000Y-82744000D01*
X172248000Y-90484000D02*
X176748000Y-90484000D01*
X172248000Y-82744000D02*
X172248000Y-90484000D01*
X173498000Y-82744000D02*
X172248000Y-82744000D01*
X175498000Y-82744000D02*
G75*
G02X173498000Y-82744000I-1000000J0D01*
G01*
X151691801Y-74801000D02*
X151691801Y-74401000D01*
X151891801Y-74601000D02*
X151491801Y-74601000D01*
X147541000Y-73776000D02*
X147541000Y-73036000D01*
X147581000Y-73943000D02*
X147581000Y-72869000D01*
X147621000Y-74070000D02*
X147621000Y-72742000D01*
X147661000Y-74174000D02*
X147661000Y-72638000D01*
X147701000Y-74265000D02*
X147701000Y-72547000D01*
X147741000Y-74346000D02*
X147741000Y-72466000D01*
X147781000Y-74419000D02*
X147781000Y-72393000D01*
X147821000Y-72566000D02*
X147821000Y-72326000D01*
X147821000Y-74486000D02*
X147821000Y-74246000D01*
X147861000Y-72566000D02*
X147861000Y-72264000D01*
X147861000Y-74548000D02*
X147861000Y-74246000D01*
X147901000Y-72566000D02*
X147901000Y-72206000D01*
X147901000Y-74606000D02*
X147901000Y-74246000D01*
X147941000Y-72566000D02*
X147941000Y-72152000D01*
X147941000Y-74660000D02*
X147941000Y-74246000D01*
X147981000Y-72566000D02*
X147981000Y-72102000D01*
X147981000Y-74710000D02*
X147981000Y-74246000D01*
X148021000Y-72566000D02*
X148021000Y-72055000D01*
X148021000Y-74757000D02*
X148021000Y-74246000D01*
X148061000Y-72566000D02*
X148061000Y-72010000D01*
X148061000Y-74802000D02*
X148061000Y-74246000D01*
X148101000Y-72566000D02*
X148101000Y-71968000D01*
X148101000Y-74844000D02*
X148101000Y-74246000D01*
X148141000Y-72566000D02*
X148141000Y-71928000D01*
X148141000Y-74884000D02*
X148141000Y-74246000D01*
X148181000Y-72566000D02*
X148181000Y-71890000D01*
X148181000Y-74922000D02*
X148181000Y-74246000D01*
X148221000Y-72566000D02*
X148221000Y-71854000D01*
X148221000Y-74958000D02*
X148221000Y-74246000D01*
X148261000Y-72566000D02*
X148261000Y-71819000D01*
X148261000Y-74993000D02*
X148261000Y-74246000D01*
X148301000Y-72566000D02*
X148301000Y-71787000D01*
X148301000Y-75025000D02*
X148301000Y-74246000D01*
X148341000Y-72566000D02*
X148341000Y-71756000D01*
X148341000Y-75056000D02*
X148341000Y-74246000D01*
X148381000Y-72566000D02*
X148381000Y-71726000D01*
X148381000Y-75086000D02*
X148381000Y-74246000D01*
X148421000Y-72566000D02*
X148421000Y-71698000D01*
X148421000Y-75114000D02*
X148421000Y-74246000D01*
X148461000Y-72566000D02*
X148461000Y-71671000D01*
X148461000Y-75141000D02*
X148461000Y-74246000D01*
X148501000Y-72566000D02*
X148501000Y-71646000D01*
X148501000Y-75166000D02*
X148501000Y-74246000D01*
X148541000Y-72566000D02*
X148541000Y-71621000D01*
X148541000Y-75191000D02*
X148541000Y-74246000D01*
X148581000Y-72566000D02*
X148581000Y-71598000D01*
X148581000Y-75214000D02*
X148581000Y-74246000D01*
X148621000Y-72566000D02*
X148621000Y-71576000D01*
X148621000Y-75236000D02*
X148621000Y-74246000D01*
X148661000Y-72566000D02*
X148661000Y-71555000D01*
X148661000Y-75257000D02*
X148661000Y-74246000D01*
X148701000Y-72566000D02*
X148701000Y-71536000D01*
X148701000Y-75276000D02*
X148701000Y-74246000D01*
X148741000Y-72566000D02*
X148741000Y-71517000D01*
X148741000Y-75295000D02*
X148741000Y-74246000D01*
X148781000Y-72566000D02*
X148781000Y-71499000D01*
X148781000Y-75313000D02*
X148781000Y-74246000D01*
X148821000Y-72566000D02*
X148821000Y-71482000D01*
X148821000Y-75330000D02*
X148821000Y-74246000D01*
X148861000Y-72566000D02*
X148861000Y-71466000D01*
X148861000Y-75346000D02*
X148861000Y-74246000D01*
X148901000Y-72566000D02*
X148901000Y-71452000D01*
X148901000Y-75360000D02*
X148901000Y-74246000D01*
X148942000Y-72566000D02*
X148942000Y-71438000D01*
X148942000Y-75374000D02*
X148942000Y-74246000D01*
X148982000Y-72566000D02*
X148982000Y-71424000D01*
X148982000Y-75388000D02*
X148982000Y-74246000D01*
X149022000Y-72566000D02*
X149022000Y-71412000D01*
X149022000Y-75400000D02*
X149022000Y-74246000D01*
X149062000Y-72566000D02*
X149062000Y-71401000D01*
X149062000Y-75411000D02*
X149062000Y-74246000D01*
X149102000Y-72566000D02*
X149102000Y-71390000D01*
X149102000Y-75422000D02*
X149102000Y-74246000D01*
X149142000Y-72566000D02*
X149142000Y-71381000D01*
X149142000Y-75431000D02*
X149142000Y-74246000D01*
X149182000Y-72566000D02*
X149182000Y-71372000D01*
X149182000Y-75440000D02*
X149182000Y-74246000D01*
X149222000Y-72566000D02*
X149222000Y-71364000D01*
X149222000Y-75448000D02*
X149222000Y-74246000D01*
X149262000Y-72566000D02*
X149262000Y-71356000D01*
X149262000Y-75456000D02*
X149262000Y-74246000D01*
X149302000Y-72566000D02*
X149302000Y-71350000D01*
X149302000Y-75462000D02*
X149302000Y-74246000D01*
X149342000Y-72566000D02*
X149342000Y-71344000D01*
X149342000Y-75468000D02*
X149342000Y-74246000D01*
X149382000Y-72566000D02*
X149382000Y-71339000D01*
X149382000Y-75473000D02*
X149382000Y-74246000D01*
X149422000Y-72566000D02*
X149422000Y-71335000D01*
X149422000Y-75477000D02*
X149422000Y-74246000D01*
X149462000Y-75480000D02*
X149462000Y-71332000D01*
X149502000Y-75483000D02*
X149502000Y-71329000D01*
X149542000Y-75485000D02*
X149542000Y-71327000D01*
X149582000Y-75486000D02*
X149582000Y-71326000D01*
X149622000Y-75486000D02*
X149622000Y-71326000D01*
X151742000Y-73406000D02*
G75*
G03X151742000Y-73406000I-2120000J0D01*
G01*
X167474000Y-73168000D02*
G75*
G03X167474000Y-73168000I-2120000J0D01*
G01*
X163274000Y-73168000D02*
X167434000Y-73168000D01*
X163274000Y-73128000D02*
X167434000Y-73128000D01*
X163275000Y-73088000D02*
X167433000Y-73088000D01*
X163277000Y-73048000D02*
X167431000Y-73048000D01*
X163280000Y-73008000D02*
X167428000Y-73008000D01*
X163283000Y-72968000D02*
X164514000Y-72968000D01*
X166194000Y-72968000D02*
X167425000Y-72968000D01*
X163287000Y-72928000D02*
X164514000Y-72928000D01*
X166194000Y-72928000D02*
X167421000Y-72928000D01*
X163292000Y-72888000D02*
X164514000Y-72888000D01*
X166194000Y-72888000D02*
X167416000Y-72888000D01*
X163298000Y-72848000D02*
X164514000Y-72848000D01*
X166194000Y-72848000D02*
X167410000Y-72848000D01*
X163304000Y-72808000D02*
X164514000Y-72808000D01*
X166194000Y-72808000D02*
X167404000Y-72808000D01*
X163312000Y-72768000D02*
X164514000Y-72768000D01*
X166194000Y-72768000D02*
X167396000Y-72768000D01*
X163320000Y-72728000D02*
X164514000Y-72728000D01*
X166194000Y-72728000D02*
X167388000Y-72728000D01*
X163329000Y-72688000D02*
X164514000Y-72688000D01*
X166194000Y-72688000D02*
X167379000Y-72688000D01*
X163338000Y-72648000D02*
X164514000Y-72648000D01*
X166194000Y-72648000D02*
X167370000Y-72648000D01*
X163349000Y-72608000D02*
X164514000Y-72608000D01*
X166194000Y-72608000D02*
X167359000Y-72608000D01*
X163360000Y-72568000D02*
X164514000Y-72568000D01*
X166194000Y-72568000D02*
X167348000Y-72568000D01*
X163372000Y-72528000D02*
X164514000Y-72528000D01*
X166194000Y-72528000D02*
X167336000Y-72528000D01*
X163386000Y-72488000D02*
X164514000Y-72488000D01*
X166194000Y-72488000D02*
X167322000Y-72488000D01*
X163400000Y-72447000D02*
X164514000Y-72447000D01*
X166194000Y-72447000D02*
X167308000Y-72447000D01*
X163414000Y-72407000D02*
X164514000Y-72407000D01*
X166194000Y-72407000D02*
X167294000Y-72407000D01*
X163430000Y-72367000D02*
X164514000Y-72367000D01*
X166194000Y-72367000D02*
X167278000Y-72367000D01*
X163447000Y-72327000D02*
X164514000Y-72327000D01*
X166194000Y-72327000D02*
X167261000Y-72327000D01*
X163465000Y-72287000D02*
X164514000Y-72287000D01*
X166194000Y-72287000D02*
X167243000Y-72287000D01*
X163484000Y-72247000D02*
X164514000Y-72247000D01*
X166194000Y-72247000D02*
X167224000Y-72247000D01*
X163503000Y-72207000D02*
X164514000Y-72207000D01*
X166194000Y-72207000D02*
X167205000Y-72207000D01*
X163524000Y-72167000D02*
X164514000Y-72167000D01*
X166194000Y-72167000D02*
X167184000Y-72167000D01*
X163546000Y-72127000D02*
X164514000Y-72127000D01*
X166194000Y-72127000D02*
X167162000Y-72127000D01*
X163569000Y-72087000D02*
X164514000Y-72087000D01*
X166194000Y-72087000D02*
X167139000Y-72087000D01*
X163594000Y-72047000D02*
X164514000Y-72047000D01*
X166194000Y-72047000D02*
X167114000Y-72047000D01*
X163619000Y-72007000D02*
X164514000Y-72007000D01*
X166194000Y-72007000D02*
X167089000Y-72007000D01*
X163646000Y-71967000D02*
X164514000Y-71967000D01*
X166194000Y-71967000D02*
X167062000Y-71967000D01*
X163674000Y-71927000D02*
X164514000Y-71927000D01*
X166194000Y-71927000D02*
X167034000Y-71927000D01*
X163704000Y-71887000D02*
X164514000Y-71887000D01*
X166194000Y-71887000D02*
X167004000Y-71887000D01*
X163735000Y-71847000D02*
X164514000Y-71847000D01*
X166194000Y-71847000D02*
X166973000Y-71847000D01*
X163767000Y-71807000D02*
X164514000Y-71807000D01*
X166194000Y-71807000D02*
X166941000Y-71807000D01*
X163802000Y-71767000D02*
X164514000Y-71767000D01*
X166194000Y-71767000D02*
X166906000Y-71767000D01*
X163838000Y-71727000D02*
X164514000Y-71727000D01*
X166194000Y-71727000D02*
X166870000Y-71727000D01*
X163876000Y-71687000D02*
X164514000Y-71687000D01*
X166194000Y-71687000D02*
X166832000Y-71687000D01*
X163916000Y-71647000D02*
X164514000Y-71647000D01*
X166194000Y-71647000D02*
X166792000Y-71647000D01*
X163958000Y-71607000D02*
X164514000Y-71607000D01*
X166194000Y-71607000D02*
X166750000Y-71607000D01*
X164003000Y-71567000D02*
X164514000Y-71567000D01*
X166194000Y-71567000D02*
X166705000Y-71567000D01*
X164050000Y-71527000D02*
X164514000Y-71527000D01*
X166194000Y-71527000D02*
X166658000Y-71527000D01*
X164100000Y-71487000D02*
X164514000Y-71487000D01*
X166194000Y-71487000D02*
X166608000Y-71487000D01*
X164154000Y-71447000D02*
X164514000Y-71447000D01*
X166194000Y-71447000D02*
X166554000Y-71447000D01*
X164212000Y-71407000D02*
X164514000Y-71407000D01*
X166194000Y-71407000D02*
X166496000Y-71407000D01*
X164274000Y-71367000D02*
X164514000Y-71367000D01*
X166194000Y-71367000D02*
X166434000Y-71367000D01*
X164341000Y-71327000D02*
X166367000Y-71327000D01*
X164414000Y-71287000D02*
X166294000Y-71287000D01*
X164495000Y-71247000D02*
X166213000Y-71247000D01*
X164586000Y-71207000D02*
X166122000Y-71207000D01*
X164690000Y-71167000D02*
X166018000Y-71167000D01*
X164817000Y-71127000D02*
X165891000Y-71127000D01*
X164984000Y-71087000D02*
X165724000Y-71087000D01*
X164159000Y-75437801D02*
X164159000Y-75037801D01*
X163959000Y-75237801D02*
X164359000Y-75237801D01*
X148211000Y-80285801D02*
X148611000Y-80285801D01*
X148411000Y-80485801D02*
X148411000Y-80085801D01*
X149236000Y-76135000D02*
X149976000Y-76135000D01*
X149069000Y-76175000D02*
X150143000Y-76175000D01*
X148942000Y-76215000D02*
X150270000Y-76215000D01*
X148838000Y-76255000D02*
X150374000Y-76255000D01*
X148747000Y-76295000D02*
X150465000Y-76295000D01*
X148666000Y-76335000D02*
X150546000Y-76335000D01*
X148593000Y-76375000D02*
X150619000Y-76375000D01*
X150446000Y-76415000D02*
X150686000Y-76415000D01*
X148526000Y-76415000D02*
X148766000Y-76415000D01*
X150446000Y-76455000D02*
X150748000Y-76455000D01*
X148464000Y-76455000D02*
X148766000Y-76455000D01*
X150446000Y-76495000D02*
X150806000Y-76495000D01*
X148406000Y-76495000D02*
X148766000Y-76495000D01*
X150446000Y-76535000D02*
X150860000Y-76535000D01*
X148352000Y-76535000D02*
X148766000Y-76535000D01*
X150446000Y-76575000D02*
X150910000Y-76575000D01*
X148302000Y-76575000D02*
X148766000Y-76575000D01*
X150446000Y-76615000D02*
X150957000Y-76615000D01*
X148255000Y-76615000D02*
X148766000Y-76615000D01*
X150446000Y-76655000D02*
X151002000Y-76655000D01*
X148210000Y-76655000D02*
X148766000Y-76655000D01*
X150446000Y-76695000D02*
X151044000Y-76695000D01*
X148168000Y-76695000D02*
X148766000Y-76695000D01*
X150446000Y-76735000D02*
X151084000Y-76735000D01*
X148128000Y-76735000D02*
X148766000Y-76735000D01*
X150446000Y-76775000D02*
X151122000Y-76775000D01*
X148090000Y-76775000D02*
X148766000Y-76775000D01*
X150446000Y-76815000D02*
X151158000Y-76815000D01*
X148054000Y-76815000D02*
X148766000Y-76815000D01*
X150446000Y-76855000D02*
X151193000Y-76855000D01*
X148019000Y-76855000D02*
X148766000Y-76855000D01*
X150446000Y-76895000D02*
X151225000Y-76895000D01*
X147987000Y-76895000D02*
X148766000Y-76895000D01*
X150446000Y-76935000D02*
X151256000Y-76935000D01*
X147956000Y-76935000D02*
X148766000Y-76935000D01*
X150446000Y-76975000D02*
X151286000Y-76975000D01*
X147926000Y-76975000D02*
X148766000Y-76975000D01*
X150446000Y-77015000D02*
X151314000Y-77015000D01*
X147898000Y-77015000D02*
X148766000Y-77015000D01*
X150446000Y-77055000D02*
X151341000Y-77055000D01*
X147871000Y-77055000D02*
X148766000Y-77055000D01*
X150446000Y-77095000D02*
X151366000Y-77095000D01*
X147846000Y-77095000D02*
X148766000Y-77095000D01*
X150446000Y-77135000D02*
X151391000Y-77135000D01*
X147821000Y-77135000D02*
X148766000Y-77135000D01*
X150446000Y-77175000D02*
X151414000Y-77175000D01*
X147798000Y-77175000D02*
X148766000Y-77175000D01*
X150446000Y-77215000D02*
X151436000Y-77215000D01*
X147776000Y-77215000D02*
X148766000Y-77215000D01*
X150446000Y-77255000D02*
X151457000Y-77255000D01*
X147755000Y-77255000D02*
X148766000Y-77255000D01*
X150446000Y-77295000D02*
X151476000Y-77295000D01*
X147736000Y-77295000D02*
X148766000Y-77295000D01*
X150446000Y-77335000D02*
X151495000Y-77335000D01*
X147717000Y-77335000D02*
X148766000Y-77335000D01*
X150446000Y-77375000D02*
X151513000Y-77375000D01*
X147699000Y-77375000D02*
X148766000Y-77375000D01*
X150446000Y-77415000D02*
X151530000Y-77415000D01*
X147682000Y-77415000D02*
X148766000Y-77415000D01*
X150446000Y-77455000D02*
X151546000Y-77455000D01*
X147666000Y-77455000D02*
X148766000Y-77455000D01*
X150446000Y-77495000D02*
X151560000Y-77495000D01*
X147652000Y-77495000D02*
X148766000Y-77495000D01*
X150446000Y-77536000D02*
X151574000Y-77536000D01*
X147638000Y-77536000D02*
X148766000Y-77536000D01*
X150446000Y-77576000D02*
X151588000Y-77576000D01*
X147624000Y-77576000D02*
X148766000Y-77576000D01*
X150446000Y-77616000D02*
X151600000Y-77616000D01*
X147612000Y-77616000D02*
X148766000Y-77616000D01*
X150446000Y-77656000D02*
X151611000Y-77656000D01*
X147601000Y-77656000D02*
X148766000Y-77656000D01*
X150446000Y-77696000D02*
X151622000Y-77696000D01*
X147590000Y-77696000D02*
X148766000Y-77696000D01*
X150446000Y-77736000D02*
X151631000Y-77736000D01*
X147581000Y-77736000D02*
X148766000Y-77736000D01*
X150446000Y-77776000D02*
X151640000Y-77776000D01*
X147572000Y-77776000D02*
X148766000Y-77776000D01*
X150446000Y-77816000D02*
X151648000Y-77816000D01*
X147564000Y-77816000D02*
X148766000Y-77816000D01*
X150446000Y-77856000D02*
X151656000Y-77856000D01*
X147556000Y-77856000D02*
X148766000Y-77856000D01*
X150446000Y-77896000D02*
X151662000Y-77896000D01*
X147550000Y-77896000D02*
X148766000Y-77896000D01*
X150446000Y-77936000D02*
X151668000Y-77936000D01*
X147544000Y-77936000D02*
X148766000Y-77936000D01*
X150446000Y-77976000D02*
X151673000Y-77976000D01*
X147539000Y-77976000D02*
X148766000Y-77976000D01*
X150446000Y-78016000D02*
X151677000Y-78016000D01*
X147535000Y-78016000D02*
X148766000Y-78016000D01*
X147532000Y-78056000D02*
X151680000Y-78056000D01*
X147529000Y-78096000D02*
X151683000Y-78096000D01*
X147527000Y-78136000D02*
X151685000Y-78136000D01*
X147526000Y-78176000D02*
X151686000Y-78176000D01*
X147526000Y-78216000D02*
X151686000Y-78216000D01*
X151726000Y-78216000D02*
G75*
G03X151726000Y-78216000I-2120000J0D01*
G01*
X167474000Y-77962000D02*
G75*
G03X167474000Y-77962000I-2120000J0D01*
G01*
X163274000Y-77962000D02*
X167434000Y-77962000D01*
X163274000Y-77922000D02*
X167434000Y-77922000D01*
X163275000Y-77882000D02*
X167433000Y-77882000D01*
X163277000Y-77842000D02*
X167431000Y-77842000D01*
X163280000Y-77802000D02*
X167428000Y-77802000D01*
X163283000Y-77762000D02*
X164514000Y-77762000D01*
X166194000Y-77762000D02*
X167425000Y-77762000D01*
X163287000Y-77722000D02*
X164514000Y-77722000D01*
X166194000Y-77722000D02*
X167421000Y-77722000D01*
X163292000Y-77682000D02*
X164514000Y-77682000D01*
X166194000Y-77682000D02*
X167416000Y-77682000D01*
X163298000Y-77642000D02*
X164514000Y-77642000D01*
X166194000Y-77642000D02*
X167410000Y-77642000D01*
X163304000Y-77602000D02*
X164514000Y-77602000D01*
X166194000Y-77602000D02*
X167404000Y-77602000D01*
X163312000Y-77562000D02*
X164514000Y-77562000D01*
X166194000Y-77562000D02*
X167396000Y-77562000D01*
X163320000Y-77522000D02*
X164514000Y-77522000D01*
X166194000Y-77522000D02*
X167388000Y-77522000D01*
X163329000Y-77482000D02*
X164514000Y-77482000D01*
X166194000Y-77482000D02*
X167379000Y-77482000D01*
X163338000Y-77442000D02*
X164514000Y-77442000D01*
X166194000Y-77442000D02*
X167370000Y-77442000D01*
X163349000Y-77402000D02*
X164514000Y-77402000D01*
X166194000Y-77402000D02*
X167359000Y-77402000D01*
X163360000Y-77362000D02*
X164514000Y-77362000D01*
X166194000Y-77362000D02*
X167348000Y-77362000D01*
X163372000Y-77322000D02*
X164514000Y-77322000D01*
X166194000Y-77322000D02*
X167336000Y-77322000D01*
X163386000Y-77282000D02*
X164514000Y-77282000D01*
X166194000Y-77282000D02*
X167322000Y-77282000D01*
X163400000Y-77241000D02*
X164514000Y-77241000D01*
X166194000Y-77241000D02*
X167308000Y-77241000D01*
X163414000Y-77201000D02*
X164514000Y-77201000D01*
X166194000Y-77201000D02*
X167294000Y-77201000D01*
X163430000Y-77161000D02*
X164514000Y-77161000D01*
X166194000Y-77161000D02*
X167278000Y-77161000D01*
X163447000Y-77121000D02*
X164514000Y-77121000D01*
X166194000Y-77121000D02*
X167261000Y-77121000D01*
X163465000Y-77081000D02*
X164514000Y-77081000D01*
X166194000Y-77081000D02*
X167243000Y-77081000D01*
X163484000Y-77041000D02*
X164514000Y-77041000D01*
X166194000Y-77041000D02*
X167224000Y-77041000D01*
X163503000Y-77001000D02*
X164514000Y-77001000D01*
X166194000Y-77001000D02*
X167205000Y-77001000D01*
X163524000Y-76961000D02*
X164514000Y-76961000D01*
X166194000Y-76961000D02*
X167184000Y-76961000D01*
X163546000Y-76921000D02*
X164514000Y-76921000D01*
X166194000Y-76921000D02*
X167162000Y-76921000D01*
X163569000Y-76881000D02*
X164514000Y-76881000D01*
X166194000Y-76881000D02*
X167139000Y-76881000D01*
X163594000Y-76841000D02*
X164514000Y-76841000D01*
X166194000Y-76841000D02*
X167114000Y-76841000D01*
X163619000Y-76801000D02*
X164514000Y-76801000D01*
X166194000Y-76801000D02*
X167089000Y-76801000D01*
X163646000Y-76761000D02*
X164514000Y-76761000D01*
X166194000Y-76761000D02*
X167062000Y-76761000D01*
X163674000Y-76721000D02*
X164514000Y-76721000D01*
X166194000Y-76721000D02*
X167034000Y-76721000D01*
X163704000Y-76681000D02*
X164514000Y-76681000D01*
X166194000Y-76681000D02*
X167004000Y-76681000D01*
X163735000Y-76641000D02*
X164514000Y-76641000D01*
X166194000Y-76641000D02*
X166973000Y-76641000D01*
X163767000Y-76601000D02*
X164514000Y-76601000D01*
X166194000Y-76601000D02*
X166941000Y-76601000D01*
X163802000Y-76561000D02*
X164514000Y-76561000D01*
X166194000Y-76561000D02*
X166906000Y-76561000D01*
X163838000Y-76521000D02*
X164514000Y-76521000D01*
X166194000Y-76521000D02*
X166870000Y-76521000D01*
X163876000Y-76481000D02*
X164514000Y-76481000D01*
X166194000Y-76481000D02*
X166832000Y-76481000D01*
X163916000Y-76441000D02*
X164514000Y-76441000D01*
X166194000Y-76441000D02*
X166792000Y-76441000D01*
X163958000Y-76401000D02*
X164514000Y-76401000D01*
X166194000Y-76401000D02*
X166750000Y-76401000D01*
X164003000Y-76361000D02*
X164514000Y-76361000D01*
X166194000Y-76361000D02*
X166705000Y-76361000D01*
X164050000Y-76321000D02*
X164514000Y-76321000D01*
X166194000Y-76321000D02*
X166658000Y-76321000D01*
X164100000Y-76281000D02*
X164514000Y-76281000D01*
X166194000Y-76281000D02*
X166608000Y-76281000D01*
X164154000Y-76241000D02*
X164514000Y-76241000D01*
X166194000Y-76241000D02*
X166554000Y-76241000D01*
X164212000Y-76201000D02*
X164514000Y-76201000D01*
X166194000Y-76201000D02*
X166496000Y-76201000D01*
X164274000Y-76161000D02*
X164514000Y-76161000D01*
X166194000Y-76161000D02*
X166434000Y-76161000D01*
X164341000Y-76121000D02*
X166367000Y-76121000D01*
X164414000Y-76081000D02*
X166294000Y-76081000D01*
X164495000Y-76041000D02*
X166213000Y-76041000D01*
X164586000Y-76001000D02*
X166122000Y-76001000D01*
X164690000Y-75961000D02*
X166018000Y-75961000D01*
X164817000Y-75921000D02*
X165891000Y-75921000D01*
X164984000Y-75881000D02*
X165724000Y-75881000D01*
X164159000Y-80231801D02*
X164159000Y-79831801D01*
X163959000Y-80031801D02*
X164359000Y-80031801D01*
X184524000Y-81574000D02*
X184524000Y-71334000D01*
X168634000Y-81574000D02*
X168634000Y-71334000D01*
X168634000Y-81574000D02*
X184524000Y-81574000D01*
X168634000Y-71334000D02*
X184524000Y-71334000D01*
X184524000Y-78994000D02*
X187064000Y-78994000D01*
X184524000Y-76454000D02*
X187064000Y-76454000D01*
X184524000Y-73914000D02*
X187064000Y-73914000D01*
X165866000Y-81162000D02*
X165866000Y-88002000D01*
X158626000Y-81162000D02*
X158626000Y-88002000D01*
X162956000Y-88002000D02*
X165866000Y-88002000D01*
X158626000Y-88002000D02*
X161656000Y-88002000D01*
X162956000Y-81162000D02*
X165866000Y-81162000D01*
X158626000Y-81162000D02*
X161656000Y-81162000D01*
X151006000Y-81162000D02*
X154036000Y-81162000D01*
X155336000Y-81162000D02*
X158246000Y-81162000D01*
X151006000Y-88002000D02*
X154036000Y-88002000D01*
X155336000Y-88002000D02*
X158246000Y-88002000D01*
X151006000Y-81162000D02*
X151006000Y-88002000D01*
X158246000Y-81162000D02*
X158246000Y-88002000D01*
D10*
X193722666Y-77176380D02*
X193722666Y-77890666D01*
X193675047Y-78033523D01*
X193579809Y-78128761D01*
X193436952Y-78176380D01*
X193341714Y-78176380D01*
X194151238Y-77271619D02*
X194198857Y-77224000D01*
X194294095Y-77176380D01*
X194532190Y-77176380D01*
X194627428Y-77224000D01*
X194675047Y-77271619D01*
X194722666Y-77366857D01*
X194722666Y-77462095D01*
X194675047Y-77604952D01*
X194103619Y-78176380D01*
X194722666Y-78176380D01*
X173736095Y-99826380D02*
X173736095Y-100635904D01*
X173783714Y-100731142D01*
X173831333Y-100778761D01*
X173926571Y-100826380D01*
X174117047Y-100826380D01*
X174212285Y-100778761D01*
X174259904Y-100731142D01*
X174307523Y-100635904D01*
X174307523Y-99826380D01*
X174736095Y-99921619D02*
X174783714Y-99874000D01*
X174878952Y-99826380D01*
X175117047Y-99826380D01*
X175212285Y-99874000D01*
X175259904Y-99921619D01*
X175307523Y-100016857D01*
X175307523Y-100112095D01*
X175259904Y-100254952D01*
X174688476Y-100826380D01*
X175307523Y-100826380D01*
X156718095Y-69048380D02*
X156718095Y-69857904D01*
X156765714Y-69953142D01*
X156813333Y-70000761D01*
X156908571Y-70048380D01*
X157099047Y-70048380D01*
X157194285Y-70000761D01*
X157241904Y-69953142D01*
X157289523Y-69857904D01*
X157289523Y-69048380D01*
X157670476Y-69048380D02*
X158289523Y-69048380D01*
X157956190Y-69429333D01*
X158099047Y-69429333D01*
X158194285Y-69476952D01*
X158241904Y-69524571D01*
X158289523Y-69619809D01*
X158289523Y-69857904D01*
X158241904Y-69953142D01*
X158194285Y-70000761D01*
X158099047Y-70048380D01*
X157813333Y-70048380D01*
X157718095Y-70000761D01*
X157670476Y-69953142D01*
X127174666Y-88308380D02*
X127174666Y-89022666D01*
X127127047Y-89165523D01*
X127031809Y-89260761D01*
X126888952Y-89308380D01*
X126793714Y-89308380D01*
X128174666Y-89308380D02*
X127603238Y-89308380D01*
X127888952Y-89308380D02*
X127888952Y-88308380D01*
X127793714Y-88451238D01*
X127698476Y-88546476D01*
X127603238Y-88594095D01*
X137418380Y-87701333D02*
X138132666Y-87701333D01*
X138275523Y-87748952D01*
X138370761Y-87844190D01*
X138418380Y-87987047D01*
X138418380Y-88082285D01*
X138418380Y-87225142D02*
X137418380Y-87225142D01*
X137418380Y-86844190D01*
X137466000Y-86748952D01*
X137513619Y-86701333D01*
X137608857Y-86653714D01*
X137751714Y-86653714D01*
X137846952Y-86701333D01*
X137894571Y-86748952D01*
X137942190Y-86844190D01*
X137942190Y-87225142D01*
X138418380Y-85701333D02*
X138418380Y-86272761D01*
X138418380Y-85987047D02*
X137418380Y-85987047D01*
X137561238Y-86082285D01*
X137656476Y-86177523D01*
X137704095Y-86272761D01*
X163663333Y-101374380D02*
X163330000Y-100898190D01*
X163091904Y-101374380D02*
X163091904Y-100374380D01*
X163472857Y-100374380D01*
X163568095Y-100422000D01*
X163615714Y-100469619D01*
X163663333Y-100564857D01*
X163663333Y-100707714D01*
X163615714Y-100802952D01*
X163568095Y-100850571D01*
X163472857Y-100898190D01*
X163091904Y-100898190D01*
X164615714Y-101374380D02*
X164044285Y-101374380D01*
X164330000Y-101374380D02*
X164330000Y-100374380D01*
X164234761Y-100517238D01*
X164139523Y-100612476D01*
X164044285Y-100660095D01*
X163663333Y-90284380D02*
X163330000Y-89808190D01*
X163091904Y-90284380D02*
X163091904Y-89284380D01*
X163472857Y-89284380D01*
X163568095Y-89332000D01*
X163615714Y-89379619D01*
X163663333Y-89474857D01*
X163663333Y-89617714D01*
X163615714Y-89712952D01*
X163568095Y-89760571D01*
X163472857Y-89808190D01*
X163091904Y-89808190D01*
X164044285Y-89379619D02*
X164091904Y-89332000D01*
X164187142Y-89284380D01*
X164425238Y-89284380D01*
X164520476Y-89332000D01*
X164568095Y-89379619D01*
X164615714Y-89474857D01*
X164615714Y-89570095D01*
X164568095Y-89712952D01*
X163996666Y-90284380D01*
X164615714Y-90284380D01*
X184491333Y-91892380D02*
X184158000Y-91416190D01*
X183919904Y-91892380D02*
X183919904Y-90892380D01*
X184300857Y-90892380D01*
X184396095Y-90940000D01*
X184443714Y-90987619D01*
X184491333Y-91082857D01*
X184491333Y-91225714D01*
X184443714Y-91320952D01*
X184396095Y-91368571D01*
X184300857Y-91416190D01*
X183919904Y-91416190D01*
X184824666Y-90892380D02*
X185443714Y-90892380D01*
X185110380Y-91273333D01*
X185253238Y-91273333D01*
X185348476Y-91320952D01*
X185396095Y-91368571D01*
X185443714Y-91463809D01*
X185443714Y-91701904D01*
X185396095Y-91797142D01*
X185348476Y-91844761D01*
X185253238Y-91892380D01*
X184967523Y-91892380D01*
X184872285Y-91844761D01*
X184824666Y-91797142D01*
X184745333Y-86812380D02*
X184412000Y-86336190D01*
X184173904Y-86812380D02*
X184173904Y-85812380D01*
X184554857Y-85812380D01*
X184650095Y-85860000D01*
X184697714Y-85907619D01*
X184745333Y-86002857D01*
X184745333Y-86145714D01*
X184697714Y-86240952D01*
X184650095Y-86288571D01*
X184554857Y-86336190D01*
X184173904Y-86336190D01*
X185602476Y-86145714D02*
X185602476Y-86812380D01*
X185364380Y-85764761D02*
X185126285Y-86479047D01*
X185745333Y-86479047D01*
X184999333Y-100528380D02*
X184666000Y-100052190D01*
X184427904Y-100528380D02*
X184427904Y-99528380D01*
X184808857Y-99528380D01*
X184904095Y-99576000D01*
X184951714Y-99623619D01*
X184999333Y-99718857D01*
X184999333Y-99861714D01*
X184951714Y-99956952D01*
X184904095Y-100004571D01*
X184808857Y-100052190D01*
X184427904Y-100052190D01*
X185904095Y-99528380D02*
X185427904Y-99528380D01*
X185380285Y-100004571D01*
X185427904Y-99956952D01*
X185523142Y-99909333D01*
X185761238Y-99909333D01*
X185856476Y-99956952D01*
X185904095Y-100004571D01*
X185951714Y-100099809D01*
X185951714Y-100337904D01*
X185904095Y-100433142D01*
X185856476Y-100480761D01*
X185761238Y-100528380D01*
X185523142Y-100528380D01*
X185427904Y-100480761D01*
X185380285Y-100433142D01*
X184491333Y-93162380D02*
X184158000Y-92686190D01*
X183919904Y-93162380D02*
X183919904Y-92162380D01*
X184300857Y-92162380D01*
X184396095Y-92210000D01*
X184443714Y-92257619D01*
X184491333Y-92352857D01*
X184491333Y-92495714D01*
X184443714Y-92590952D01*
X184396095Y-92638571D01*
X184300857Y-92686190D01*
X183919904Y-92686190D01*
X185348476Y-92162380D02*
X185158000Y-92162380D01*
X185062761Y-92210000D01*
X185015142Y-92257619D01*
X184919904Y-92400476D01*
X184872285Y-92590952D01*
X184872285Y-92971904D01*
X184919904Y-93067142D01*
X184967523Y-93114761D01*
X185062761Y-93162380D01*
X185253238Y-93162380D01*
X185348476Y-93114761D01*
X185396095Y-93067142D01*
X185443714Y-92971904D01*
X185443714Y-92733809D01*
X185396095Y-92638571D01*
X185348476Y-92590952D01*
X185253238Y-92543333D01*
X185062761Y-92543333D01*
X184967523Y-92590952D01*
X184919904Y-92638571D01*
X184872285Y-92733809D01*
X133167523Y-81110380D02*
X132834190Y-80634190D01*
X132596095Y-81110380D02*
X132596095Y-80110380D01*
X132977047Y-80110380D01*
X133072285Y-80158000D01*
X133119904Y-80205619D01*
X133167523Y-80300857D01*
X133167523Y-80443714D01*
X133119904Y-80538952D01*
X133072285Y-80586571D01*
X132977047Y-80634190D01*
X132596095Y-80634190D01*
X133596095Y-81110380D02*
X133596095Y-80110380D01*
X134167523Y-81110380D01*
X134167523Y-80110380D01*
X135167523Y-81110380D02*
X134596095Y-81110380D01*
X134881809Y-81110380D02*
X134881809Y-80110380D01*
X134786571Y-80253238D01*
X134691333Y-80348476D01*
X134596095Y-80396095D01*
X143086380Y-75620476D02*
X142610190Y-75953809D01*
X143086380Y-76191904D02*
X142086380Y-76191904D01*
X142086380Y-75810952D01*
X142134000Y-75715714D01*
X142181619Y-75668095D01*
X142276857Y-75620476D01*
X142419714Y-75620476D01*
X142514952Y-75668095D01*
X142562571Y-75715714D01*
X142610190Y-75810952D01*
X142610190Y-76191904D01*
X143086380Y-75191904D02*
X142086380Y-75191904D01*
X143086380Y-74620476D01*
X142086380Y-74620476D01*
X142181619Y-74191904D02*
X142134000Y-74144285D01*
X142086380Y-74049047D01*
X142086380Y-73810952D01*
X142134000Y-73715714D01*
X142181619Y-73668095D01*
X142276857Y-73620476D01*
X142372095Y-73620476D01*
X142514952Y-73668095D01*
X143086380Y-74239523D01*
X143086380Y-73620476D01*
X127032761Y-76009333D02*
X127080380Y-75866476D01*
X127080380Y-75628380D01*
X127032761Y-75533142D01*
X126985142Y-75485523D01*
X126889904Y-75437904D01*
X126794666Y-75437904D01*
X126699428Y-75485523D01*
X126651809Y-75533142D01*
X126604190Y-75628380D01*
X126556571Y-75818857D01*
X126508952Y-75914095D01*
X126461333Y-75961714D01*
X126366095Y-76009333D01*
X126270857Y-76009333D01*
X126175619Y-75961714D01*
X126128000Y-75914095D01*
X126080380Y-75818857D01*
X126080380Y-75580761D01*
X126128000Y-75437904D01*
X126080380Y-75104571D02*
X127080380Y-74866476D01*
X126366095Y-74676000D01*
X127080380Y-74485523D01*
X126080380Y-74247428D01*
X127080380Y-73342666D02*
X127080380Y-73914095D01*
X127080380Y-73628380D02*
X126080380Y-73628380D01*
X126223238Y-73723619D01*
X126318476Y-73818857D01*
X126366095Y-73914095D01*
X158754380Y-95757904D02*
X159563904Y-95757904D01*
X159659142Y-95710285D01*
X159706761Y-95662666D01*
X159754380Y-95567428D01*
X159754380Y-95376952D01*
X159706761Y-95281714D01*
X159659142Y-95234095D01*
X159563904Y-95186476D01*
X158754380Y-95186476D01*
X159754380Y-94186476D02*
X159754380Y-94757904D01*
X159754380Y-94472190D02*
X158754380Y-94472190D01*
X158897238Y-94567428D01*
X158992476Y-94662666D01*
X159040095Y-94757904D01*
X168108380Y-87375904D02*
X168917904Y-87375904D01*
X169013142Y-87328285D01*
X169060761Y-87280666D01*
X169108380Y-87185428D01*
X169108380Y-86994952D01*
X169060761Y-86899714D01*
X169013142Y-86852095D01*
X168917904Y-86804476D01*
X168108380Y-86804476D01*
X168441714Y-85899714D02*
X169108380Y-85899714D01*
X168060761Y-86137809D02*
X168775047Y-86375904D01*
X168775047Y-85756857D01*
X149455333Y-70715142D02*
X149407714Y-70762761D01*
X149264857Y-70810380D01*
X149169619Y-70810380D01*
X149026761Y-70762761D01*
X148931523Y-70667523D01*
X148883904Y-70572285D01*
X148836285Y-70381809D01*
X148836285Y-70238952D01*
X148883904Y-70048476D01*
X148931523Y-69953238D01*
X149026761Y-69858000D01*
X149169619Y-69810380D01*
X149264857Y-69810380D01*
X149407714Y-69858000D01*
X149455333Y-69905619D01*
X150407714Y-70810380D02*
X149836285Y-70810380D01*
X150122000Y-70810380D02*
X150122000Y-69810380D01*
X150026761Y-69953238D01*
X149931523Y-70048476D01*
X149836285Y-70096095D01*
X165187333Y-70461142D02*
X165139714Y-70508761D01*
X164996857Y-70556380D01*
X164901619Y-70556380D01*
X164758761Y-70508761D01*
X164663523Y-70413523D01*
X164615904Y-70318285D01*
X164568285Y-70127809D01*
X164568285Y-69984952D01*
X164615904Y-69794476D01*
X164663523Y-69699238D01*
X164758761Y-69604000D01*
X164901619Y-69556380D01*
X164996857Y-69556380D01*
X165139714Y-69604000D01*
X165187333Y-69651619D01*
X165568285Y-69651619D02*
X165615904Y-69604000D01*
X165711142Y-69556380D01*
X165949238Y-69556380D01*
X166044476Y-69604000D01*
X166092095Y-69651619D01*
X166139714Y-69746857D01*
X166139714Y-69842095D01*
X166092095Y-69984952D01*
X165520666Y-70556380D01*
X166139714Y-70556380D01*
X149439333Y-81637142D02*
X149391714Y-81684761D01*
X149248857Y-81732380D01*
X149153619Y-81732380D01*
X149010761Y-81684761D01*
X148915523Y-81589523D01*
X148867904Y-81494285D01*
X148820285Y-81303809D01*
X148820285Y-81160952D01*
X148867904Y-80970476D01*
X148915523Y-80875238D01*
X149010761Y-80780000D01*
X149153619Y-80732380D01*
X149248857Y-80732380D01*
X149391714Y-80780000D01*
X149439333Y-80827619D01*
X149772666Y-80732380D02*
X150391714Y-80732380D01*
X150058380Y-81113333D01*
X150201238Y-81113333D01*
X150296476Y-81160952D01*
X150344095Y-81208571D01*
X150391714Y-81303809D01*
X150391714Y-81541904D01*
X150344095Y-81637142D01*
X150296476Y-81684761D01*
X150201238Y-81732380D01*
X149915523Y-81732380D01*
X149820285Y-81684761D01*
X149772666Y-81637142D01*
X166711333Y-81129142D02*
X166663714Y-81176761D01*
X166520857Y-81224380D01*
X166425619Y-81224380D01*
X166282761Y-81176761D01*
X166187523Y-81081523D01*
X166139904Y-80986285D01*
X166092285Y-80795809D01*
X166092285Y-80652952D01*
X166139904Y-80462476D01*
X166187523Y-80367238D01*
X166282761Y-80272000D01*
X166425619Y-80224380D01*
X166520857Y-80224380D01*
X166663714Y-80272000D01*
X166711333Y-80319619D01*
X167568476Y-80557714D02*
X167568476Y-81224380D01*
X167330380Y-80176761D02*
X167092285Y-80891047D01*
X167711333Y-80891047D01*
X168679904Y-71064380D02*
X168679904Y-70064380D01*
X168918000Y-70064380D01*
X169060857Y-70112000D01*
X169156095Y-70207238D01*
X169203714Y-70302476D01*
X169251333Y-70492952D01*
X169251333Y-70635809D01*
X169203714Y-70826285D01*
X169156095Y-70921523D01*
X169060857Y-71016761D01*
X168918000Y-71064380D01*
X168679904Y-71064380D01*
X170203714Y-71064380D02*
X169632285Y-71064380D01*
X169918000Y-71064380D02*
X169918000Y-70064380D01*
X169822761Y-70207238D01*
X169727523Y-70302476D01*
X169632285Y-70350095D01*
X167076380Y-84923238D02*
X166600190Y-85256571D01*
X167076380Y-85494666D02*
X166076380Y-85494666D01*
X166076380Y-85113714D01*
X166124000Y-85018476D01*
X166171619Y-84970857D01*
X166266857Y-84923238D01*
X166409714Y-84923238D01*
X166504952Y-84970857D01*
X166552571Y-85018476D01*
X166600190Y-85113714D01*
X166600190Y-85494666D01*
X166076380Y-84637523D02*
X167076380Y-84304190D01*
X166076380Y-83970857D01*
X167076380Y-83113714D02*
X167076380Y-83685142D01*
X167076380Y-83399428D02*
X166076380Y-83399428D01*
X166219238Y-83494666D01*
X166314476Y-83589904D01*
X166362095Y-83685142D01*
X150566380Y-84923238D02*
X150090190Y-85256571D01*
X150566380Y-85494666D02*
X149566380Y-85494666D01*
X149566380Y-85113714D01*
X149614000Y-85018476D01*
X149661619Y-84970857D01*
X149756857Y-84923238D01*
X149899714Y-84923238D01*
X149994952Y-84970857D01*
X150042571Y-85018476D01*
X150090190Y-85113714D01*
X150090190Y-85494666D01*
X149566380Y-84637523D02*
X150566380Y-84304190D01*
X149566380Y-83970857D01*
X149661619Y-83685142D02*
X149614000Y-83637523D01*
X149566380Y-83542285D01*
X149566380Y-83304190D01*
X149614000Y-83208952D01*
X149661619Y-83161333D01*
X149756857Y-83113714D01*
X149852095Y-83113714D01*
X149994952Y-83161333D01*
X150566380Y-83732761D01*
X150566380Y-83113714D01*
M02*
