G04 #@! TF.GenerationSoftware,KiCad,Pcbnew,(5.1.5)-3*
G04 #@! TF.CreationDate,2020-01-27T13:06:47+05:00*
G04 #@! TF.ProjectId,dimmer,64696d6d-6572-42e6-9b69-6361645f7063,0.1*
G04 #@! TF.SameCoordinates,Original*
G04 #@! TF.FileFunction,Copper,L1,Top*
G04 #@! TF.FilePolarity,Positive*
%FSLAX46Y46*%
G04 Gerber Fmt 4.6, Leading zero omitted, Abs format (unit mm)*
G04 Created by KiCad (PCBNEW (5.1.5)-3) date 2020-01-27 13:06:47*
%MOMM*%
%LPD*%
G04 APERTURE LIST*
%ADD10C,1.600000*%
%ADD11R,1.600000X1.600000*%
%ADD12R,1.700000X1.700000*%
%ADD13O,1.700000X1.700000*%
%ADD14R,2.600000X2.600000*%
%ADD15C,2.600000*%
%ADD16O,1.600000X1.600000*%
%ADD17C,1.440000*%
%ADD18R,1.600000X2.400000*%
%ADD19O,1.600000X2.400000*%
%ADD20R,2.400000X1.600000*%
%ADD21O,2.400000X1.600000*%
%ADD22R,2.000000X1.905000*%
%ADD23O,2.000000X1.905000*%
%ADD24R,0.850000X0.850000*%
%ADD25C,0.800000*%
%ADD26C,0.500000*%
%ADD27C,0.254000*%
G04 APERTURE END LIST*
D10*
X165354000Y-74168000D03*
D11*
X165354000Y-71668000D03*
X165354000Y-66254000D03*
D10*
X165354000Y-63754000D03*
D11*
X145288000Y-64048000D03*
D10*
X145288000Y-66548000D03*
X145288000Y-71922000D03*
D11*
X145288000Y-74422000D03*
D12*
X126238000Y-91186000D03*
D13*
X128778000Y-91186000D03*
X126238000Y-93726000D03*
X128778000Y-93726000D03*
X126238000Y-96266000D03*
X128778000Y-96266000D03*
X126238000Y-98806000D03*
X128778000Y-98806000D03*
D14*
X193294000Y-81026000D03*
D15*
X193294000Y-84526000D03*
X193294000Y-88026000D03*
X193294000Y-91526000D03*
D12*
X135636000Y-86868000D03*
D13*
X133096000Y-86868000D03*
X130556000Y-86868000D03*
D16*
X165100000Y-98806000D03*
D10*
X165100000Y-91186000D03*
X161798000Y-91186000D03*
D16*
X161798000Y-98806000D03*
X196850000Y-65024000D03*
D10*
X189230000Y-65024000D03*
X182118000Y-87122000D03*
D16*
X182118000Y-79502000D03*
D10*
X182118000Y-97536000D03*
D16*
X182118000Y-89916000D03*
X185420000Y-92710000D03*
D10*
X185420000Y-100330000D03*
D16*
X137668000Y-83058000D03*
X135128000Y-83058000D03*
X132588000Y-83058000D03*
X130048000Y-83058000D03*
D11*
X127508000Y-83058000D03*
X127659001Y-66040000D03*
D16*
X130199001Y-66040000D03*
X132739001Y-66040000D03*
X135279001Y-66040000D03*
X137819001Y-66040000D03*
D17*
X162560000Y-83312000D03*
X160020000Y-80772000D03*
X157480000Y-83312000D03*
X147320000Y-83312000D03*
X149860000Y-80772000D03*
X152400000Y-83312000D03*
D11*
X130048000Y-78486000D03*
D16*
X137668000Y-70866000D03*
X132588000Y-78486000D03*
X135128000Y-70866000D03*
X135128000Y-78486000D03*
X132588000Y-70866000D03*
X137668000Y-78486000D03*
X130048000Y-70866000D03*
D18*
X156972000Y-91186000D03*
D19*
X134112000Y-98806000D03*
X154432000Y-91186000D03*
X136652000Y-98806000D03*
X151892000Y-91186000D03*
X139192000Y-98806000D03*
X149352000Y-91186000D03*
X141732000Y-98806000D03*
X146812000Y-91186000D03*
X144272000Y-98806000D03*
X144272000Y-91186000D03*
X146812000Y-98806000D03*
X141732000Y-91186000D03*
X149352000Y-98806000D03*
X139192000Y-91186000D03*
X151892000Y-98806000D03*
X136652000Y-91186000D03*
X154432000Y-98806000D03*
X134112000Y-91186000D03*
X156972000Y-98806000D03*
D20*
X177800000Y-97536000D03*
D21*
X170180000Y-92456000D03*
X177800000Y-94996000D03*
X170180000Y-94996000D03*
X177800000Y-92456000D03*
X170180000Y-97536000D03*
D18*
X159766000Y-65278000D03*
D19*
X152146000Y-72898000D03*
X157226000Y-65278000D03*
X154686000Y-72898000D03*
X154686000Y-65278000D03*
X157226000Y-72898000D03*
X152146000Y-65278000D03*
X159766000Y-72898000D03*
D21*
X178054000Y-81026000D03*
X170434000Y-86106000D03*
X178054000Y-83566000D03*
X170434000Y-83566000D03*
X178054000Y-86106000D03*
D20*
X170434000Y-81026000D03*
D22*
X193294000Y-74676000D03*
D23*
X193294000Y-72136000D03*
X193294000Y-69596000D03*
D24*
X185928000Y-65024000D03*
X185928000Y-62992000D03*
D25*
X175768000Y-62992000D03*
X177800000Y-62992000D03*
X177800000Y-64770000D03*
X175768000Y-64770000D03*
X173736000Y-64770000D03*
X173736000Y-66548000D03*
X177800000Y-66548000D03*
X175768000Y-66548000D03*
X177800000Y-68326000D03*
X173736000Y-68326000D03*
X175768000Y-68326000D03*
X179578000Y-62992000D03*
X183642000Y-62992000D03*
X181610000Y-62992000D03*
X183642000Y-64770000D03*
X179578000Y-64770000D03*
X181610000Y-64770000D03*
X179578000Y-66548000D03*
X183642000Y-66548000D03*
X181610000Y-66548000D03*
X183642000Y-68326000D03*
X179578000Y-68326000D03*
X181610000Y-68326000D03*
X179832000Y-70104000D03*
X181610000Y-70104000D03*
X174498000Y-69596000D03*
X183642000Y-75438000D03*
X180594000Y-71882000D03*
X173482000Y-71120000D03*
X180340000Y-73914000D03*
X181610000Y-75438000D03*
X173482000Y-73152000D03*
X177038000Y-75438000D03*
X179070000Y-75184000D03*
X174752000Y-74930000D03*
X187452000Y-71882000D03*
X185420000Y-68326000D03*
X187452000Y-68326000D03*
X183642000Y-71882000D03*
X185420000Y-70104000D03*
X183642000Y-70104000D03*
X187452000Y-70104000D03*
X187452000Y-73660000D03*
X185420000Y-71882000D03*
X185420000Y-73660000D03*
X187452000Y-75438000D03*
X183642000Y-73660000D03*
X187452000Y-76962000D03*
X185420000Y-75438000D03*
X185420000Y-76962000D03*
X189230000Y-70104000D03*
X183642000Y-76962000D03*
X189230000Y-71882000D03*
X189230000Y-75438000D03*
X189230000Y-68326000D03*
X189230000Y-73660000D03*
X177800000Y-76962000D03*
X181864000Y-72898000D03*
X175768000Y-76962000D03*
X181610000Y-76962000D03*
X179578000Y-76962000D03*
D26*
X145288000Y-71922000D02*
X147614000Y-71922000D01*
X147614000Y-71922000D02*
X151130000Y-75438000D01*
X164084000Y-75438000D02*
X165354000Y-74168000D01*
X151130000Y-75438000D02*
X164084000Y-75438000D01*
X131572000Y-91186000D02*
X134112000Y-91186000D01*
X127508000Y-83058000D02*
X127508000Y-87122000D01*
X127508000Y-87122000D02*
X131572000Y-91186000D01*
X127886002Y-83058000D02*
X130172002Y-80772000D01*
X127508000Y-83058000D02*
X127886002Y-83058000D01*
X130172002Y-80772000D02*
X140970000Y-80772000D01*
X140970000Y-80772000D02*
X142748000Y-78994000D01*
X142748000Y-74462000D02*
X145288000Y-71922000D01*
X142748000Y-78994000D02*
X142748000Y-74462000D01*
X131572000Y-98806000D02*
X131572000Y-91186000D01*
X129794000Y-100584000D02*
X131572000Y-98806000D01*
X126813919Y-100584000D02*
X129794000Y-100584000D01*
X126238000Y-98806000D02*
X126238000Y-100008081D01*
X126238000Y-100008081D02*
X126813919Y-100584000D01*
X165100000Y-98806000D02*
X165100000Y-97028000D01*
X165100000Y-97028000D02*
X163322000Y-95250000D01*
X163322000Y-95250000D02*
X136144000Y-95250000D01*
X134112000Y-93218000D02*
X134112000Y-91186000D01*
X136144000Y-95250000D02*
X134112000Y-93218000D01*
X127659001Y-66040000D02*
X127659001Y-67340000D01*
X152146000Y-66978000D02*
X152146000Y-65278000D01*
X150798000Y-68326000D02*
X152146000Y-66978000D01*
X128645001Y-68326000D02*
X150798000Y-68326000D01*
X152146000Y-66978000D02*
X152146000Y-68072000D01*
X152146000Y-68072000D02*
X154432000Y-70358000D01*
X159766000Y-71198000D02*
X159766000Y-72898000D01*
X158926000Y-70358000D02*
X159766000Y-71198000D01*
X154432000Y-70358000D02*
X158926000Y-70358000D01*
X127659001Y-67340000D02*
X128016000Y-67818000D01*
X128016000Y-67818000D02*
X128645001Y-68326000D01*
X128016000Y-78994000D02*
X128016000Y-67818000D01*
X125984000Y-90170000D02*
X125984000Y-81026000D01*
X125984000Y-81026000D02*
X128016000Y-78994000D01*
X126238000Y-90424000D02*
X125984000Y-90170000D01*
X126238000Y-91186000D02*
X126238000Y-90424000D01*
X144272000Y-100506000D02*
X144272000Y-98806000D01*
X143178000Y-101600000D02*
X144272000Y-100506000D01*
X126238000Y-93726000D02*
X125035919Y-93726000D01*
X125035919Y-93726000D02*
X124460000Y-94301919D01*
X124460000Y-94301919D02*
X124460000Y-99822000D01*
X124460000Y-99822000D02*
X126238000Y-101600000D01*
X126238000Y-101600000D02*
X143178000Y-101600000D01*
X133096000Y-86868000D02*
X135128000Y-88900000D01*
X135128000Y-88900000D02*
X156464000Y-88900000D01*
X156972000Y-89408000D02*
X156972000Y-91186000D01*
X156464000Y-88900000D02*
X156972000Y-89408000D01*
X156542000Y-68834000D02*
X154686000Y-66978000D01*
X166370000Y-68834000D02*
X156542000Y-68834000D01*
X167386000Y-69850000D02*
X166370000Y-68834000D01*
X167386000Y-74930000D02*
X167386000Y-69850000D01*
X154686000Y-66978000D02*
X154686000Y-65278000D01*
X130556000Y-86868000D02*
X132334000Y-85090000D01*
X132334000Y-85090000D02*
X138684000Y-85090000D01*
X147320000Y-76454000D02*
X165862000Y-76454000D01*
X138684000Y-85090000D02*
X147320000Y-76454000D01*
X165862000Y-76454000D02*
X167386000Y-74930000D01*
X159258000Y-93726000D02*
X161798000Y-91186000D01*
X137492000Y-93726000D02*
X138938000Y-93726000D01*
X136652000Y-91186000D02*
X136652000Y-92886000D01*
X136652000Y-92886000D02*
X137492000Y-93726000D01*
X138938000Y-93726000D02*
X159258000Y-93726000D01*
D27*
G36*
X187579000Y-66040000D02*
G01*
X187581440Y-66064776D01*
X187588667Y-66088601D01*
X187600403Y-66110557D01*
X187616197Y-66129803D01*
X187633170Y-66144042D01*
X190119000Y-67884123D01*
X190119000Y-75148822D01*
X188650093Y-77597000D01*
X181610000Y-77597000D01*
X181585224Y-77599440D01*
X181561399Y-77606667D01*
X181539443Y-77618403D01*
X181520197Y-77634197D01*
X180541394Y-78613000D01*
X175817655Y-78613000D01*
X172593000Y-75636395D01*
X172593000Y-71901098D01*
X174249000Y-71901098D01*
X174249000Y-72370902D01*
X174340654Y-72831679D01*
X174520440Y-73265721D01*
X174781450Y-73656349D01*
X175113651Y-73988550D01*
X175504279Y-74249560D01*
X175938321Y-74429346D01*
X176399098Y-74521000D01*
X176868902Y-74521000D01*
X177329679Y-74429346D01*
X177763721Y-74249560D01*
X178154349Y-73988550D01*
X178486550Y-73656349D01*
X178747560Y-73265721D01*
X178927346Y-72831679D01*
X179019000Y-72370902D01*
X179019000Y-71901098D01*
X178927346Y-71440321D01*
X178747560Y-71006279D01*
X178486550Y-70615651D01*
X178154349Y-70283450D01*
X177763721Y-70022440D01*
X177329679Y-69842654D01*
X176868902Y-69751000D01*
X176399098Y-69751000D01*
X175938321Y-69842654D01*
X175504279Y-70022440D01*
X175113651Y-70283450D01*
X174781450Y-70615651D01*
X174520440Y-71006279D01*
X174340654Y-71440321D01*
X174249000Y-71901098D01*
X172593000Y-71901098D01*
X172593000Y-65449000D01*
X184864928Y-65449000D01*
X184877188Y-65573482D01*
X184913498Y-65693180D01*
X184972463Y-65803494D01*
X185051815Y-65900185D01*
X185148506Y-65979537D01*
X185258820Y-66038502D01*
X185378518Y-66074812D01*
X185503000Y-66087072D01*
X185642250Y-66084000D01*
X185801000Y-65925250D01*
X185801000Y-65151000D01*
X186055000Y-65151000D01*
X186055000Y-65925250D01*
X186213750Y-66084000D01*
X186353000Y-66087072D01*
X186477482Y-66074812D01*
X186597180Y-66038502D01*
X186707494Y-65979537D01*
X186804185Y-65900185D01*
X186883537Y-65803494D01*
X186942502Y-65693180D01*
X186978812Y-65573482D01*
X186991072Y-65449000D01*
X186988000Y-65309750D01*
X186829250Y-65151000D01*
X186055000Y-65151000D01*
X185801000Y-65151000D01*
X185026750Y-65151000D01*
X184868000Y-65309750D01*
X184864928Y-65449000D01*
X172593000Y-65449000D01*
X172593000Y-63417000D01*
X184864928Y-63417000D01*
X184877188Y-63541482D01*
X184913498Y-63661180D01*
X184972463Y-63771494D01*
X185051815Y-63868185D01*
X185148506Y-63947537D01*
X185258820Y-64006502D01*
X185263758Y-64008000D01*
X185258820Y-64009498D01*
X185148506Y-64068463D01*
X185051815Y-64147815D01*
X184972463Y-64244506D01*
X184913498Y-64354820D01*
X184877188Y-64474518D01*
X184864928Y-64599000D01*
X184868000Y-64738250D01*
X185026750Y-64897000D01*
X185801000Y-64897000D01*
X185801000Y-64122750D01*
X185686250Y-64008000D01*
X185801000Y-63893250D01*
X185801000Y-63119000D01*
X186055000Y-63119000D01*
X186055000Y-63893250D01*
X186169750Y-64008000D01*
X186055000Y-64122750D01*
X186055000Y-64897000D01*
X186829250Y-64897000D01*
X186988000Y-64738250D01*
X186991072Y-64599000D01*
X186978812Y-64474518D01*
X186942502Y-64354820D01*
X186883537Y-64244506D01*
X186804185Y-64147815D01*
X186707494Y-64068463D01*
X186597180Y-64009498D01*
X186592242Y-64008000D01*
X186597180Y-64006502D01*
X186707494Y-63947537D01*
X186804185Y-63868185D01*
X186883537Y-63771494D01*
X186942502Y-63661180D01*
X186978812Y-63541482D01*
X186991072Y-63417000D01*
X186988000Y-63277750D01*
X186829250Y-63119000D01*
X186055000Y-63119000D01*
X185801000Y-63119000D01*
X185026750Y-63119000D01*
X184868000Y-63277750D01*
X184864928Y-63417000D01*
X172593000Y-63417000D01*
X172593000Y-62567000D01*
X184864928Y-62567000D01*
X184868000Y-62706250D01*
X185026750Y-62865000D01*
X185801000Y-62865000D01*
X185801000Y-62090750D01*
X186055000Y-62090750D01*
X186055000Y-62865000D01*
X186829250Y-62865000D01*
X186988000Y-62706250D01*
X186991072Y-62567000D01*
X186978812Y-62442518D01*
X186942502Y-62322820D01*
X186883537Y-62212506D01*
X186804185Y-62115815D01*
X186707494Y-62036463D01*
X186597180Y-61977498D01*
X186477482Y-61941188D01*
X186353000Y-61928928D01*
X186213750Y-61932000D01*
X186055000Y-62090750D01*
X185801000Y-62090750D01*
X185642250Y-61932000D01*
X185503000Y-61928928D01*
X185378518Y-61941188D01*
X185258820Y-61977498D01*
X185148506Y-62036463D01*
X185051815Y-62115815D01*
X184972463Y-62212506D01*
X184913498Y-62322820D01*
X184877188Y-62442518D01*
X184864928Y-62567000D01*
X172593000Y-62567000D01*
X172593000Y-61874000D01*
X187579000Y-61874000D01*
X187579000Y-66040000D01*
G37*
X187579000Y-66040000D02*
X187581440Y-66064776D01*
X187588667Y-66088601D01*
X187600403Y-66110557D01*
X187616197Y-66129803D01*
X187633170Y-66144042D01*
X190119000Y-67884123D01*
X190119000Y-75148822D01*
X188650093Y-77597000D01*
X181610000Y-77597000D01*
X181585224Y-77599440D01*
X181561399Y-77606667D01*
X181539443Y-77618403D01*
X181520197Y-77634197D01*
X180541394Y-78613000D01*
X175817655Y-78613000D01*
X172593000Y-75636395D01*
X172593000Y-71901098D01*
X174249000Y-71901098D01*
X174249000Y-72370902D01*
X174340654Y-72831679D01*
X174520440Y-73265721D01*
X174781450Y-73656349D01*
X175113651Y-73988550D01*
X175504279Y-74249560D01*
X175938321Y-74429346D01*
X176399098Y-74521000D01*
X176868902Y-74521000D01*
X177329679Y-74429346D01*
X177763721Y-74249560D01*
X178154349Y-73988550D01*
X178486550Y-73656349D01*
X178747560Y-73265721D01*
X178927346Y-72831679D01*
X179019000Y-72370902D01*
X179019000Y-71901098D01*
X178927346Y-71440321D01*
X178747560Y-71006279D01*
X178486550Y-70615651D01*
X178154349Y-70283450D01*
X177763721Y-70022440D01*
X177329679Y-69842654D01*
X176868902Y-69751000D01*
X176399098Y-69751000D01*
X175938321Y-69842654D01*
X175504279Y-70022440D01*
X175113651Y-70283450D01*
X174781450Y-70615651D01*
X174520440Y-71006279D01*
X174340654Y-71440321D01*
X174249000Y-71901098D01*
X172593000Y-71901098D01*
X172593000Y-65449000D01*
X184864928Y-65449000D01*
X184877188Y-65573482D01*
X184913498Y-65693180D01*
X184972463Y-65803494D01*
X185051815Y-65900185D01*
X185148506Y-65979537D01*
X185258820Y-66038502D01*
X185378518Y-66074812D01*
X185503000Y-66087072D01*
X185642250Y-66084000D01*
X185801000Y-65925250D01*
X185801000Y-65151000D01*
X186055000Y-65151000D01*
X186055000Y-65925250D01*
X186213750Y-66084000D01*
X186353000Y-66087072D01*
X186477482Y-66074812D01*
X186597180Y-66038502D01*
X186707494Y-65979537D01*
X186804185Y-65900185D01*
X186883537Y-65803494D01*
X186942502Y-65693180D01*
X186978812Y-65573482D01*
X186991072Y-65449000D01*
X186988000Y-65309750D01*
X186829250Y-65151000D01*
X186055000Y-65151000D01*
X185801000Y-65151000D01*
X185026750Y-65151000D01*
X184868000Y-65309750D01*
X184864928Y-65449000D01*
X172593000Y-65449000D01*
X172593000Y-63417000D01*
X184864928Y-63417000D01*
X184877188Y-63541482D01*
X184913498Y-63661180D01*
X184972463Y-63771494D01*
X185051815Y-63868185D01*
X185148506Y-63947537D01*
X185258820Y-64006502D01*
X185263758Y-64008000D01*
X185258820Y-64009498D01*
X185148506Y-64068463D01*
X185051815Y-64147815D01*
X184972463Y-64244506D01*
X184913498Y-64354820D01*
X184877188Y-64474518D01*
X184864928Y-64599000D01*
X184868000Y-64738250D01*
X185026750Y-64897000D01*
X185801000Y-64897000D01*
X185801000Y-64122750D01*
X185686250Y-64008000D01*
X185801000Y-63893250D01*
X185801000Y-63119000D01*
X186055000Y-63119000D01*
X186055000Y-63893250D01*
X186169750Y-64008000D01*
X186055000Y-64122750D01*
X186055000Y-64897000D01*
X186829250Y-64897000D01*
X186988000Y-64738250D01*
X186991072Y-64599000D01*
X186978812Y-64474518D01*
X186942502Y-64354820D01*
X186883537Y-64244506D01*
X186804185Y-64147815D01*
X186707494Y-64068463D01*
X186597180Y-64009498D01*
X186592242Y-64008000D01*
X186597180Y-64006502D01*
X186707494Y-63947537D01*
X186804185Y-63868185D01*
X186883537Y-63771494D01*
X186942502Y-63661180D01*
X186978812Y-63541482D01*
X186991072Y-63417000D01*
X186988000Y-63277750D01*
X186829250Y-63119000D01*
X186055000Y-63119000D01*
X185801000Y-63119000D01*
X185026750Y-63119000D01*
X184868000Y-63277750D01*
X184864928Y-63417000D01*
X172593000Y-63417000D01*
X172593000Y-62567000D01*
X184864928Y-62567000D01*
X184868000Y-62706250D01*
X185026750Y-62865000D01*
X185801000Y-62865000D01*
X185801000Y-62090750D01*
X186055000Y-62090750D01*
X186055000Y-62865000D01*
X186829250Y-62865000D01*
X186988000Y-62706250D01*
X186991072Y-62567000D01*
X186978812Y-62442518D01*
X186942502Y-62322820D01*
X186883537Y-62212506D01*
X186804185Y-62115815D01*
X186707494Y-62036463D01*
X186597180Y-61977498D01*
X186477482Y-61941188D01*
X186353000Y-61928928D01*
X186213750Y-61932000D01*
X186055000Y-62090750D01*
X185801000Y-62090750D01*
X185642250Y-61932000D01*
X185503000Y-61928928D01*
X185378518Y-61941188D01*
X185258820Y-61977498D01*
X185148506Y-62036463D01*
X185051815Y-62115815D01*
X184972463Y-62212506D01*
X184913498Y-62322820D01*
X184877188Y-62442518D01*
X184864928Y-62567000D01*
X172593000Y-62567000D01*
X172593000Y-61874000D01*
X187579000Y-61874000D01*
X187579000Y-66040000D01*
M02*
