G04 #@! TF.GenerationSoftware,KiCad,Pcbnew,(5.1.5)-3*
G04 #@! TF.CreationDate,2020-03-13T12:56:36+05:00*
G04 #@! TF.ProjectId,dimmer,64696d6d-6572-42e6-9b69-6361645f7063,0.1*
G04 #@! TF.SameCoordinates,Original*
G04 #@! TF.FileFunction,Copper,L2,Bot*
G04 #@! TF.FilePolarity,Positive*
%FSLAX46Y46*%
G04 Gerber Fmt 4.6, Leading zero omitted, Abs format (unit mm)*
G04 Created by KiCad (PCBNEW (5.1.5)-3) date 2020-03-13 12:56:36*
%MOMM*%
%LPD*%
G04 APERTURE LIST*
%ADD10C,3.000000*%
%ADD11R,3.000000X3.000000*%
%ADD12R,2.400000X1.600000*%
%ADD13O,2.400000X1.600000*%
%ADD14R,1.600000X2.400000*%
%ADD15O,1.600000X2.400000*%
%ADD16R,1.700000X1.700000*%
%ADD17O,1.700000X1.700000*%
%ADD18O,1.600000X1.600000*%
%ADD19C,1.600000*%
%ADD20R,1.600000X1.600000*%
%ADD21C,1.200000*%
%ADD22R,1.200000X1.200000*%
%ADD23R,2.000000X1.905000*%
%ADD24O,2.000000X1.905000*%
%ADD25C,1.440000*%
%ADD26C,0.800000*%
%ADD27C,1.500000*%
%ADD28C,0.700000*%
%ADD29C,0.500000*%
%ADD30C,0.254000*%
G04 APERTURE END LIST*
D10*
X194056000Y-86614000D03*
X194056000Y-91694000D03*
D11*
X194056000Y-81534000D03*
D10*
X194056000Y-96774000D03*
D12*
X178308000Y-98044000D03*
D13*
X170688000Y-92964000D03*
X178308000Y-95504000D03*
X170688000Y-95504000D03*
X178308000Y-92964000D03*
X170688000Y-98044000D03*
D14*
X161290000Y-71628000D03*
D15*
X153670000Y-79248000D03*
X158750000Y-71628000D03*
X156210000Y-79248000D03*
X156210000Y-71628000D03*
X158750000Y-79248000D03*
X153670000Y-71628000D03*
X161290000Y-79248000D03*
D16*
X126238000Y-91186000D03*
D17*
X128778000Y-91186000D03*
X126238000Y-93726000D03*
X128778000Y-93726000D03*
X126238000Y-96266000D03*
X128778000Y-96266000D03*
X126238000Y-98806000D03*
X128778000Y-98806000D03*
D16*
X135636000Y-86868000D03*
D17*
X133096000Y-86868000D03*
X130556000Y-86868000D03*
D18*
X160020000Y-98552000D03*
D19*
X167640000Y-98552000D03*
X160020000Y-92202000D03*
D18*
X167640000Y-92202000D03*
X188722000Y-89154000D03*
D19*
X181102000Y-89154000D03*
X188722000Y-84074000D03*
D18*
X181102000Y-84074000D03*
D19*
X181102000Y-98044000D03*
D18*
X188722000Y-98044000D03*
X181102000Y-94742000D03*
D19*
X188722000Y-94742000D03*
D18*
X137668000Y-83058000D03*
X135128000Y-83058000D03*
X132588000Y-83058000D03*
X130048000Y-83058000D03*
D20*
X127508000Y-83058000D03*
X145034000Y-81280000D03*
D18*
X145034000Y-78740000D03*
X145034000Y-76200000D03*
X145034000Y-73660000D03*
X145034000Y-71120000D03*
D20*
X130048000Y-78486000D03*
D18*
X137668000Y-70866000D03*
X132588000Y-78486000D03*
X135128000Y-70866000D03*
X135128000Y-78486000D03*
X132588000Y-70866000D03*
X137668000Y-78486000D03*
X130048000Y-70866000D03*
D14*
X156972000Y-91186000D03*
D15*
X134112000Y-98806000D03*
X154432000Y-91186000D03*
X136652000Y-98806000D03*
X151892000Y-91186000D03*
X139192000Y-98806000D03*
X149352000Y-91186000D03*
X141732000Y-98806000D03*
X146812000Y-91186000D03*
X144272000Y-98806000D03*
X144272000Y-91186000D03*
X146812000Y-98806000D03*
X141732000Y-91186000D03*
X149352000Y-98806000D03*
X139192000Y-91186000D03*
X151892000Y-98806000D03*
X136652000Y-91186000D03*
X154432000Y-98806000D03*
X134112000Y-91186000D03*
X156972000Y-98806000D03*
D13*
X178308000Y-84074000D03*
X170688000Y-89154000D03*
X178308000Y-86614000D03*
X170688000Y-86614000D03*
X178308000Y-89154000D03*
D12*
X170688000Y-84074000D03*
D21*
X148622000Y-73406000D03*
D22*
X150622000Y-73406000D03*
X165354000Y-74168000D03*
D21*
X165354000Y-72168000D03*
X149606000Y-77216000D03*
D22*
X149606000Y-79216000D03*
X165354000Y-78962000D03*
D21*
X165354000Y-76962000D03*
D23*
X188214000Y-78994000D03*
D24*
X188214000Y-76454000D03*
X188214000Y-73914000D03*
D25*
X162306000Y-87122000D03*
X164846000Y-84582000D03*
X162306000Y-82042000D03*
X154686000Y-82042000D03*
X157226000Y-84582000D03*
X154686000Y-87122000D03*
D26*
X175514000Y-75946000D03*
X175514000Y-76962000D03*
X175514000Y-74930000D03*
X176530000Y-74930000D03*
X176530000Y-75946000D03*
X176530000Y-76962000D03*
X177546000Y-76962000D03*
X177546000Y-75946000D03*
X177546000Y-74930000D03*
X178562000Y-74930000D03*
X178562000Y-75946000D03*
X178562000Y-76962000D03*
X178562000Y-77978000D03*
X177546000Y-77978000D03*
X176530000Y-77978000D03*
X175514000Y-77978000D03*
X179578000Y-74930000D03*
X180594000Y-74930000D03*
X181610000Y-74930000D03*
X182626000Y-74930000D03*
X183642000Y-74930000D03*
X183642000Y-75946000D03*
X182626000Y-75946000D03*
X181610000Y-75946000D03*
X180594000Y-75946000D03*
X179578000Y-75946000D03*
X179578000Y-76962000D03*
X179578000Y-77978000D03*
X180594000Y-77978000D03*
X180594000Y-76962000D03*
X181610000Y-76962000D03*
X182626000Y-76962000D03*
X183642000Y-76962000D03*
X183642000Y-77978000D03*
X182626000Y-77978000D03*
X181610000Y-77978000D03*
X183642000Y-78994000D03*
X183642000Y-80010000D03*
X183642000Y-81026000D03*
X182626000Y-81026000D03*
X181610000Y-81026000D03*
X180594000Y-81026000D03*
X179578000Y-81026000D03*
X178562000Y-81026000D03*
X177546000Y-81026000D03*
X176530000Y-81026000D03*
X175514000Y-81026000D03*
X175514000Y-71882000D03*
X175514000Y-72898000D03*
X175514000Y-73914000D03*
X175514000Y-78994000D03*
X175514000Y-80010000D03*
X176530000Y-71882000D03*
X177546000Y-71882000D03*
X178562000Y-71882000D03*
X179578000Y-71882000D03*
X180594000Y-71882000D03*
X181610000Y-71882000D03*
X182626000Y-71882000D03*
X183642000Y-71882000D03*
X183642000Y-72898000D03*
X183642000Y-73914000D03*
X182626000Y-73914000D03*
X181610000Y-73914000D03*
X180594000Y-73914000D03*
X179578000Y-73914000D03*
X178562000Y-73914000D03*
X177546000Y-73914000D03*
X176530000Y-73914000D03*
X176530000Y-72898000D03*
X177546000Y-72898000D03*
X178562000Y-72898000D03*
X179578000Y-72898000D03*
X180594000Y-72898000D03*
X181610000Y-72898000D03*
X182626000Y-72898000D03*
X182626000Y-78994000D03*
X181610000Y-78994000D03*
X180594000Y-78994000D03*
X179578000Y-78994000D03*
X178562000Y-78994000D03*
X177546000Y-78994000D03*
X176530000Y-78994000D03*
X176530000Y-80010000D03*
X177546000Y-80010000D03*
X178562000Y-80010000D03*
X179578000Y-80010000D03*
X180594000Y-80010000D03*
X181610000Y-80010000D03*
X182626000Y-80010000D03*
X174498000Y-74930000D03*
X174498000Y-75946000D03*
X174498000Y-76962000D03*
X174498000Y-77978000D03*
X174498000Y-78994000D03*
X174498000Y-80010000D03*
X174498000Y-81026000D03*
X174498000Y-73914000D03*
X174498000Y-72898000D03*
X174498000Y-71882000D03*
X173482000Y-71882000D03*
X173482000Y-72898000D03*
X173482000Y-73914000D03*
X173482000Y-81026000D03*
X173482000Y-80010000D03*
X173482000Y-78994000D03*
X172466000Y-78994000D03*
X172466000Y-80010000D03*
X172466000Y-81026000D03*
X172466000Y-73914000D03*
X172466000Y-72898000D03*
X172466000Y-71882000D03*
X171450000Y-71882000D03*
X170434000Y-71882000D03*
X169418000Y-72898000D03*
X170434000Y-72898000D03*
X171450000Y-72898000D03*
X171450000Y-73914000D03*
X170434000Y-73914000D03*
X169418000Y-74930000D03*
X173482000Y-74930000D03*
X173482000Y-77978000D03*
X171450000Y-78994000D03*
X170434000Y-78994000D03*
X169418000Y-78994000D03*
X169418000Y-80010000D03*
X169418000Y-81026000D03*
X170434000Y-81026000D03*
X171450000Y-81026000D03*
X171450000Y-80010000D03*
X170434000Y-80010000D03*
X169418000Y-77978000D03*
X169418000Y-73914000D03*
X169418000Y-71882000D03*
D27*
X183642000Y-81026000D02*
X183642000Y-71882000D01*
X183642000Y-72898000D02*
X170180000Y-72898000D01*
X170180000Y-72898000D02*
X169418000Y-73660000D01*
X169418000Y-73660000D02*
X169418000Y-73914000D01*
X173078000Y-74930000D02*
X171554000Y-76454000D01*
X183642000Y-74930000D02*
X173078000Y-74930000D01*
X173078000Y-77978000D02*
X171554000Y-76454000D01*
X183642000Y-77978000D02*
X173078000Y-77978000D01*
X169418000Y-72898000D02*
X169418000Y-71882000D01*
X169418000Y-71882000D02*
X182626000Y-71882000D01*
X169418000Y-71882000D02*
X169418000Y-74930000D01*
X169418000Y-71882000D02*
X169418000Y-71882000D01*
X169418000Y-71882000D02*
X169418000Y-71882000D01*
X183642000Y-81026000D02*
X169418000Y-81026000D01*
X169418000Y-80010000D02*
X183642000Y-80010000D01*
X183642000Y-78994000D02*
X169418000Y-78994000D01*
X169418000Y-77978000D02*
X183642000Y-77978000D01*
X172062000Y-76962000D02*
X171554000Y-76454000D01*
X183642000Y-76962000D02*
X172062000Y-76962000D01*
X172062000Y-75946000D02*
X171554000Y-76454000D01*
X183642000Y-75946000D02*
X172062000Y-75946000D01*
X183642000Y-74930000D02*
X169418000Y-74930000D01*
X169418000Y-73914000D02*
X183642000Y-73914000D01*
X183642000Y-71882000D02*
X169418000Y-71882000D01*
X169672000Y-75946000D02*
X169418000Y-75692000D01*
X183642000Y-75946000D02*
X169672000Y-75946000D01*
X169418000Y-73914000D02*
X169418000Y-75692000D01*
X169672000Y-76962000D02*
X169418000Y-76708000D01*
X169418000Y-75692000D02*
X169418000Y-76708000D01*
X183642000Y-76962000D02*
X169672000Y-76962000D01*
X169418000Y-76708000D02*
X169418000Y-81026000D01*
D28*
X148622000Y-73406000D02*
X148622000Y-72104000D01*
X148622000Y-72104000D02*
X151130000Y-69596000D01*
X162782000Y-69596000D02*
X165354000Y-72168000D01*
X161158000Y-69596000D02*
X159512000Y-69596000D01*
X161290000Y-71628000D02*
X161290000Y-69728000D01*
X151130000Y-69596000D02*
X159512000Y-69596000D01*
X161290000Y-69728000D02*
X161158000Y-69596000D01*
X159512000Y-69596000D02*
X162782000Y-69596000D01*
X165354000Y-72168000D02*
X166402000Y-72168000D01*
X166402000Y-72168000D02*
X167386000Y-73152000D01*
X167386000Y-74930000D02*
X165354000Y-76962000D01*
X167386000Y-73152000D02*
X167386000Y-74930000D01*
X162790000Y-79248000D02*
X161290000Y-79248000D01*
X164846000Y-81304000D02*
X162790000Y-79248000D01*
X164846000Y-84582000D02*
X164846000Y-81304000D01*
X164846000Y-84582000D02*
X162306000Y-87122000D01*
X158750000Y-71628000D02*
X158750000Y-73914000D01*
X156210000Y-76454000D02*
X156210000Y-79248000D01*
X158750000Y-73914000D02*
X156210000Y-76454000D01*
X158750000Y-73528000D02*
X158750000Y-71628000D01*
X164054000Y-78962000D02*
X158750000Y-73658000D01*
X158750000Y-73658000D02*
X158750000Y-73528000D01*
X165354000Y-78962000D02*
X164054000Y-78962000D01*
X156210000Y-80518000D02*
X154686000Y-82042000D01*
X156210000Y-79248000D02*
X156210000Y-80518000D01*
D29*
X137668000Y-83058000D02*
X137668000Y-78486000D01*
X137668000Y-83058000D02*
X137668000Y-84836000D01*
X137668000Y-84836000D02*
X141732000Y-88900000D01*
X146812000Y-89486000D02*
X146812000Y-91186000D01*
X146226000Y-88900000D02*
X146812000Y-89486000D01*
X141732000Y-88900000D02*
X146226000Y-88900000D01*
X146812000Y-92886000D02*
X145972000Y-93726000D01*
X146812000Y-91186000D02*
X146812000Y-92886000D01*
X131318000Y-93726000D02*
X128778000Y-91186000D01*
X145972000Y-93726000D02*
X131318000Y-93726000D01*
X135128000Y-83058000D02*
X135128000Y-78486000D01*
X149352000Y-89486000D02*
X149352000Y-91186000D01*
X142240000Y-87376000D02*
X147242000Y-87376000D01*
X139446000Y-77978000D02*
X139446000Y-84582000D01*
X147242000Y-87376000D02*
X149352000Y-89486000D01*
X135128000Y-78486000D02*
X135128000Y-77470000D01*
X135128000Y-77470000D02*
X135636000Y-76962000D01*
X139446000Y-84582000D02*
X142240000Y-87376000D01*
X138430000Y-76962000D02*
X139446000Y-77978000D01*
X135636000Y-76962000D02*
X138430000Y-76962000D01*
X147066000Y-94742000D02*
X149352000Y-92456000D01*
X129794000Y-94742000D02*
X147066000Y-94742000D01*
X149352000Y-91186000D02*
X149352000Y-92456000D01*
X128778000Y-93726000D02*
X129794000Y-94742000D01*
X134335999Y-88168001D02*
X135636000Y-86868000D01*
X124937999Y-89975999D02*
X126745997Y-88168001D01*
X124937999Y-94965999D02*
X124937999Y-89975999D01*
X126745997Y-88168001D02*
X134335999Y-88168001D01*
X126238000Y-96266000D02*
X124937999Y-94965999D01*
X132588000Y-83058000D02*
X132588000Y-78486000D01*
X151892000Y-89486000D02*
X151892000Y-91186000D01*
X148258000Y-85852000D02*
X151892000Y-89486000D01*
X143002000Y-85852000D02*
X148258000Y-85852000D01*
X135382000Y-75692000D02*
X138938000Y-75692000D01*
X132588000Y-78486000D02*
X135382000Y-75692000D01*
X138938000Y-75692000D02*
X140970000Y-77724000D01*
X140970000Y-77724000D02*
X140970000Y-83820000D01*
X140970000Y-83820000D02*
X143002000Y-85852000D01*
X130302000Y-95758000D02*
X129794000Y-96266000D01*
X148082000Y-95758000D02*
X130302000Y-95758000D01*
X151892000Y-91186000D02*
X151892000Y-91948000D01*
X129794000Y-96266000D02*
X128778000Y-96266000D01*
X151892000Y-91948000D02*
X148082000Y-95758000D01*
X130048000Y-83058000D02*
X130048000Y-78486000D01*
X154432000Y-89408000D02*
X154432000Y-91186000D01*
X144780000Y-84836000D02*
X149860000Y-84836000D01*
X149860000Y-84836000D02*
X154432000Y-89408000D01*
X130048000Y-77186000D02*
X132812000Y-74422000D01*
X142494000Y-82550000D02*
X144780000Y-84836000D01*
X130048000Y-78486000D02*
X130048000Y-77186000D01*
X132812000Y-74422000D02*
X139700000Y-74422000D01*
X139700000Y-74422000D02*
X142494000Y-77216000D01*
X142494000Y-77216000D02*
X142494000Y-82550000D01*
X154432000Y-91694000D02*
X154432000Y-91186000D01*
X149352000Y-96774000D02*
X154432000Y-91694000D01*
X128778000Y-98806000D02*
X130810000Y-96774000D01*
X130810000Y-96774000D02*
X149352000Y-96774000D01*
X168988000Y-84074000D02*
X170688000Y-84074000D01*
X165354000Y-89916000D02*
X168148000Y-87122000D01*
X167640000Y-98552000D02*
X163322000Y-98552000D01*
X163322000Y-98552000D02*
X158496000Y-93726000D01*
X158496000Y-93726000D02*
X158496000Y-91186000D01*
X168148000Y-84914000D02*
X168988000Y-84074000D01*
X158496000Y-91186000D02*
X159766000Y-89916000D01*
X168148000Y-87122000D02*
X168148000Y-84914000D01*
X159766000Y-89916000D02*
X165354000Y-89916000D01*
D28*
X170688000Y-92964000D02*
X170180000Y-92964000D01*
X170180000Y-92964000D02*
X168656000Y-94488000D01*
X168656000Y-94488000D02*
X166370000Y-94488000D01*
X164084000Y-92202000D02*
X160020000Y-92202000D01*
X166370000Y-94488000D02*
X164084000Y-92202000D01*
D29*
X137819001Y-70714999D02*
X137668000Y-70866000D01*
D28*
X157226000Y-84582000D02*
X157226000Y-82550000D01*
X158750000Y-81148000D02*
X158750000Y-79248000D01*
X157348000Y-82550000D02*
X158750000Y-81148000D01*
X157226000Y-82550000D02*
X157348000Y-82550000D01*
X159644000Y-82042000D02*
X158750000Y-81148000D01*
X162306000Y-82042000D02*
X159644000Y-82042000D01*
X157226000Y-84582000D02*
X154686000Y-87122000D01*
D29*
X170688000Y-86614000D02*
X172388000Y-86614000D01*
X172388000Y-86614000D02*
X172974000Y-87200000D01*
X172974000Y-87200000D02*
X172974000Y-98806000D01*
X172974000Y-98806000D02*
X170942000Y-100838000D01*
X136652000Y-100506000D02*
X136652000Y-98806000D01*
X136984000Y-100838000D02*
X136652000Y-100506000D01*
X170942000Y-100838000D02*
X136984000Y-100838000D01*
D27*
X197104000Y-96012000D02*
X196342000Y-96774000D01*
X196342000Y-96774000D02*
X194056000Y-96774000D01*
X190714000Y-78994000D02*
X191984000Y-77724000D01*
X195580000Y-77724000D02*
X197104000Y-79248000D01*
X188214000Y-78994000D02*
X190714000Y-78994000D01*
X191984000Y-77724000D02*
X195580000Y-77724000D01*
X197104000Y-84074000D02*
X197104000Y-96012000D01*
X197104000Y-79248000D02*
X197104000Y-84074000D01*
D30*
G36*
X167767000Y-82296000D02*
G01*
X167769440Y-82320776D01*
X167776667Y-82344601D01*
X167788403Y-82366557D01*
X167804197Y-82385803D01*
X167823443Y-82401597D01*
X167845399Y-82413333D01*
X167869224Y-82420560D01*
X167894000Y-82423000D01*
X174371000Y-82423000D01*
X174371000Y-101448000D01*
X171586260Y-101448000D01*
X171598534Y-101433044D01*
X173569049Y-99462530D01*
X173602817Y-99434817D01*
X173713411Y-99300059D01*
X173795589Y-99146313D01*
X173846195Y-98979490D01*
X173859000Y-98849477D01*
X173859000Y-98849469D01*
X173863281Y-98806000D01*
X173859000Y-98762531D01*
X173859000Y-87243465D01*
X173863281Y-87199999D01*
X173859000Y-87156533D01*
X173859000Y-87156523D01*
X173846195Y-87026510D01*
X173795589Y-86859687D01*
X173713411Y-86705941D01*
X173602817Y-86571183D01*
X173569045Y-86543467D01*
X173044534Y-86018956D01*
X173016817Y-85985183D01*
X172882059Y-85874589D01*
X172728313Y-85792411D01*
X172561490Y-85741805D01*
X172431477Y-85729000D01*
X172431469Y-85729000D01*
X172388000Y-85724719D01*
X172344531Y-85729000D01*
X172218078Y-85729000D01*
X172107608Y-85594392D01*
X171994518Y-85501581D01*
X172012482Y-85499812D01*
X172132180Y-85463502D01*
X172242494Y-85404537D01*
X172339185Y-85325185D01*
X172418537Y-85228494D01*
X172477502Y-85118180D01*
X172513812Y-84998482D01*
X172526072Y-84874000D01*
X172526072Y-83274000D01*
X172513812Y-83149518D01*
X172477502Y-83029820D01*
X172418537Y-82919506D01*
X172339185Y-82822815D01*
X172242494Y-82743463D01*
X172132180Y-82684498D01*
X172012482Y-82648188D01*
X171888000Y-82635928D01*
X169488000Y-82635928D01*
X169363518Y-82648188D01*
X169243820Y-82684498D01*
X169133506Y-82743463D01*
X169036815Y-82822815D01*
X168957463Y-82919506D01*
X168898498Y-83029820D01*
X168862188Y-83149518D01*
X168857455Y-83197575D01*
X168814510Y-83201805D01*
X168647687Y-83252411D01*
X168493941Y-83334589D01*
X168481343Y-83344928D01*
X168392953Y-83417468D01*
X168392951Y-83417470D01*
X168359183Y-83445183D01*
X168331470Y-83478951D01*
X167552951Y-84257471D01*
X167519184Y-84285183D01*
X167491471Y-84318951D01*
X167491468Y-84318954D01*
X167408590Y-84419941D01*
X167326412Y-84573687D01*
X167275805Y-84740510D01*
X167258719Y-84914000D01*
X167263001Y-84957479D01*
X167263000Y-86755421D01*
X164987422Y-89031000D01*
X159809465Y-89031000D01*
X159765999Y-89026719D01*
X159722533Y-89031000D01*
X159722523Y-89031000D01*
X159592510Y-89043805D01*
X159425687Y-89094411D01*
X159271941Y-89176589D01*
X159271939Y-89176590D01*
X159271940Y-89176590D01*
X159170953Y-89259468D01*
X159170951Y-89259470D01*
X159137183Y-89287183D01*
X159109470Y-89320951D01*
X158410072Y-90020350D01*
X158410072Y-89986000D01*
X158397812Y-89861518D01*
X158361502Y-89741820D01*
X158302537Y-89631506D01*
X158223185Y-89534815D01*
X158126494Y-89455463D01*
X158016180Y-89396498D01*
X157896482Y-89360188D01*
X157772000Y-89347928D01*
X156172000Y-89347928D01*
X156047518Y-89360188D01*
X155927820Y-89396498D01*
X155817506Y-89455463D01*
X155720815Y-89534815D01*
X155641463Y-89631506D01*
X155582498Y-89741820D01*
X155546188Y-89861518D01*
X155544419Y-89879482D01*
X155451608Y-89766392D01*
X155317000Y-89655922D01*
X155317000Y-89451465D01*
X155321281Y-89407999D01*
X155317000Y-89364533D01*
X155317000Y-89364523D01*
X155304195Y-89234510D01*
X155253589Y-89067687D01*
X155171411Y-88913941D01*
X155060817Y-88779183D01*
X155027050Y-88751472D01*
X154752579Y-88477000D01*
X154819456Y-88477000D01*
X155081239Y-88424928D01*
X155327833Y-88322785D01*
X155549762Y-88174497D01*
X155738497Y-87985762D01*
X155886785Y-87763833D01*
X155988928Y-87517239D01*
X156041000Y-87255456D01*
X156041000Y-87160000D01*
X157264000Y-85937000D01*
X157359456Y-85937000D01*
X157621239Y-85884928D01*
X157867833Y-85782785D01*
X158089762Y-85634497D01*
X158278497Y-85445762D01*
X158426785Y-85223833D01*
X158528928Y-84977239D01*
X158581000Y-84715456D01*
X158581000Y-84448544D01*
X158528928Y-84186761D01*
X158426785Y-83940167D01*
X158278497Y-83718238D01*
X158211000Y-83650741D01*
X158211000Y-83080000D01*
X158750000Y-82541000D01*
X158913289Y-82704289D01*
X158944130Y-82741870D01*
X159094116Y-82864960D01*
X159249108Y-82947805D01*
X159265233Y-82956424D01*
X159450906Y-83012747D01*
X159644000Y-83031765D01*
X159692380Y-83027000D01*
X161374741Y-83027000D01*
X161442238Y-83094497D01*
X161664167Y-83242785D01*
X161910761Y-83344928D01*
X162172544Y-83397000D01*
X162439456Y-83397000D01*
X162701239Y-83344928D01*
X162947833Y-83242785D01*
X163169762Y-83094497D01*
X163358497Y-82905762D01*
X163506785Y-82683833D01*
X163608928Y-82437239D01*
X163661000Y-82175456D01*
X163661000Y-81908544D01*
X163608928Y-81646761D01*
X163506785Y-81400167D01*
X163421442Y-81272442D01*
X163861001Y-81712001D01*
X163861000Y-83650741D01*
X163793503Y-83718238D01*
X163645215Y-83940167D01*
X163543072Y-84186761D01*
X163491000Y-84448544D01*
X163491000Y-84544000D01*
X162268000Y-85767000D01*
X162172544Y-85767000D01*
X161910761Y-85819072D01*
X161664167Y-85921215D01*
X161442238Y-86069503D01*
X161253503Y-86258238D01*
X161105215Y-86480167D01*
X161003072Y-86726761D01*
X160951000Y-86988544D01*
X160951000Y-87255456D01*
X161003072Y-87517239D01*
X161105215Y-87763833D01*
X161253503Y-87985762D01*
X161442238Y-88174497D01*
X161664167Y-88322785D01*
X161910761Y-88424928D01*
X162172544Y-88477000D01*
X162439456Y-88477000D01*
X162701239Y-88424928D01*
X162947833Y-88322785D01*
X163169762Y-88174497D01*
X163358497Y-87985762D01*
X163506785Y-87763833D01*
X163608928Y-87517239D01*
X163661000Y-87255456D01*
X163661000Y-87160000D01*
X164884000Y-85937000D01*
X164979456Y-85937000D01*
X165241239Y-85884928D01*
X165487833Y-85782785D01*
X165709762Y-85634497D01*
X165898497Y-85445762D01*
X166046785Y-85223833D01*
X166148928Y-84977239D01*
X166201000Y-84715456D01*
X166201000Y-84448544D01*
X166148928Y-84186761D01*
X166046785Y-83940167D01*
X165898497Y-83718238D01*
X165831000Y-83650741D01*
X165831000Y-81352379D01*
X165835765Y-81303999D01*
X165816747Y-81110906D01*
X165760424Y-80925233D01*
X165745209Y-80896768D01*
X165668960Y-80754116D01*
X165545870Y-80604130D01*
X165508284Y-80573284D01*
X165135072Y-80200072D01*
X165954000Y-80200072D01*
X166078482Y-80187812D01*
X166198180Y-80151502D01*
X166308494Y-80092537D01*
X166405185Y-80013185D01*
X166484537Y-79916494D01*
X166543502Y-79806180D01*
X166579812Y-79686482D01*
X166592072Y-79562000D01*
X166592072Y-78362000D01*
X166579812Y-78237518D01*
X166543502Y-78117820D01*
X166484537Y-78007506D01*
X166405185Y-77910815D01*
X166308494Y-77831463D01*
X166262994Y-77807142D01*
X166320872Y-77749264D01*
X166203766Y-77632158D01*
X166427348Y-77584852D01*
X166528237Y-77363484D01*
X166584000Y-77126687D01*
X166592495Y-76883562D01*
X166553395Y-76643451D01*
X166468202Y-76415582D01*
X166427348Y-76339148D01*
X166203764Y-76291841D01*
X165533605Y-76962000D01*
X165547748Y-76976143D01*
X165368143Y-77155748D01*
X165354000Y-77141605D01*
X165339858Y-77155748D01*
X165160253Y-76976143D01*
X165174395Y-76962000D01*
X164504236Y-76291841D01*
X164280652Y-76339148D01*
X164179763Y-76560516D01*
X164124000Y-76797313D01*
X164115505Y-77040438D01*
X164154605Y-77280549D01*
X164239798Y-77508418D01*
X164280652Y-77584852D01*
X164504234Y-77632158D01*
X164387128Y-77749264D01*
X164445006Y-77807142D01*
X164399506Y-77831463D01*
X164353895Y-77868895D01*
X162597236Y-76112236D01*
X164683841Y-76112236D01*
X165354000Y-76782395D01*
X166024159Y-76112236D01*
X165976852Y-75888652D01*
X165755484Y-75787763D01*
X165518687Y-75732000D01*
X165275562Y-75723505D01*
X165035451Y-75762605D01*
X164807582Y-75847798D01*
X164731148Y-75888652D01*
X164683841Y-76112236D01*
X162597236Y-76112236D01*
X159735000Y-73250000D01*
X159735000Y-73076009D01*
X159769607Y-73047608D01*
X159862419Y-72934517D01*
X159864188Y-72952482D01*
X159900498Y-73072180D01*
X159959463Y-73182494D01*
X160038815Y-73279185D01*
X160135506Y-73358537D01*
X160245820Y-73417502D01*
X160365518Y-73453812D01*
X160490000Y-73466072D01*
X161004250Y-73463000D01*
X161163000Y-73304250D01*
X161163000Y-71755000D01*
X161417000Y-71755000D01*
X161417000Y-73304250D01*
X161575750Y-73463000D01*
X162090000Y-73466072D01*
X162214482Y-73453812D01*
X162334180Y-73417502D01*
X162444494Y-73358537D01*
X162541185Y-73279185D01*
X162620537Y-73182494D01*
X162679502Y-73072180D01*
X162715812Y-72952482D01*
X162728072Y-72828000D01*
X162726118Y-72246438D01*
X164115505Y-72246438D01*
X164154605Y-72486549D01*
X164239798Y-72714418D01*
X164280652Y-72790852D01*
X164504234Y-72838158D01*
X164387128Y-72955264D01*
X164445006Y-73013142D01*
X164399506Y-73037463D01*
X164302815Y-73116815D01*
X164223463Y-73213506D01*
X164164498Y-73323820D01*
X164128188Y-73443518D01*
X164115928Y-73568000D01*
X164115928Y-74768000D01*
X164128188Y-74892482D01*
X164164498Y-75012180D01*
X164223463Y-75122494D01*
X164302815Y-75219185D01*
X164399506Y-75298537D01*
X164509820Y-75357502D01*
X164629518Y-75393812D01*
X164754000Y-75406072D01*
X165954000Y-75406072D01*
X166078482Y-75393812D01*
X166198180Y-75357502D01*
X166308494Y-75298537D01*
X166405185Y-75219185D01*
X166484537Y-75122494D01*
X166543502Y-75012180D01*
X166579812Y-74892482D01*
X166592072Y-74768000D01*
X166592072Y-73568000D01*
X166579812Y-73443518D01*
X166543502Y-73323820D01*
X166484537Y-73213506D01*
X166405185Y-73116815D01*
X166308494Y-73037463D01*
X166262994Y-73013142D01*
X166320872Y-72955264D01*
X166203766Y-72838158D01*
X166427348Y-72790852D01*
X166528237Y-72569484D01*
X166584000Y-72332687D01*
X166592495Y-72089562D01*
X166553395Y-71849451D01*
X166468202Y-71621582D01*
X166427348Y-71545148D01*
X166203764Y-71497841D01*
X165533605Y-72168000D01*
X165547748Y-72182143D01*
X165368143Y-72361748D01*
X165354000Y-72347605D01*
X165339858Y-72361748D01*
X165160253Y-72182143D01*
X165174395Y-72168000D01*
X164504236Y-71497841D01*
X164280652Y-71545148D01*
X164179763Y-71766516D01*
X164124000Y-72003313D01*
X164115505Y-72246438D01*
X162726118Y-72246438D01*
X162725000Y-71913750D01*
X162566250Y-71755000D01*
X161417000Y-71755000D01*
X161163000Y-71755000D01*
X161143000Y-71755000D01*
X161143000Y-71501000D01*
X161163000Y-71501000D01*
X161163000Y-69951750D01*
X161417000Y-69951750D01*
X161417000Y-71501000D01*
X162566250Y-71501000D01*
X162725000Y-71342250D01*
X162725080Y-71318236D01*
X164683841Y-71318236D01*
X165354000Y-71988395D01*
X166024159Y-71318236D01*
X165976852Y-71094652D01*
X165755484Y-70993763D01*
X165518687Y-70938000D01*
X165275562Y-70929505D01*
X165035451Y-70968605D01*
X164807582Y-71053798D01*
X164731148Y-71094652D01*
X164683841Y-71318236D01*
X162725080Y-71318236D01*
X162728072Y-70428000D01*
X162715812Y-70303518D01*
X162679502Y-70183820D01*
X162620537Y-70073506D01*
X162541185Y-69976815D01*
X162444494Y-69897463D01*
X162334180Y-69838498D01*
X162214482Y-69802188D01*
X162090000Y-69789928D01*
X161575750Y-69793000D01*
X161417000Y-69951750D01*
X161163000Y-69951750D01*
X161004250Y-69793000D01*
X160490000Y-69789928D01*
X160365518Y-69802188D01*
X160245820Y-69838498D01*
X160135506Y-69897463D01*
X160038815Y-69976815D01*
X159959463Y-70073506D01*
X159900498Y-70183820D01*
X159864188Y-70303518D01*
X159862419Y-70321482D01*
X159769608Y-70208392D01*
X159551101Y-70029068D01*
X159301808Y-69895818D01*
X159031309Y-69813764D01*
X158750000Y-69786057D01*
X158468692Y-69813764D01*
X158198193Y-69895818D01*
X157948900Y-70029068D01*
X157730393Y-70208392D01*
X157551068Y-70426899D01*
X157480000Y-70559858D01*
X157408932Y-70426899D01*
X157229608Y-70208392D01*
X157011101Y-70029068D01*
X156761808Y-69895818D01*
X156491309Y-69813764D01*
X156210000Y-69786057D01*
X155928692Y-69813764D01*
X155658193Y-69895818D01*
X155408900Y-70029068D01*
X155190393Y-70208392D01*
X155011068Y-70426899D01*
X154940000Y-70559858D01*
X154868932Y-70426899D01*
X154689608Y-70208392D01*
X154471101Y-70029068D01*
X154221808Y-69895818D01*
X153951309Y-69813764D01*
X153670000Y-69786057D01*
X153388692Y-69813764D01*
X153118193Y-69895818D01*
X152868900Y-70029068D01*
X152650393Y-70208392D01*
X152471068Y-70426899D01*
X152337818Y-70676192D01*
X152255764Y-70946691D01*
X152235000Y-71157508D01*
X152235000Y-72098491D01*
X152255764Y-72309308D01*
X152337818Y-72579807D01*
X152471068Y-72829100D01*
X152650392Y-73047607D01*
X152868899Y-73226932D01*
X153118192Y-73360182D01*
X153388691Y-73442236D01*
X153670000Y-73469943D01*
X153951308Y-73442236D01*
X154221807Y-73360182D01*
X154471100Y-73226932D01*
X154689607Y-73047608D01*
X154868932Y-72829101D01*
X154940000Y-72696142D01*
X155011068Y-72829100D01*
X155190392Y-73047607D01*
X155408899Y-73226932D01*
X155658192Y-73360182D01*
X155928691Y-73442236D01*
X156210000Y-73469943D01*
X156491308Y-73442236D01*
X156761807Y-73360182D01*
X157011100Y-73226932D01*
X157229607Y-73047608D01*
X157408932Y-72829101D01*
X157480000Y-72696142D01*
X157551068Y-72829100D01*
X157730392Y-73047607D01*
X157765000Y-73076009D01*
X157765000Y-73506000D01*
X155547716Y-75723284D01*
X155510130Y-75754130D01*
X155387040Y-75904116D01*
X155304432Y-76058665D01*
X155295576Y-76075234D01*
X155239253Y-76260907D01*
X155220235Y-76454000D01*
X155225000Y-76502380D01*
X155225000Y-77799990D01*
X155190393Y-77828392D01*
X155011068Y-78046899D01*
X154940000Y-78179858D01*
X154868932Y-78046899D01*
X154689608Y-77828392D01*
X154471101Y-77649068D01*
X154221808Y-77515818D01*
X153951309Y-77433764D01*
X153670000Y-77406057D01*
X153388692Y-77433764D01*
X153118193Y-77515818D01*
X152868900Y-77649068D01*
X152650393Y-77828392D01*
X152471068Y-78046899D01*
X152337818Y-78296192D01*
X152255764Y-78566691D01*
X152235000Y-78777508D01*
X152235000Y-79718491D01*
X152255764Y-79929308D01*
X152337818Y-80199807D01*
X152471068Y-80449100D01*
X152650392Y-80667607D01*
X152868899Y-80846932D01*
X153118192Y-80980182D01*
X153388691Y-81062236D01*
X153670000Y-81089943D01*
X153727457Y-81084284D01*
X153633503Y-81178238D01*
X153485215Y-81400167D01*
X153383072Y-81646761D01*
X153331000Y-81908544D01*
X153331000Y-82175456D01*
X153383072Y-82437239D01*
X153485215Y-82683833D01*
X153633503Y-82905762D01*
X153822238Y-83094497D01*
X154044167Y-83242785D01*
X154290761Y-83344928D01*
X154552544Y-83397000D01*
X154819456Y-83397000D01*
X155081239Y-83344928D01*
X155327833Y-83242785D01*
X155549762Y-83094497D01*
X155738497Y-82905762D01*
X155886785Y-82683833D01*
X155988928Y-82437239D01*
X156041000Y-82175456D01*
X156041000Y-82080000D01*
X156872284Y-81248716D01*
X156909870Y-81217870D01*
X157032960Y-81067884D01*
X157124424Y-80896767D01*
X157180747Y-80711094D01*
X157181110Y-80707408D01*
X157229607Y-80667608D01*
X157408932Y-80449101D01*
X157480000Y-80316142D01*
X157551068Y-80449100D01*
X157730392Y-80667607D01*
X157765000Y-80696009D01*
X157765000Y-80740000D01*
X156879087Y-81625913D01*
X156847233Y-81635576D01*
X156676116Y-81727040D01*
X156526130Y-81850130D01*
X156403040Y-82000116D01*
X156311576Y-82171233D01*
X156255253Y-82356906D01*
X156236235Y-82550000D01*
X156241001Y-82598390D01*
X156241000Y-83650741D01*
X156173503Y-83718238D01*
X156025215Y-83940167D01*
X155923072Y-84186761D01*
X155871000Y-84448544D01*
X155871000Y-84544000D01*
X154648000Y-85767000D01*
X154552544Y-85767000D01*
X154290761Y-85819072D01*
X154044167Y-85921215D01*
X153822238Y-86069503D01*
X153633503Y-86258238D01*
X153485215Y-86480167D01*
X153383072Y-86726761D01*
X153331000Y-86988544D01*
X153331000Y-87055421D01*
X150516534Y-84240956D01*
X150488817Y-84207183D01*
X150354059Y-84096589D01*
X150200313Y-84014411D01*
X150033490Y-83963805D01*
X149903477Y-83951000D01*
X149903469Y-83951000D01*
X149860000Y-83946719D01*
X149816531Y-83951000D01*
X145146579Y-83951000D01*
X143379000Y-82183422D01*
X143379000Y-80480000D01*
X143595928Y-80480000D01*
X143595928Y-82080000D01*
X143608188Y-82204482D01*
X143644498Y-82324180D01*
X143703463Y-82434494D01*
X143782815Y-82531185D01*
X143879506Y-82610537D01*
X143989820Y-82669502D01*
X144109518Y-82705812D01*
X144234000Y-82718072D01*
X145834000Y-82718072D01*
X145958482Y-82705812D01*
X146078180Y-82669502D01*
X146188494Y-82610537D01*
X146285185Y-82531185D01*
X146364537Y-82434494D01*
X146423502Y-82324180D01*
X146459812Y-82204482D01*
X146472072Y-82080000D01*
X146472072Y-80480000D01*
X146459812Y-80355518D01*
X146423502Y-80235820D01*
X146364537Y-80125506D01*
X146285185Y-80028815D01*
X146188494Y-79949463D01*
X146078180Y-79890498D01*
X145958482Y-79854188D01*
X145950039Y-79853357D01*
X146148637Y-79654759D01*
X146305680Y-79419727D01*
X146413853Y-79158574D01*
X146469000Y-78881335D01*
X146469000Y-78598665D01*
X146413853Y-78321426D01*
X146305680Y-78060273D01*
X146148637Y-77825241D01*
X145948759Y-77625363D01*
X145716241Y-77470000D01*
X145948759Y-77314637D01*
X145968958Y-77294438D01*
X148367505Y-77294438D01*
X148406605Y-77534549D01*
X148491798Y-77762418D01*
X148532652Y-77838852D01*
X148756234Y-77886158D01*
X148639128Y-78003264D01*
X148697006Y-78061142D01*
X148651506Y-78085463D01*
X148554815Y-78164815D01*
X148475463Y-78261506D01*
X148416498Y-78371820D01*
X148380188Y-78491518D01*
X148367928Y-78616000D01*
X148367928Y-79816000D01*
X148380188Y-79940482D01*
X148416498Y-80060180D01*
X148475463Y-80170494D01*
X148554815Y-80267185D01*
X148651506Y-80346537D01*
X148761820Y-80405502D01*
X148881518Y-80441812D01*
X149006000Y-80454072D01*
X150206000Y-80454072D01*
X150330482Y-80441812D01*
X150450180Y-80405502D01*
X150560494Y-80346537D01*
X150657185Y-80267185D01*
X150736537Y-80170494D01*
X150795502Y-80060180D01*
X150831812Y-79940482D01*
X150844072Y-79816000D01*
X150844072Y-78616000D01*
X150831812Y-78491518D01*
X150795502Y-78371820D01*
X150736537Y-78261506D01*
X150657185Y-78164815D01*
X150560494Y-78085463D01*
X150514994Y-78061142D01*
X150572872Y-78003264D01*
X150455766Y-77886158D01*
X150679348Y-77838852D01*
X150780237Y-77617484D01*
X150836000Y-77380687D01*
X150844495Y-77137562D01*
X150805395Y-76897451D01*
X150720202Y-76669582D01*
X150679348Y-76593148D01*
X150455764Y-76545841D01*
X149785605Y-77216000D01*
X149799748Y-77230143D01*
X149620143Y-77409748D01*
X149606000Y-77395605D01*
X149591858Y-77409748D01*
X149412253Y-77230143D01*
X149426395Y-77216000D01*
X148756236Y-76545841D01*
X148532652Y-76593148D01*
X148431763Y-76814516D01*
X148376000Y-77051313D01*
X148367505Y-77294438D01*
X145968958Y-77294438D01*
X146148637Y-77114759D01*
X146305680Y-76879727D01*
X146413853Y-76618574D01*
X146464046Y-76366236D01*
X148935841Y-76366236D01*
X149606000Y-77036395D01*
X150276159Y-76366236D01*
X150228852Y-76142652D01*
X150007484Y-76041763D01*
X149770687Y-75986000D01*
X149527562Y-75977505D01*
X149287451Y-76016605D01*
X149059582Y-76101798D01*
X148983148Y-76142652D01*
X148935841Y-76366236D01*
X146464046Y-76366236D01*
X146469000Y-76341335D01*
X146469000Y-76058665D01*
X146413853Y-75781426D01*
X146305680Y-75520273D01*
X146148637Y-75285241D01*
X145948759Y-75085363D01*
X145716241Y-74930000D01*
X145948759Y-74774637D01*
X146148637Y-74574759D01*
X146305680Y-74339727D01*
X146413853Y-74078574D01*
X146469000Y-73801335D01*
X146469000Y-73518665D01*
X146462192Y-73484438D01*
X147383505Y-73484438D01*
X147422605Y-73724549D01*
X147507798Y-73952418D01*
X147548652Y-74028852D01*
X147772236Y-74076159D01*
X148442395Y-73406000D01*
X147772236Y-72735841D01*
X147548652Y-72783148D01*
X147447763Y-73004516D01*
X147392000Y-73241313D01*
X147383505Y-73484438D01*
X146462192Y-73484438D01*
X146413853Y-73241426D01*
X146305680Y-72980273D01*
X146148637Y-72745241D01*
X145959632Y-72556236D01*
X147951841Y-72556236D01*
X148622000Y-73226395D01*
X148636143Y-73212253D01*
X148815748Y-73391858D01*
X148801605Y-73406000D01*
X148815748Y-73420143D01*
X148636143Y-73599748D01*
X148622000Y-73585605D01*
X147951841Y-74255764D01*
X147999148Y-74479348D01*
X148220516Y-74580237D01*
X148457313Y-74636000D01*
X148700438Y-74644495D01*
X148940549Y-74605395D01*
X149168418Y-74520202D01*
X149244852Y-74479348D01*
X149292158Y-74255766D01*
X149409264Y-74372872D01*
X149467142Y-74314994D01*
X149491463Y-74360494D01*
X149570815Y-74457185D01*
X149667506Y-74536537D01*
X149777820Y-74595502D01*
X149897518Y-74631812D01*
X150022000Y-74644072D01*
X151222000Y-74644072D01*
X151346482Y-74631812D01*
X151466180Y-74595502D01*
X151576494Y-74536537D01*
X151673185Y-74457185D01*
X151752537Y-74360494D01*
X151811502Y-74250180D01*
X151847812Y-74130482D01*
X151860072Y-74006000D01*
X151860072Y-72806000D01*
X151847812Y-72681518D01*
X151811502Y-72561820D01*
X151752537Y-72451506D01*
X151673185Y-72354815D01*
X151576494Y-72275463D01*
X151466180Y-72216498D01*
X151346482Y-72180188D01*
X151222000Y-72167928D01*
X150022000Y-72167928D01*
X149897518Y-72180188D01*
X149777820Y-72216498D01*
X149667506Y-72275463D01*
X149570815Y-72354815D01*
X149491463Y-72451506D01*
X149467142Y-72497006D01*
X149409264Y-72439128D01*
X149292158Y-72556234D01*
X149244852Y-72332652D01*
X149023484Y-72231763D01*
X148786687Y-72176000D01*
X148543562Y-72167505D01*
X148303451Y-72206605D01*
X148075582Y-72291798D01*
X147999148Y-72332652D01*
X147951841Y-72556236D01*
X145959632Y-72556236D01*
X145948759Y-72545363D01*
X145716241Y-72390000D01*
X145948759Y-72234637D01*
X146148637Y-72034759D01*
X146305680Y-71799727D01*
X146413853Y-71538574D01*
X146469000Y-71261335D01*
X146469000Y-70978665D01*
X146413853Y-70701426D01*
X146305680Y-70440273D01*
X146148637Y-70205241D01*
X145948759Y-70005363D01*
X145713727Y-69848320D01*
X145452574Y-69740147D01*
X145175335Y-69685000D01*
X144892665Y-69685000D01*
X144615426Y-69740147D01*
X144354273Y-69848320D01*
X144119241Y-70005363D01*
X143919363Y-70205241D01*
X143762320Y-70440273D01*
X143654147Y-70701426D01*
X143599000Y-70978665D01*
X143599000Y-71261335D01*
X143654147Y-71538574D01*
X143762320Y-71799727D01*
X143919363Y-72034759D01*
X144119241Y-72234637D01*
X144351759Y-72390000D01*
X144119241Y-72545363D01*
X143919363Y-72745241D01*
X143762320Y-72980273D01*
X143654147Y-73241426D01*
X143599000Y-73518665D01*
X143599000Y-73801335D01*
X143654147Y-74078574D01*
X143762320Y-74339727D01*
X143919363Y-74574759D01*
X144119241Y-74774637D01*
X144351759Y-74930000D01*
X144119241Y-75085363D01*
X143919363Y-75285241D01*
X143762320Y-75520273D01*
X143654147Y-75781426D01*
X143599000Y-76058665D01*
X143599000Y-76341335D01*
X143654147Y-76618574D01*
X143762320Y-76879727D01*
X143919363Y-77114759D01*
X144119241Y-77314637D01*
X144351759Y-77470000D01*
X144119241Y-77625363D01*
X143919363Y-77825241D01*
X143762320Y-78060273D01*
X143654147Y-78321426D01*
X143599000Y-78598665D01*
X143599000Y-78881335D01*
X143654147Y-79158574D01*
X143762320Y-79419727D01*
X143919363Y-79654759D01*
X144117961Y-79853357D01*
X144109518Y-79854188D01*
X143989820Y-79890498D01*
X143879506Y-79949463D01*
X143782815Y-80028815D01*
X143703463Y-80125506D01*
X143644498Y-80235820D01*
X143608188Y-80355518D01*
X143595928Y-80480000D01*
X143379000Y-80480000D01*
X143379000Y-77259469D01*
X143383281Y-77216000D01*
X143379000Y-77172531D01*
X143379000Y-77172523D01*
X143366195Y-77042510D01*
X143364340Y-77036395D01*
X143315589Y-76875686D01*
X143233411Y-76721941D01*
X143150532Y-76620953D01*
X143150530Y-76620951D01*
X143122817Y-76587183D01*
X143089050Y-76559471D01*
X140356534Y-73826956D01*
X140328817Y-73793183D01*
X140194059Y-73682589D01*
X140040313Y-73600411D01*
X139873490Y-73549805D01*
X139743477Y-73537000D01*
X139743469Y-73537000D01*
X139700000Y-73532719D01*
X139656531Y-73537000D01*
X132855465Y-73537000D01*
X132811999Y-73532719D01*
X132768533Y-73537000D01*
X132768523Y-73537000D01*
X132638510Y-73549805D01*
X132471687Y-73600411D01*
X132317941Y-73682589D01*
X132317939Y-73682590D01*
X132317940Y-73682590D01*
X132216953Y-73765468D01*
X132216951Y-73765470D01*
X132183183Y-73793183D01*
X132155470Y-73826951D01*
X129452951Y-76529471D01*
X129419184Y-76557183D01*
X129391471Y-76590951D01*
X129391468Y-76590954D01*
X129308590Y-76691941D01*
X129226412Y-76845687D01*
X129175805Y-77012510D01*
X129171576Y-77055455D01*
X129123518Y-77060188D01*
X129003820Y-77096498D01*
X128893506Y-77155463D01*
X128796815Y-77234815D01*
X128717463Y-77331506D01*
X128658498Y-77441820D01*
X128622188Y-77561518D01*
X128609928Y-77686000D01*
X128609928Y-79286000D01*
X128622188Y-79410482D01*
X128658498Y-79530180D01*
X128717463Y-79640494D01*
X128796815Y-79737185D01*
X128893506Y-79816537D01*
X129003820Y-79875502D01*
X129123518Y-79911812D01*
X129163001Y-79915701D01*
X129163000Y-81923479D01*
X129133241Y-81943363D01*
X128934643Y-82141961D01*
X128933812Y-82133518D01*
X128897502Y-82013820D01*
X128838537Y-81903506D01*
X128759185Y-81806815D01*
X128662494Y-81727463D01*
X128552180Y-81668498D01*
X128432482Y-81632188D01*
X128308000Y-81619928D01*
X127793750Y-81623000D01*
X127635000Y-81781750D01*
X127635000Y-82931000D01*
X127655000Y-82931000D01*
X127655000Y-83185000D01*
X127635000Y-83185000D01*
X127635000Y-84334250D01*
X127793750Y-84493000D01*
X128308000Y-84496072D01*
X128432482Y-84483812D01*
X128552180Y-84447502D01*
X128662494Y-84388537D01*
X128759185Y-84309185D01*
X128838537Y-84212494D01*
X128897502Y-84102180D01*
X128933812Y-83982482D01*
X128934643Y-83974039D01*
X129133241Y-84172637D01*
X129368273Y-84329680D01*
X129629426Y-84437853D01*
X129906665Y-84493000D01*
X130189335Y-84493000D01*
X130466574Y-84437853D01*
X130727727Y-84329680D01*
X130962759Y-84172637D01*
X131162637Y-83972759D01*
X131318000Y-83740241D01*
X131473363Y-83972759D01*
X131673241Y-84172637D01*
X131908273Y-84329680D01*
X132169426Y-84437853D01*
X132446665Y-84493000D01*
X132729335Y-84493000D01*
X133006574Y-84437853D01*
X133267727Y-84329680D01*
X133502759Y-84172637D01*
X133702637Y-83972759D01*
X133858000Y-83740241D01*
X134013363Y-83972759D01*
X134213241Y-84172637D01*
X134448273Y-84329680D01*
X134709426Y-84437853D01*
X134986665Y-84493000D01*
X135269335Y-84493000D01*
X135546574Y-84437853D01*
X135807727Y-84329680D01*
X136042759Y-84172637D01*
X136242637Y-83972759D01*
X136398000Y-83740241D01*
X136553363Y-83972759D01*
X136753241Y-84172637D01*
X136783001Y-84192522D01*
X136783001Y-84792521D01*
X136778719Y-84836000D01*
X136795805Y-85009490D01*
X136846412Y-85176313D01*
X136928590Y-85330059D01*
X137011468Y-85431046D01*
X137011471Y-85431049D01*
X137039184Y-85464817D01*
X137072951Y-85492530D01*
X141075470Y-89495049D01*
X141083881Y-89505298D01*
X140930900Y-89587068D01*
X140712393Y-89766392D01*
X140533068Y-89984899D01*
X140462000Y-90117858D01*
X140390932Y-89984899D01*
X140211608Y-89766392D01*
X139993101Y-89587068D01*
X139743808Y-89453818D01*
X139473309Y-89371764D01*
X139192000Y-89344057D01*
X138910692Y-89371764D01*
X138640193Y-89453818D01*
X138390900Y-89587068D01*
X138172393Y-89766392D01*
X137993068Y-89984899D01*
X137922000Y-90117858D01*
X137850932Y-89984899D01*
X137671608Y-89766392D01*
X137453101Y-89587068D01*
X137203808Y-89453818D01*
X136933309Y-89371764D01*
X136652000Y-89344057D01*
X136370692Y-89371764D01*
X136100193Y-89453818D01*
X135850900Y-89587068D01*
X135632393Y-89766392D01*
X135453068Y-89984899D01*
X135384735Y-90112741D01*
X135234601Y-89883161D01*
X135036895Y-89681500D01*
X134803646Y-89522285D01*
X134543818Y-89411633D01*
X134461039Y-89394096D01*
X134239000Y-89516085D01*
X134239000Y-91059000D01*
X134259000Y-91059000D01*
X134259000Y-91313000D01*
X134239000Y-91313000D01*
X134239000Y-91333000D01*
X133985000Y-91333000D01*
X133985000Y-91313000D01*
X132677000Y-91313000D01*
X132677000Y-91713000D01*
X132729350Y-91990514D01*
X132834834Y-92252483D01*
X132989399Y-92488839D01*
X133187105Y-92690500D01*
X133407587Y-92841000D01*
X131684579Y-92841000D01*
X130248539Y-91404961D01*
X130263000Y-91332260D01*
X130263000Y-91039740D01*
X130205932Y-90752842D01*
X130167062Y-90659000D01*
X132677000Y-90659000D01*
X132677000Y-91059000D01*
X133985000Y-91059000D01*
X133985000Y-89516085D01*
X133762961Y-89394096D01*
X133680182Y-89411633D01*
X133420354Y-89522285D01*
X133187105Y-89681500D01*
X132989399Y-89883161D01*
X132834834Y-90119517D01*
X132729350Y-90381486D01*
X132677000Y-90659000D01*
X130167062Y-90659000D01*
X130093990Y-90482589D01*
X129931475Y-90239368D01*
X129724632Y-90032525D01*
X129481411Y-89870010D01*
X129211158Y-89758068D01*
X128924260Y-89701000D01*
X128631740Y-89701000D01*
X128344842Y-89758068D01*
X128074589Y-89870010D01*
X127831368Y-90032525D01*
X127699513Y-90164380D01*
X127677502Y-90091820D01*
X127618537Y-89981506D01*
X127539185Y-89884815D01*
X127442494Y-89805463D01*
X127332180Y-89746498D01*
X127212482Y-89710188D01*
X127088000Y-89697928D01*
X126467648Y-89697928D01*
X127112576Y-89053001D01*
X134292530Y-89053001D01*
X134335999Y-89057282D01*
X134379468Y-89053001D01*
X134379476Y-89053001D01*
X134509489Y-89040196D01*
X134676312Y-88989590D01*
X134830058Y-88907412D01*
X134964816Y-88796818D01*
X134992533Y-88763045D01*
X135399506Y-88356072D01*
X136486000Y-88356072D01*
X136610482Y-88343812D01*
X136730180Y-88307502D01*
X136840494Y-88248537D01*
X136937185Y-88169185D01*
X137016537Y-88072494D01*
X137075502Y-87962180D01*
X137111812Y-87842482D01*
X137124072Y-87718000D01*
X137124072Y-86018000D01*
X137111812Y-85893518D01*
X137075502Y-85773820D01*
X137016537Y-85663506D01*
X136937185Y-85566815D01*
X136840494Y-85487463D01*
X136730180Y-85428498D01*
X136610482Y-85392188D01*
X136486000Y-85379928D01*
X134786000Y-85379928D01*
X134661518Y-85392188D01*
X134541820Y-85428498D01*
X134431506Y-85487463D01*
X134334815Y-85566815D01*
X134255463Y-85663506D01*
X134196498Y-85773820D01*
X134174487Y-85846380D01*
X134042632Y-85714525D01*
X133799411Y-85552010D01*
X133529158Y-85440068D01*
X133242260Y-85383000D01*
X132949740Y-85383000D01*
X132662842Y-85440068D01*
X132392589Y-85552010D01*
X132149368Y-85714525D01*
X131942525Y-85921368D01*
X131826000Y-86095760D01*
X131709475Y-85921368D01*
X131502632Y-85714525D01*
X131259411Y-85552010D01*
X130989158Y-85440068D01*
X130702260Y-85383000D01*
X130409740Y-85383000D01*
X130122842Y-85440068D01*
X129852589Y-85552010D01*
X129609368Y-85714525D01*
X129402525Y-85921368D01*
X129240010Y-86164589D01*
X129128068Y-86434842D01*
X129071000Y-86721740D01*
X129071000Y-87014260D01*
X129124456Y-87283001D01*
X126789462Y-87283001D01*
X126745996Y-87278720D01*
X126702530Y-87283001D01*
X126702520Y-87283001D01*
X126572507Y-87295806D01*
X126405684Y-87346412D01*
X126251938Y-87428590D01*
X126251936Y-87428591D01*
X126251937Y-87428591D01*
X126150950Y-87511469D01*
X126150948Y-87511471D01*
X126117180Y-87539184D01*
X126089467Y-87572952D01*
X124358000Y-89304420D01*
X124358000Y-83858000D01*
X126069928Y-83858000D01*
X126082188Y-83982482D01*
X126118498Y-84102180D01*
X126177463Y-84212494D01*
X126256815Y-84309185D01*
X126353506Y-84388537D01*
X126463820Y-84447502D01*
X126583518Y-84483812D01*
X126708000Y-84496072D01*
X127222250Y-84493000D01*
X127381000Y-84334250D01*
X127381000Y-83185000D01*
X126231750Y-83185000D01*
X126073000Y-83343750D01*
X126069928Y-83858000D01*
X124358000Y-83858000D01*
X124358000Y-82258000D01*
X126069928Y-82258000D01*
X126073000Y-82772250D01*
X126231750Y-82931000D01*
X127381000Y-82931000D01*
X127381000Y-81781750D01*
X127222250Y-81623000D01*
X126708000Y-81619928D01*
X126583518Y-81632188D01*
X126463820Y-81668498D01*
X126353506Y-81727463D01*
X126256815Y-81806815D01*
X126177463Y-81903506D01*
X126118498Y-82013820D01*
X126082188Y-82133518D01*
X126069928Y-82258000D01*
X124358000Y-82258000D01*
X124358000Y-70724665D01*
X128613000Y-70724665D01*
X128613000Y-71007335D01*
X128668147Y-71284574D01*
X128776320Y-71545727D01*
X128933363Y-71780759D01*
X129133241Y-71980637D01*
X129368273Y-72137680D01*
X129629426Y-72245853D01*
X129906665Y-72301000D01*
X130189335Y-72301000D01*
X130466574Y-72245853D01*
X130727727Y-72137680D01*
X130962759Y-71980637D01*
X131162637Y-71780759D01*
X131318000Y-71548241D01*
X131473363Y-71780759D01*
X131673241Y-71980637D01*
X131908273Y-72137680D01*
X132169426Y-72245853D01*
X132446665Y-72301000D01*
X132729335Y-72301000D01*
X133006574Y-72245853D01*
X133267727Y-72137680D01*
X133502759Y-71980637D01*
X133702637Y-71780759D01*
X133858000Y-71548241D01*
X134013363Y-71780759D01*
X134213241Y-71980637D01*
X134448273Y-72137680D01*
X134709426Y-72245853D01*
X134986665Y-72301000D01*
X135269335Y-72301000D01*
X135546574Y-72245853D01*
X135807727Y-72137680D01*
X136042759Y-71980637D01*
X136242637Y-71780759D01*
X136398000Y-71548241D01*
X136553363Y-71780759D01*
X136753241Y-71980637D01*
X136988273Y-72137680D01*
X137249426Y-72245853D01*
X137526665Y-72301000D01*
X137809335Y-72301000D01*
X138086574Y-72245853D01*
X138347727Y-72137680D01*
X138582759Y-71980637D01*
X138782637Y-71780759D01*
X138939680Y-71545727D01*
X139047853Y-71284574D01*
X139103000Y-71007335D01*
X139103000Y-70724665D01*
X139047853Y-70447426D01*
X138939680Y-70186273D01*
X138782637Y-69951241D01*
X138582759Y-69751363D01*
X138347727Y-69594320D01*
X138086574Y-69486147D01*
X137809335Y-69431000D01*
X137526665Y-69431000D01*
X137249426Y-69486147D01*
X136988273Y-69594320D01*
X136753241Y-69751363D01*
X136553363Y-69951241D01*
X136398000Y-70183759D01*
X136242637Y-69951241D01*
X136042759Y-69751363D01*
X135807727Y-69594320D01*
X135546574Y-69486147D01*
X135269335Y-69431000D01*
X134986665Y-69431000D01*
X134709426Y-69486147D01*
X134448273Y-69594320D01*
X134213241Y-69751363D01*
X134013363Y-69951241D01*
X133858000Y-70183759D01*
X133702637Y-69951241D01*
X133502759Y-69751363D01*
X133267727Y-69594320D01*
X133006574Y-69486147D01*
X132729335Y-69431000D01*
X132446665Y-69431000D01*
X132169426Y-69486147D01*
X131908273Y-69594320D01*
X131673241Y-69751363D01*
X131473363Y-69951241D01*
X131318000Y-70183759D01*
X131162637Y-69951241D01*
X130962759Y-69751363D01*
X130727727Y-69594320D01*
X130466574Y-69486147D01*
X130189335Y-69431000D01*
X129906665Y-69431000D01*
X129629426Y-69486147D01*
X129368273Y-69594320D01*
X129133241Y-69751363D01*
X128933363Y-69951241D01*
X128776320Y-70186273D01*
X128668147Y-70447426D01*
X128613000Y-70724665D01*
X124358000Y-70724665D01*
X124358000Y-69240000D01*
X167767000Y-69240000D01*
X167767000Y-82296000D01*
G37*
X167767000Y-82296000D02*
X167769440Y-82320776D01*
X167776667Y-82344601D01*
X167788403Y-82366557D01*
X167804197Y-82385803D01*
X167823443Y-82401597D01*
X167845399Y-82413333D01*
X167869224Y-82420560D01*
X167894000Y-82423000D01*
X174371000Y-82423000D01*
X174371000Y-101448000D01*
X171586260Y-101448000D01*
X171598534Y-101433044D01*
X173569049Y-99462530D01*
X173602817Y-99434817D01*
X173713411Y-99300059D01*
X173795589Y-99146313D01*
X173846195Y-98979490D01*
X173859000Y-98849477D01*
X173859000Y-98849469D01*
X173863281Y-98806000D01*
X173859000Y-98762531D01*
X173859000Y-87243465D01*
X173863281Y-87199999D01*
X173859000Y-87156533D01*
X173859000Y-87156523D01*
X173846195Y-87026510D01*
X173795589Y-86859687D01*
X173713411Y-86705941D01*
X173602817Y-86571183D01*
X173569045Y-86543467D01*
X173044534Y-86018956D01*
X173016817Y-85985183D01*
X172882059Y-85874589D01*
X172728313Y-85792411D01*
X172561490Y-85741805D01*
X172431477Y-85729000D01*
X172431469Y-85729000D01*
X172388000Y-85724719D01*
X172344531Y-85729000D01*
X172218078Y-85729000D01*
X172107608Y-85594392D01*
X171994518Y-85501581D01*
X172012482Y-85499812D01*
X172132180Y-85463502D01*
X172242494Y-85404537D01*
X172339185Y-85325185D01*
X172418537Y-85228494D01*
X172477502Y-85118180D01*
X172513812Y-84998482D01*
X172526072Y-84874000D01*
X172526072Y-83274000D01*
X172513812Y-83149518D01*
X172477502Y-83029820D01*
X172418537Y-82919506D01*
X172339185Y-82822815D01*
X172242494Y-82743463D01*
X172132180Y-82684498D01*
X172012482Y-82648188D01*
X171888000Y-82635928D01*
X169488000Y-82635928D01*
X169363518Y-82648188D01*
X169243820Y-82684498D01*
X169133506Y-82743463D01*
X169036815Y-82822815D01*
X168957463Y-82919506D01*
X168898498Y-83029820D01*
X168862188Y-83149518D01*
X168857455Y-83197575D01*
X168814510Y-83201805D01*
X168647687Y-83252411D01*
X168493941Y-83334589D01*
X168481343Y-83344928D01*
X168392953Y-83417468D01*
X168392951Y-83417470D01*
X168359183Y-83445183D01*
X168331470Y-83478951D01*
X167552951Y-84257471D01*
X167519184Y-84285183D01*
X167491471Y-84318951D01*
X167491468Y-84318954D01*
X167408590Y-84419941D01*
X167326412Y-84573687D01*
X167275805Y-84740510D01*
X167258719Y-84914000D01*
X167263001Y-84957479D01*
X167263000Y-86755421D01*
X164987422Y-89031000D01*
X159809465Y-89031000D01*
X159765999Y-89026719D01*
X159722533Y-89031000D01*
X159722523Y-89031000D01*
X159592510Y-89043805D01*
X159425687Y-89094411D01*
X159271941Y-89176589D01*
X159271939Y-89176590D01*
X159271940Y-89176590D01*
X159170953Y-89259468D01*
X159170951Y-89259470D01*
X159137183Y-89287183D01*
X159109470Y-89320951D01*
X158410072Y-90020350D01*
X158410072Y-89986000D01*
X158397812Y-89861518D01*
X158361502Y-89741820D01*
X158302537Y-89631506D01*
X158223185Y-89534815D01*
X158126494Y-89455463D01*
X158016180Y-89396498D01*
X157896482Y-89360188D01*
X157772000Y-89347928D01*
X156172000Y-89347928D01*
X156047518Y-89360188D01*
X155927820Y-89396498D01*
X155817506Y-89455463D01*
X155720815Y-89534815D01*
X155641463Y-89631506D01*
X155582498Y-89741820D01*
X155546188Y-89861518D01*
X155544419Y-89879482D01*
X155451608Y-89766392D01*
X155317000Y-89655922D01*
X155317000Y-89451465D01*
X155321281Y-89407999D01*
X155317000Y-89364533D01*
X155317000Y-89364523D01*
X155304195Y-89234510D01*
X155253589Y-89067687D01*
X155171411Y-88913941D01*
X155060817Y-88779183D01*
X155027050Y-88751472D01*
X154752579Y-88477000D01*
X154819456Y-88477000D01*
X155081239Y-88424928D01*
X155327833Y-88322785D01*
X155549762Y-88174497D01*
X155738497Y-87985762D01*
X155886785Y-87763833D01*
X155988928Y-87517239D01*
X156041000Y-87255456D01*
X156041000Y-87160000D01*
X157264000Y-85937000D01*
X157359456Y-85937000D01*
X157621239Y-85884928D01*
X157867833Y-85782785D01*
X158089762Y-85634497D01*
X158278497Y-85445762D01*
X158426785Y-85223833D01*
X158528928Y-84977239D01*
X158581000Y-84715456D01*
X158581000Y-84448544D01*
X158528928Y-84186761D01*
X158426785Y-83940167D01*
X158278497Y-83718238D01*
X158211000Y-83650741D01*
X158211000Y-83080000D01*
X158750000Y-82541000D01*
X158913289Y-82704289D01*
X158944130Y-82741870D01*
X159094116Y-82864960D01*
X159249108Y-82947805D01*
X159265233Y-82956424D01*
X159450906Y-83012747D01*
X159644000Y-83031765D01*
X159692380Y-83027000D01*
X161374741Y-83027000D01*
X161442238Y-83094497D01*
X161664167Y-83242785D01*
X161910761Y-83344928D01*
X162172544Y-83397000D01*
X162439456Y-83397000D01*
X162701239Y-83344928D01*
X162947833Y-83242785D01*
X163169762Y-83094497D01*
X163358497Y-82905762D01*
X163506785Y-82683833D01*
X163608928Y-82437239D01*
X163661000Y-82175456D01*
X163661000Y-81908544D01*
X163608928Y-81646761D01*
X163506785Y-81400167D01*
X163421442Y-81272442D01*
X163861001Y-81712001D01*
X163861000Y-83650741D01*
X163793503Y-83718238D01*
X163645215Y-83940167D01*
X163543072Y-84186761D01*
X163491000Y-84448544D01*
X163491000Y-84544000D01*
X162268000Y-85767000D01*
X162172544Y-85767000D01*
X161910761Y-85819072D01*
X161664167Y-85921215D01*
X161442238Y-86069503D01*
X161253503Y-86258238D01*
X161105215Y-86480167D01*
X161003072Y-86726761D01*
X160951000Y-86988544D01*
X160951000Y-87255456D01*
X161003072Y-87517239D01*
X161105215Y-87763833D01*
X161253503Y-87985762D01*
X161442238Y-88174497D01*
X161664167Y-88322785D01*
X161910761Y-88424928D01*
X162172544Y-88477000D01*
X162439456Y-88477000D01*
X162701239Y-88424928D01*
X162947833Y-88322785D01*
X163169762Y-88174497D01*
X163358497Y-87985762D01*
X163506785Y-87763833D01*
X163608928Y-87517239D01*
X163661000Y-87255456D01*
X163661000Y-87160000D01*
X164884000Y-85937000D01*
X164979456Y-85937000D01*
X165241239Y-85884928D01*
X165487833Y-85782785D01*
X165709762Y-85634497D01*
X165898497Y-85445762D01*
X166046785Y-85223833D01*
X166148928Y-84977239D01*
X166201000Y-84715456D01*
X166201000Y-84448544D01*
X166148928Y-84186761D01*
X166046785Y-83940167D01*
X165898497Y-83718238D01*
X165831000Y-83650741D01*
X165831000Y-81352379D01*
X165835765Y-81303999D01*
X165816747Y-81110906D01*
X165760424Y-80925233D01*
X165745209Y-80896768D01*
X165668960Y-80754116D01*
X165545870Y-80604130D01*
X165508284Y-80573284D01*
X165135072Y-80200072D01*
X165954000Y-80200072D01*
X166078482Y-80187812D01*
X166198180Y-80151502D01*
X166308494Y-80092537D01*
X166405185Y-80013185D01*
X166484537Y-79916494D01*
X166543502Y-79806180D01*
X166579812Y-79686482D01*
X166592072Y-79562000D01*
X166592072Y-78362000D01*
X166579812Y-78237518D01*
X166543502Y-78117820D01*
X166484537Y-78007506D01*
X166405185Y-77910815D01*
X166308494Y-77831463D01*
X166262994Y-77807142D01*
X166320872Y-77749264D01*
X166203766Y-77632158D01*
X166427348Y-77584852D01*
X166528237Y-77363484D01*
X166584000Y-77126687D01*
X166592495Y-76883562D01*
X166553395Y-76643451D01*
X166468202Y-76415582D01*
X166427348Y-76339148D01*
X166203764Y-76291841D01*
X165533605Y-76962000D01*
X165547748Y-76976143D01*
X165368143Y-77155748D01*
X165354000Y-77141605D01*
X165339858Y-77155748D01*
X165160253Y-76976143D01*
X165174395Y-76962000D01*
X164504236Y-76291841D01*
X164280652Y-76339148D01*
X164179763Y-76560516D01*
X164124000Y-76797313D01*
X164115505Y-77040438D01*
X164154605Y-77280549D01*
X164239798Y-77508418D01*
X164280652Y-77584852D01*
X164504234Y-77632158D01*
X164387128Y-77749264D01*
X164445006Y-77807142D01*
X164399506Y-77831463D01*
X164353895Y-77868895D01*
X162597236Y-76112236D01*
X164683841Y-76112236D01*
X165354000Y-76782395D01*
X166024159Y-76112236D01*
X165976852Y-75888652D01*
X165755484Y-75787763D01*
X165518687Y-75732000D01*
X165275562Y-75723505D01*
X165035451Y-75762605D01*
X164807582Y-75847798D01*
X164731148Y-75888652D01*
X164683841Y-76112236D01*
X162597236Y-76112236D01*
X159735000Y-73250000D01*
X159735000Y-73076009D01*
X159769607Y-73047608D01*
X159862419Y-72934517D01*
X159864188Y-72952482D01*
X159900498Y-73072180D01*
X159959463Y-73182494D01*
X160038815Y-73279185D01*
X160135506Y-73358537D01*
X160245820Y-73417502D01*
X160365518Y-73453812D01*
X160490000Y-73466072D01*
X161004250Y-73463000D01*
X161163000Y-73304250D01*
X161163000Y-71755000D01*
X161417000Y-71755000D01*
X161417000Y-73304250D01*
X161575750Y-73463000D01*
X162090000Y-73466072D01*
X162214482Y-73453812D01*
X162334180Y-73417502D01*
X162444494Y-73358537D01*
X162541185Y-73279185D01*
X162620537Y-73182494D01*
X162679502Y-73072180D01*
X162715812Y-72952482D01*
X162728072Y-72828000D01*
X162726118Y-72246438D01*
X164115505Y-72246438D01*
X164154605Y-72486549D01*
X164239798Y-72714418D01*
X164280652Y-72790852D01*
X164504234Y-72838158D01*
X164387128Y-72955264D01*
X164445006Y-73013142D01*
X164399506Y-73037463D01*
X164302815Y-73116815D01*
X164223463Y-73213506D01*
X164164498Y-73323820D01*
X164128188Y-73443518D01*
X164115928Y-73568000D01*
X164115928Y-74768000D01*
X164128188Y-74892482D01*
X164164498Y-75012180D01*
X164223463Y-75122494D01*
X164302815Y-75219185D01*
X164399506Y-75298537D01*
X164509820Y-75357502D01*
X164629518Y-75393812D01*
X164754000Y-75406072D01*
X165954000Y-75406072D01*
X166078482Y-75393812D01*
X166198180Y-75357502D01*
X166308494Y-75298537D01*
X166405185Y-75219185D01*
X166484537Y-75122494D01*
X166543502Y-75012180D01*
X166579812Y-74892482D01*
X166592072Y-74768000D01*
X166592072Y-73568000D01*
X166579812Y-73443518D01*
X166543502Y-73323820D01*
X166484537Y-73213506D01*
X166405185Y-73116815D01*
X166308494Y-73037463D01*
X166262994Y-73013142D01*
X166320872Y-72955264D01*
X166203766Y-72838158D01*
X166427348Y-72790852D01*
X166528237Y-72569484D01*
X166584000Y-72332687D01*
X166592495Y-72089562D01*
X166553395Y-71849451D01*
X166468202Y-71621582D01*
X166427348Y-71545148D01*
X166203764Y-71497841D01*
X165533605Y-72168000D01*
X165547748Y-72182143D01*
X165368143Y-72361748D01*
X165354000Y-72347605D01*
X165339858Y-72361748D01*
X165160253Y-72182143D01*
X165174395Y-72168000D01*
X164504236Y-71497841D01*
X164280652Y-71545148D01*
X164179763Y-71766516D01*
X164124000Y-72003313D01*
X164115505Y-72246438D01*
X162726118Y-72246438D01*
X162725000Y-71913750D01*
X162566250Y-71755000D01*
X161417000Y-71755000D01*
X161163000Y-71755000D01*
X161143000Y-71755000D01*
X161143000Y-71501000D01*
X161163000Y-71501000D01*
X161163000Y-69951750D01*
X161417000Y-69951750D01*
X161417000Y-71501000D01*
X162566250Y-71501000D01*
X162725000Y-71342250D01*
X162725080Y-71318236D01*
X164683841Y-71318236D01*
X165354000Y-71988395D01*
X166024159Y-71318236D01*
X165976852Y-71094652D01*
X165755484Y-70993763D01*
X165518687Y-70938000D01*
X165275562Y-70929505D01*
X165035451Y-70968605D01*
X164807582Y-71053798D01*
X164731148Y-71094652D01*
X164683841Y-71318236D01*
X162725080Y-71318236D01*
X162728072Y-70428000D01*
X162715812Y-70303518D01*
X162679502Y-70183820D01*
X162620537Y-70073506D01*
X162541185Y-69976815D01*
X162444494Y-69897463D01*
X162334180Y-69838498D01*
X162214482Y-69802188D01*
X162090000Y-69789928D01*
X161575750Y-69793000D01*
X161417000Y-69951750D01*
X161163000Y-69951750D01*
X161004250Y-69793000D01*
X160490000Y-69789928D01*
X160365518Y-69802188D01*
X160245820Y-69838498D01*
X160135506Y-69897463D01*
X160038815Y-69976815D01*
X159959463Y-70073506D01*
X159900498Y-70183820D01*
X159864188Y-70303518D01*
X159862419Y-70321482D01*
X159769608Y-70208392D01*
X159551101Y-70029068D01*
X159301808Y-69895818D01*
X159031309Y-69813764D01*
X158750000Y-69786057D01*
X158468692Y-69813764D01*
X158198193Y-69895818D01*
X157948900Y-70029068D01*
X157730393Y-70208392D01*
X157551068Y-70426899D01*
X157480000Y-70559858D01*
X157408932Y-70426899D01*
X157229608Y-70208392D01*
X157011101Y-70029068D01*
X156761808Y-69895818D01*
X156491309Y-69813764D01*
X156210000Y-69786057D01*
X155928692Y-69813764D01*
X155658193Y-69895818D01*
X155408900Y-70029068D01*
X155190393Y-70208392D01*
X155011068Y-70426899D01*
X154940000Y-70559858D01*
X154868932Y-70426899D01*
X154689608Y-70208392D01*
X154471101Y-70029068D01*
X154221808Y-69895818D01*
X153951309Y-69813764D01*
X153670000Y-69786057D01*
X153388692Y-69813764D01*
X153118193Y-69895818D01*
X152868900Y-70029068D01*
X152650393Y-70208392D01*
X152471068Y-70426899D01*
X152337818Y-70676192D01*
X152255764Y-70946691D01*
X152235000Y-71157508D01*
X152235000Y-72098491D01*
X152255764Y-72309308D01*
X152337818Y-72579807D01*
X152471068Y-72829100D01*
X152650392Y-73047607D01*
X152868899Y-73226932D01*
X153118192Y-73360182D01*
X153388691Y-73442236D01*
X153670000Y-73469943D01*
X153951308Y-73442236D01*
X154221807Y-73360182D01*
X154471100Y-73226932D01*
X154689607Y-73047608D01*
X154868932Y-72829101D01*
X154940000Y-72696142D01*
X155011068Y-72829100D01*
X155190392Y-73047607D01*
X155408899Y-73226932D01*
X155658192Y-73360182D01*
X155928691Y-73442236D01*
X156210000Y-73469943D01*
X156491308Y-73442236D01*
X156761807Y-73360182D01*
X157011100Y-73226932D01*
X157229607Y-73047608D01*
X157408932Y-72829101D01*
X157480000Y-72696142D01*
X157551068Y-72829100D01*
X157730392Y-73047607D01*
X157765000Y-73076009D01*
X157765000Y-73506000D01*
X155547716Y-75723284D01*
X155510130Y-75754130D01*
X155387040Y-75904116D01*
X155304432Y-76058665D01*
X155295576Y-76075234D01*
X155239253Y-76260907D01*
X155220235Y-76454000D01*
X155225000Y-76502380D01*
X155225000Y-77799990D01*
X155190393Y-77828392D01*
X155011068Y-78046899D01*
X154940000Y-78179858D01*
X154868932Y-78046899D01*
X154689608Y-77828392D01*
X154471101Y-77649068D01*
X154221808Y-77515818D01*
X153951309Y-77433764D01*
X153670000Y-77406057D01*
X153388692Y-77433764D01*
X153118193Y-77515818D01*
X152868900Y-77649068D01*
X152650393Y-77828392D01*
X152471068Y-78046899D01*
X152337818Y-78296192D01*
X152255764Y-78566691D01*
X152235000Y-78777508D01*
X152235000Y-79718491D01*
X152255764Y-79929308D01*
X152337818Y-80199807D01*
X152471068Y-80449100D01*
X152650392Y-80667607D01*
X152868899Y-80846932D01*
X153118192Y-80980182D01*
X153388691Y-81062236D01*
X153670000Y-81089943D01*
X153727457Y-81084284D01*
X153633503Y-81178238D01*
X153485215Y-81400167D01*
X153383072Y-81646761D01*
X153331000Y-81908544D01*
X153331000Y-82175456D01*
X153383072Y-82437239D01*
X153485215Y-82683833D01*
X153633503Y-82905762D01*
X153822238Y-83094497D01*
X154044167Y-83242785D01*
X154290761Y-83344928D01*
X154552544Y-83397000D01*
X154819456Y-83397000D01*
X155081239Y-83344928D01*
X155327833Y-83242785D01*
X155549762Y-83094497D01*
X155738497Y-82905762D01*
X155886785Y-82683833D01*
X155988928Y-82437239D01*
X156041000Y-82175456D01*
X156041000Y-82080000D01*
X156872284Y-81248716D01*
X156909870Y-81217870D01*
X157032960Y-81067884D01*
X157124424Y-80896767D01*
X157180747Y-80711094D01*
X157181110Y-80707408D01*
X157229607Y-80667608D01*
X157408932Y-80449101D01*
X157480000Y-80316142D01*
X157551068Y-80449100D01*
X157730392Y-80667607D01*
X157765000Y-80696009D01*
X157765000Y-80740000D01*
X156879087Y-81625913D01*
X156847233Y-81635576D01*
X156676116Y-81727040D01*
X156526130Y-81850130D01*
X156403040Y-82000116D01*
X156311576Y-82171233D01*
X156255253Y-82356906D01*
X156236235Y-82550000D01*
X156241001Y-82598390D01*
X156241000Y-83650741D01*
X156173503Y-83718238D01*
X156025215Y-83940167D01*
X155923072Y-84186761D01*
X155871000Y-84448544D01*
X155871000Y-84544000D01*
X154648000Y-85767000D01*
X154552544Y-85767000D01*
X154290761Y-85819072D01*
X154044167Y-85921215D01*
X153822238Y-86069503D01*
X153633503Y-86258238D01*
X153485215Y-86480167D01*
X153383072Y-86726761D01*
X153331000Y-86988544D01*
X153331000Y-87055421D01*
X150516534Y-84240956D01*
X150488817Y-84207183D01*
X150354059Y-84096589D01*
X150200313Y-84014411D01*
X150033490Y-83963805D01*
X149903477Y-83951000D01*
X149903469Y-83951000D01*
X149860000Y-83946719D01*
X149816531Y-83951000D01*
X145146579Y-83951000D01*
X143379000Y-82183422D01*
X143379000Y-80480000D01*
X143595928Y-80480000D01*
X143595928Y-82080000D01*
X143608188Y-82204482D01*
X143644498Y-82324180D01*
X143703463Y-82434494D01*
X143782815Y-82531185D01*
X143879506Y-82610537D01*
X143989820Y-82669502D01*
X144109518Y-82705812D01*
X144234000Y-82718072D01*
X145834000Y-82718072D01*
X145958482Y-82705812D01*
X146078180Y-82669502D01*
X146188494Y-82610537D01*
X146285185Y-82531185D01*
X146364537Y-82434494D01*
X146423502Y-82324180D01*
X146459812Y-82204482D01*
X146472072Y-82080000D01*
X146472072Y-80480000D01*
X146459812Y-80355518D01*
X146423502Y-80235820D01*
X146364537Y-80125506D01*
X146285185Y-80028815D01*
X146188494Y-79949463D01*
X146078180Y-79890498D01*
X145958482Y-79854188D01*
X145950039Y-79853357D01*
X146148637Y-79654759D01*
X146305680Y-79419727D01*
X146413853Y-79158574D01*
X146469000Y-78881335D01*
X146469000Y-78598665D01*
X146413853Y-78321426D01*
X146305680Y-78060273D01*
X146148637Y-77825241D01*
X145948759Y-77625363D01*
X145716241Y-77470000D01*
X145948759Y-77314637D01*
X145968958Y-77294438D01*
X148367505Y-77294438D01*
X148406605Y-77534549D01*
X148491798Y-77762418D01*
X148532652Y-77838852D01*
X148756234Y-77886158D01*
X148639128Y-78003264D01*
X148697006Y-78061142D01*
X148651506Y-78085463D01*
X148554815Y-78164815D01*
X148475463Y-78261506D01*
X148416498Y-78371820D01*
X148380188Y-78491518D01*
X148367928Y-78616000D01*
X148367928Y-79816000D01*
X148380188Y-79940482D01*
X148416498Y-80060180D01*
X148475463Y-80170494D01*
X148554815Y-80267185D01*
X148651506Y-80346537D01*
X148761820Y-80405502D01*
X148881518Y-80441812D01*
X149006000Y-80454072D01*
X150206000Y-80454072D01*
X150330482Y-80441812D01*
X150450180Y-80405502D01*
X150560494Y-80346537D01*
X150657185Y-80267185D01*
X150736537Y-80170494D01*
X150795502Y-80060180D01*
X150831812Y-79940482D01*
X150844072Y-79816000D01*
X150844072Y-78616000D01*
X150831812Y-78491518D01*
X150795502Y-78371820D01*
X150736537Y-78261506D01*
X150657185Y-78164815D01*
X150560494Y-78085463D01*
X150514994Y-78061142D01*
X150572872Y-78003264D01*
X150455766Y-77886158D01*
X150679348Y-77838852D01*
X150780237Y-77617484D01*
X150836000Y-77380687D01*
X150844495Y-77137562D01*
X150805395Y-76897451D01*
X150720202Y-76669582D01*
X150679348Y-76593148D01*
X150455764Y-76545841D01*
X149785605Y-77216000D01*
X149799748Y-77230143D01*
X149620143Y-77409748D01*
X149606000Y-77395605D01*
X149591858Y-77409748D01*
X149412253Y-77230143D01*
X149426395Y-77216000D01*
X148756236Y-76545841D01*
X148532652Y-76593148D01*
X148431763Y-76814516D01*
X148376000Y-77051313D01*
X148367505Y-77294438D01*
X145968958Y-77294438D01*
X146148637Y-77114759D01*
X146305680Y-76879727D01*
X146413853Y-76618574D01*
X146464046Y-76366236D01*
X148935841Y-76366236D01*
X149606000Y-77036395D01*
X150276159Y-76366236D01*
X150228852Y-76142652D01*
X150007484Y-76041763D01*
X149770687Y-75986000D01*
X149527562Y-75977505D01*
X149287451Y-76016605D01*
X149059582Y-76101798D01*
X148983148Y-76142652D01*
X148935841Y-76366236D01*
X146464046Y-76366236D01*
X146469000Y-76341335D01*
X146469000Y-76058665D01*
X146413853Y-75781426D01*
X146305680Y-75520273D01*
X146148637Y-75285241D01*
X145948759Y-75085363D01*
X145716241Y-74930000D01*
X145948759Y-74774637D01*
X146148637Y-74574759D01*
X146305680Y-74339727D01*
X146413853Y-74078574D01*
X146469000Y-73801335D01*
X146469000Y-73518665D01*
X146462192Y-73484438D01*
X147383505Y-73484438D01*
X147422605Y-73724549D01*
X147507798Y-73952418D01*
X147548652Y-74028852D01*
X147772236Y-74076159D01*
X148442395Y-73406000D01*
X147772236Y-72735841D01*
X147548652Y-72783148D01*
X147447763Y-73004516D01*
X147392000Y-73241313D01*
X147383505Y-73484438D01*
X146462192Y-73484438D01*
X146413853Y-73241426D01*
X146305680Y-72980273D01*
X146148637Y-72745241D01*
X145959632Y-72556236D01*
X147951841Y-72556236D01*
X148622000Y-73226395D01*
X148636143Y-73212253D01*
X148815748Y-73391858D01*
X148801605Y-73406000D01*
X148815748Y-73420143D01*
X148636143Y-73599748D01*
X148622000Y-73585605D01*
X147951841Y-74255764D01*
X147999148Y-74479348D01*
X148220516Y-74580237D01*
X148457313Y-74636000D01*
X148700438Y-74644495D01*
X148940549Y-74605395D01*
X149168418Y-74520202D01*
X149244852Y-74479348D01*
X149292158Y-74255766D01*
X149409264Y-74372872D01*
X149467142Y-74314994D01*
X149491463Y-74360494D01*
X149570815Y-74457185D01*
X149667506Y-74536537D01*
X149777820Y-74595502D01*
X149897518Y-74631812D01*
X150022000Y-74644072D01*
X151222000Y-74644072D01*
X151346482Y-74631812D01*
X151466180Y-74595502D01*
X151576494Y-74536537D01*
X151673185Y-74457185D01*
X151752537Y-74360494D01*
X151811502Y-74250180D01*
X151847812Y-74130482D01*
X151860072Y-74006000D01*
X151860072Y-72806000D01*
X151847812Y-72681518D01*
X151811502Y-72561820D01*
X151752537Y-72451506D01*
X151673185Y-72354815D01*
X151576494Y-72275463D01*
X151466180Y-72216498D01*
X151346482Y-72180188D01*
X151222000Y-72167928D01*
X150022000Y-72167928D01*
X149897518Y-72180188D01*
X149777820Y-72216498D01*
X149667506Y-72275463D01*
X149570815Y-72354815D01*
X149491463Y-72451506D01*
X149467142Y-72497006D01*
X149409264Y-72439128D01*
X149292158Y-72556234D01*
X149244852Y-72332652D01*
X149023484Y-72231763D01*
X148786687Y-72176000D01*
X148543562Y-72167505D01*
X148303451Y-72206605D01*
X148075582Y-72291798D01*
X147999148Y-72332652D01*
X147951841Y-72556236D01*
X145959632Y-72556236D01*
X145948759Y-72545363D01*
X145716241Y-72390000D01*
X145948759Y-72234637D01*
X146148637Y-72034759D01*
X146305680Y-71799727D01*
X146413853Y-71538574D01*
X146469000Y-71261335D01*
X146469000Y-70978665D01*
X146413853Y-70701426D01*
X146305680Y-70440273D01*
X146148637Y-70205241D01*
X145948759Y-70005363D01*
X145713727Y-69848320D01*
X145452574Y-69740147D01*
X145175335Y-69685000D01*
X144892665Y-69685000D01*
X144615426Y-69740147D01*
X144354273Y-69848320D01*
X144119241Y-70005363D01*
X143919363Y-70205241D01*
X143762320Y-70440273D01*
X143654147Y-70701426D01*
X143599000Y-70978665D01*
X143599000Y-71261335D01*
X143654147Y-71538574D01*
X143762320Y-71799727D01*
X143919363Y-72034759D01*
X144119241Y-72234637D01*
X144351759Y-72390000D01*
X144119241Y-72545363D01*
X143919363Y-72745241D01*
X143762320Y-72980273D01*
X143654147Y-73241426D01*
X143599000Y-73518665D01*
X143599000Y-73801335D01*
X143654147Y-74078574D01*
X143762320Y-74339727D01*
X143919363Y-74574759D01*
X144119241Y-74774637D01*
X144351759Y-74930000D01*
X144119241Y-75085363D01*
X143919363Y-75285241D01*
X143762320Y-75520273D01*
X143654147Y-75781426D01*
X143599000Y-76058665D01*
X143599000Y-76341335D01*
X143654147Y-76618574D01*
X143762320Y-76879727D01*
X143919363Y-77114759D01*
X144119241Y-77314637D01*
X144351759Y-77470000D01*
X144119241Y-77625363D01*
X143919363Y-77825241D01*
X143762320Y-78060273D01*
X143654147Y-78321426D01*
X143599000Y-78598665D01*
X143599000Y-78881335D01*
X143654147Y-79158574D01*
X143762320Y-79419727D01*
X143919363Y-79654759D01*
X144117961Y-79853357D01*
X144109518Y-79854188D01*
X143989820Y-79890498D01*
X143879506Y-79949463D01*
X143782815Y-80028815D01*
X143703463Y-80125506D01*
X143644498Y-80235820D01*
X143608188Y-80355518D01*
X143595928Y-80480000D01*
X143379000Y-80480000D01*
X143379000Y-77259469D01*
X143383281Y-77216000D01*
X143379000Y-77172531D01*
X143379000Y-77172523D01*
X143366195Y-77042510D01*
X143364340Y-77036395D01*
X143315589Y-76875686D01*
X143233411Y-76721941D01*
X143150532Y-76620953D01*
X143150530Y-76620951D01*
X143122817Y-76587183D01*
X143089050Y-76559471D01*
X140356534Y-73826956D01*
X140328817Y-73793183D01*
X140194059Y-73682589D01*
X140040313Y-73600411D01*
X139873490Y-73549805D01*
X139743477Y-73537000D01*
X139743469Y-73537000D01*
X139700000Y-73532719D01*
X139656531Y-73537000D01*
X132855465Y-73537000D01*
X132811999Y-73532719D01*
X132768533Y-73537000D01*
X132768523Y-73537000D01*
X132638510Y-73549805D01*
X132471687Y-73600411D01*
X132317941Y-73682589D01*
X132317939Y-73682590D01*
X132317940Y-73682590D01*
X132216953Y-73765468D01*
X132216951Y-73765470D01*
X132183183Y-73793183D01*
X132155470Y-73826951D01*
X129452951Y-76529471D01*
X129419184Y-76557183D01*
X129391471Y-76590951D01*
X129391468Y-76590954D01*
X129308590Y-76691941D01*
X129226412Y-76845687D01*
X129175805Y-77012510D01*
X129171576Y-77055455D01*
X129123518Y-77060188D01*
X129003820Y-77096498D01*
X128893506Y-77155463D01*
X128796815Y-77234815D01*
X128717463Y-77331506D01*
X128658498Y-77441820D01*
X128622188Y-77561518D01*
X128609928Y-77686000D01*
X128609928Y-79286000D01*
X128622188Y-79410482D01*
X128658498Y-79530180D01*
X128717463Y-79640494D01*
X128796815Y-79737185D01*
X128893506Y-79816537D01*
X129003820Y-79875502D01*
X129123518Y-79911812D01*
X129163001Y-79915701D01*
X129163000Y-81923479D01*
X129133241Y-81943363D01*
X128934643Y-82141961D01*
X128933812Y-82133518D01*
X128897502Y-82013820D01*
X128838537Y-81903506D01*
X128759185Y-81806815D01*
X128662494Y-81727463D01*
X128552180Y-81668498D01*
X128432482Y-81632188D01*
X128308000Y-81619928D01*
X127793750Y-81623000D01*
X127635000Y-81781750D01*
X127635000Y-82931000D01*
X127655000Y-82931000D01*
X127655000Y-83185000D01*
X127635000Y-83185000D01*
X127635000Y-84334250D01*
X127793750Y-84493000D01*
X128308000Y-84496072D01*
X128432482Y-84483812D01*
X128552180Y-84447502D01*
X128662494Y-84388537D01*
X128759185Y-84309185D01*
X128838537Y-84212494D01*
X128897502Y-84102180D01*
X128933812Y-83982482D01*
X128934643Y-83974039D01*
X129133241Y-84172637D01*
X129368273Y-84329680D01*
X129629426Y-84437853D01*
X129906665Y-84493000D01*
X130189335Y-84493000D01*
X130466574Y-84437853D01*
X130727727Y-84329680D01*
X130962759Y-84172637D01*
X131162637Y-83972759D01*
X131318000Y-83740241D01*
X131473363Y-83972759D01*
X131673241Y-84172637D01*
X131908273Y-84329680D01*
X132169426Y-84437853D01*
X132446665Y-84493000D01*
X132729335Y-84493000D01*
X133006574Y-84437853D01*
X133267727Y-84329680D01*
X133502759Y-84172637D01*
X133702637Y-83972759D01*
X133858000Y-83740241D01*
X134013363Y-83972759D01*
X134213241Y-84172637D01*
X134448273Y-84329680D01*
X134709426Y-84437853D01*
X134986665Y-84493000D01*
X135269335Y-84493000D01*
X135546574Y-84437853D01*
X135807727Y-84329680D01*
X136042759Y-84172637D01*
X136242637Y-83972759D01*
X136398000Y-83740241D01*
X136553363Y-83972759D01*
X136753241Y-84172637D01*
X136783001Y-84192522D01*
X136783001Y-84792521D01*
X136778719Y-84836000D01*
X136795805Y-85009490D01*
X136846412Y-85176313D01*
X136928590Y-85330059D01*
X137011468Y-85431046D01*
X137011471Y-85431049D01*
X137039184Y-85464817D01*
X137072951Y-85492530D01*
X141075470Y-89495049D01*
X141083881Y-89505298D01*
X140930900Y-89587068D01*
X140712393Y-89766392D01*
X140533068Y-89984899D01*
X140462000Y-90117858D01*
X140390932Y-89984899D01*
X140211608Y-89766392D01*
X139993101Y-89587068D01*
X139743808Y-89453818D01*
X139473309Y-89371764D01*
X139192000Y-89344057D01*
X138910692Y-89371764D01*
X138640193Y-89453818D01*
X138390900Y-89587068D01*
X138172393Y-89766392D01*
X137993068Y-89984899D01*
X137922000Y-90117858D01*
X137850932Y-89984899D01*
X137671608Y-89766392D01*
X137453101Y-89587068D01*
X137203808Y-89453818D01*
X136933309Y-89371764D01*
X136652000Y-89344057D01*
X136370692Y-89371764D01*
X136100193Y-89453818D01*
X135850900Y-89587068D01*
X135632393Y-89766392D01*
X135453068Y-89984899D01*
X135384735Y-90112741D01*
X135234601Y-89883161D01*
X135036895Y-89681500D01*
X134803646Y-89522285D01*
X134543818Y-89411633D01*
X134461039Y-89394096D01*
X134239000Y-89516085D01*
X134239000Y-91059000D01*
X134259000Y-91059000D01*
X134259000Y-91313000D01*
X134239000Y-91313000D01*
X134239000Y-91333000D01*
X133985000Y-91333000D01*
X133985000Y-91313000D01*
X132677000Y-91313000D01*
X132677000Y-91713000D01*
X132729350Y-91990514D01*
X132834834Y-92252483D01*
X132989399Y-92488839D01*
X133187105Y-92690500D01*
X133407587Y-92841000D01*
X131684579Y-92841000D01*
X130248539Y-91404961D01*
X130263000Y-91332260D01*
X130263000Y-91039740D01*
X130205932Y-90752842D01*
X130167062Y-90659000D01*
X132677000Y-90659000D01*
X132677000Y-91059000D01*
X133985000Y-91059000D01*
X133985000Y-89516085D01*
X133762961Y-89394096D01*
X133680182Y-89411633D01*
X133420354Y-89522285D01*
X133187105Y-89681500D01*
X132989399Y-89883161D01*
X132834834Y-90119517D01*
X132729350Y-90381486D01*
X132677000Y-90659000D01*
X130167062Y-90659000D01*
X130093990Y-90482589D01*
X129931475Y-90239368D01*
X129724632Y-90032525D01*
X129481411Y-89870010D01*
X129211158Y-89758068D01*
X128924260Y-89701000D01*
X128631740Y-89701000D01*
X128344842Y-89758068D01*
X128074589Y-89870010D01*
X127831368Y-90032525D01*
X127699513Y-90164380D01*
X127677502Y-90091820D01*
X127618537Y-89981506D01*
X127539185Y-89884815D01*
X127442494Y-89805463D01*
X127332180Y-89746498D01*
X127212482Y-89710188D01*
X127088000Y-89697928D01*
X126467648Y-89697928D01*
X127112576Y-89053001D01*
X134292530Y-89053001D01*
X134335999Y-89057282D01*
X134379468Y-89053001D01*
X134379476Y-89053001D01*
X134509489Y-89040196D01*
X134676312Y-88989590D01*
X134830058Y-88907412D01*
X134964816Y-88796818D01*
X134992533Y-88763045D01*
X135399506Y-88356072D01*
X136486000Y-88356072D01*
X136610482Y-88343812D01*
X136730180Y-88307502D01*
X136840494Y-88248537D01*
X136937185Y-88169185D01*
X137016537Y-88072494D01*
X137075502Y-87962180D01*
X137111812Y-87842482D01*
X137124072Y-87718000D01*
X137124072Y-86018000D01*
X137111812Y-85893518D01*
X137075502Y-85773820D01*
X137016537Y-85663506D01*
X136937185Y-85566815D01*
X136840494Y-85487463D01*
X136730180Y-85428498D01*
X136610482Y-85392188D01*
X136486000Y-85379928D01*
X134786000Y-85379928D01*
X134661518Y-85392188D01*
X134541820Y-85428498D01*
X134431506Y-85487463D01*
X134334815Y-85566815D01*
X134255463Y-85663506D01*
X134196498Y-85773820D01*
X134174487Y-85846380D01*
X134042632Y-85714525D01*
X133799411Y-85552010D01*
X133529158Y-85440068D01*
X133242260Y-85383000D01*
X132949740Y-85383000D01*
X132662842Y-85440068D01*
X132392589Y-85552010D01*
X132149368Y-85714525D01*
X131942525Y-85921368D01*
X131826000Y-86095760D01*
X131709475Y-85921368D01*
X131502632Y-85714525D01*
X131259411Y-85552010D01*
X130989158Y-85440068D01*
X130702260Y-85383000D01*
X130409740Y-85383000D01*
X130122842Y-85440068D01*
X129852589Y-85552010D01*
X129609368Y-85714525D01*
X129402525Y-85921368D01*
X129240010Y-86164589D01*
X129128068Y-86434842D01*
X129071000Y-86721740D01*
X129071000Y-87014260D01*
X129124456Y-87283001D01*
X126789462Y-87283001D01*
X126745996Y-87278720D01*
X126702530Y-87283001D01*
X126702520Y-87283001D01*
X126572507Y-87295806D01*
X126405684Y-87346412D01*
X126251938Y-87428590D01*
X126251936Y-87428591D01*
X126251937Y-87428591D01*
X126150950Y-87511469D01*
X126150948Y-87511471D01*
X126117180Y-87539184D01*
X126089467Y-87572952D01*
X124358000Y-89304420D01*
X124358000Y-83858000D01*
X126069928Y-83858000D01*
X126082188Y-83982482D01*
X126118498Y-84102180D01*
X126177463Y-84212494D01*
X126256815Y-84309185D01*
X126353506Y-84388537D01*
X126463820Y-84447502D01*
X126583518Y-84483812D01*
X126708000Y-84496072D01*
X127222250Y-84493000D01*
X127381000Y-84334250D01*
X127381000Y-83185000D01*
X126231750Y-83185000D01*
X126073000Y-83343750D01*
X126069928Y-83858000D01*
X124358000Y-83858000D01*
X124358000Y-82258000D01*
X126069928Y-82258000D01*
X126073000Y-82772250D01*
X126231750Y-82931000D01*
X127381000Y-82931000D01*
X127381000Y-81781750D01*
X127222250Y-81623000D01*
X126708000Y-81619928D01*
X126583518Y-81632188D01*
X126463820Y-81668498D01*
X126353506Y-81727463D01*
X126256815Y-81806815D01*
X126177463Y-81903506D01*
X126118498Y-82013820D01*
X126082188Y-82133518D01*
X126069928Y-82258000D01*
X124358000Y-82258000D01*
X124358000Y-70724665D01*
X128613000Y-70724665D01*
X128613000Y-71007335D01*
X128668147Y-71284574D01*
X128776320Y-71545727D01*
X128933363Y-71780759D01*
X129133241Y-71980637D01*
X129368273Y-72137680D01*
X129629426Y-72245853D01*
X129906665Y-72301000D01*
X130189335Y-72301000D01*
X130466574Y-72245853D01*
X130727727Y-72137680D01*
X130962759Y-71980637D01*
X131162637Y-71780759D01*
X131318000Y-71548241D01*
X131473363Y-71780759D01*
X131673241Y-71980637D01*
X131908273Y-72137680D01*
X132169426Y-72245853D01*
X132446665Y-72301000D01*
X132729335Y-72301000D01*
X133006574Y-72245853D01*
X133267727Y-72137680D01*
X133502759Y-71980637D01*
X133702637Y-71780759D01*
X133858000Y-71548241D01*
X134013363Y-71780759D01*
X134213241Y-71980637D01*
X134448273Y-72137680D01*
X134709426Y-72245853D01*
X134986665Y-72301000D01*
X135269335Y-72301000D01*
X135546574Y-72245853D01*
X135807727Y-72137680D01*
X136042759Y-71980637D01*
X136242637Y-71780759D01*
X136398000Y-71548241D01*
X136553363Y-71780759D01*
X136753241Y-71980637D01*
X136988273Y-72137680D01*
X137249426Y-72245853D01*
X137526665Y-72301000D01*
X137809335Y-72301000D01*
X138086574Y-72245853D01*
X138347727Y-72137680D01*
X138582759Y-71980637D01*
X138782637Y-71780759D01*
X138939680Y-71545727D01*
X139047853Y-71284574D01*
X139103000Y-71007335D01*
X139103000Y-70724665D01*
X139047853Y-70447426D01*
X138939680Y-70186273D01*
X138782637Y-69951241D01*
X138582759Y-69751363D01*
X138347727Y-69594320D01*
X138086574Y-69486147D01*
X137809335Y-69431000D01*
X137526665Y-69431000D01*
X137249426Y-69486147D01*
X136988273Y-69594320D01*
X136753241Y-69751363D01*
X136553363Y-69951241D01*
X136398000Y-70183759D01*
X136242637Y-69951241D01*
X136042759Y-69751363D01*
X135807727Y-69594320D01*
X135546574Y-69486147D01*
X135269335Y-69431000D01*
X134986665Y-69431000D01*
X134709426Y-69486147D01*
X134448273Y-69594320D01*
X134213241Y-69751363D01*
X134013363Y-69951241D01*
X133858000Y-70183759D01*
X133702637Y-69951241D01*
X133502759Y-69751363D01*
X133267727Y-69594320D01*
X133006574Y-69486147D01*
X132729335Y-69431000D01*
X132446665Y-69431000D01*
X132169426Y-69486147D01*
X131908273Y-69594320D01*
X131673241Y-69751363D01*
X131473363Y-69951241D01*
X131318000Y-70183759D01*
X131162637Y-69951241D01*
X130962759Y-69751363D01*
X130727727Y-69594320D01*
X130466574Y-69486147D01*
X130189335Y-69431000D01*
X129906665Y-69431000D01*
X129629426Y-69486147D01*
X129368273Y-69594320D01*
X129133241Y-69751363D01*
X128933363Y-69951241D01*
X128776320Y-70186273D01*
X128668147Y-70447426D01*
X128613000Y-70724665D01*
X124358000Y-70724665D01*
X124358000Y-69240000D01*
X167767000Y-69240000D01*
X167767000Y-82296000D01*
G36*
X124767461Y-96047039D02*
G01*
X124753000Y-96119740D01*
X124753000Y-96412260D01*
X124810068Y-96699158D01*
X124922010Y-96969411D01*
X125084525Y-97212632D01*
X125291368Y-97419475D01*
X125473534Y-97541195D01*
X125356645Y-97610822D01*
X125140412Y-97805731D01*
X124966359Y-98039080D01*
X124841175Y-98301901D01*
X124796524Y-98449110D01*
X124917845Y-98679000D01*
X126111000Y-98679000D01*
X126111000Y-98659000D01*
X126365000Y-98659000D01*
X126365000Y-98679000D01*
X126385000Y-98679000D01*
X126385000Y-98933000D01*
X126365000Y-98933000D01*
X126365000Y-100126814D01*
X126594891Y-100247481D01*
X126869252Y-100150157D01*
X127119355Y-100001178D01*
X127335588Y-99806269D01*
X127506900Y-99576594D01*
X127624525Y-99752632D01*
X127831368Y-99959475D01*
X128074589Y-100121990D01*
X128344842Y-100233932D01*
X128631740Y-100291000D01*
X128924260Y-100291000D01*
X129211158Y-100233932D01*
X129481411Y-100121990D01*
X129724632Y-99959475D01*
X129931475Y-99752632D01*
X130093990Y-99509411D01*
X130205932Y-99239158D01*
X130263000Y-98952260D01*
X130263000Y-98933000D01*
X132677000Y-98933000D01*
X132677000Y-99333000D01*
X132729350Y-99610514D01*
X132834834Y-99872483D01*
X132989399Y-100108839D01*
X133187105Y-100310500D01*
X133420354Y-100469715D01*
X133680182Y-100580367D01*
X133762961Y-100597904D01*
X133985000Y-100475915D01*
X133985000Y-98933000D01*
X132677000Y-98933000D01*
X130263000Y-98933000D01*
X130263000Y-98659740D01*
X130248539Y-98587040D01*
X131176579Y-97659000D01*
X132887488Y-97659000D01*
X132834834Y-97739517D01*
X132729350Y-98001486D01*
X132677000Y-98279000D01*
X132677000Y-98679000D01*
X133985000Y-98679000D01*
X133985000Y-98659000D01*
X134239000Y-98659000D01*
X134239000Y-98679000D01*
X134259000Y-98679000D01*
X134259000Y-98933000D01*
X134239000Y-98933000D01*
X134239000Y-100475915D01*
X134461039Y-100597904D01*
X134543818Y-100580367D01*
X134803646Y-100469715D01*
X135036895Y-100310500D01*
X135234601Y-100108839D01*
X135384735Y-99879258D01*
X135453068Y-100007100D01*
X135632392Y-100225607D01*
X135767000Y-100336078D01*
X135767000Y-100462531D01*
X135762719Y-100506000D01*
X135767000Y-100549469D01*
X135767000Y-100549476D01*
X135779805Y-100679489D01*
X135830411Y-100846312D01*
X135912589Y-101000058D01*
X136023183Y-101134817D01*
X136056956Y-101162534D01*
X136327466Y-101433044D01*
X136339740Y-101448000D01*
X124358000Y-101448000D01*
X124358000Y-99162890D01*
X124796524Y-99162890D01*
X124841175Y-99310099D01*
X124966359Y-99572920D01*
X125140412Y-99806269D01*
X125356645Y-100001178D01*
X125606748Y-100150157D01*
X125881109Y-100247481D01*
X126111000Y-100126814D01*
X126111000Y-98933000D01*
X124917845Y-98933000D01*
X124796524Y-99162890D01*
X124358000Y-99162890D01*
X124358000Y-95637578D01*
X124767461Y-96047039D01*
G37*
X124767461Y-96047039D02*
X124753000Y-96119740D01*
X124753000Y-96412260D01*
X124810068Y-96699158D01*
X124922010Y-96969411D01*
X125084525Y-97212632D01*
X125291368Y-97419475D01*
X125473534Y-97541195D01*
X125356645Y-97610822D01*
X125140412Y-97805731D01*
X124966359Y-98039080D01*
X124841175Y-98301901D01*
X124796524Y-98449110D01*
X124917845Y-98679000D01*
X126111000Y-98679000D01*
X126111000Y-98659000D01*
X126365000Y-98659000D01*
X126365000Y-98679000D01*
X126385000Y-98679000D01*
X126385000Y-98933000D01*
X126365000Y-98933000D01*
X126365000Y-100126814D01*
X126594891Y-100247481D01*
X126869252Y-100150157D01*
X127119355Y-100001178D01*
X127335588Y-99806269D01*
X127506900Y-99576594D01*
X127624525Y-99752632D01*
X127831368Y-99959475D01*
X128074589Y-100121990D01*
X128344842Y-100233932D01*
X128631740Y-100291000D01*
X128924260Y-100291000D01*
X129211158Y-100233932D01*
X129481411Y-100121990D01*
X129724632Y-99959475D01*
X129931475Y-99752632D01*
X130093990Y-99509411D01*
X130205932Y-99239158D01*
X130263000Y-98952260D01*
X130263000Y-98933000D01*
X132677000Y-98933000D01*
X132677000Y-99333000D01*
X132729350Y-99610514D01*
X132834834Y-99872483D01*
X132989399Y-100108839D01*
X133187105Y-100310500D01*
X133420354Y-100469715D01*
X133680182Y-100580367D01*
X133762961Y-100597904D01*
X133985000Y-100475915D01*
X133985000Y-98933000D01*
X132677000Y-98933000D01*
X130263000Y-98933000D01*
X130263000Y-98659740D01*
X130248539Y-98587040D01*
X131176579Y-97659000D01*
X132887488Y-97659000D01*
X132834834Y-97739517D01*
X132729350Y-98001486D01*
X132677000Y-98279000D01*
X132677000Y-98679000D01*
X133985000Y-98679000D01*
X133985000Y-98659000D01*
X134239000Y-98659000D01*
X134239000Y-98679000D01*
X134259000Y-98679000D01*
X134259000Y-98933000D01*
X134239000Y-98933000D01*
X134239000Y-100475915D01*
X134461039Y-100597904D01*
X134543818Y-100580367D01*
X134803646Y-100469715D01*
X135036895Y-100310500D01*
X135234601Y-100108839D01*
X135384735Y-99879258D01*
X135453068Y-100007100D01*
X135632392Y-100225607D01*
X135767000Y-100336078D01*
X135767000Y-100462531D01*
X135762719Y-100506000D01*
X135767000Y-100549469D01*
X135767000Y-100549476D01*
X135779805Y-100679489D01*
X135830411Y-100846312D01*
X135912589Y-101000058D01*
X136023183Y-101134817D01*
X136056956Y-101162534D01*
X136327466Y-101433044D01*
X136339740Y-101448000D01*
X124358000Y-101448000D01*
X124358000Y-99162890D01*
X124796524Y-99162890D01*
X124841175Y-99310099D01*
X124966359Y-99572920D01*
X125140412Y-99806269D01*
X125356645Y-100001178D01*
X125606748Y-100150157D01*
X125881109Y-100247481D01*
X126111000Y-100126814D01*
X126111000Y-98933000D01*
X124917845Y-98933000D01*
X124796524Y-99162890D01*
X124358000Y-99162890D01*
X124358000Y-95637578D01*
X124767461Y-96047039D01*
G36*
X169089068Y-87415101D02*
G01*
X169268392Y-87633608D01*
X169486899Y-87812932D01*
X169619858Y-87884000D01*
X169486899Y-87955068D01*
X169268392Y-88134392D01*
X169089068Y-88352899D01*
X168955818Y-88602192D01*
X168873764Y-88872691D01*
X168846057Y-89154000D01*
X168873764Y-89435309D01*
X168955818Y-89705808D01*
X169089068Y-89955101D01*
X169268392Y-90173608D01*
X169486899Y-90352932D01*
X169736192Y-90486182D01*
X170006691Y-90568236D01*
X170217508Y-90589000D01*
X171158492Y-90589000D01*
X171369309Y-90568236D01*
X171639808Y-90486182D01*
X171889101Y-90352932D01*
X172089000Y-90188879D01*
X172089000Y-91929121D01*
X171889101Y-91765068D01*
X171639808Y-91631818D01*
X171369309Y-91549764D01*
X171158492Y-91529000D01*
X170217508Y-91529000D01*
X170006691Y-91549764D01*
X169736192Y-91631818D01*
X169486899Y-91765068D01*
X169268392Y-91944392D01*
X169089068Y-92162899D01*
X169075000Y-92189218D01*
X169075000Y-92074998D01*
X168909916Y-92074998D01*
X169031904Y-91852961D01*
X168991246Y-91718913D01*
X168871037Y-91464580D01*
X168703519Y-91238586D01*
X168495131Y-91049615D01*
X168253881Y-90904930D01*
X167989040Y-90810091D01*
X167767000Y-90931376D01*
X167767000Y-92075000D01*
X167787000Y-92075000D01*
X167787000Y-92329000D01*
X167767000Y-92329000D01*
X167767000Y-92349000D01*
X167513000Y-92349000D01*
X167513000Y-92329000D01*
X166370085Y-92329000D01*
X166248096Y-92551039D01*
X166288754Y-92685087D01*
X166408963Y-92939420D01*
X166576481Y-93165414D01*
X166784869Y-93354385D01*
X167026119Y-93499070D01*
X167037094Y-93503000D01*
X166778000Y-93503000D01*
X165127961Y-91852961D01*
X166248096Y-91852961D01*
X166370085Y-92075000D01*
X167513000Y-92075000D01*
X167513000Y-90931376D01*
X167290960Y-90810091D01*
X167026119Y-90904930D01*
X166784869Y-91049615D01*
X166576481Y-91238586D01*
X166408963Y-91464580D01*
X166288754Y-91718913D01*
X166248096Y-91852961D01*
X165127961Y-91852961D01*
X164814716Y-91539716D01*
X164783870Y-91502130D01*
X164633884Y-91379040D01*
X164462767Y-91287576D01*
X164277094Y-91231253D01*
X164132380Y-91217000D01*
X164084000Y-91212235D01*
X164035620Y-91217000D01*
X161064396Y-91217000D01*
X160934759Y-91087363D01*
X160699727Y-90930320D01*
X160438574Y-90822147D01*
X160332262Y-90801000D01*
X165310531Y-90801000D01*
X165354000Y-90805281D01*
X165397469Y-90801000D01*
X165397477Y-90801000D01*
X165527490Y-90788195D01*
X165694313Y-90737589D01*
X165848059Y-90655411D01*
X165982817Y-90544817D01*
X166010534Y-90511044D01*
X168743050Y-87778529D01*
X168776817Y-87750817D01*
X168823399Y-87694058D01*
X168887411Y-87616059D01*
X168969589Y-87462314D01*
X169020195Y-87295490D01*
X169020964Y-87287687D01*
X169089068Y-87415101D01*
G37*
X169089068Y-87415101D02*
X169268392Y-87633608D01*
X169486899Y-87812932D01*
X169619858Y-87884000D01*
X169486899Y-87955068D01*
X169268392Y-88134392D01*
X169089068Y-88352899D01*
X168955818Y-88602192D01*
X168873764Y-88872691D01*
X168846057Y-89154000D01*
X168873764Y-89435309D01*
X168955818Y-89705808D01*
X169089068Y-89955101D01*
X169268392Y-90173608D01*
X169486899Y-90352932D01*
X169736192Y-90486182D01*
X170006691Y-90568236D01*
X170217508Y-90589000D01*
X171158492Y-90589000D01*
X171369309Y-90568236D01*
X171639808Y-90486182D01*
X171889101Y-90352932D01*
X172089000Y-90188879D01*
X172089000Y-91929121D01*
X171889101Y-91765068D01*
X171639808Y-91631818D01*
X171369309Y-91549764D01*
X171158492Y-91529000D01*
X170217508Y-91529000D01*
X170006691Y-91549764D01*
X169736192Y-91631818D01*
X169486899Y-91765068D01*
X169268392Y-91944392D01*
X169089068Y-92162899D01*
X169075000Y-92189218D01*
X169075000Y-92074998D01*
X168909916Y-92074998D01*
X169031904Y-91852961D01*
X168991246Y-91718913D01*
X168871037Y-91464580D01*
X168703519Y-91238586D01*
X168495131Y-91049615D01*
X168253881Y-90904930D01*
X167989040Y-90810091D01*
X167767000Y-90931376D01*
X167767000Y-92075000D01*
X167787000Y-92075000D01*
X167787000Y-92329000D01*
X167767000Y-92329000D01*
X167767000Y-92349000D01*
X167513000Y-92349000D01*
X167513000Y-92329000D01*
X166370085Y-92329000D01*
X166248096Y-92551039D01*
X166288754Y-92685087D01*
X166408963Y-92939420D01*
X166576481Y-93165414D01*
X166784869Y-93354385D01*
X167026119Y-93499070D01*
X167037094Y-93503000D01*
X166778000Y-93503000D01*
X165127961Y-91852961D01*
X166248096Y-91852961D01*
X166370085Y-92075000D01*
X167513000Y-92075000D01*
X167513000Y-90931376D01*
X167290960Y-90810091D01*
X167026119Y-90904930D01*
X166784869Y-91049615D01*
X166576481Y-91238586D01*
X166408963Y-91464580D01*
X166288754Y-91718913D01*
X166248096Y-91852961D01*
X165127961Y-91852961D01*
X164814716Y-91539716D01*
X164783870Y-91502130D01*
X164633884Y-91379040D01*
X164462767Y-91287576D01*
X164277094Y-91231253D01*
X164132380Y-91217000D01*
X164084000Y-91212235D01*
X164035620Y-91217000D01*
X161064396Y-91217000D01*
X160934759Y-91087363D01*
X160699727Y-90930320D01*
X160438574Y-90822147D01*
X160332262Y-90801000D01*
X165310531Y-90801000D01*
X165354000Y-90805281D01*
X165397469Y-90801000D01*
X165397477Y-90801000D01*
X165527490Y-90788195D01*
X165694313Y-90737589D01*
X165848059Y-90655411D01*
X165982817Y-90544817D01*
X166010534Y-90511044D01*
X168743050Y-87778529D01*
X168776817Y-87750817D01*
X168823399Y-87694058D01*
X168887411Y-87616059D01*
X168969589Y-87462314D01*
X169020195Y-87295490D01*
X169020964Y-87287687D01*
X169089068Y-87415101D01*
M02*
