M48
; DRILL file {KiCad (5.1.5)-3} date 3/13/2020 12:56:34 PM
; FORMAT={2:4/ absolute / inch / suppress leading zeros}
; #@! TF.CreationDate,2020-03-13T12:56:34+05:00
; #@! TF.GenerationSoftware,Kicad,Pcbnew,(5.1.5)-3
FMAT,2
INCH,TZ
T1C0.0157
T2C0.0236
T3C0.0315
T4C0.0394
T5C0.0433
T6C0.0598
T7C0.1378
%
G90
G05
T1
X66700Y-28300
X66700Y-28700
X66700Y-29100
X66700Y-29500
X66700Y-30700
X66700Y-31100
X66700Y-31500
X66700Y-31900
X67100Y-28300
X67100Y-28700
X67100Y-29100
X67100Y-31100
X67100Y-31500
X67100Y-31900
X67500Y-28300
X67500Y-28700
X67500Y-29100
X67500Y-31100
X67500Y-31500
X67500Y-31900
X67900Y-28300
X67900Y-28700
X67900Y-29100
X67900Y-31100
X67900Y-31500
X67900Y-31900
X68300Y-28300
X68300Y-28700
X68300Y-29100
X68300Y-29500
X68300Y-30700
X68300Y-31100
X68300Y-31500
X68300Y-31900
X68700Y-28300
X68700Y-28700
X68700Y-29100
X68700Y-29500
X68700Y-29900
X68700Y-30300
X68700Y-30700
X68700Y-31100
X68700Y-31500
X68700Y-31900
X69100Y-28300
X69100Y-28700
X69100Y-29100
X69100Y-29500
X69100Y-29900
X69100Y-30300
X69100Y-30700
X69100Y-31100
X69100Y-31500
X69100Y-31900
X69500Y-28300
X69500Y-28700
X69500Y-29100
X69500Y-29500
X69500Y-29900
X69500Y-30300
X69500Y-30700
X69500Y-31100
X69500Y-31500
X69500Y-31900
X69900Y-28300
X69900Y-28700
X69900Y-29100
X69900Y-29500
X69900Y-29900
X69900Y-30300
X69900Y-30700
X69900Y-31100
X69900Y-31500
X69900Y-31900
X70300Y-28300
X70300Y-28700
X70300Y-29100
X70300Y-29500
X70300Y-29900
X70300Y-30300
X70300Y-30700
X70300Y-31100
X70300Y-31500
X70300Y-31900
X70700Y-28300
X70700Y-28700
X70700Y-29100
X70700Y-29500
X70700Y-29900
X70700Y-30300
X70700Y-30700
X70700Y-31100
X70700Y-31500
X70700Y-31900
X71100Y-28300
X71100Y-28700
X71100Y-29100
X71100Y-29500
X71100Y-29900
X71100Y-30300
X71100Y-30700
X71100Y-31100
X71100Y-31500
X71100Y-31900
X71500Y-28300
X71500Y-28700
X71500Y-29100
X71500Y-29500
X71500Y-29900
X71500Y-30300
X71500Y-30700
X71500Y-31100
X71500Y-31500
X71500Y-31900
X71900Y-28300
X71900Y-28700
X71900Y-29100
X71900Y-29500
X71900Y-29900
X71900Y-30300
X71900Y-30700
X71900Y-31100
X71900Y-31500
X71900Y-31900
X72300Y-28300
X72300Y-28700
X72300Y-29100
X72300Y-29500
X72300Y-29900
X72300Y-30300
X72300Y-30700
X72300Y-31100
X72300Y-31500
X72300Y-31900
T2
X58900Y-30400
X58900Y-31187
X65100Y-30300
X65100Y-31087
X65100Y-28413
X65100Y-29200
X58513Y-28900
X59300Y-28900
T3
X50200Y-32700
X51200Y-32700
X52200Y-32700
X53200Y-32700
X54200Y-32700
X71300Y-37300
X74300Y-37300
X63000Y-38800
X66000Y-38800
X60500Y-28200
X60500Y-31200
X61500Y-28200
X61500Y-31200
X62500Y-28200
X62500Y-31200
X63500Y-28200
X63500Y-31200
X63000Y-36300
X66000Y-36300
X57100Y-28000
X57100Y-29000
X57100Y-30000
X57100Y-31000
X57100Y-32000
X71300Y-35100
X74300Y-35100
X63900Y-32300
X63900Y-34300
X64900Y-33300
X67200Y-36600
X67200Y-37600
X67200Y-38600
X70200Y-36600
X70200Y-37600
X70200Y-38600
X51200Y-27900
X51200Y-30900
X52200Y-27900
X52200Y-30900
X53200Y-27900
X53200Y-30900
X54200Y-27900
X54200Y-30900
X60900Y-32300
X60900Y-34300
X61900Y-33300
X67200Y-33100
X67200Y-34100
X67200Y-35100
X70200Y-33100
X70200Y-34100
X70200Y-35100
X71300Y-33100
X74300Y-33100
X71300Y-38600
X74300Y-38600
X52800Y-35900
X52800Y-38900
X53800Y-35900
X53800Y-38900
X54800Y-35900
X54800Y-38900
X55800Y-35900
X55800Y-38900
X56800Y-35900
X56800Y-38900
X57800Y-35900
X57800Y-38900
X58800Y-35900
X58800Y-38900
X59800Y-35900
X59800Y-38900
X60800Y-35900
X60800Y-38900
X61800Y-35900
X61800Y-38900
T4
X51400Y-34200
X52400Y-34200
X53400Y-34200
X49700Y-35900
X49700Y-36900
X49700Y-37900
X49700Y-38900
X50700Y-35900
X50700Y-36900
X50700Y-37900
X50700Y-38900
T5
X74100Y-29100
X74100Y-30100
X74100Y-31100
T6
X76400Y-32100
X76400Y-34100
X76400Y-36100
X76400Y-38100
T7
X67541Y-30100
T0
M30
