M48
; DRILL file {KiCad (5.1.5)-3} date 1/27/2020 1:09:58 PM
; FORMAT={-:-/ absolute / inch / decimal}
; #@! TF.CreationDate,2020-01-27T13:09:58+05:00
; #@! TF.GenerationSoftware,Kicad,Pcbnew,(5.1.5)-3
FMAT,2
INCH
T1C0.0157
T2C0.0197
T3C0.0315
T4C0.0394
T5C0.0433
T6C0.0512
T7C0.1378
%
G90
G05
T1
X6.83Y-2.8
X6.83Y-2.88
X6.84Y-2.55
X6.84Y-2.62
X6.84Y-2.69
X6.87Y-2.74
X6.88Y-2.95
X6.92Y-2.48
X6.92Y-2.55
X6.92Y-2.62
X6.92Y-2.69
X6.92Y-3.03
X6.97Y-2.97
X7.0Y-2.48
X7.0Y-2.55
X7.0Y-2.62
X7.0Y-2.69
X7.0Y-3.03
X7.05Y-2.96
X7.07Y-2.48
X7.07Y-2.55
X7.07Y-2.62
X7.07Y-2.69
X7.07Y-3.03
X7.08Y-2.76
X7.1Y-2.91
X7.11Y-2.83
X7.15Y-2.48
X7.15Y-2.55
X7.15Y-2.62
X7.15Y-2.69
X7.15Y-2.76
X7.15Y-2.97
X7.15Y-3.03
X7.16Y-2.87
X7.23Y-2.48
X7.23Y-2.55
X7.23Y-2.62
X7.23Y-2.69
X7.23Y-2.76
X7.23Y-2.83
X7.23Y-2.9
X7.23Y-2.97
X7.23Y-3.03
X7.3Y-2.69
X7.3Y-2.76
X7.3Y-2.83
X7.3Y-2.9
X7.3Y-2.97
X7.3Y-3.03
X7.38Y-2.69
X7.38Y-2.76
X7.38Y-2.83
X7.38Y-2.9
X7.38Y-2.97
X7.38Y-3.03
X7.45Y-2.69
X7.45Y-2.76
X7.45Y-2.83
X7.45Y-2.9
X7.45Y-2.97
T2
X7.32Y-2.56
X7.32Y-2.48
T3
X5.12Y-2.79
X5.12Y-3.09
X5.22Y-2.79
X5.22Y-3.09
X5.32Y-2.79
X5.32Y-3.09
X5.42Y-2.79
X5.42Y-3.09
X7.17Y-3.54
X7.17Y-3.84
X5.72Y-2.8316
X5.72Y-2.93
X6.71Y-3.19
X6.71Y-3.29
X6.71Y-3.39
X7.01Y-3.19
X7.01Y-3.29
X7.01Y-3.39
X7.45Y-2.56
X7.75Y-2.56
X6.5Y-3.59
X6.5Y-3.89
X6.37Y-3.59
X6.37Y-3.89
X5.8Y-3.28
X5.9Y-3.18
X6.0Y-3.28
X7.17Y-3.13
X7.17Y-3.43
X5.02Y-3.27
X5.12Y-3.27
X5.22Y-3.27
X5.32Y-3.27
X5.42Y-3.27
X5.28Y-3.59
X5.28Y-3.89
X5.38Y-3.59
X5.38Y-3.89
X5.48Y-3.59
X5.48Y-3.89
X5.58Y-3.59
X5.58Y-3.89
X5.68Y-3.59
X5.68Y-3.89
X5.78Y-3.59
X5.78Y-3.89
X5.88Y-3.59
X5.88Y-3.89
X5.98Y-3.59
X5.98Y-3.89
X6.08Y-3.59
X6.08Y-3.89
X6.18Y-3.59
X6.18Y-3.89
X6.51Y-2.51
X6.51Y-2.6084
X5.0259Y-2.6
X5.1259Y-2.6
X5.2259Y-2.6
X5.3259Y-2.6
X5.4259Y-2.6
X7.3Y-3.65
X7.3Y-3.95
X6.7Y-3.64
X6.7Y-3.74
X6.7Y-3.84
X7.0Y-3.64
X7.0Y-3.74
X7.0Y-3.84
X6.2Y-3.28
X6.3Y-3.18
X6.4Y-3.28
X6.51Y-2.8216
X6.51Y-2.92
X5.99Y-2.57
X5.99Y-2.87
X6.09Y-2.57
X6.09Y-2.87
X6.19Y-2.57
X6.19Y-2.87
X6.29Y-2.57
X6.29Y-2.87
X5.72Y-2.5216
X5.72Y-2.62
T4
X4.97Y-3.59
X4.97Y-3.69
X4.97Y-3.79
X4.97Y-3.89
X5.07Y-3.59
X5.07Y-3.69
X5.07Y-3.79
X5.07Y-3.89
X5.14Y-3.42
X5.24Y-3.42
X5.34Y-3.42
T5
X7.61Y-2.74
X7.61Y-2.84
X7.61Y-2.94
T6
X7.61Y-3.19
X7.61Y-3.3278
X7.61Y-3.4656
X7.61Y-3.6034
T7
X6.9541Y-2.84
T0
M30
