G04 #@! TF.GenerationSoftware,KiCad,Pcbnew,(5.1.5)-3*
G04 #@! TF.CreationDate,2020-01-27T13:06:47+05:00*
G04 #@! TF.ProjectId,dimmer,64696d6d-6572-42e6-9b69-6361645f7063,0.1*
G04 #@! TF.SameCoordinates,Original*
G04 #@! TF.FileFunction,Legend,Top*
G04 #@! TF.FilePolarity,Positive*
%FSLAX46Y46*%
G04 Gerber Fmt 4.6, Leading zero omitted, Abs format (unit mm)*
G04 Created by KiCad (PCBNEW (5.1.5)-3) date 2020-01-27 13:06:47*
%MOMM*%
%LPD*%
G04 APERTURE LIST*
%ADD10C,0.150000*%
%ADD11C,0.120000*%
G04 APERTURE END LIST*
D10*
X172879428Y-65238380D02*
X172879428Y-66047904D01*
X172927047Y-66143142D01*
X172974666Y-66190761D01*
X173069904Y-66238380D01*
X173260380Y-66238380D01*
X173355619Y-66190761D01*
X173403238Y-66143142D01*
X173450857Y-66047904D01*
X173450857Y-65238380D01*
X173879428Y-66190761D02*
X173974666Y-66238380D01*
X174165142Y-66238380D01*
X174260380Y-66190761D01*
X174308000Y-66095523D01*
X174308000Y-66047904D01*
X174260380Y-65952666D01*
X174165142Y-65905047D01*
X174022285Y-65905047D01*
X173927047Y-65857428D01*
X173879428Y-65762190D01*
X173879428Y-65714571D01*
X173927047Y-65619333D01*
X174022285Y-65571714D01*
X174165142Y-65571714D01*
X174260380Y-65619333D01*
X175165142Y-66238380D02*
X175165142Y-65714571D01*
X175117523Y-65619333D01*
X175022285Y-65571714D01*
X174831809Y-65571714D01*
X174736571Y-65619333D01*
X175165142Y-66190761D02*
X175069904Y-66238380D01*
X174831809Y-66238380D01*
X174736571Y-66190761D01*
X174688952Y-66095523D01*
X174688952Y-66000285D01*
X174736571Y-65905047D01*
X174831809Y-65857428D01*
X175069904Y-65857428D01*
X175165142Y-65809809D01*
X175641333Y-66238380D02*
X175641333Y-65571714D01*
X175641333Y-65666952D02*
X175688952Y-65619333D01*
X175784190Y-65571714D01*
X175927047Y-65571714D01*
X176022285Y-65619333D01*
X176069904Y-65714571D01*
X176069904Y-66238380D01*
X176069904Y-65714571D02*
X176117523Y-65619333D01*
X176212761Y-65571714D01*
X176355619Y-65571714D01*
X176450857Y-65619333D01*
X176498476Y-65714571D01*
X176498476Y-66238380D01*
X177403238Y-66238380D02*
X177403238Y-65714571D01*
X177355619Y-65619333D01*
X177260380Y-65571714D01*
X177069904Y-65571714D01*
X176974666Y-65619333D01*
X177403238Y-66190761D02*
X177308000Y-66238380D01*
X177069904Y-66238380D01*
X176974666Y-66190761D01*
X176927047Y-66095523D01*
X176927047Y-66000285D01*
X176974666Y-65905047D01*
X177069904Y-65857428D01*
X177308000Y-65857428D01*
X177403238Y-65809809D01*
X178641333Y-66238380D02*
X178641333Y-65238380D01*
X178974666Y-65952666D01*
X179308000Y-65238380D01*
X179308000Y-66238380D01*
X180212761Y-66238380D02*
X180212761Y-65714571D01*
X180165142Y-65619333D01*
X180069904Y-65571714D01*
X179879428Y-65571714D01*
X179784190Y-65619333D01*
X180212761Y-66190761D02*
X180117523Y-66238380D01*
X179879428Y-66238380D01*
X179784190Y-66190761D01*
X179736571Y-66095523D01*
X179736571Y-66000285D01*
X179784190Y-65905047D01*
X179879428Y-65857428D01*
X180117523Y-65857428D01*
X180212761Y-65809809D01*
X180641333Y-66190761D02*
X180736571Y-66238380D01*
X180927047Y-66238380D01*
X181022285Y-66190761D01*
X181069904Y-66095523D01*
X181069904Y-66047904D01*
X181022285Y-65952666D01*
X180927047Y-65905047D01*
X180784190Y-65905047D01*
X180688952Y-65857428D01*
X180641333Y-65762190D01*
X180641333Y-65714571D01*
X180688952Y-65619333D01*
X180784190Y-65571714D01*
X180927047Y-65571714D01*
X181022285Y-65619333D01*
X181641333Y-66238380D02*
X181546095Y-66190761D01*
X181498476Y-66143142D01*
X181450857Y-66047904D01*
X181450857Y-65762190D01*
X181498476Y-65666952D01*
X181546095Y-65619333D01*
X181641333Y-65571714D01*
X181784190Y-65571714D01*
X181879428Y-65619333D01*
X181927047Y-65666952D01*
X181974666Y-65762190D01*
X181974666Y-66047904D01*
X181927047Y-66143142D01*
X181879428Y-66190761D01*
X181784190Y-66238380D01*
X181641333Y-66238380D01*
X182546095Y-66238380D02*
X182450857Y-66190761D01*
X182403238Y-66143142D01*
X182355619Y-66047904D01*
X182355619Y-65762190D01*
X182403238Y-65666952D01*
X182450857Y-65619333D01*
X182546095Y-65571714D01*
X182688952Y-65571714D01*
X182784190Y-65619333D01*
X182831809Y-65666952D01*
X182879428Y-65762190D01*
X182879428Y-66047904D01*
X182831809Y-66143142D01*
X182784190Y-66190761D01*
X182688952Y-66238380D01*
X182546095Y-66238380D01*
X183736571Y-66238380D02*
X183736571Y-65238380D01*
X183736571Y-66190761D02*
X183641333Y-66238380D01*
X183450857Y-66238380D01*
X183355619Y-66190761D01*
X183308000Y-66143142D01*
X183260380Y-66047904D01*
X183260380Y-65762190D01*
X183308000Y-65666952D01*
X183355619Y-65619333D01*
X183450857Y-65571714D01*
X183641333Y-65571714D01*
X183736571Y-65619333D01*
X172950666Y-63793714D02*
X172950666Y-64460380D01*
X172950666Y-63888952D02*
X172998285Y-63841333D01*
X173093523Y-63793714D01*
X173236380Y-63793714D01*
X173331619Y-63841333D01*
X173379238Y-63936571D01*
X173379238Y-64460380D01*
X173760190Y-63460380D02*
X174379238Y-63460380D01*
X174045904Y-63841333D01*
X174188761Y-63841333D01*
X174284000Y-63888952D01*
X174331619Y-63936571D01*
X174379238Y-64031809D01*
X174379238Y-64269904D01*
X174331619Y-64365142D01*
X174284000Y-64412761D01*
X174188761Y-64460380D01*
X173903047Y-64460380D01*
X173807809Y-64412761D01*
X173760190Y-64365142D01*
X174807809Y-64460380D02*
X174807809Y-63793714D01*
X174807809Y-63984190D02*
X174855428Y-63888952D01*
X174903047Y-63841333D01*
X174998285Y-63793714D01*
X175093523Y-63793714D01*
X175855428Y-64460380D02*
X175855428Y-63460380D01*
X175855428Y-64412761D02*
X175760190Y-64460380D01*
X175569714Y-64460380D01*
X175474476Y-64412761D01*
X175426857Y-64365142D01*
X175379238Y-64269904D01*
X175379238Y-63984190D01*
X175426857Y-63888952D01*
X175474476Y-63841333D01*
X175569714Y-63793714D01*
X175760190Y-63793714D01*
X175855428Y-63841333D01*
X176331619Y-64079428D02*
X177093523Y-64079428D01*
X177569714Y-64460380D02*
X177569714Y-63460380D01*
X177569714Y-63841333D02*
X177664952Y-63793714D01*
X177855428Y-63793714D01*
X177950666Y-63841333D01*
X177998285Y-63888952D01*
X178045904Y-63984190D01*
X178045904Y-64269904D01*
X177998285Y-64365142D01*
X177950666Y-64412761D01*
X177855428Y-64460380D01*
X177664952Y-64460380D01*
X177569714Y-64412761D01*
X178903047Y-63793714D02*
X178903047Y-64460380D01*
X178474476Y-63793714D02*
X178474476Y-64317523D01*
X178522095Y-64412761D01*
X178617333Y-64460380D01*
X178760190Y-64460380D01*
X178855428Y-64412761D01*
X178903047Y-64365142D01*
X179807809Y-63793714D02*
X179807809Y-64603238D01*
X179760190Y-64698476D01*
X179712571Y-64746095D01*
X179617333Y-64793714D01*
X179474476Y-64793714D01*
X179379238Y-64746095D01*
X179807809Y-64412761D02*
X179712571Y-64460380D01*
X179522095Y-64460380D01*
X179426857Y-64412761D01*
X179379238Y-64365142D01*
X179331619Y-64269904D01*
X179331619Y-63984190D01*
X179379238Y-63888952D01*
X179426857Y-63841333D01*
X179522095Y-63793714D01*
X179712571Y-63793714D01*
X179807809Y-63841333D01*
X180236380Y-64412761D02*
X180331619Y-64460380D01*
X180522095Y-64460380D01*
X180617333Y-64412761D01*
X180664952Y-64317523D01*
X180664952Y-64269904D01*
X180617333Y-64174666D01*
X180522095Y-64127047D01*
X180379238Y-64127047D01*
X180284000Y-64079428D01*
X180236380Y-63984190D01*
X180236380Y-63936571D01*
X180284000Y-63841333D01*
X180379238Y-63793714D01*
X180522095Y-63793714D01*
X180617333Y-63841333D01*
X173411142Y-62269714D02*
X173411142Y-62936380D01*
X173173047Y-61888761D02*
X172934952Y-62603047D01*
X173554000Y-62603047D01*
X173934952Y-62555428D02*
X174696857Y-62555428D01*
X175506380Y-62412571D02*
X175649238Y-62460190D01*
X175696857Y-62507809D01*
X175744476Y-62603047D01*
X175744476Y-62745904D01*
X175696857Y-62841142D01*
X175649238Y-62888761D01*
X175554000Y-62936380D01*
X175173047Y-62936380D01*
X175173047Y-61936380D01*
X175506380Y-61936380D01*
X175601619Y-61984000D01*
X175649238Y-62031619D01*
X175696857Y-62126857D01*
X175696857Y-62222095D01*
X175649238Y-62317333D01*
X175601619Y-62364952D01*
X175506380Y-62412571D01*
X175173047Y-62412571D01*
X176173047Y-62936380D02*
X176173047Y-62269714D01*
X176173047Y-61936380D02*
X176125428Y-61984000D01*
X176173047Y-62031619D01*
X176220666Y-61984000D01*
X176173047Y-61936380D01*
X176173047Y-62031619D01*
X176506380Y-62269714D02*
X176887333Y-62269714D01*
X176649238Y-61936380D02*
X176649238Y-62793523D01*
X176696857Y-62888761D01*
X176792095Y-62936380D01*
X176887333Y-62936380D01*
X177982571Y-62936380D02*
X177982571Y-61936380D01*
X178220666Y-61936380D01*
X178363523Y-61984000D01*
X178458761Y-62079238D01*
X178506380Y-62174476D01*
X178554000Y-62364952D01*
X178554000Y-62507809D01*
X178506380Y-62698285D01*
X178458761Y-62793523D01*
X178363523Y-62888761D01*
X178220666Y-62936380D01*
X177982571Y-62936380D01*
X178982571Y-62936380D02*
X178982571Y-62269714D01*
X178982571Y-61936380D02*
X178934952Y-61984000D01*
X178982571Y-62031619D01*
X179030190Y-61984000D01*
X178982571Y-61936380D01*
X178982571Y-62031619D01*
X179458761Y-62936380D02*
X179458761Y-62269714D01*
X179458761Y-62364952D02*
X179506380Y-62317333D01*
X179601619Y-62269714D01*
X179744476Y-62269714D01*
X179839714Y-62317333D01*
X179887333Y-62412571D01*
X179887333Y-62936380D01*
X179887333Y-62412571D02*
X179934952Y-62317333D01*
X180030190Y-62269714D01*
X180173047Y-62269714D01*
X180268285Y-62317333D01*
X180315904Y-62412571D01*
X180315904Y-62936380D01*
X180792095Y-62936380D02*
X180792095Y-62269714D01*
X180792095Y-62364952D02*
X180839714Y-62317333D01*
X180934952Y-62269714D01*
X181077809Y-62269714D01*
X181173047Y-62317333D01*
X181220666Y-62412571D01*
X181220666Y-62936380D01*
X181220666Y-62412571D02*
X181268285Y-62317333D01*
X181363523Y-62269714D01*
X181506380Y-62269714D01*
X181601619Y-62317333D01*
X181649238Y-62412571D01*
X181649238Y-62936380D01*
X182506380Y-62888761D02*
X182411142Y-62936380D01*
X182220666Y-62936380D01*
X182125428Y-62888761D01*
X182077809Y-62793523D01*
X182077809Y-62412571D01*
X182125428Y-62317333D01*
X182220666Y-62269714D01*
X182411142Y-62269714D01*
X182506380Y-62317333D01*
X182554000Y-62412571D01*
X182554000Y-62507809D01*
X182077809Y-62603047D01*
X182982571Y-62936380D02*
X182982571Y-62269714D01*
X182982571Y-62460190D02*
X183030190Y-62364952D01*
X183077809Y-62317333D01*
X183173047Y-62269714D01*
X183268285Y-62269714D01*
D11*
X167508000Y-69732759D02*
X166878000Y-69732759D01*
X167193000Y-69417759D02*
X167193000Y-70047759D01*
X165756000Y-76159000D02*
X164952000Y-76159000D01*
X165987000Y-76119000D02*
X164721000Y-76119000D01*
X166156000Y-76079000D02*
X164552000Y-76079000D01*
X166294000Y-76039000D02*
X164414000Y-76039000D01*
X166413000Y-75999000D02*
X164295000Y-75999000D01*
X166519000Y-75959000D02*
X164189000Y-75959000D01*
X166616000Y-75919000D02*
X164092000Y-75919000D01*
X166704000Y-75879000D02*
X164004000Y-75879000D01*
X166786000Y-75839000D02*
X163922000Y-75839000D01*
X166863000Y-75799000D02*
X163845000Y-75799000D01*
X166935000Y-75759000D02*
X163773000Y-75759000D01*
X167004000Y-75719000D02*
X163704000Y-75719000D01*
X167068000Y-75679000D02*
X163640000Y-75679000D01*
X167130000Y-75639000D02*
X163578000Y-75639000D01*
X167188000Y-75599000D02*
X163520000Y-75599000D01*
X167244000Y-75559000D02*
X163464000Y-75559000D01*
X167298000Y-75519000D02*
X163410000Y-75519000D01*
X167349000Y-75479000D02*
X163359000Y-75479000D01*
X167398000Y-75439000D02*
X163310000Y-75439000D01*
X167446000Y-75399000D02*
X163262000Y-75399000D01*
X167491000Y-75359000D02*
X163217000Y-75359000D01*
X167536000Y-75319000D02*
X163172000Y-75319000D01*
X167578000Y-75279000D02*
X163130000Y-75279000D01*
X167619000Y-75239000D02*
X163089000Y-75239000D01*
X164314000Y-75199000D02*
X163049000Y-75199000D01*
X167659000Y-75199000D02*
X166394000Y-75199000D01*
X164314000Y-75159000D02*
X163011000Y-75159000D01*
X167697000Y-75159000D02*
X166394000Y-75159000D01*
X164314000Y-75119000D02*
X162974000Y-75119000D01*
X167734000Y-75119000D02*
X166394000Y-75119000D01*
X164314000Y-75079000D02*
X162938000Y-75079000D01*
X167770000Y-75079000D02*
X166394000Y-75079000D01*
X164314000Y-75039000D02*
X162904000Y-75039000D01*
X167804000Y-75039000D02*
X166394000Y-75039000D01*
X164314000Y-74999000D02*
X162870000Y-74999000D01*
X167838000Y-74999000D02*
X166394000Y-74999000D01*
X164314000Y-74959000D02*
X162838000Y-74959000D01*
X167870000Y-74959000D02*
X166394000Y-74959000D01*
X164314000Y-74919000D02*
X162806000Y-74919000D01*
X167902000Y-74919000D02*
X166394000Y-74919000D01*
X164314000Y-74879000D02*
X162776000Y-74879000D01*
X167932000Y-74879000D02*
X166394000Y-74879000D01*
X164314000Y-74839000D02*
X162747000Y-74839000D01*
X167961000Y-74839000D02*
X166394000Y-74839000D01*
X164314000Y-74799000D02*
X162718000Y-74799000D01*
X167990000Y-74799000D02*
X166394000Y-74799000D01*
X164314000Y-74759000D02*
X162690000Y-74759000D01*
X168018000Y-74759000D02*
X166394000Y-74759000D01*
X164314000Y-74719000D02*
X162664000Y-74719000D01*
X168044000Y-74719000D02*
X166394000Y-74719000D01*
X164314000Y-74679000D02*
X162638000Y-74679000D01*
X168070000Y-74679000D02*
X166394000Y-74679000D01*
X164314000Y-74639000D02*
X162612000Y-74639000D01*
X168096000Y-74639000D02*
X166394000Y-74639000D01*
X164314000Y-74599000D02*
X162588000Y-74599000D01*
X168120000Y-74599000D02*
X166394000Y-74599000D01*
X164314000Y-74559000D02*
X162564000Y-74559000D01*
X168144000Y-74559000D02*
X166394000Y-74559000D01*
X164314000Y-74519000D02*
X162542000Y-74519000D01*
X168166000Y-74519000D02*
X166394000Y-74519000D01*
X164314000Y-74479000D02*
X162520000Y-74479000D01*
X168188000Y-74479000D02*
X166394000Y-74479000D01*
X164314000Y-74439000D02*
X162498000Y-74439000D01*
X168210000Y-74439000D02*
X166394000Y-74439000D01*
X164314000Y-74399000D02*
X162478000Y-74399000D01*
X168230000Y-74399000D02*
X166394000Y-74399000D01*
X164314000Y-74359000D02*
X162458000Y-74359000D01*
X168250000Y-74359000D02*
X166394000Y-74359000D01*
X164314000Y-74319000D02*
X162438000Y-74319000D01*
X168270000Y-74319000D02*
X166394000Y-74319000D01*
X164314000Y-74279000D02*
X162420000Y-74279000D01*
X168288000Y-74279000D02*
X166394000Y-74279000D01*
X164314000Y-74239000D02*
X162402000Y-74239000D01*
X168306000Y-74239000D02*
X166394000Y-74239000D01*
X164314000Y-74199000D02*
X162384000Y-74199000D01*
X168324000Y-74199000D02*
X166394000Y-74199000D01*
X164314000Y-74159000D02*
X162368000Y-74159000D01*
X168340000Y-74159000D02*
X166394000Y-74159000D01*
X164314000Y-74119000D02*
X162352000Y-74119000D01*
X168356000Y-74119000D02*
X166394000Y-74119000D01*
X164314000Y-74079000D02*
X162336000Y-74079000D01*
X168372000Y-74079000D02*
X166394000Y-74079000D01*
X164314000Y-74039000D02*
X162321000Y-74039000D01*
X168387000Y-74039000D02*
X166394000Y-74039000D01*
X164314000Y-73999000D02*
X162307000Y-73999000D01*
X168401000Y-73999000D02*
X166394000Y-73999000D01*
X164314000Y-73959000D02*
X162293000Y-73959000D01*
X168415000Y-73959000D02*
X166394000Y-73959000D01*
X164314000Y-73919000D02*
X162280000Y-73919000D01*
X168428000Y-73919000D02*
X166394000Y-73919000D01*
X164314000Y-73879000D02*
X162268000Y-73879000D01*
X168440000Y-73879000D02*
X166394000Y-73879000D01*
X164314000Y-73839000D02*
X162256000Y-73839000D01*
X168452000Y-73839000D02*
X166394000Y-73839000D01*
X164314000Y-73799000D02*
X162244000Y-73799000D01*
X168464000Y-73799000D02*
X166394000Y-73799000D01*
X164314000Y-73759000D02*
X162233000Y-73759000D01*
X168475000Y-73759000D02*
X166394000Y-73759000D01*
X164314000Y-73719000D02*
X162223000Y-73719000D01*
X168485000Y-73719000D02*
X166394000Y-73719000D01*
X164314000Y-73679000D02*
X162213000Y-73679000D01*
X168495000Y-73679000D02*
X166394000Y-73679000D01*
X164314000Y-73639000D02*
X162204000Y-73639000D01*
X168504000Y-73639000D02*
X166394000Y-73639000D01*
X164314000Y-73598000D02*
X162195000Y-73598000D01*
X168513000Y-73598000D02*
X166394000Y-73598000D01*
X164314000Y-73558000D02*
X162187000Y-73558000D01*
X168521000Y-73558000D02*
X166394000Y-73558000D01*
X164314000Y-73518000D02*
X162179000Y-73518000D01*
X168529000Y-73518000D02*
X166394000Y-73518000D01*
X164314000Y-73478000D02*
X162172000Y-73478000D01*
X168536000Y-73478000D02*
X166394000Y-73478000D01*
X164314000Y-73438000D02*
X162165000Y-73438000D01*
X168543000Y-73438000D02*
X166394000Y-73438000D01*
X164314000Y-73398000D02*
X162159000Y-73398000D01*
X168549000Y-73398000D02*
X166394000Y-73398000D01*
X164314000Y-73358000D02*
X162153000Y-73358000D01*
X168555000Y-73358000D02*
X166394000Y-73358000D01*
X164314000Y-73318000D02*
X162148000Y-73318000D01*
X168560000Y-73318000D02*
X166394000Y-73318000D01*
X164314000Y-73278000D02*
X162143000Y-73278000D01*
X168565000Y-73278000D02*
X166394000Y-73278000D01*
X164314000Y-73238000D02*
X162139000Y-73238000D01*
X168569000Y-73238000D02*
X166394000Y-73238000D01*
X164314000Y-73198000D02*
X162136000Y-73198000D01*
X168572000Y-73198000D02*
X166394000Y-73198000D01*
X164314000Y-73158000D02*
X162132000Y-73158000D01*
X168576000Y-73158000D02*
X166394000Y-73158000D01*
X168578000Y-73118000D02*
X162130000Y-73118000D01*
X168581000Y-73078000D02*
X162127000Y-73078000D01*
X168582000Y-73038000D02*
X162126000Y-73038000D01*
X168584000Y-72998000D02*
X162124000Y-72998000D01*
X168584000Y-72958000D02*
X162124000Y-72958000D01*
X168584000Y-72918000D02*
X162124000Y-72918000D01*
X168624000Y-72918000D02*
G75*
G03X168624000Y-72918000I-3270000J0D01*
G01*
X168624000Y-65004000D02*
G75*
G03X168624000Y-65004000I-3270000J0D01*
G01*
X162124000Y-65004000D02*
X168584000Y-65004000D01*
X162124000Y-64964000D02*
X168584000Y-64964000D01*
X162124000Y-64924000D02*
X168584000Y-64924000D01*
X162126000Y-64884000D02*
X168582000Y-64884000D01*
X162127000Y-64844000D02*
X168581000Y-64844000D01*
X162130000Y-64804000D02*
X168578000Y-64804000D01*
X162132000Y-64764000D02*
X164314000Y-64764000D01*
X166394000Y-64764000D02*
X168576000Y-64764000D01*
X162136000Y-64724000D02*
X164314000Y-64724000D01*
X166394000Y-64724000D02*
X168572000Y-64724000D01*
X162139000Y-64684000D02*
X164314000Y-64684000D01*
X166394000Y-64684000D02*
X168569000Y-64684000D01*
X162143000Y-64644000D02*
X164314000Y-64644000D01*
X166394000Y-64644000D02*
X168565000Y-64644000D01*
X162148000Y-64604000D02*
X164314000Y-64604000D01*
X166394000Y-64604000D02*
X168560000Y-64604000D01*
X162153000Y-64564000D02*
X164314000Y-64564000D01*
X166394000Y-64564000D02*
X168555000Y-64564000D01*
X162159000Y-64524000D02*
X164314000Y-64524000D01*
X166394000Y-64524000D02*
X168549000Y-64524000D01*
X162165000Y-64484000D02*
X164314000Y-64484000D01*
X166394000Y-64484000D02*
X168543000Y-64484000D01*
X162172000Y-64444000D02*
X164314000Y-64444000D01*
X166394000Y-64444000D02*
X168536000Y-64444000D01*
X162179000Y-64404000D02*
X164314000Y-64404000D01*
X166394000Y-64404000D02*
X168529000Y-64404000D01*
X162187000Y-64364000D02*
X164314000Y-64364000D01*
X166394000Y-64364000D02*
X168521000Y-64364000D01*
X162195000Y-64324000D02*
X164314000Y-64324000D01*
X166394000Y-64324000D02*
X168513000Y-64324000D01*
X162204000Y-64283000D02*
X164314000Y-64283000D01*
X166394000Y-64283000D02*
X168504000Y-64283000D01*
X162213000Y-64243000D02*
X164314000Y-64243000D01*
X166394000Y-64243000D02*
X168495000Y-64243000D01*
X162223000Y-64203000D02*
X164314000Y-64203000D01*
X166394000Y-64203000D02*
X168485000Y-64203000D01*
X162233000Y-64163000D02*
X164314000Y-64163000D01*
X166394000Y-64163000D02*
X168475000Y-64163000D01*
X162244000Y-64123000D02*
X164314000Y-64123000D01*
X166394000Y-64123000D02*
X168464000Y-64123000D01*
X162256000Y-64083000D02*
X164314000Y-64083000D01*
X166394000Y-64083000D02*
X168452000Y-64083000D01*
X162268000Y-64043000D02*
X164314000Y-64043000D01*
X166394000Y-64043000D02*
X168440000Y-64043000D01*
X162280000Y-64003000D02*
X164314000Y-64003000D01*
X166394000Y-64003000D02*
X168428000Y-64003000D01*
X162293000Y-63963000D02*
X164314000Y-63963000D01*
X166394000Y-63963000D02*
X168415000Y-63963000D01*
X162307000Y-63923000D02*
X164314000Y-63923000D01*
X166394000Y-63923000D02*
X168401000Y-63923000D01*
X162321000Y-63883000D02*
X164314000Y-63883000D01*
X166394000Y-63883000D02*
X168387000Y-63883000D01*
X162336000Y-63843000D02*
X164314000Y-63843000D01*
X166394000Y-63843000D02*
X168372000Y-63843000D01*
X162352000Y-63803000D02*
X164314000Y-63803000D01*
X166394000Y-63803000D02*
X168356000Y-63803000D01*
X162368000Y-63763000D02*
X164314000Y-63763000D01*
X166394000Y-63763000D02*
X168340000Y-63763000D01*
X162384000Y-63723000D02*
X164314000Y-63723000D01*
X166394000Y-63723000D02*
X168324000Y-63723000D01*
X162402000Y-63683000D02*
X164314000Y-63683000D01*
X166394000Y-63683000D02*
X168306000Y-63683000D01*
X162420000Y-63643000D02*
X164314000Y-63643000D01*
X166394000Y-63643000D02*
X168288000Y-63643000D01*
X162438000Y-63603000D02*
X164314000Y-63603000D01*
X166394000Y-63603000D02*
X168270000Y-63603000D01*
X162458000Y-63563000D02*
X164314000Y-63563000D01*
X166394000Y-63563000D02*
X168250000Y-63563000D01*
X162478000Y-63523000D02*
X164314000Y-63523000D01*
X166394000Y-63523000D02*
X168230000Y-63523000D01*
X162498000Y-63483000D02*
X164314000Y-63483000D01*
X166394000Y-63483000D02*
X168210000Y-63483000D01*
X162520000Y-63443000D02*
X164314000Y-63443000D01*
X166394000Y-63443000D02*
X168188000Y-63443000D01*
X162542000Y-63403000D02*
X164314000Y-63403000D01*
X166394000Y-63403000D02*
X168166000Y-63403000D01*
X162564000Y-63363000D02*
X164314000Y-63363000D01*
X166394000Y-63363000D02*
X168144000Y-63363000D01*
X162588000Y-63323000D02*
X164314000Y-63323000D01*
X166394000Y-63323000D02*
X168120000Y-63323000D01*
X162612000Y-63283000D02*
X164314000Y-63283000D01*
X166394000Y-63283000D02*
X168096000Y-63283000D01*
X162638000Y-63243000D02*
X164314000Y-63243000D01*
X166394000Y-63243000D02*
X168070000Y-63243000D01*
X162664000Y-63203000D02*
X164314000Y-63203000D01*
X166394000Y-63203000D02*
X168044000Y-63203000D01*
X162690000Y-63163000D02*
X164314000Y-63163000D01*
X166394000Y-63163000D02*
X168018000Y-63163000D01*
X162718000Y-63123000D02*
X164314000Y-63123000D01*
X166394000Y-63123000D02*
X167990000Y-63123000D01*
X162747000Y-63083000D02*
X164314000Y-63083000D01*
X166394000Y-63083000D02*
X167961000Y-63083000D01*
X162776000Y-63043000D02*
X164314000Y-63043000D01*
X166394000Y-63043000D02*
X167932000Y-63043000D01*
X162806000Y-63003000D02*
X164314000Y-63003000D01*
X166394000Y-63003000D02*
X167902000Y-63003000D01*
X162838000Y-62963000D02*
X164314000Y-62963000D01*
X166394000Y-62963000D02*
X167870000Y-62963000D01*
X162870000Y-62923000D02*
X164314000Y-62923000D01*
X166394000Y-62923000D02*
X167838000Y-62923000D01*
X162904000Y-62883000D02*
X164314000Y-62883000D01*
X166394000Y-62883000D02*
X167804000Y-62883000D01*
X162938000Y-62843000D02*
X164314000Y-62843000D01*
X166394000Y-62843000D02*
X167770000Y-62843000D01*
X162974000Y-62803000D02*
X164314000Y-62803000D01*
X166394000Y-62803000D02*
X167734000Y-62803000D01*
X163011000Y-62763000D02*
X164314000Y-62763000D01*
X166394000Y-62763000D02*
X167697000Y-62763000D01*
X163049000Y-62723000D02*
X164314000Y-62723000D01*
X166394000Y-62723000D02*
X167659000Y-62723000D01*
X163089000Y-62683000D02*
X167619000Y-62683000D01*
X163130000Y-62643000D02*
X167578000Y-62643000D01*
X163172000Y-62603000D02*
X167536000Y-62603000D01*
X163217000Y-62563000D02*
X167491000Y-62563000D01*
X163262000Y-62523000D02*
X167446000Y-62523000D01*
X163310000Y-62483000D02*
X167398000Y-62483000D01*
X163359000Y-62443000D02*
X167349000Y-62443000D01*
X163410000Y-62403000D02*
X167298000Y-62403000D01*
X163464000Y-62363000D02*
X167244000Y-62363000D01*
X163520000Y-62323000D02*
X167188000Y-62323000D01*
X163578000Y-62283000D02*
X167130000Y-62283000D01*
X163640000Y-62243000D02*
X167068000Y-62243000D01*
X163704000Y-62203000D02*
X167004000Y-62203000D01*
X163773000Y-62163000D02*
X166935000Y-62163000D01*
X163845000Y-62123000D02*
X166863000Y-62123000D01*
X163922000Y-62083000D02*
X166786000Y-62083000D01*
X164004000Y-62043000D02*
X166704000Y-62043000D01*
X164092000Y-62003000D02*
X166616000Y-62003000D01*
X164189000Y-61963000D02*
X166519000Y-61963000D01*
X164295000Y-61923000D02*
X166413000Y-61923000D01*
X164414000Y-61883000D02*
X166294000Y-61883000D01*
X164552000Y-61843000D02*
X166156000Y-61843000D01*
X164721000Y-61803000D02*
X165987000Y-61803000D01*
X164952000Y-61763000D02*
X165756000Y-61763000D01*
X163515000Y-68504241D02*
X163515000Y-67874241D01*
X163200000Y-68189241D02*
X163830000Y-68189241D01*
X148558000Y-65298000D02*
G75*
G03X148558000Y-65298000I-3270000J0D01*
G01*
X148518000Y-65298000D02*
X142058000Y-65298000D01*
X148518000Y-65338000D02*
X142058000Y-65338000D01*
X148518000Y-65378000D02*
X142058000Y-65378000D01*
X148516000Y-65418000D02*
X142060000Y-65418000D01*
X148515000Y-65458000D02*
X142061000Y-65458000D01*
X148512000Y-65498000D02*
X142064000Y-65498000D01*
X148510000Y-65538000D02*
X146328000Y-65538000D01*
X144248000Y-65538000D02*
X142066000Y-65538000D01*
X148506000Y-65578000D02*
X146328000Y-65578000D01*
X144248000Y-65578000D02*
X142070000Y-65578000D01*
X148503000Y-65618000D02*
X146328000Y-65618000D01*
X144248000Y-65618000D02*
X142073000Y-65618000D01*
X148499000Y-65658000D02*
X146328000Y-65658000D01*
X144248000Y-65658000D02*
X142077000Y-65658000D01*
X148494000Y-65698000D02*
X146328000Y-65698000D01*
X144248000Y-65698000D02*
X142082000Y-65698000D01*
X148489000Y-65738000D02*
X146328000Y-65738000D01*
X144248000Y-65738000D02*
X142087000Y-65738000D01*
X148483000Y-65778000D02*
X146328000Y-65778000D01*
X144248000Y-65778000D02*
X142093000Y-65778000D01*
X148477000Y-65818000D02*
X146328000Y-65818000D01*
X144248000Y-65818000D02*
X142099000Y-65818000D01*
X148470000Y-65858000D02*
X146328000Y-65858000D01*
X144248000Y-65858000D02*
X142106000Y-65858000D01*
X148463000Y-65898000D02*
X146328000Y-65898000D01*
X144248000Y-65898000D02*
X142113000Y-65898000D01*
X148455000Y-65938000D02*
X146328000Y-65938000D01*
X144248000Y-65938000D02*
X142121000Y-65938000D01*
X148447000Y-65978000D02*
X146328000Y-65978000D01*
X144248000Y-65978000D02*
X142129000Y-65978000D01*
X148438000Y-66019000D02*
X146328000Y-66019000D01*
X144248000Y-66019000D02*
X142138000Y-66019000D01*
X148429000Y-66059000D02*
X146328000Y-66059000D01*
X144248000Y-66059000D02*
X142147000Y-66059000D01*
X148419000Y-66099000D02*
X146328000Y-66099000D01*
X144248000Y-66099000D02*
X142157000Y-66099000D01*
X148409000Y-66139000D02*
X146328000Y-66139000D01*
X144248000Y-66139000D02*
X142167000Y-66139000D01*
X148398000Y-66179000D02*
X146328000Y-66179000D01*
X144248000Y-66179000D02*
X142178000Y-66179000D01*
X148386000Y-66219000D02*
X146328000Y-66219000D01*
X144248000Y-66219000D02*
X142190000Y-66219000D01*
X148374000Y-66259000D02*
X146328000Y-66259000D01*
X144248000Y-66259000D02*
X142202000Y-66259000D01*
X148362000Y-66299000D02*
X146328000Y-66299000D01*
X144248000Y-66299000D02*
X142214000Y-66299000D01*
X148349000Y-66339000D02*
X146328000Y-66339000D01*
X144248000Y-66339000D02*
X142227000Y-66339000D01*
X148335000Y-66379000D02*
X146328000Y-66379000D01*
X144248000Y-66379000D02*
X142241000Y-66379000D01*
X148321000Y-66419000D02*
X146328000Y-66419000D01*
X144248000Y-66419000D02*
X142255000Y-66419000D01*
X148306000Y-66459000D02*
X146328000Y-66459000D01*
X144248000Y-66459000D02*
X142270000Y-66459000D01*
X148290000Y-66499000D02*
X146328000Y-66499000D01*
X144248000Y-66499000D02*
X142286000Y-66499000D01*
X148274000Y-66539000D02*
X146328000Y-66539000D01*
X144248000Y-66539000D02*
X142302000Y-66539000D01*
X148258000Y-66579000D02*
X146328000Y-66579000D01*
X144248000Y-66579000D02*
X142318000Y-66579000D01*
X148240000Y-66619000D02*
X146328000Y-66619000D01*
X144248000Y-66619000D02*
X142336000Y-66619000D01*
X148222000Y-66659000D02*
X146328000Y-66659000D01*
X144248000Y-66659000D02*
X142354000Y-66659000D01*
X148204000Y-66699000D02*
X146328000Y-66699000D01*
X144248000Y-66699000D02*
X142372000Y-66699000D01*
X148184000Y-66739000D02*
X146328000Y-66739000D01*
X144248000Y-66739000D02*
X142392000Y-66739000D01*
X148164000Y-66779000D02*
X146328000Y-66779000D01*
X144248000Y-66779000D02*
X142412000Y-66779000D01*
X148144000Y-66819000D02*
X146328000Y-66819000D01*
X144248000Y-66819000D02*
X142432000Y-66819000D01*
X148122000Y-66859000D02*
X146328000Y-66859000D01*
X144248000Y-66859000D02*
X142454000Y-66859000D01*
X148100000Y-66899000D02*
X146328000Y-66899000D01*
X144248000Y-66899000D02*
X142476000Y-66899000D01*
X148078000Y-66939000D02*
X146328000Y-66939000D01*
X144248000Y-66939000D02*
X142498000Y-66939000D01*
X148054000Y-66979000D02*
X146328000Y-66979000D01*
X144248000Y-66979000D02*
X142522000Y-66979000D01*
X148030000Y-67019000D02*
X146328000Y-67019000D01*
X144248000Y-67019000D02*
X142546000Y-67019000D01*
X148004000Y-67059000D02*
X146328000Y-67059000D01*
X144248000Y-67059000D02*
X142572000Y-67059000D01*
X147978000Y-67099000D02*
X146328000Y-67099000D01*
X144248000Y-67099000D02*
X142598000Y-67099000D01*
X147952000Y-67139000D02*
X146328000Y-67139000D01*
X144248000Y-67139000D02*
X142624000Y-67139000D01*
X147924000Y-67179000D02*
X146328000Y-67179000D01*
X144248000Y-67179000D02*
X142652000Y-67179000D01*
X147895000Y-67219000D02*
X146328000Y-67219000D01*
X144248000Y-67219000D02*
X142681000Y-67219000D01*
X147866000Y-67259000D02*
X146328000Y-67259000D01*
X144248000Y-67259000D02*
X142710000Y-67259000D01*
X147836000Y-67299000D02*
X146328000Y-67299000D01*
X144248000Y-67299000D02*
X142740000Y-67299000D01*
X147804000Y-67339000D02*
X146328000Y-67339000D01*
X144248000Y-67339000D02*
X142772000Y-67339000D01*
X147772000Y-67379000D02*
X146328000Y-67379000D01*
X144248000Y-67379000D02*
X142804000Y-67379000D01*
X147738000Y-67419000D02*
X146328000Y-67419000D01*
X144248000Y-67419000D02*
X142838000Y-67419000D01*
X147704000Y-67459000D02*
X146328000Y-67459000D01*
X144248000Y-67459000D02*
X142872000Y-67459000D01*
X147668000Y-67499000D02*
X146328000Y-67499000D01*
X144248000Y-67499000D02*
X142908000Y-67499000D01*
X147631000Y-67539000D02*
X146328000Y-67539000D01*
X144248000Y-67539000D02*
X142945000Y-67539000D01*
X147593000Y-67579000D02*
X146328000Y-67579000D01*
X144248000Y-67579000D02*
X142983000Y-67579000D01*
X147553000Y-67619000D02*
X143023000Y-67619000D01*
X147512000Y-67659000D02*
X143064000Y-67659000D01*
X147470000Y-67699000D02*
X143106000Y-67699000D01*
X147425000Y-67739000D02*
X143151000Y-67739000D01*
X147380000Y-67779000D02*
X143196000Y-67779000D01*
X147332000Y-67819000D02*
X143244000Y-67819000D01*
X147283000Y-67859000D02*
X143293000Y-67859000D01*
X147232000Y-67899000D02*
X143344000Y-67899000D01*
X147178000Y-67939000D02*
X143398000Y-67939000D01*
X147122000Y-67979000D02*
X143454000Y-67979000D01*
X147064000Y-68019000D02*
X143512000Y-68019000D01*
X147002000Y-68059000D02*
X143574000Y-68059000D01*
X146938000Y-68099000D02*
X143638000Y-68099000D01*
X146869000Y-68139000D02*
X143707000Y-68139000D01*
X146797000Y-68179000D02*
X143779000Y-68179000D01*
X146720000Y-68219000D02*
X143856000Y-68219000D01*
X146638000Y-68259000D02*
X143938000Y-68259000D01*
X146550000Y-68299000D02*
X144026000Y-68299000D01*
X146453000Y-68339000D02*
X144123000Y-68339000D01*
X146347000Y-68379000D02*
X144229000Y-68379000D01*
X146228000Y-68419000D02*
X144348000Y-68419000D01*
X146090000Y-68459000D02*
X144486000Y-68459000D01*
X145921000Y-68499000D02*
X144655000Y-68499000D01*
X145690000Y-68539000D02*
X144886000Y-68539000D01*
X147127000Y-61797759D02*
X147127000Y-62427759D01*
X147442000Y-62112759D02*
X146812000Y-62112759D01*
X143134000Y-76357241D02*
X143764000Y-76357241D01*
X143449000Y-76672241D02*
X143449000Y-76042241D01*
X144886000Y-69931000D02*
X145690000Y-69931000D01*
X144655000Y-69971000D02*
X145921000Y-69971000D01*
X144486000Y-70011000D02*
X146090000Y-70011000D01*
X144348000Y-70051000D02*
X146228000Y-70051000D01*
X144229000Y-70091000D02*
X146347000Y-70091000D01*
X144123000Y-70131000D02*
X146453000Y-70131000D01*
X144026000Y-70171000D02*
X146550000Y-70171000D01*
X143938000Y-70211000D02*
X146638000Y-70211000D01*
X143856000Y-70251000D02*
X146720000Y-70251000D01*
X143779000Y-70291000D02*
X146797000Y-70291000D01*
X143707000Y-70331000D02*
X146869000Y-70331000D01*
X143638000Y-70371000D02*
X146938000Y-70371000D01*
X143574000Y-70411000D02*
X147002000Y-70411000D01*
X143512000Y-70451000D02*
X147064000Y-70451000D01*
X143454000Y-70491000D02*
X147122000Y-70491000D01*
X143398000Y-70531000D02*
X147178000Y-70531000D01*
X143344000Y-70571000D02*
X147232000Y-70571000D01*
X143293000Y-70611000D02*
X147283000Y-70611000D01*
X143244000Y-70651000D02*
X147332000Y-70651000D01*
X143196000Y-70691000D02*
X147380000Y-70691000D01*
X143151000Y-70731000D02*
X147425000Y-70731000D01*
X143106000Y-70771000D02*
X147470000Y-70771000D01*
X143064000Y-70811000D02*
X147512000Y-70811000D01*
X143023000Y-70851000D02*
X147553000Y-70851000D01*
X146328000Y-70891000D02*
X147593000Y-70891000D01*
X142983000Y-70891000D02*
X144248000Y-70891000D01*
X146328000Y-70931000D02*
X147631000Y-70931000D01*
X142945000Y-70931000D02*
X144248000Y-70931000D01*
X146328000Y-70971000D02*
X147668000Y-70971000D01*
X142908000Y-70971000D02*
X144248000Y-70971000D01*
X146328000Y-71011000D02*
X147704000Y-71011000D01*
X142872000Y-71011000D02*
X144248000Y-71011000D01*
X146328000Y-71051000D02*
X147738000Y-71051000D01*
X142838000Y-71051000D02*
X144248000Y-71051000D01*
X146328000Y-71091000D02*
X147772000Y-71091000D01*
X142804000Y-71091000D02*
X144248000Y-71091000D01*
X146328000Y-71131000D02*
X147804000Y-71131000D01*
X142772000Y-71131000D02*
X144248000Y-71131000D01*
X146328000Y-71171000D02*
X147836000Y-71171000D01*
X142740000Y-71171000D02*
X144248000Y-71171000D01*
X146328000Y-71211000D02*
X147866000Y-71211000D01*
X142710000Y-71211000D02*
X144248000Y-71211000D01*
X146328000Y-71251000D02*
X147895000Y-71251000D01*
X142681000Y-71251000D02*
X144248000Y-71251000D01*
X146328000Y-71291000D02*
X147924000Y-71291000D01*
X142652000Y-71291000D02*
X144248000Y-71291000D01*
X146328000Y-71331000D02*
X147952000Y-71331000D01*
X142624000Y-71331000D02*
X144248000Y-71331000D01*
X146328000Y-71371000D02*
X147978000Y-71371000D01*
X142598000Y-71371000D02*
X144248000Y-71371000D01*
X146328000Y-71411000D02*
X148004000Y-71411000D01*
X142572000Y-71411000D02*
X144248000Y-71411000D01*
X146328000Y-71451000D02*
X148030000Y-71451000D01*
X142546000Y-71451000D02*
X144248000Y-71451000D01*
X146328000Y-71491000D02*
X148054000Y-71491000D01*
X142522000Y-71491000D02*
X144248000Y-71491000D01*
X146328000Y-71531000D02*
X148078000Y-71531000D01*
X142498000Y-71531000D02*
X144248000Y-71531000D01*
X146328000Y-71571000D02*
X148100000Y-71571000D01*
X142476000Y-71571000D02*
X144248000Y-71571000D01*
X146328000Y-71611000D02*
X148122000Y-71611000D01*
X142454000Y-71611000D02*
X144248000Y-71611000D01*
X146328000Y-71651000D02*
X148144000Y-71651000D01*
X142432000Y-71651000D02*
X144248000Y-71651000D01*
X146328000Y-71691000D02*
X148164000Y-71691000D01*
X142412000Y-71691000D02*
X144248000Y-71691000D01*
X146328000Y-71731000D02*
X148184000Y-71731000D01*
X142392000Y-71731000D02*
X144248000Y-71731000D01*
X146328000Y-71771000D02*
X148204000Y-71771000D01*
X142372000Y-71771000D02*
X144248000Y-71771000D01*
X146328000Y-71811000D02*
X148222000Y-71811000D01*
X142354000Y-71811000D02*
X144248000Y-71811000D01*
X146328000Y-71851000D02*
X148240000Y-71851000D01*
X142336000Y-71851000D02*
X144248000Y-71851000D01*
X146328000Y-71891000D02*
X148258000Y-71891000D01*
X142318000Y-71891000D02*
X144248000Y-71891000D01*
X146328000Y-71931000D02*
X148274000Y-71931000D01*
X142302000Y-71931000D02*
X144248000Y-71931000D01*
X146328000Y-71971000D02*
X148290000Y-71971000D01*
X142286000Y-71971000D02*
X144248000Y-71971000D01*
X146328000Y-72011000D02*
X148306000Y-72011000D01*
X142270000Y-72011000D02*
X144248000Y-72011000D01*
X146328000Y-72051000D02*
X148321000Y-72051000D01*
X142255000Y-72051000D02*
X144248000Y-72051000D01*
X146328000Y-72091000D02*
X148335000Y-72091000D01*
X142241000Y-72091000D02*
X144248000Y-72091000D01*
X146328000Y-72131000D02*
X148349000Y-72131000D01*
X142227000Y-72131000D02*
X144248000Y-72131000D01*
X146328000Y-72171000D02*
X148362000Y-72171000D01*
X142214000Y-72171000D02*
X144248000Y-72171000D01*
X146328000Y-72211000D02*
X148374000Y-72211000D01*
X142202000Y-72211000D02*
X144248000Y-72211000D01*
X146328000Y-72251000D02*
X148386000Y-72251000D01*
X142190000Y-72251000D02*
X144248000Y-72251000D01*
X146328000Y-72291000D02*
X148398000Y-72291000D01*
X142178000Y-72291000D02*
X144248000Y-72291000D01*
X146328000Y-72331000D02*
X148409000Y-72331000D01*
X142167000Y-72331000D02*
X144248000Y-72331000D01*
X146328000Y-72371000D02*
X148419000Y-72371000D01*
X142157000Y-72371000D02*
X144248000Y-72371000D01*
X146328000Y-72411000D02*
X148429000Y-72411000D01*
X142147000Y-72411000D02*
X144248000Y-72411000D01*
X146328000Y-72451000D02*
X148438000Y-72451000D01*
X142138000Y-72451000D02*
X144248000Y-72451000D01*
X146328000Y-72492000D02*
X148447000Y-72492000D01*
X142129000Y-72492000D02*
X144248000Y-72492000D01*
X146328000Y-72532000D02*
X148455000Y-72532000D01*
X142121000Y-72532000D02*
X144248000Y-72532000D01*
X146328000Y-72572000D02*
X148463000Y-72572000D01*
X142113000Y-72572000D02*
X144248000Y-72572000D01*
X146328000Y-72612000D02*
X148470000Y-72612000D01*
X142106000Y-72612000D02*
X144248000Y-72612000D01*
X146328000Y-72652000D02*
X148477000Y-72652000D01*
X142099000Y-72652000D02*
X144248000Y-72652000D01*
X146328000Y-72692000D02*
X148483000Y-72692000D01*
X142093000Y-72692000D02*
X144248000Y-72692000D01*
X146328000Y-72732000D02*
X148489000Y-72732000D01*
X142087000Y-72732000D02*
X144248000Y-72732000D01*
X146328000Y-72772000D02*
X148494000Y-72772000D01*
X142082000Y-72772000D02*
X144248000Y-72772000D01*
X146328000Y-72812000D02*
X148499000Y-72812000D01*
X142077000Y-72812000D02*
X144248000Y-72812000D01*
X146328000Y-72852000D02*
X148503000Y-72852000D01*
X142073000Y-72852000D02*
X144248000Y-72852000D01*
X146328000Y-72892000D02*
X148506000Y-72892000D01*
X142070000Y-72892000D02*
X144248000Y-72892000D01*
X146328000Y-72932000D02*
X148510000Y-72932000D01*
X142066000Y-72932000D02*
X144248000Y-72932000D01*
X142064000Y-72972000D02*
X148512000Y-72972000D01*
X142061000Y-73012000D02*
X148515000Y-73012000D01*
X142060000Y-73052000D02*
X148516000Y-73052000D01*
X142058000Y-73092000D02*
X148518000Y-73092000D01*
X142058000Y-73132000D02*
X148518000Y-73132000D01*
X142058000Y-73172000D02*
X148518000Y-73172000D01*
X148558000Y-73172000D02*
G75*
G03X148558000Y-73172000I-3270000J0D01*
G01*
X124908000Y-100136000D02*
X130108000Y-100136000D01*
X124908000Y-92456000D02*
X124908000Y-100136000D01*
X130108000Y-89856000D02*
X130108000Y-100136000D01*
X124908000Y-92456000D02*
X127508000Y-92456000D01*
X127508000Y-92456000D02*
X127508000Y-89856000D01*
X127508000Y-89856000D02*
X130108000Y-89856000D01*
X124908000Y-91186000D02*
X124908000Y-89856000D01*
X124908000Y-89856000D02*
X126238000Y-89856000D01*
X194823434Y-80028110D02*
G75*
G02X194825000Y-82024000I70566J-997890D01*
G01*
X194551767Y-83586085D02*
G75*
G02X194552000Y-85466000I342233J-939915D01*
G01*
X194551767Y-87086085D02*
G75*
G02X194552000Y-88966000I342233J-939915D01*
G01*
X194551767Y-90586085D02*
G75*
G02X194552000Y-92466000I342233J-939915D01*
G01*
X192193000Y-78716000D02*
X192193000Y-79486000D01*
X192193000Y-82566000D02*
X192193000Y-83393000D01*
X192193000Y-85660000D02*
X192193000Y-86893000D01*
X192193000Y-89160000D02*
X192193000Y-90393000D01*
X192193000Y-92660000D02*
X192193000Y-93836000D01*
X197054000Y-78716000D02*
X197054000Y-93836000D01*
X188634000Y-78716000D02*
X188634000Y-93836000D01*
X197054000Y-78716000D02*
X188634000Y-78716000D01*
X197054000Y-93836000D02*
X188634000Y-93836000D01*
X196294000Y-79626000D02*
X196294000Y-82426000D01*
X196294000Y-79626000D02*
X194834000Y-79626000D01*
X196294000Y-82426000D02*
X194834000Y-82426000D01*
X196294000Y-83126000D02*
X196294000Y-85926000D01*
X192544000Y-83126000D02*
X192544000Y-83127000D01*
X192544000Y-85926000D02*
X192544000Y-85926000D01*
X196294000Y-83126000D02*
X193983000Y-83126000D01*
X192605000Y-83126000D02*
X192544000Y-83126000D01*
X196294000Y-85926000D02*
X193983000Y-85926000D01*
X192605000Y-85926000D02*
X192544000Y-85926000D01*
X196294000Y-86626000D02*
X196294000Y-89426000D01*
X192544000Y-86626000D02*
X192544000Y-86627000D01*
X192544000Y-89426000D02*
X192544000Y-89426000D01*
X196294000Y-86626000D02*
X193983000Y-86626000D01*
X192605000Y-86626000D02*
X192544000Y-86626000D01*
X196294000Y-89426000D02*
X193983000Y-89426000D01*
X192605000Y-89426000D02*
X192544000Y-89426000D01*
X196294000Y-90126000D02*
X196294000Y-92926000D01*
X192544000Y-90126000D02*
X192544000Y-90127000D01*
X192544000Y-92926000D02*
X192544000Y-92926000D01*
X196294000Y-90126000D02*
X193983000Y-90126000D01*
X192605000Y-90126000D02*
X192544000Y-90126000D01*
X196294000Y-92926000D02*
X193983000Y-92926000D01*
X192605000Y-92926000D02*
X192544000Y-92926000D01*
X190634000Y-78476000D02*
X188394000Y-78476000D01*
X188394000Y-78476000D02*
X188394000Y-80476000D01*
X129226000Y-85538000D02*
X129226000Y-88198000D01*
X134366000Y-85538000D02*
X129226000Y-85538000D01*
X134366000Y-88198000D02*
X129226000Y-88198000D01*
X134366000Y-85538000D02*
X134366000Y-88198000D01*
X135636000Y-85538000D02*
X136966000Y-85538000D01*
X136966000Y-85538000D02*
X136966000Y-86868000D01*
X163730000Y-98266000D02*
X164060000Y-98266000D01*
X163730000Y-91726000D02*
X163730000Y-98266000D01*
X164060000Y-91726000D02*
X163730000Y-91726000D01*
X166470000Y-98266000D02*
X166140000Y-98266000D01*
X166470000Y-91726000D02*
X166470000Y-98266000D01*
X166140000Y-91726000D02*
X166470000Y-91726000D01*
X162838000Y-91726000D02*
X163168000Y-91726000D01*
X163168000Y-91726000D02*
X163168000Y-98266000D01*
X163168000Y-98266000D02*
X162838000Y-98266000D01*
X160758000Y-91726000D02*
X160428000Y-91726000D01*
X160428000Y-91726000D02*
X160428000Y-98266000D01*
X160428000Y-98266000D02*
X160758000Y-98266000D01*
X196310000Y-66394000D02*
X196310000Y-66064000D01*
X189770000Y-66394000D02*
X196310000Y-66394000D01*
X189770000Y-66064000D02*
X189770000Y-66394000D01*
X196310000Y-63654000D02*
X196310000Y-63984000D01*
X189770000Y-63654000D02*
X196310000Y-63654000D01*
X189770000Y-63984000D02*
X189770000Y-63654000D01*
X181078000Y-86582000D02*
X180748000Y-86582000D01*
X180748000Y-86582000D02*
X180748000Y-80042000D01*
X180748000Y-80042000D02*
X181078000Y-80042000D01*
X183158000Y-86582000D02*
X183488000Y-86582000D01*
X183488000Y-86582000D02*
X183488000Y-80042000D01*
X183488000Y-80042000D02*
X183158000Y-80042000D01*
X181078000Y-96996000D02*
X180748000Y-96996000D01*
X180748000Y-96996000D02*
X180748000Y-90456000D01*
X180748000Y-90456000D02*
X181078000Y-90456000D01*
X183158000Y-96996000D02*
X183488000Y-96996000D01*
X183488000Y-96996000D02*
X183488000Y-90456000D01*
X183488000Y-90456000D02*
X183158000Y-90456000D01*
X186790000Y-93250000D02*
X186460000Y-93250000D01*
X186790000Y-99790000D02*
X186790000Y-93250000D01*
X186460000Y-99790000D02*
X186790000Y-99790000D01*
X184050000Y-93250000D02*
X184380000Y-93250000D01*
X184050000Y-99790000D02*
X184050000Y-93250000D01*
X184380000Y-99790000D02*
X184050000Y-99790000D01*
X128778000Y-81658000D02*
X128778000Y-84458000D01*
X139108000Y-81658000D02*
X126068000Y-81658000D01*
X139108000Y-84458000D02*
X139108000Y-81658000D01*
X126068000Y-84458000D02*
X139108000Y-84458000D01*
X126068000Y-81658000D02*
X126068000Y-84458000D01*
X126219001Y-64640000D02*
X126219001Y-67440000D01*
X126219001Y-67440000D02*
X139259001Y-67440000D01*
X139259001Y-67440000D02*
X139259001Y-64640000D01*
X139259001Y-64640000D02*
X126219001Y-64640000D01*
X128929001Y-64640000D02*
X128929001Y-67440000D01*
X155135000Y-78442000D02*
X164905000Y-78442000D01*
X155135000Y-88212000D02*
X164905000Y-88212000D01*
X164905000Y-88212000D02*
X164905000Y-78442000D01*
X155135000Y-88212000D02*
X155135000Y-78442000D01*
X144975000Y-88212000D02*
X144975000Y-78442000D01*
X154745000Y-88212000D02*
X154745000Y-78442000D01*
X144975000Y-88212000D02*
X154745000Y-88212000D01*
X144975000Y-78442000D02*
X154745000Y-78442000D01*
X127628000Y-79626000D02*
X127628000Y-69726000D01*
X140088000Y-79626000D02*
X140088000Y-69726000D01*
X127628000Y-79626000D02*
X140088000Y-79626000D01*
X127628000Y-69726000D02*
X140088000Y-69726000D01*
X127388000Y-79866000D02*
X127388000Y-78482000D01*
X127388000Y-79866000D02*
X128771000Y-79866000D01*
X129413000Y-76706000D02*
X130683000Y-76706000D01*
X130683000Y-76706000D02*
X130683000Y-72646000D01*
X130683000Y-72646000D02*
X129413000Y-72646000D01*
X129413000Y-72646000D02*
X129413000Y-76706000D01*
X129533000Y-76706000D02*
X129533000Y-75352667D01*
X129653000Y-76706000D02*
X129653000Y-75352667D01*
X129773000Y-76706000D02*
X129773000Y-75352667D01*
X129893000Y-76706000D02*
X129893000Y-75352667D01*
X130013000Y-76706000D02*
X130013000Y-75352667D01*
X130133000Y-76706000D02*
X130133000Y-75352667D01*
X130253000Y-76706000D02*
X130253000Y-75352667D01*
X130373000Y-76706000D02*
X130373000Y-75352667D01*
X130493000Y-76706000D02*
X130493000Y-75352667D01*
X130613000Y-76706000D02*
X130613000Y-75352667D01*
X129413000Y-75352667D02*
X130683000Y-75352667D01*
X131953000Y-76706000D02*
X133223000Y-76706000D01*
X133223000Y-76706000D02*
X133223000Y-72646000D01*
X133223000Y-72646000D02*
X131953000Y-72646000D01*
X131953000Y-72646000D02*
X131953000Y-76706000D01*
X132073000Y-76706000D02*
X132073000Y-75352667D01*
X132193000Y-76706000D02*
X132193000Y-75352667D01*
X132313000Y-76706000D02*
X132313000Y-75352667D01*
X132433000Y-76706000D02*
X132433000Y-75352667D01*
X132553000Y-76706000D02*
X132553000Y-75352667D01*
X132673000Y-76706000D02*
X132673000Y-75352667D01*
X132793000Y-76706000D02*
X132793000Y-75352667D01*
X132913000Y-76706000D02*
X132913000Y-75352667D01*
X133033000Y-76706000D02*
X133033000Y-75352667D01*
X133153000Y-76706000D02*
X133153000Y-75352667D01*
X131953000Y-75352667D02*
X133223000Y-75352667D01*
X134493000Y-76706000D02*
X135763000Y-76706000D01*
X135763000Y-76706000D02*
X135763000Y-72646000D01*
X135763000Y-72646000D02*
X134493000Y-72646000D01*
X134493000Y-72646000D02*
X134493000Y-76706000D01*
X134613000Y-76706000D02*
X134613000Y-75352667D01*
X134733000Y-76706000D02*
X134733000Y-75352667D01*
X134853000Y-76706000D02*
X134853000Y-75352667D01*
X134973000Y-76706000D02*
X134973000Y-75352667D01*
X135093000Y-76706000D02*
X135093000Y-75352667D01*
X135213000Y-76706000D02*
X135213000Y-75352667D01*
X135333000Y-76706000D02*
X135333000Y-75352667D01*
X135453000Y-76706000D02*
X135453000Y-75352667D01*
X135573000Y-76706000D02*
X135573000Y-75352667D01*
X135693000Y-76706000D02*
X135693000Y-75352667D01*
X134493000Y-75352667D02*
X135763000Y-75352667D01*
X137033000Y-76706000D02*
X138303000Y-76706000D01*
X138303000Y-76706000D02*
X138303000Y-72646000D01*
X138303000Y-72646000D02*
X137033000Y-72646000D01*
X137033000Y-72646000D02*
X137033000Y-76706000D01*
X137153000Y-76706000D02*
X137153000Y-75352667D01*
X137273000Y-76706000D02*
X137273000Y-75352667D01*
X137393000Y-76706000D02*
X137393000Y-75352667D01*
X137513000Y-76706000D02*
X137513000Y-75352667D01*
X137633000Y-76706000D02*
X137633000Y-75352667D01*
X137753000Y-76706000D02*
X137753000Y-75352667D01*
X137873000Y-76706000D02*
X137873000Y-75352667D01*
X137993000Y-76706000D02*
X137993000Y-75352667D01*
X138113000Y-76706000D02*
X138113000Y-75352667D01*
X138233000Y-76706000D02*
X138233000Y-75352667D01*
X137033000Y-75352667D02*
X138303000Y-75352667D01*
X158302000Y-95996000D02*
G75*
G02X158302000Y-93996000I0J1000000D01*
G01*
X158302000Y-93996000D02*
X158302000Y-92746000D01*
X158302000Y-92746000D02*
X132782000Y-92746000D01*
X132782000Y-92746000D02*
X132782000Y-97246000D01*
X132782000Y-97246000D02*
X158302000Y-97246000D01*
X158302000Y-97246000D02*
X158302000Y-95996000D01*
X158362000Y-89746000D02*
X132722000Y-89746000D01*
X132722000Y-89746000D02*
X132722000Y-100246000D01*
X132722000Y-100246000D02*
X158362000Y-100246000D01*
X158362000Y-100246000D02*
X158362000Y-89746000D01*
X172990000Y-98866000D02*
G75*
G02X174990000Y-98866000I1000000J0D01*
G01*
X174990000Y-98866000D02*
X176240000Y-98866000D01*
X176240000Y-98866000D02*
X176240000Y-91126000D01*
X176240000Y-91126000D02*
X171740000Y-91126000D01*
X171740000Y-91126000D02*
X171740000Y-98866000D01*
X171740000Y-98866000D02*
X172990000Y-98866000D01*
X179240000Y-98926000D02*
X179240000Y-91066000D01*
X179240000Y-91066000D02*
X168740000Y-91066000D01*
X168740000Y-91066000D02*
X168740000Y-98926000D01*
X168740000Y-98926000D02*
X179240000Y-98926000D01*
X161096000Y-70088000D02*
G75*
G02X161096000Y-68088000I0J1000000D01*
G01*
X161096000Y-68088000D02*
X161096000Y-66838000D01*
X161096000Y-66838000D02*
X150816000Y-66838000D01*
X150816000Y-66838000D02*
X150816000Y-71338000D01*
X150816000Y-71338000D02*
X161096000Y-71338000D01*
X161096000Y-71338000D02*
X161096000Y-70088000D01*
X161156000Y-63838000D02*
X150756000Y-63838000D01*
X150756000Y-63838000D02*
X150756000Y-74338000D01*
X150756000Y-74338000D02*
X161156000Y-74338000D01*
X161156000Y-74338000D02*
X161156000Y-63838000D01*
X179494000Y-79636000D02*
X168994000Y-79636000D01*
X179494000Y-87496000D02*
X179494000Y-79636000D01*
X168994000Y-87496000D02*
X179494000Y-87496000D01*
X168994000Y-79636000D02*
X168994000Y-87496000D01*
X176494000Y-79696000D02*
X175244000Y-79696000D01*
X176494000Y-87436000D02*
X176494000Y-79696000D01*
X171994000Y-87436000D02*
X176494000Y-87436000D01*
X171994000Y-79696000D02*
X171994000Y-87436000D01*
X173244000Y-79696000D02*
X171994000Y-79696000D01*
X175244000Y-79696000D02*
G75*
G02X173244000Y-79696000I-1000000J0D01*
G01*
X189604000Y-77256000D02*
X189604000Y-67016000D01*
X173714000Y-77256000D02*
X173714000Y-67016000D01*
X173714000Y-77256000D02*
X189604000Y-77256000D01*
X173714000Y-67016000D02*
X189604000Y-67016000D01*
X189604000Y-74676000D02*
X192144000Y-74676000D01*
X189604000Y-72136000D02*
X192144000Y-72136000D01*
X189604000Y-69596000D02*
X192144000Y-69596000D01*
X185233000Y-65709000D02*
X186623000Y-65709000D01*
X185233000Y-65709000D02*
X185233000Y-65584000D01*
X186623000Y-65709000D02*
X186623000Y-65584000D01*
X185233000Y-65709000D02*
X185319724Y-65709000D01*
X186536276Y-65709000D02*
X186623000Y-65709000D01*
X185233000Y-65024000D02*
X185233000Y-64339000D01*
X185233000Y-64339000D02*
X185928000Y-64339000D01*
X185233000Y-63677000D02*
X186623000Y-63677000D01*
X185233000Y-63677000D02*
X185233000Y-63552000D01*
X186623000Y-63677000D02*
X186623000Y-63552000D01*
X185233000Y-63677000D02*
X185319724Y-63677000D01*
X186536276Y-63677000D02*
X186623000Y-63677000D01*
X185233000Y-62992000D02*
X185233000Y-62307000D01*
X185233000Y-62307000D02*
X185928000Y-62307000D01*
D10*
X170111142Y-73084666D02*
X170158761Y-73132285D01*
X170206380Y-73275142D01*
X170206380Y-73370380D01*
X170158761Y-73513238D01*
X170063523Y-73608476D01*
X169968285Y-73656095D01*
X169777809Y-73703714D01*
X169634952Y-73703714D01*
X169444476Y-73656095D01*
X169349238Y-73608476D01*
X169254000Y-73513238D01*
X169206380Y-73370380D01*
X169206380Y-73275142D01*
X169254000Y-73132285D01*
X169301619Y-73084666D01*
X170206380Y-72132285D02*
X170206380Y-72703714D01*
X170206380Y-72418000D02*
X169206380Y-72418000D01*
X169349238Y-72513238D01*
X169444476Y-72608476D01*
X169492095Y-72703714D01*
X161311142Y-65170666D02*
X161358761Y-65218285D01*
X161406380Y-65361142D01*
X161406380Y-65456380D01*
X161358761Y-65599238D01*
X161263523Y-65694476D01*
X161168285Y-65742095D01*
X160977809Y-65789714D01*
X160834952Y-65789714D01*
X160644476Y-65742095D01*
X160549238Y-65694476D01*
X160454000Y-65599238D01*
X160406380Y-65456380D01*
X160406380Y-65361142D01*
X160454000Y-65218285D01*
X160501619Y-65170666D01*
X160501619Y-64789714D02*
X160454000Y-64742095D01*
X160406380Y-64646857D01*
X160406380Y-64408761D01*
X160454000Y-64313523D01*
X160501619Y-64265904D01*
X160596857Y-64218285D01*
X160692095Y-64218285D01*
X160834952Y-64265904D01*
X161406380Y-64837333D01*
X161406380Y-64218285D01*
X150045142Y-65464666D02*
X150092761Y-65512285D01*
X150140380Y-65655142D01*
X150140380Y-65750380D01*
X150092761Y-65893238D01*
X149997523Y-65988476D01*
X149902285Y-66036095D01*
X149711809Y-66083714D01*
X149568952Y-66083714D01*
X149378476Y-66036095D01*
X149283238Y-65988476D01*
X149188000Y-65893238D01*
X149140380Y-65750380D01*
X149140380Y-65655142D01*
X149188000Y-65512285D01*
X149235619Y-65464666D01*
X149140380Y-65131333D02*
X149140380Y-64512285D01*
X149521333Y-64845619D01*
X149521333Y-64702761D01*
X149568952Y-64607523D01*
X149616571Y-64559904D01*
X149711809Y-64512285D01*
X149949904Y-64512285D01*
X150045142Y-64559904D01*
X150092761Y-64607523D01*
X150140380Y-64702761D01*
X150140380Y-64988476D01*
X150092761Y-65083714D01*
X150045142Y-65131333D01*
X141245142Y-73338666D02*
X141292761Y-73386285D01*
X141340380Y-73529142D01*
X141340380Y-73624380D01*
X141292761Y-73767238D01*
X141197523Y-73862476D01*
X141102285Y-73910095D01*
X140911809Y-73957714D01*
X140768952Y-73957714D01*
X140578476Y-73910095D01*
X140483238Y-73862476D01*
X140388000Y-73767238D01*
X140340380Y-73624380D01*
X140340380Y-73529142D01*
X140388000Y-73386285D01*
X140435619Y-73338666D01*
X140673714Y-72481523D02*
X141340380Y-72481523D01*
X140292761Y-72719619D02*
X141007047Y-72957714D01*
X141007047Y-72338666D01*
X127174666Y-88308380D02*
X127174666Y-89022666D01*
X127127047Y-89165523D01*
X127031809Y-89260761D01*
X126888952Y-89308380D01*
X126793714Y-89308380D01*
X128174666Y-89308380D02*
X127603238Y-89308380D01*
X127888952Y-89308380D02*
X127888952Y-88308380D01*
X127793714Y-88451238D01*
X127698476Y-88546476D01*
X127603238Y-88594095D01*
X196516666Y-94702380D02*
X196516666Y-95416666D01*
X196469047Y-95559523D01*
X196373809Y-95654761D01*
X196230952Y-95702380D01*
X196135714Y-95702380D01*
X196945238Y-94797619D02*
X196992857Y-94750000D01*
X197088095Y-94702380D01*
X197326190Y-94702380D01*
X197421428Y-94750000D01*
X197469047Y-94797619D01*
X197516666Y-94892857D01*
X197516666Y-94988095D01*
X197469047Y-95130952D01*
X196897619Y-95702380D01*
X197516666Y-95702380D01*
X137418380Y-87701333D02*
X138132666Y-87701333D01*
X138275523Y-87748952D01*
X138370761Y-87844190D01*
X138418380Y-87987047D01*
X138418380Y-88082285D01*
X138418380Y-87225142D02*
X137418380Y-87225142D01*
X137418380Y-86844190D01*
X137466000Y-86748952D01*
X137513619Y-86701333D01*
X137608857Y-86653714D01*
X137751714Y-86653714D01*
X137846952Y-86701333D01*
X137894571Y-86748952D01*
X137942190Y-86844190D01*
X137942190Y-87225142D01*
X138418380Y-85701333D02*
X138418380Y-86272761D01*
X138418380Y-85987047D02*
X137418380Y-85987047D01*
X137561238Y-86082285D01*
X137656476Y-86177523D01*
X137704095Y-86272761D01*
X167922380Y-95162666D02*
X167446190Y-95496000D01*
X167922380Y-95734095D02*
X166922380Y-95734095D01*
X166922380Y-95353142D01*
X166970000Y-95257904D01*
X167017619Y-95210285D01*
X167112857Y-95162666D01*
X167255714Y-95162666D01*
X167350952Y-95210285D01*
X167398571Y-95257904D01*
X167446190Y-95353142D01*
X167446190Y-95734095D01*
X167922380Y-94210285D02*
X167922380Y-94781714D01*
X167922380Y-94496000D02*
X166922380Y-94496000D01*
X167065238Y-94591238D01*
X167160476Y-94686476D01*
X167208095Y-94781714D01*
X164620380Y-95162666D02*
X164144190Y-95496000D01*
X164620380Y-95734095D02*
X163620380Y-95734095D01*
X163620380Y-95353142D01*
X163668000Y-95257904D01*
X163715619Y-95210285D01*
X163810857Y-95162666D01*
X163953714Y-95162666D01*
X164048952Y-95210285D01*
X164096571Y-95257904D01*
X164144190Y-95353142D01*
X164144190Y-95734095D01*
X163715619Y-94781714D02*
X163668000Y-94734095D01*
X163620380Y-94638857D01*
X163620380Y-94400761D01*
X163668000Y-94305523D01*
X163715619Y-94257904D01*
X163810857Y-94210285D01*
X163906095Y-94210285D01*
X164048952Y-94257904D01*
X164620380Y-94829333D01*
X164620380Y-94210285D01*
X192873333Y-63106380D02*
X192540000Y-62630190D01*
X192301904Y-63106380D02*
X192301904Y-62106380D01*
X192682857Y-62106380D01*
X192778095Y-62154000D01*
X192825714Y-62201619D01*
X192873333Y-62296857D01*
X192873333Y-62439714D01*
X192825714Y-62534952D01*
X192778095Y-62582571D01*
X192682857Y-62630190D01*
X192301904Y-62630190D01*
X193206666Y-62106380D02*
X193825714Y-62106380D01*
X193492380Y-62487333D01*
X193635238Y-62487333D01*
X193730476Y-62534952D01*
X193778095Y-62582571D01*
X193825714Y-62677809D01*
X193825714Y-62915904D01*
X193778095Y-63011142D01*
X193730476Y-63058761D01*
X193635238Y-63106380D01*
X193349523Y-63106380D01*
X193254285Y-63058761D01*
X193206666Y-63011142D01*
X180200380Y-83478666D02*
X179724190Y-83812000D01*
X180200380Y-84050095D02*
X179200380Y-84050095D01*
X179200380Y-83669142D01*
X179248000Y-83573904D01*
X179295619Y-83526285D01*
X179390857Y-83478666D01*
X179533714Y-83478666D01*
X179628952Y-83526285D01*
X179676571Y-83573904D01*
X179724190Y-83669142D01*
X179724190Y-84050095D01*
X179533714Y-82621523D02*
X180200380Y-82621523D01*
X179152761Y-82859619D02*
X179867047Y-83097714D01*
X179867047Y-82478666D01*
X180200380Y-93892666D02*
X179724190Y-94226000D01*
X180200380Y-94464095D02*
X179200380Y-94464095D01*
X179200380Y-94083142D01*
X179248000Y-93987904D01*
X179295619Y-93940285D01*
X179390857Y-93892666D01*
X179533714Y-93892666D01*
X179628952Y-93940285D01*
X179676571Y-93987904D01*
X179724190Y-94083142D01*
X179724190Y-94464095D01*
X179200380Y-92987904D02*
X179200380Y-93464095D01*
X179676571Y-93511714D01*
X179628952Y-93464095D01*
X179581333Y-93368857D01*
X179581333Y-93130761D01*
X179628952Y-93035523D01*
X179676571Y-92987904D01*
X179771809Y-92940285D01*
X180009904Y-92940285D01*
X180105142Y-92987904D01*
X180152761Y-93035523D01*
X180200380Y-93130761D01*
X180200380Y-93368857D01*
X180152761Y-93464095D01*
X180105142Y-93511714D01*
X183502380Y-96686666D02*
X183026190Y-97020000D01*
X183502380Y-97258095D02*
X182502380Y-97258095D01*
X182502380Y-96877142D01*
X182550000Y-96781904D01*
X182597619Y-96734285D01*
X182692857Y-96686666D01*
X182835714Y-96686666D01*
X182930952Y-96734285D01*
X182978571Y-96781904D01*
X183026190Y-96877142D01*
X183026190Y-97258095D01*
X182502380Y-95829523D02*
X182502380Y-96020000D01*
X182550000Y-96115238D01*
X182597619Y-96162857D01*
X182740476Y-96258095D01*
X182930952Y-96305714D01*
X183311904Y-96305714D01*
X183407142Y-96258095D01*
X183454761Y-96210476D01*
X183502380Y-96115238D01*
X183502380Y-95924761D01*
X183454761Y-95829523D01*
X183407142Y-95781904D01*
X183311904Y-95734285D01*
X183073809Y-95734285D01*
X182978571Y-95781904D01*
X182930952Y-95829523D01*
X182883333Y-95924761D01*
X182883333Y-96115238D01*
X182930952Y-96210476D01*
X182978571Y-96258095D01*
X183073809Y-96305714D01*
X133167523Y-81110380D02*
X132834190Y-80634190D01*
X132596095Y-81110380D02*
X132596095Y-80110380D01*
X132977047Y-80110380D01*
X133072285Y-80158000D01*
X133119904Y-80205619D01*
X133167523Y-80300857D01*
X133167523Y-80443714D01*
X133119904Y-80538952D01*
X133072285Y-80586571D01*
X132977047Y-80634190D01*
X132596095Y-80634190D01*
X133596095Y-81110380D02*
X133596095Y-80110380D01*
X134167523Y-81110380D01*
X134167523Y-80110380D01*
X135167523Y-81110380D02*
X134596095Y-81110380D01*
X134881809Y-81110380D02*
X134881809Y-80110380D01*
X134786571Y-80253238D01*
X134691333Y-80348476D01*
X134596095Y-80396095D01*
X133318524Y-64092380D02*
X132985191Y-63616190D01*
X132747096Y-64092380D02*
X132747096Y-63092380D01*
X133128048Y-63092380D01*
X133223286Y-63140000D01*
X133270905Y-63187619D01*
X133318524Y-63282857D01*
X133318524Y-63425714D01*
X133270905Y-63520952D01*
X133223286Y-63568571D01*
X133128048Y-63616190D01*
X132747096Y-63616190D01*
X133747096Y-64092380D02*
X133747096Y-63092380D01*
X134318524Y-64092380D01*
X134318524Y-63092380D01*
X134747096Y-63187619D02*
X134794715Y-63140000D01*
X134889953Y-63092380D01*
X135128048Y-63092380D01*
X135223286Y-63140000D01*
X135270905Y-63187619D01*
X135318524Y-63282857D01*
X135318524Y-63378095D01*
X135270905Y-63520952D01*
X134699477Y-64092380D01*
X135318524Y-64092380D01*
X154457380Y-83922238D02*
X153981190Y-84255571D01*
X154457380Y-84493666D02*
X153457380Y-84493666D01*
X153457380Y-84112714D01*
X153505000Y-84017476D01*
X153552619Y-83969857D01*
X153647857Y-83922238D01*
X153790714Y-83922238D01*
X153885952Y-83969857D01*
X153933571Y-84017476D01*
X153981190Y-84112714D01*
X153981190Y-84493666D01*
X153457380Y-83636523D02*
X154457380Y-83303190D01*
X153457380Y-82969857D01*
X154457380Y-82112714D02*
X154457380Y-82684142D01*
X154457380Y-82398428D02*
X153457380Y-82398428D01*
X153600238Y-82493666D01*
X153695476Y-82588904D01*
X153743095Y-82684142D01*
X144297380Y-83922238D02*
X143821190Y-84255571D01*
X144297380Y-84493666D02*
X143297380Y-84493666D01*
X143297380Y-84112714D01*
X143345000Y-84017476D01*
X143392619Y-83969857D01*
X143487857Y-83922238D01*
X143630714Y-83922238D01*
X143725952Y-83969857D01*
X143773571Y-84017476D01*
X143821190Y-84112714D01*
X143821190Y-84493666D01*
X143297380Y-83636523D02*
X144297380Y-83303190D01*
X143297380Y-82969857D01*
X143392619Y-82684142D02*
X143345000Y-82636523D01*
X143297380Y-82541285D01*
X143297380Y-82303190D01*
X143345000Y-82207952D01*
X143392619Y-82160333D01*
X143487857Y-82112714D01*
X143583095Y-82112714D01*
X143725952Y-82160333D01*
X144297380Y-82731761D01*
X144297380Y-82112714D01*
X127032761Y-76009333D02*
X127080380Y-75866476D01*
X127080380Y-75628380D01*
X127032761Y-75533142D01*
X126985142Y-75485523D01*
X126889904Y-75437904D01*
X126794666Y-75437904D01*
X126699428Y-75485523D01*
X126651809Y-75533142D01*
X126604190Y-75628380D01*
X126556571Y-75818857D01*
X126508952Y-75914095D01*
X126461333Y-75961714D01*
X126366095Y-76009333D01*
X126270857Y-76009333D01*
X126175619Y-75961714D01*
X126128000Y-75914095D01*
X126080380Y-75818857D01*
X126080380Y-75580761D01*
X126128000Y-75437904D01*
X126080380Y-75104571D02*
X127080380Y-74866476D01*
X126366095Y-74676000D01*
X127080380Y-74485523D01*
X126080380Y-74247428D01*
X127080380Y-73342666D02*
X127080380Y-73914095D01*
X127080380Y-73628380D02*
X126080380Y-73628380D01*
X126223238Y-73723619D01*
X126318476Y-73818857D01*
X126366095Y-73914095D01*
X158754380Y-95757904D02*
X159563904Y-95757904D01*
X159659142Y-95710285D01*
X159706761Y-95662666D01*
X159754380Y-95567428D01*
X159754380Y-95376952D01*
X159706761Y-95281714D01*
X159659142Y-95234095D01*
X159563904Y-95186476D01*
X158754380Y-95186476D01*
X159754380Y-94186476D02*
X159754380Y-94757904D01*
X159754380Y-94472190D02*
X158754380Y-94472190D01*
X158897238Y-94567428D01*
X158992476Y-94662666D01*
X159040095Y-94757904D01*
X173228095Y-99318380D02*
X173228095Y-100127904D01*
X173275714Y-100223142D01*
X173323333Y-100270761D01*
X173418571Y-100318380D01*
X173609047Y-100318380D01*
X173704285Y-100270761D01*
X173751904Y-100223142D01*
X173799523Y-100127904D01*
X173799523Y-99318380D01*
X174228095Y-99413619D02*
X174275714Y-99366000D01*
X174370952Y-99318380D01*
X174609047Y-99318380D01*
X174704285Y-99366000D01*
X174751904Y-99413619D01*
X174799523Y-99508857D01*
X174799523Y-99604095D01*
X174751904Y-99746952D01*
X174180476Y-100318380D01*
X174799523Y-100318380D01*
X161548380Y-69849904D02*
X162357904Y-69849904D01*
X162453142Y-69802285D01*
X162500761Y-69754666D01*
X162548380Y-69659428D01*
X162548380Y-69468952D01*
X162500761Y-69373714D01*
X162453142Y-69326095D01*
X162357904Y-69278476D01*
X161548380Y-69278476D01*
X161548380Y-68897523D02*
X161548380Y-68278476D01*
X161929333Y-68611809D01*
X161929333Y-68468952D01*
X161976952Y-68373714D01*
X162024571Y-68326095D01*
X162119809Y-68278476D01*
X162357904Y-68278476D01*
X162453142Y-68326095D01*
X162500761Y-68373714D01*
X162548380Y-68468952D01*
X162548380Y-68754666D01*
X162500761Y-68849904D01*
X162453142Y-68897523D01*
X173482095Y-78148380D02*
X173482095Y-78957904D01*
X173529714Y-79053142D01*
X173577333Y-79100761D01*
X173672571Y-79148380D01*
X173863047Y-79148380D01*
X173958285Y-79100761D01*
X174005904Y-79053142D01*
X174053523Y-78957904D01*
X174053523Y-78148380D01*
X174958285Y-78481714D02*
X174958285Y-79148380D01*
X174720190Y-78100761D02*
X174482095Y-78815047D01*
X175101142Y-78815047D01*
X173261619Y-72231238D02*
X173214000Y-72326476D01*
X173118761Y-72421714D01*
X172975904Y-72564571D01*
X172928285Y-72659809D01*
X172928285Y-72755047D01*
X173166380Y-72707428D02*
X173118761Y-72802666D01*
X173023523Y-72897904D01*
X172833047Y-72945523D01*
X172499714Y-72945523D01*
X172309238Y-72897904D01*
X172214000Y-72802666D01*
X172166380Y-72707428D01*
X172166380Y-72516952D01*
X172214000Y-72421714D01*
X172309238Y-72326476D01*
X172499714Y-72278857D01*
X172833047Y-72278857D01*
X173023523Y-72326476D01*
X173118761Y-72421714D01*
X173166380Y-72516952D01*
X173166380Y-72707428D01*
X173166380Y-71326476D02*
X173166380Y-71897904D01*
X173166380Y-71612190D02*
X172166380Y-71612190D01*
X172309238Y-71707428D01*
X172404476Y-71802666D01*
X172452095Y-71897904D01*
X185594666Y-64476380D02*
X185594666Y-65190666D01*
X185547047Y-65333523D01*
X185451809Y-65428761D01*
X185308952Y-65476380D01*
X185213714Y-65476380D01*
X185975619Y-64476380D02*
X186594666Y-64476380D01*
X186261333Y-64857333D01*
X186404190Y-64857333D01*
X186499428Y-64904952D01*
X186547047Y-64952571D01*
X186594666Y-65047809D01*
X186594666Y-65285904D01*
X186547047Y-65381142D01*
X186499428Y-65428761D01*
X186404190Y-65476380D01*
X186118476Y-65476380D01*
X186023238Y-65428761D01*
X185975619Y-65381142D01*
X185594666Y-62444380D02*
X185594666Y-63158666D01*
X185547047Y-63301523D01*
X185451809Y-63396761D01*
X185308952Y-63444380D01*
X185213714Y-63444380D01*
X186499428Y-62777714D02*
X186499428Y-63444380D01*
X186261333Y-62396761D02*
X186023238Y-63111047D01*
X186642285Y-63111047D01*
M02*
